<svg width="242" height="818" viewBox="0 0 242 818" fill="none" xmlns="http://www.w3.org/2000/svg">
<path d="M234.72 815.797C229.362 817.484 80.4944 815.556 74.8687 811.859C72.6988 810.492 71.7344 788.766 71.2789 762.486V761.656C71.2789 756.298 71.1182 750.672 71.0914 745.02C71.0914 744.243 71.0914 743.466 71.0914 742.689L78.2441 665.402L177.927 666.393L168.095 742.957L167.961 745.984L167.372 761.843V763.477C167.372 763.477 224.058 789.704 229.817 794.419C235.577 799.134 239.944 814.27 234.72 815.797Z" fill="#FFB2A6"/>
<path d="M234.719 815.797C229.361 817.485 80.4936 815.556 74.8679 811.859C72.698 810.493 71.7336 788.767 71.2782 762.486V761.656C71.2782 756.298 71.1174 750.672 71.0906 745.02C71.0906 744.243 71.0906 743.466 71.0906 742.689L168.175 742.957L168.041 745.984L167.451 761.843V763.478C167.451 763.478 224.137 789.704 229.897 794.419C235.657 799.134 239.943 814.27 234.719 815.797Z" fill="#EBEBEB"/>
<path d="M234.718 815.77C232.039 816.654 191.561 816.547 151.993 815.77C143.956 815.609 136.134 815.448 128.579 815.234C100.37 814.457 77.037 813.305 75.001 811.885C72.9651 810.466 71.8667 789.409 71.438 763.665C71.438 763.29 71.438 762.942 71.438 762.567C71.438 762.192 71.438 762.004 71.438 761.736L167.477 761.897V763.558C167.477 763.558 224.19 789.784 229.923 794.473C235.656 799.161 239.942 814.109 234.718 815.77Z" fill="#C41614"/>
<path d="M233.111 809.983C207.983 809.046 106.639 807.626 81.752 808.59C81.5377 808.59 81.5377 808.724 81.752 808.751C106.612 810.225 207.983 810.841 233.084 810.412C233.62 810.385 233.62 810.01 233.111 809.983Z" fill="#263238"/>
<path d="M178.114 762.245C168.256 760.29 156.147 761.629 148.646 768.594C148.351 768.862 148.646 769.264 149.048 769.184C158.532 766.252 168.303 764.348 178.194 763.504C178.338 763.466 178.465 763.379 178.552 763.259C178.639 763.138 178.681 762.99 178.672 762.842C178.662 762.693 178.602 762.552 178.5 762.443C178.398 762.335 178.262 762.265 178.114 762.245Z" fill="#263238"/>
<path d="M185.185 766.639C175.326 764.683 163.218 766.022 155.583 772.961C155.288 773.256 155.583 773.657 155.985 773.55C165.469 770.627 175.241 768.732 185.131 767.898C185.278 767.874 185.412 767.801 185.51 767.69C185.609 767.58 185.666 767.438 185.673 767.29C185.679 767.142 185.634 766.996 185.545 766.877C185.456 766.759 185.329 766.674 185.185 766.639Z" fill="#263238"/>
<path d="M192.284 771.032C182.426 769.05 170.317 770.416 162.656 777.354C162.361 777.622 162.656 778.051 163.084 777.944C172.559 775.018 182.322 773.123 192.204 772.291C192.352 772.272 192.488 772.202 192.59 772.093C192.692 771.984 192.752 771.843 192.762 771.695C192.771 771.546 192.729 771.399 192.642 771.278C192.555 771.157 192.428 771.07 192.284 771.032Z" fill="#263238"/>
<path d="M151.994 815.743C143.957 815.582 136.135 815.422 128.58 815.207C100.371 814.431 77.0378 813.279 75.0018 811.859C72.9658 810.439 71.8674 789.383 71.4388 763.638C71.4388 763.263 71.4388 762.915 71.4388 762.54C71.4388 762.165 71.4388 761.977 71.4388 761.709C84.5387 770.871 130.911 801.732 151.994 815.743Z" fill="#263238"/>
<path d="M173.959 762.165H66.6417C66.6417 762.165 88.2606 511.552 87.4033 507.159C86.3318 501.56 80.0095 476.19 71.5709 443.052L63.1323 410.021C55.0955 378.865 46.3087 344.789 38.6202 315.134C27.074 270.69 18.0728 236.186 18.0728 236.186H109.156C109.156 236.186 119.872 269.78 133.106 313.5C154.885 384.545 184.005 482.271 186.845 506.114C191.345 544.476 173.959 762.165 173.959 762.165Z" fill="#455A64"/>
<path d="M169.327 743.868C152.932 743.519 157.647 743.386 141.252 743.225C133.215 743.225 80.5205 742.689 73.0195 743.921C72.8588 743.921 72.8588 744.243 73.0195 744.27C80.5205 745.502 133.215 745.046 141.252 744.966C157.647 744.805 152.932 744.671 169.327 744.35C169.514 744.323 169.514 743.868 169.327 743.868Z" fill="#263238"/>
<path d="M107.711 491.862C104.201 476.351 98.9507 461.135 94.3162 445.918C85.0114 414.968 75.653 384.044 66.2411 353.147C61.5441 337.699 56.8292 322.251 52.0964 306.802C49.6854 299.007 47.3012 291.211 44.8366 283.442C42.372 275.673 39.7466 268.279 37.5767 260.591C36.7195 257.456 36.2372 259.171 37.3624 263.27C39.6126 271.306 41.863 279.343 44.1936 287.38C48.8014 303.186 53.4538 318.991 58.1508 334.797C67.4377 366.229 76.8139 397.644 86.2794 429.041L100.504 476.244C102.885 483.739 104.817 491.37 106.291 499.095C107.567 507.173 107.882 515.374 107.229 523.527C106.211 539.948 104.309 556.343 102.782 572.738C101.255 589.133 99.7544 605.555 98.2274 621.977C95.227 654.624 92.2355 687.289 89.253 719.972C88.878 724.097 88.5029 728.25 88.1815 732.402C88.1815 733.768 90.1907 733.661 90.3246 732.402C93.8608 700.094 96.5665 667.679 99.6205 635.345C102.674 603.01 105.648 571.051 108.648 538.77C109.399 530.733 110.256 522.696 110.283 514.472C110.281 506.862 109.419 499.277 107.711 491.862Z" fill="#263238"/>
<path d="M98.7081 236.186C92.3859 285.05 80.3575 376.615 71.5707 443.052C51.0502 362.551 17.9923 236.186 17.9923 236.186H98.7081Z" fill="#263238"/>
<path d="M121.104 817.217C115.907 818.931 -33.0948 817.538 -38.7473 813.868C-40.9172 812.528 -41.962 790.802 -42.4978 764.522V763.692C-42.4978 758.334 -42.712 752.708 -42.7388 747.056C-42.7388 746.279 -42.7388 745.502 -42.7388 744.725C-43.0871 706.792 -40.3547 667.411 -40.3547 667.411L57.0508 668.054L54.1308 744.618V747.645L53.5683 763.504V765.112C53.5683 765.112 110.361 791.177 116.148 795.839C121.934 800.5 126.247 815.529 121.104 817.217Z" fill="#FFB2A6"/>
<path d="M121.104 817.217C115.907 818.931 -33.0947 817.538 -38.7473 813.868C-40.9172 812.529 -41.962 790.802 -42.4978 764.522V763.692C-42.4978 758.334 -42.712 752.708 -42.7388 747.056C-42.7388 746.279 -42.7388 745.502 -42.7388 744.725L54.1308 744.618V747.645L53.5683 763.504V765.112C53.5683 765.112 110.361 791.178 116.148 795.839C121.934 800.5 126.247 815.529 121.104 817.217Z" fill="#EBEBEB"/>
<path d="M121.104 817.217C115.907 818.931 -33.0943 817.538 -38.7468 813.868C-40.9168 812.528 -41.9616 790.802 -42.4974 764.522V763.692L53.6222 763.531V765.138C53.6222 765.138 110.415 791.204 116.202 795.866C121.988 800.527 126.248 815.529 121.104 817.217Z" fill="#C41614"/>
<path d="M119.39 811.43C94.2883 810.573 -7.08196 809.528 -31.9691 810.573C-32.1566 810.573 -32.1566 810.734 -31.9691 810.734C-7.08196 812.127 94.2883 812.368 119.39 811.832C119.926 811.832 119.926 811.591 119.39 811.43Z" fill="#263238"/>
<path d="M64.258 763.906C54.3727 761.951 42.2908 763.37 34.7899 770.336C34.4952 770.603 34.7899 771.005 35.2185 770.925C44.6884 767.953 54.4516 766.013 64.3383 765.138C64.5017 765.128 64.6542 765.053 64.7622 764.93C64.8702 764.806 64.9249 764.646 64.9143 764.482C64.9036 764.319 64.8285 764.166 64.7054 764.058C64.5823 763.95 64.4214 763.895 64.258 763.906Z" fill="#263238"/>
<path d="M71.3307 768.273C61.4723 766.317 49.3636 767.737 41.8626 774.702C41.5679 774.97 41.8626 775.372 42.2644 775.292C51.735 772.322 61.4979 770.382 71.3842 769.505C71.5476 769.498 71.7015 769.426 71.8121 769.306C71.9226 769.185 71.9807 769.025 71.9736 768.862C71.9665 768.699 71.8948 768.545 71.7742 768.434C71.6536 768.324 71.4941 768.266 71.3307 768.273Z" fill="#263238"/>
<path d="M78.4291 772.613C68.5707 770.684 56.4619 772.104 48.961 779.069C48.6663 779.337 48.961 779.738 49.3628 779.658C58.7554 776.706 68.4366 774.766 78.2415 773.872C78.3963 773.873 78.5463 773.818 78.6638 773.717C78.7813 773.616 78.8585 773.477 78.8813 773.323C78.9041 773.17 78.871 773.014 78.7879 772.884C78.7048 772.753 78.5774 772.657 78.4291 772.613Z" fill="#263238"/>
<path d="M106.075 236.186C106.075 236.186 103.986 279.718 94.0201 314.169C93.2164 317.009 92.3591 319.822 91.3411 322.501C82.2223 326.167 73.4533 330.65 65.1412 335.895C65.1412 335.895 64.0965 370.909 63.0517 409.941C61.873 453.607 60.6675 502.283 60.9086 512.597C61.8194 551.227 56.0866 763.665 56.0866 763.665L-51.0703 764.094C-51.0703 764.094 -31.6749 526.875 -31.8088 512.731C-31.9964 489.987 -26.6117 389.5 -22.4326 316.125C-19.7537 270.931 -17.798 236.105 -17.798 236.105L106.075 236.186Z" fill="#455A64"/>
<path d="M52.4975 744.618C36.1025 744.323 40.8173 744.189 24.4223 744.082C16.3856 744.082 -36.3087 743.814 -43.8097 745.1C-43.8523 745.1 -43.8931 745.117 -43.9233 745.147C-43.9534 745.177 -43.9704 745.218 -43.9704 745.261C-43.9704 745.303 -43.9534 745.344 -43.9233 745.375C-43.8931 745.405 -43.8523 745.422 -43.8097 745.422C-36.3087 746.627 16.4124 745.957 24.4223 745.823C40.8173 745.609 36.1025 745.502 52.4975 745.073C52.5448 745.057 52.5857 745.026 52.6147 744.985C52.6437 744.945 52.6593 744.896 52.6593 744.846C52.6593 744.796 52.6437 744.747 52.6147 744.706C52.5857 744.665 52.5448 744.634 52.4975 744.618Z" fill="#263238"/>
<path d="M95.8968 319.929C85.2217 324.379 74.9578 329.757 65.2232 336.002C65.138 336.045 65.0731 336.12 65.043 336.21C65.0128 336.301 65.0198 336.399 65.0624 336.485C65.105 336.57 65.1798 336.635 65.2702 336.665C65.3607 336.695 65.4594 336.688 65.5447 336.645C75.8853 331.609 86.467 326.76 96.513 321.188C96.6799 321.106 96.8076 320.962 96.8679 320.786C96.9282 320.61 96.9161 320.417 96.8344 320.25C96.7527 320.083 96.608 319.956 96.4322 319.895C96.2564 319.835 96.0638 319.847 95.8968 319.929Z" fill="#263238"/>
<path d="M102.351 271.789C101.494 276.396 100.396 280.951 99.4045 285.505C98.4133 290.059 97.7703 294.184 96.7256 298.417C95.7806 302.485 93.6996 306.201 90.7248 309.133C89.0371 310.687 87.1886 312.08 85.367 313.499L82.3398 315.803C82.4737 315.187 82.5809 314.571 82.6881 313.955L83.5721 308.731C84.2418 304.847 84.858 300.962 85.4473 297.078C86.5993 289.443 87.6708 281.727 89.2782 274.173C89.2782 274.109 89.2528 274.048 89.2075 274.002C89.1623 273.957 89.101 273.932 89.0371 273.932C88.9731 273.932 88.9118 273.957 88.8666 274.002C88.8214 274.048 88.796 274.109 88.796 274.173C86.894 281.647 84.8044 289.068 83.1434 296.622C82.3398 300.319 79.4465 318.589 79.3126 319.902C79.1786 321.215 79.0715 322.581 79.018 323.92C78.8304 325.28 78.8304 326.659 79.018 328.019C79.018 328.341 79.5001 328.287 79.6341 328.019C80.1792 326.741 80.5661 325.4 80.786 324.028C81.1383 322.73 81.4244 321.416 81.6432 320.09L81.8843 318.616C83.6792 317.518 85.3402 316.071 87.0279 314.866C88.7156 313.66 90.698 312.187 92.3857 310.821C95.5589 308.141 97.847 304.564 98.9491 300.56C100.067 296.251 100.784 291.848 101.092 287.407C101.682 282.236 102.11 277.013 102.833 271.815C102.833 271.601 102.351 271.467 102.351 271.789Z" fill="#263238"/>
<path d="M176.024 32.0256L163.111 102.026C162.495 104.115 163.62 105.696 165.603 105.562L201.152 103.285C202.232 103.127 203.247 102.669 204.08 101.964C204.914 101.258 205.533 100.333 205.867 99.2933L218.779 29.2663C219.395 27.2036 218.27 25.623 216.288 25.7569L180.739 28.034C179.656 28.1859 178.638 28.6416 177.804 29.348C176.969 30.0544 176.352 30.9828 176.024 32.0256Z" fill="#37474F"/>
<path d="M180.257 31.57L167.318 101.677C166.702 103.74 167.827 105.321 169.81 105.187L205.386 102.91C206.465 102.756 207.478 102.299 208.308 101.593C209.138 100.886 209.75 99.9588 210.074 98.918L222.906 28.8375C223.522 26.748 222.397 25.1942 220.414 25.3014L184.838 27.6052C183.781 27.7724 182.791 28.2323 181.981 28.933C181.172 29.6338 180.574 30.5473 180.257 31.57Z" fill="#455A64"/>
<path d="M190.194 34.0882C190.22 34.6873 190.068 35.2806 189.756 35.793C189.445 36.3053 188.988 36.7136 188.444 36.966C187.9 37.2185 187.293 37.3037 186.701 37.2108C186.109 37.118 185.557 36.8513 185.116 36.4445C184.676 36.0378 184.366 35.5093 184.226 34.9262C184.086 34.3431 184.123 33.7316 184.331 33.1692C184.539 32.6069 184.909 32.119 185.395 31.7675C185.881 31.416 186.46 31.2168 187.06 31.195C187.456 31.177 187.852 31.2378 188.224 31.3739C188.597 31.5099 188.939 31.7185 189.23 31.9876C189.522 32.2566 189.757 32.5808 189.923 32.9414C190.088 33.302 190.18 33.6918 190.194 34.0882Z" fill="#263238"/>
<path d="M68.1156 143.576C90.6185 185.34 138.919 238.517 157.618 237.713C166.512 237.338 182.532 238.597 193.65 227.721C217.894 204.012 236.834 160.158 239.807 135.485C240.879 126.725 197.561 110.223 191.721 117.644C178.032 135.03 162.815 168.543 160.217 168.543C150.626 168.329 111.46 139.236 84.1087 118.742C50.9169 93.6406 59.1412 126.94 68.1156 143.576Z" fill="#FFB2A6"/>
<path d="M238.389 90.5332C233.031 73.147 228.852 69.5037 232.067 52.3854C234.156 41.1607 227.888 34.9992 220.521 44.3486C208.465 59.6185 210.796 83.5412 213.984 91.5779L238.389 90.5332Z" fill="#FFB2A6"/>
<path d="M238.174 143.174C238.174 143.174 244.684 118.153 240.719 99.0522C238.04 85.8451 228.771 57.7432 190.65 44.7773C181.595 41.6965 166.54 43.7325 179.479 54.1267C188.667 61.4937 196.731 63.3958 201.312 68.6732C201.312 68.6732 182.425 73.5221 179.693 82.7108C177.329 90.7443 175.538 98.9356 174.335 107.223C175.805 107.789 177.308 108.263 178.836 108.643C178.836 108.643 176.532 117.322 183.524 129.056L238.174 143.174Z" fill="#FFB2A6"/>
<path d="M236.084 86.8629C230.432 82.5766 218.323 73.7362 205.92 69.9321C192.123 65.7262 164.396 61.306 161.396 71.5395C159.199 79.0136 169.62 81.639 169.62 81.639C169.62 81.639 157.779 82.2283 157.27 89.4346C156.815 95.998 165.013 97.4714 165.013 97.4714C165.013 97.4714 157.887 99.0787 158.663 105.508C159.574 113.223 174.335 108.616 182.024 115.608C183.738 117.215 236.084 86.8629 236.084 86.8629Z" fill="#FFB2A6"/>
<path d="M203.882 85.2558C193.183 80.5576 181.309 79.2217 169.833 81.425C169.539 81.425 169.458 81.7464 169.833 81.7464C181.315 81.5763 192.775 82.7996 203.963 85.3898C203.963 85.3898 203.963 85.2826 203.882 85.2558Z" fill="#263238"/>
<path d="M199.223 98.9983C188.188 95.341 176.371 94.721 165.014 97.2035C164.719 97.2035 164.639 97.5517 165.014 97.5249C176.468 96.7656 187.971 97.3048 199.304 99.1323C199.304 99.1323 199.304 98.9983 199.223 98.9983Z" fill="#263238"/>
<path d="M241.201 153.354C241.201 153.354 210.287 223.649 190.597 232.677C170.907 241.705 158.771 240.713 151.216 239.883C148.328 239.343 145.588 238.192 143.18 236.507C122.097 223.113 82.9576 173.874 66.6162 145.853C54.3735 124.823 54.5343 105.133 71.6526 110.545C77.4716 112.647 82.9028 115.698 87.7261 119.573C119.873 143.683 157.137 166.4 158.798 165.409C160.459 164.418 176.639 135.378 176.639 135.378L241.201 153.354Z" fill="#C41614"/>
<path d="M161.45 180.143C161.1 183.305 161.561 186.504 162.789 189.439C163.004 187.865 163.004 186.27 162.789 184.697C162.567 183.122 162.116 181.587 161.45 180.143Z" fill="white"/>
<path d="M201.794 197.529C201.579 199.102 201.579 200.697 201.794 202.271C202.002 203.843 202.435 205.376 203.08 206.825C203.294 205.252 203.294 203.656 203.08 202.083C202.862 200.513 202.429 198.981 201.794 197.529Z" fill="white"/>
<path d="M130.667 214.487C130.453 216.06 130.453 217.655 130.667 219.228C130.872 220.801 131.305 222.335 131.953 223.783C132.337 220.62 131.875 217.412 130.614 214.487H130.667Z" fill="white"/>
<path d="M111.14 145.424C110.926 146.998 110.926 148.593 111.14 150.166C111.345 151.738 111.779 153.273 112.426 154.72C112.641 153.147 112.641 151.552 112.426 149.978C112.218 148.407 111.785 146.873 111.14 145.424Z" fill="white"/>
<path d="M104.845 173.74C108.007 174.089 111.206 173.629 114.141 172.401C112.568 172.186 110.973 172.186 109.399 172.401C107.825 172.626 106.291 173.077 104.845 173.74Z" fill="white"/>
<path d="M187.166 182.045C188.74 182.26 190.335 182.26 191.908 182.045C193.487 181.846 195.03 181.422 196.489 180.786C194.918 180.544 193.319 180.544 191.747 180.786C190.168 180.985 188.625 181.409 187.166 182.045Z" fill="white"/>
<path d="M145.215 206.584C146.786 206.826 148.385 206.826 149.957 206.584C151.528 206.388 153.062 205.964 154.511 205.325C151.351 204.95 148.148 205.402 145.215 206.637V206.584Z" fill="white"/>
<path d="M224.885 157.667C226.457 157.895 228.055 157.895 229.627 157.667C231.206 157.467 232.749 157.043 234.208 156.407C232.635 156.193 231.039 156.193 229.466 156.407C227.887 156.607 226.344 157.031 224.885 157.667Z" fill="white"/>
<path d="M184.139 229.623C187.308 229.996 190.519 229.544 193.462 228.31C191.891 228.068 190.292 228.068 188.72 228.31C187.138 228.526 185.596 228.968 184.139 229.623Z" fill="white"/>
<path d="M63.134 112.848C61.8361 113.423 60.4664 113.82 59.0621 114.027C59.2701 113.584 59.5214 113.162 59.8122 112.768C60.9182 112.648 62.0352 112.675 63.134 112.848Z" fill="white"/>
<path d="M141.385 162.864C140.135 163.841 139.026 164.986 138.09 166.266C137.114 167.519 136.328 168.909 135.759 170.392C137.022 169.429 138.133 168.282 139.055 166.99C140.042 165.745 140.829 164.352 141.385 162.864Z" fill="white"/>
<path d="M180.041 202.164C178.783 203.14 177.665 204.285 176.719 205.566C175.751 206.824 174.966 208.213 174.388 209.691C175.658 208.728 176.778 207.582 177.71 206.289C178.679 205.031 179.463 203.642 180.041 202.164Z" fill="white"/>
<path d="M202.09 150.085C200.833 151.052 199.715 152.188 198.768 153.461C197.8 154.719 197.015 156.108 196.437 157.586C197.707 156.623 198.827 155.477 199.759 154.184C200.722 152.932 201.506 151.553 202.09 150.085Z" fill="white"/>
<path d="M116.953 197.261C115.703 198.238 114.594 199.383 113.658 200.663C112.682 201.916 111.896 203.306 111.328 204.789C113.816 202.802 115.753 200.21 116.953 197.261Z" fill="white"/>
<path d="M87.8326 131.146C86.5688 132.105 85.45 133.242 84.5108 134.521C83.5426 135.779 82.7579 137.168 82.1802 138.646C83.4376 137.68 84.5554 136.544 85.502 135.271C86.4591 134.006 87.2429 132.618 87.8326 131.146Z" fill="white"/>
<path d="M85.9313 163.48C83.9734 160.967 81.3856 159.017 78.4304 157.828C79.39 159.091 80.5268 160.21 81.8058 161.149C83.071 162.107 84.4585 162.89 85.9313 163.48Z" fill="white"/>
<path d="M222.715 178.964C221.752 177.694 220.606 176.575 219.313 175.642C218.055 174.674 216.666 173.889 215.188 173.312C217.163 175.818 219.757 177.767 222.715 178.964Z" fill="white"/>
<path d="M180.629 166.293C179.669 165.037 178.532 163.928 177.254 162.998C176.001 162.021 174.611 161.236 173.128 160.667C174.096 161.916 175.232 163.025 176.504 163.962C177.759 164.935 179.149 165.72 180.629 166.293Z" fill="white"/>
<path d="M134.285 192.252C133.325 190.996 132.188 189.886 130.909 188.957C129.657 187.98 128.267 187.195 126.784 186.626C127.751 187.875 128.887 188.984 130.159 189.921C131.421 190.884 132.809 191.668 134.285 192.252Z" fill="white"/>
<path d="M162.173 230.962C161.197 229.712 160.052 228.603 158.771 227.667C157.526 226.679 156.134 225.893 154.645 225.336C155.615 226.592 156.761 227.702 158.048 228.631C159.3 229.608 160.69 230.393 162.173 230.962Z" fill="white"/>
<path opacity="0.1" d="M143.073 236.507C121.99 223.113 82.8509 173.874 66.5095 145.853C54.2669 124.823 54.4276 105.133 71.5459 110.545C80.9221 127.074 122.553 199.458 143.073 236.507Z" fill="black"/>
<path d="M233.325 166.293C230.967 165.141 208.759 157.881 203.857 156.408C198.954 154.934 179.238 148.719 174.094 147.621C174.059 147.635 174.029 147.659 174.008 147.69C173.987 147.721 173.976 147.757 173.976 147.795C173.976 147.832 173.987 147.869 174.008 147.9C174.029 147.931 174.059 147.955 174.094 147.969C178.916 150.005 198.847 156.327 203.776 157.935C208.706 159.542 230.78 166.239 233.244 166.641C233.459 166.668 233.486 166.373 233.325 166.293Z" fill="#263238"/>
<path d="M126.462 289.416C124.319 292.095 -26.8256 301.525 -27.656 300.614C-29.9331 298.203 5.34833 132.137 37.6561 102.776C44.5945 96.4804 65.7579 101.41 71.5979 106.044C75.2681 108.964 84.7782 128.922 91.4487 145.558C104.736 178.884 128.364 287.059 126.462 289.416Z" fill="#263238"/>
<path d="M67.7137 99.6414C74.1967 103.392 81.403 125.707 68.1423 130.369C54.8817 135.03 39.7458 114.992 37.0937 108.241C34.4415 101.49 53.7565 91.5779 67.7137 99.6414Z" fill="#C41614"/>
<path d="M66.803 127.368C58.4715 129.431 44.0321 116.813 38.2457 106.553C37.8706 105.83 38.8618 98.3557 39.6655 89.2206C40.1209 83.6752 40.5227 77.4869 40.4691 71.8076L76.1255 80.0855C74.1675 87.2041 73.0968 94.5374 72.9376 101.919C72.9433 102.694 73.0331 103.467 73.2055 104.223C73.1955 104.356 73.1955 104.491 73.2055 104.624C74.0092 109.045 74.8397 125.359 66.803 127.368Z" fill="#FFB2A6"/>
<path d="M42.1577 72.2092C43.3365 79.3084 48.9889 104.624 69.5898 104.892C70.8174 104.899 72.0439 104.818 73.26 104.651C73.2777 104.518 73.2777 104.382 73.26 104.249C73.1002 103.491 73.0105 102.72 72.9921 101.945C73.1859 94.5632 74.2743 87.2319 76.2336 80.112L42.1577 72.2092Z" fill="#263238"/>
<path d="M38.6742 27.5251C33.9861 39.8481 38.2188 76.6832 46.7109 85.3897C58.9 98.0074 80.0902 100.552 91.1274 85.604C101.843 71.1378 95.4672 23.2388 85.9571 15.202C71.866 3.3612 45.5858 9.28162 38.6742 27.5251Z" fill="#FFB2A6"/>
<path d="M71.9741 52.0906C71.9741 52.0906 71.7866 52.0906 71.8134 52.3317C72.1617 54.7963 72.1617 57.6895 69.9917 58.7611C69.9917 58.7611 69.9917 58.9218 69.9917 58.895C72.7242 58.2253 72.6974 54.3944 71.9741 52.0906Z" fill="#263238"/>
<path d="M69.4825 49.7332C65.4641 49.894 66.0266 57.9307 69.7503 57.77C73.474 57.6093 72.8847 49.6261 69.4825 49.7332Z" fill="#263238"/>
<path d="M85.9307 51.1797C85.9307 51.1797 86.1183 51.1797 86.1451 51.394C86.1451 53.8854 86.7612 56.7519 89.0651 57.3948V57.5555C86.279 57.3412 85.6092 53.4568 85.9307 51.1797Z" fill="#263238"/>
<path d="M87.9675 48.4204C91.9591 47.8578 92.8164 55.8678 89.1463 56.4571C85.4761 57.0465 84.6189 48.9294 87.9675 48.4204Z" fill="#263238"/>
<path d="M66.0526 46.3041C67.1241 45.929 68.0617 45.4468 69.0797 44.9914C70.2158 44.6702 71.2142 43.9827 71.9194 43.0358C72.0842 42.6991 72.1341 42.3178 72.0615 41.9501C71.9889 41.5824 71.7978 41.2486 71.5175 40.9998C70.8659 40.6236 70.1268 40.4255 69.3744 40.4255C68.622 40.4255 67.8829 40.6236 67.2313 40.9998C65.7775 41.526 64.5734 42.5772 63.8558 43.9466C63.7468 44.2597 63.7252 44.5966 63.7935 44.921C63.8618 45.2455 64.0173 45.5451 64.2433 45.7877C64.4694 46.0302 64.7573 46.2065 65.0761 46.2975C65.3949 46.3885 65.7326 46.3908 66.0526 46.3041Z" fill="#263238"/>
<path d="M90.859 45.9561C89.7693 45.814 88.6875 45.6173 87.6175 45.3667C86.4385 45.3035 85.3111 44.862 84.4028 44.1076C84.1725 43.808 84.0477 43.4407 84.0477 43.0628C84.0477 42.685 84.1725 42.3177 84.4028 42.0181C84.9326 41.4881 85.5944 41.1094 86.3198 40.921C87.0451 40.7326 87.8076 40.7414 88.5283 40.9465C90.0638 41.1257 91.4774 41.8707 92.4932 43.0361C92.7097 43.3186 92.8387 43.6584 92.8643 44.0134C92.8898 44.3684 92.8108 44.7232 92.637 45.0338C92.4631 45.3444 92.202 45.5973 91.8861 45.7612C91.5701 45.9251 91.213 45.9929 90.859 45.9561Z" fill="#263238"/>
<path d="M69.4553 75.531C70.0983 76.0668 70.7412 76.8168 71.6521 76.8436C72.5894 76.7553 73.4999 76.4822 74.331 76.0399C74.0103 76.5529 73.5576 76.9702 73.0203 77.2483C72.4831 77.5264 71.881 77.6549 71.277 77.6205C70.7608 77.5222 70.285 77.2741 69.9087 76.9073C69.5324 76.5406 69.2722 76.0712 69.1606 75.5578C69.1606 75.5042 69.3482 75.4506 69.4553 75.531Z" fill="#263238"/>
<path d="M71.5454 67.8961C72.2491 68.8336 73.1375 69.6168 74.1558 70.1974C75.1741 70.778 76.3007 71.1435 77.4658 71.2715C78.4794 71.4051 79.5062 71.4051 80.5198 71.2715H81.1092L81.6449 71.1376C81.7771 71.1068 81.8946 71.0313 81.9776 70.9239C82.0606 70.8166 82.1039 70.6839 82.1004 70.5482C82.1134 70.4684 82.1134 70.3869 82.1004 70.3071V70.0928C82.1004 68.164 81.6182 65.2707 81.6182 65.2707C82.3415 65.5654 86.0384 66.9317 85.9044 65.9405C85.0752 57.3066 83.3697 48.7794 80.8145 40.4907C80.798 40.4434 80.7673 40.4025 80.7265 40.3735C80.6857 40.3445 80.6369 40.3289 80.5868 40.3289C80.5367 40.3289 80.4879 40.3445 80.4471 40.3735C80.4063 40.4025 80.3756 40.4434 80.3591 40.4907C81.0824 48.5275 83.1988 56.2695 84.056 64.2795C82.7465 63.7569 81.3638 63.4407 79.9573 63.3419C79.6894 63.3419 80.8145 68.9409 80.7877 69.7981C79.2282 70.0688 77.6301 70.0233 76.0884 69.6643C74.5468 69.3054 73.093 68.6403 71.8134 67.7086C71.5723 67.521 71.3847 67.7085 71.5454 67.8961Z" fill="#263238"/>
<path d="M79.0718 70.7628C78.0093 72.1061 76.6151 73.1494 75.0266 73.7899C74.1544 74.0618 73.22 74.0618 72.3477 73.7899C70.3921 73.2541 70.3654 71.4325 70.7404 69.8787C70.9613 69.0595 71.2759 68.2684 71.678 67.5212C73.7348 69.361 76.3251 70.4966 79.0718 70.7628Z" fill="#263238"/>
<path d="M75.0272 73.7899C74.155 74.0618 73.2206 74.0618 72.3483 73.7899C70.3927 73.2541 70.366 71.4324 70.741 69.8787C71.7924 69.9501 72.7885 70.3757 73.5669 71.086C74.3454 71.7963 74.8601 72.7494 75.0272 73.7899Z" fill="#F392B9"/>
<path d="M46.8738 56.6447C46.8738 56.6447 39.2121 44.4824 33.7203 47.1613C28.2286 49.8403 33.7203 67.2264 39.8014 69.8518C40.5666 70.2453 41.4035 70.48 42.2617 70.5415C43.1199 70.6031 43.9817 70.4903 44.7952 70.21C45.6086 69.9297 46.3569 69.4875 46.995 68.9103C47.6331 68.3331 48.1477 67.6328 48.5079 66.8514L46.8738 56.6447Z" fill="#FFB2A6"/>
<path d="M35.3786 52.1174C35.3786 52.1174 35.3786 52.1174 35.3786 52.2782C37.3485 53.3758 39.0655 54.8757 40.4178 56.6803C41.7701 58.4849 42.7275 60.5539 43.2278 62.7527C42.9984 62.3026 42.6744 61.9073 42.2781 61.5939C41.8818 61.2805 41.4225 61.0564 40.9316 60.9368C40.4407 60.8173 39.9297 60.8051 39.4337 60.9012C38.9377 60.9973 38.4683 61.1994 38.0575 61.4936C38.0575 61.4936 38.0575 61.7615 38.0575 61.7347C38.8411 61.5232 39.6708 61.559 40.4333 61.8371C41.1958 62.1153 41.8537 62.6222 42.317 63.2885C43.0813 64.4114 43.7192 65.6152 44.219 66.8783C44.4065 67.3069 45.1299 67.1194 44.9959 66.6639C45.371 61.0114 41.3794 52.9479 35.3786 52.1174Z" fill="#263238"/>
<path d="M90.2441 31.2754C78.2158 38.9104 62.5977 26.1587 62.5977 26.1587C61.4972 28.7135 59.5948 30.8404 57.1782 32.2179C54.7615 33.5954 51.962 34.1486 49.2031 33.7936C49.2031 33.7936 46.2026 53.5908 40.9519 53.3765C32.9152 53.055 31.4686 25.8372 34.1743 20.6133C35.2354 18.9478 36.6312 17.521 38.2729 16.4234C39.9147 15.3259 41.7666 14.5815 43.7112 14.2375C44.5714 11.0378 46.6098 8.28166 49.4173 6.52221C55.0163 2.55741 73.5276 8.82608 73.5276 8.82608C74.6958 6.35051 76.4303 4.18469 78.5908 2.50383C79.1072 2.08303 79.7035 1.77127 80.3438 1.58737C80.984 1.40347 81.6549 1.35125 82.3159 1.43387C82.9769 1.5165 83.6144 1.73228 84.1897 2.06812C84.7649 2.40396 85.2662 2.85291 85.6631 3.38788C84.6089 4.82536 83.8945 6.48322 83.5736 8.23672C82.4216 14.0232 87.1902 14.1839 87.3241 8.90645C87.4446 6.92791 86.8556 4.97125 85.6631 3.38788C88.1277 0.0392311 92.0122 -0.951953 94.2625 0.976869C98.6023 4.48625 100.263 24.9264 90.2441 31.2754Z" fill="#263238"/>
<path d="M23.8054 116.197C-21.4684 163.319 -87.477 282.638 -95.6209 299.757C-101.166 311.383 -40.4352 342.003 -37.8634 333.538C-34.5683 322.822 18.394 189.171 32.3779 138.781C40.1468 111 33.1548 106.446 23.8054 116.197Z" fill="#FFB2A6"/>
<path d="M31.8181 151.853C21.1024 198.038 -30.2525 324.376 -30.2525 324.376L-76.3834 302.141L-99.6365 290.916C-99.6365 290.916 -20.4208 167.15 11.9405 126.672C14.4587 123.564 16.7358 120.885 18.8253 118.635C38.8904 97.2035 40.1228 116.224 31.8181 151.853Z" fill="#C41614"/>
<path d="M4.65252 219.55C4.43798 221.123 4.43798 222.718 4.65252 224.292C4.85159 225.862 5.27555 227.396 5.91153 228.846C6.15286 227.274 6.15286 225.675 5.91153 224.104C5.7158 222.533 5.29171 220.999 4.65252 219.55Z" fill="white"/>
<path d="M8.58973 134.762C10.162 134.99 11.7591 134.99 13.3315 134.762C14.9027 134.566 16.4368 134.142 17.8855 133.503C16.3212 133.289 14.7351 133.289 13.1707 133.503C11.5917 133.703 10.0491 134.127 8.58973 134.762Z" fill="white"/>
<path d="M9.04507 180.786C12.2071 181.135 15.4062 180.674 18.341 179.446C16.7677 179.232 15.1725 179.232 13.5993 179.446C12.0247 179.672 10.4909 180.123 9.04507 180.786Z" fill="white"/>
<path d="M1.94763 201.039C0.698543 202.006 -0.410483 203.142 -1.34755 204.414C-2.31428 205.673 -3.09886 207.062 -3.6782 208.54C-2.42262 207.579 -1.31263 206.442 -0.383014 205.164C0.599172 203.915 1.38509 202.524 1.94763 201.039Z" fill="white"/>
<path d="M23.9421 148.934C22.6858 149.903 21.5761 151.049 20.6471 152.336C19.6706 153.588 18.8852 154.979 18.3164 156.461C19.5727 155.492 20.6824 154.346 21.6114 153.059C22.599 151.814 23.3854 150.422 23.9421 148.934Z" fill="white"/>
<path d="M2.4812 165.168C1.52162 163.904 0.384908 162.785 -0.894099 161.846C-2.15204 160.878 -3.54118 160.093 -5.01974 159.515C-4.05662 160.785 -2.90995 161.905 -1.61746 162.837C-0.365256 163.799 1.01399 164.584 2.4812 165.168Z" fill="white"/>
<path d="M34.3074 126.725C33.3479 125.461 32.211 124.343 30.932 123.403C29.6703 122.441 28.2821 121.657 26.8064 121.073C27.766 122.337 28.9029 123.455 30.1819 124.395C31.4471 125.352 32.8346 126.136 34.3074 126.725Z" fill="white"/>
</svg>
