<svg width="340" height="449" viewBox="0 0 340 449" fill="none" xmlns="http://www.w3.org/2000/svg">
<path d="M215.244 175.345C275.678 238.336 350.927 370.065 336.136 396.346C319.656 425.578 235.532 337.297 235.903 332.22C236.203 328.385 207.339 248.598 185.398 190.624C163.457 132.65 200.297 159.767 215.244 175.345Z" fill="#FFB4AB"/>
<path d="M235.329 332.244C232.838 323.726 193.519 218.554 182.321 185.308C171.123 152.062 182.117 141.991 215.065 172.788C248.013 203.585 319.705 305.855 335.586 359.803C350.892 411.768 324.196 411.362 289.332 386.992C260.78 367.031 235.329 332.244 235.329 332.244Z" fill="#FFE8E8"/>
<path d="M179.673 159.17C179.446 159.086 179.218 159.003 178.979 158.895C179.072 158.6 179.197 158.316 179.35 158.047C179.805 158.226 180.272 158.393 180.739 158.549C184.512 159.743 189.123 160.137 192.44 157.545C192.815 157.253 193.16 156.925 193.47 156.566L194.38 157.02C191.003 161.057 184.512 160.938 179.673 159.17ZM205.722 164.665L204.8 163.936C204.273 164.191 203.746 164.43 203.219 164.653C195.674 167.962 186.356 171.295 179.829 176.886L180.116 178.08C183.584 175.097 187.474 172.641 191.662 170.793C196.273 168.571 201.135 166.815 205.722 164.665ZM214.106 187.076C216.33 184.238 218.799 181.6 221.484 179.191C221.244 178.928 220.993 178.678 220.753 178.427C213.866 184.4 208.932 193.527 202.381 199.32C198.778 202.654 194.449 205.108 189.734 206.488C189.841 206.799 189.949 207.109 190.069 207.42C193.336 206.488 196.418 205.005 199.183 203.036C205.375 198.843 209.519 192.81 214.118 187.028L214.106 187.076ZM248.132 210.729C238.167 224.216 220.094 227.453 204.237 229.842C202.321 230.129 200.405 230.44 198.488 230.822C198.62 231.168 198.74 231.527 198.872 231.885C205.567 230.523 212.453 229.95 219.112 228.433C230.215 225.9 241.868 220.656 248.826 211.625L248.132 210.729ZM261.701 326.999C254.851 325.291 248.623 327.561 242.598 330.738C240.622 331.79 238.622 332.901 236.61 333.94L237.293 334.824C245.413 330.655 253.234 325.458 262.587 328.493C265.641 329.484 268.576 331.431 269.773 334.466C271.33 338.42 269.582 342.541 266.815 345.468C262.947 349.542 257.665 351.166 252.551 353.09L253.437 354.081L257.857 352.361C263.953 349.972 271.115 345.528 271.558 338.217C271.881 332.327 267.067 328.325 261.713 326.999H261.701ZM237.868 254.129C242.658 247.331 247.15 240.271 251.976 233.462C254.06 230.511 256.252 227.489 258.647 224.658L257.964 223.738C256.683 225.243 255.473 226.784 254.3 228.337C249.437 234.776 245.078 241.573 240.55 248.239C233.724 258.286 225.711 269.599 215.196 276.563C215.328 276.934 215.459 277.292 215.603 277.662C224.609 271.701 231.855 262.563 237.88 254.117L237.868 254.129ZM240.263 272.048C239.891 274.965 240.319 277.928 241.5 280.622C242.68 283.317 244.571 285.642 246.97 287.351C252.551 291.173 258.791 288.82 262.755 283.922C265.15 281.031 266.791 277.71 268.887 274.652C271.311 271.055 274.318 267.886 277.786 265.274C279.823 263.77 282.065 262.563 284.445 261.691L283.762 260.651C282.279 261.215 280.852 261.915 279.498 262.742C272.732 266.851 268.612 273.195 264.468 279.705C262.336 283.026 259.773 286.562 255.833 287.816C254.151 288.285 252.375 288.295 250.689 287.843C249.003 287.391 247.47 286.494 246.251 285.248C240.503 279.896 240.131 271.665 244.467 265.37C249.042 258.704 256.958 255.12 264.444 252.731C268.276 251.536 272.229 250.509 276.097 249.279L275.438 248.311C267.654 250.808 259.354 252.552 252.683 256.494C246.946 259.899 241.377 265.203 240.323 272.072L240.263 272.048ZM303.739 292.726C300.501 296.623 296.66 299.978 292.361 302.665C285.345 307.312 277.276 310.137 268.887 310.884C260.588 311.633 252.319 309.165 245.796 303.991C240.107 299.428 235.017 293.766 227.472 292.523C225.334 292.169 223.155 292.125 221.005 292.392C221.16 292.81 221.304 293.216 221.46 293.586C224.421 293.258 227.419 293.568 230.251 294.494C234.227 295.82 237.508 298.532 240.622 301.22C243.516 303.943 246.697 306.346 250.108 308.387C253.463 310.18 257.114 311.358 260.887 311.864C268.415 312.778 276.052 311.749 283.067 308.877C290.649 305.891 298.925 300.754 304.434 293.945L303.739 292.726ZM303.799 395.928C304.913 396.525 306.015 397.122 307.093 397.6C310.788 398.437 314.34 399.814 317.632 401.686C319.021 402.074 320.433 402.378 321.86 402.594C318.216 400.32 314.312 398.491 310.23 397.146C308.138 396.528 305.986 396.128 303.811 395.952L303.799 395.928ZM309.787 303.31L309.26 302.379C299.152 304.541 289.715 311.756 285.954 320.943C282.984 328.194 284.756 335.278 287.894 342.159C289.867 346.006 291.599 349.972 293.08 354.033C294.261 357.768 294.917 361.647 295.032 365.561C295.295 373.113 293.365 380.58 289.475 387.064L290.409 387.709C293.407 382.798 295.28 377.287 295.894 371.57C296.698 364.327 295.664 356.999 292.888 350.258C289.619 342.326 284.062 334.513 285.702 325.506C287.81 314.731 298.505 305.688 309.835 303.334L309.787 303.31ZM336.208 362.121C332.938 363.17 329.584 363.941 326.183 364.426C322.111 364.928 317.201 364.749 314.806 360.842C313.081 358.023 313.392 354.404 314.327 351.369C316.375 344.751 321.74 340.952 326.806 336.759C326.674 336.425 326.519 336.09 326.363 335.756C323.812 337.846 321.129 339.817 318.83 342.016C314.71 345.958 311.644 352.217 312.614 358.023C313.812 365.31 321.237 366.326 327.405 365.37C330.473 364.805 333.498 364.03 336.459 363.052C336.471 362.79 336.352 362.467 336.256 362.145L336.208 362.121Z" fill="white"/>
<path opacity="0.1" d="M289.332 386.992C260.78 367.042 235.329 332.244 235.329 332.244C232.85 323.726 193.507 218.553 182.321 185.308C178.189 173.015 177.075 163.9 178.991 158.847L289.332 386.992Z" fill="black"/>
<path d="M233.389 408.291H0C0 408.291 47.7389 223.163 126.605 146.555C137.18 136.276 178.368 138.009 187.866 153.486C223.448 211.535 234.035 407.466 233.389 408.291Z" fill="#FFE8E8"/>
<path d="M203.711 303.836C194.537 316.833 204.513 334.537 219.137 337.596C222.14 338.206 225.246 338.104 228.203 337.297L228.311 338.491C225.581 339.234 222.726 339.405 219.927 338.993C206.92 336.974 195.974 323.153 199.459 309.988C202.142 299.727 212.633 292.583 223.029 292.26C223.029 292.69 223.137 293.109 223.197 293.539C222.303 293.55 221.41 293.622 220.526 293.754C217.189 294.225 213.981 295.36 211.092 297.092C208.203 298.824 205.693 301.117 203.711 303.836ZM10.0245 374.58L9.66516 374.282C9.53341 374.676 9.41365 375.07 9.29388 375.476C18.4081 382.99 20.2884 396.525 23.2107 407.527H24.4084C21.2945 396 19.5938 382.704 10.0245 374.58ZM49.0324 307.683C56.1585 307.229 63.4043 304.852 67.7399 298.89C71.0933 294.291 72.8419 287.816 70.3628 282.441C67.4884 276.217 60.4701 274.568 54.1943 274.724C51.4756 274.783 48.7929 275.046 46.1221 275.345L45.619 276.539C49.9727 275.823 54.4013 275.674 58.7933 276.097C62.6498 276.623 66.4464 278.307 68.6022 281.676C69.4582 283.137 70.0154 284.753 70.2416 286.431C70.4677 288.108 70.3583 289.813 69.9196 291.448C68.0992 299.273 61.7037 304.206 54.0865 305.855C47.3437 307.312 40.4811 306.524 33.7262 305.556L33.2951 306.643C38.4938 307.505 43.7651 307.854 49.0324 307.683ZM59.0808 394.757C52.278 393.563 41.3553 400.037 37.6905 391.173C34.9359 384.531 38.8882 377.113 43.1039 372.12C48.2419 366.063 54.877 361.535 61.4282 357.127C73.5246 348.968 102.831 323.989 88.8427 313.405C75.8002 303.549 59.0448 332.303 49.236 341.323C40.5649 349.279 27.8697 356.482 15.4619 356.303L15.1026 357.366C27.6421 357.581 40.0379 350.461 49.3557 342.756C61.6198 332.626 73.7042 306.285 87.8726 314.361C99.6337 321.062 77.7045 344.56 65.5601 352.91C59.4401 357.127 53.0805 361.081 47.4994 366.051C42.565 370.423 37.7264 375.823 36.2293 382.417C35.1275 387.291 35.6904 393.551 40.6607 396.107C43.8225 397.744 47.4035 397.123 50.745 396.489C54.9488 395.677 58.8892 395.187 62.7935 397.302C64.7424 398.373 66.4496 399.833 67.8094 401.59C69.1692 403.347 70.1524 405.364 70.6981 407.516H71.9796C71.9796 407.516 71.9796 407.516 71.9796 407.456C70.3388 401.399 65.3565 395.928 59.0448 394.769L59.0808 394.757ZM144.462 247.308C141.515 245.613 138.14 244.8 134.742 244.968C131.343 245.135 128.065 246.275 125.3 248.251C119.311 252.48 115.634 259.313 112.82 265.907C109.682 273.278 106.832 281.437 100.724 286.897C97.418 289.871 92.2082 292.475 88.1481 289.286C85.5012 287.207 84.5551 283.54 84.3994 280.302C84.1718 273.374 88.3157 266.827 92.4597 261.595C96.7473 256.16 101.754 251.345 106.077 245.934C110.089 240.916 113.61 235.182 114.557 228.731C115.024 225.542 114.557 222.089 111.934 219.951C109.669 218.35 106.871 217.683 104.125 218.088C97.3222 218.745 91.5135 223.678 87.4175 228.839C85.1334 231.764 83.1286 234.895 81.4292 238.193C79.5728 241.717 78.1955 245.48 76.3152 248.944C74.1354 253.006 70.3867 254.977 65.8596 253.591C62.8823 252.61 60.3001 250.7 58.4939 248.144C58.3262 248.49 58.1586 248.837 58.0029 249.183C61.3324 253.257 66.3147 256.434 71.6203 254.714C74.9857 253.615 76.7942 250.581 78.1835 247.546C79.7884 243.963 81.3453 240.462 83.2376 237.07C87.0342 230.249 92.3159 223.26 99.8133 220.238C102.963 218.972 106.999 218.458 110.125 220.094C114.473 222.376 113.922 227.704 112.784 231.73C108.975 245.074 96.388 253.508 88.8307 264.605C85.3815 269.694 82.5191 275.835 83.3335 282.13C84.076 287.793 88.1241 293.061 94.4119 291.687C101.801 290.086 106.616 282.309 109.622 276.026C113.048 268.858 115.347 261.201 120.222 254.845C125.096 248.49 132.581 244.237 140.69 246.997C149.373 249.948 154.343 258.501 154.666 267.305C155.265 283.396 143.887 296.716 132.294 306.428C121.132 315.758 108.52 323.356 98.1965 333.689C86.7587 345.186 79.3165 360.036 76.9619 376.062C75.5127 385.893 75.5247 397.72 79.5129 407.48H81.022C79.8413 404.588 78.9663 401.581 78.4111 398.508C75.345 382.094 79.0818 364.319 87.3217 349.924C95.2622 336.054 107.742 326.557 120.377 317.204C131.492 308.973 143.133 300.396 150.163 288.199C157.684 275.333 159.469 255.658 144.426 247.319L144.462 247.308ZM183.35 323.272C183.223 319.623 182.244 316.053 180.491 312.847C178.739 309.642 176.261 306.887 173.254 304.804C170.53 302.937 167.313 301.915 164.008 301.866C160.703 301.817 157.457 302.743 154.678 304.529C148.918 308.208 145.193 314.719 143.768 321.253C141.696 330.75 143.42 340.498 143.612 350.079C143.93 368.448 138.954 386.521 129.276 402.152C128.138 403.98 126.881 405.736 125.587 407.504H127.216C131.114 402.19 134.363 396.431 136.893 390.349C140.398 382.239 142.779 373.691 143.971 364.94C145.229 355.718 144.642 346.674 144.151 337.464C143.684 328.6 143.971 319.318 149.157 311.744C153.72 305.078 161.697 300.993 169.613 304.314C177.53 307.635 181.973 316.045 182.141 324.407C182.62 341.693 170.164 356.207 161.625 370.125C157.553 376.743 153.9 383.743 152.187 391.365C151.001 396.676 150.823 402.162 151.66 407.539H152.858C151.888 401.438 152.248 395.2 153.912 389.25C158.307 373.72 169.769 361.523 177.087 347.439C180.931 339.937 183.841 331.718 183.314 323.284L183.35 323.272ZM218.143 375.835C213.687 370.531 207.232 367.007 200.178 367.699C193.71 368.333 188.033 372.478 186.644 378.988C185.051 386.514 189.039 394.327 193.171 400.36C194.776 402.749 196.597 405.055 198.333 407.468H199.687C196.429 402.809 192.776 398.389 190.297 393.24C186.704 385.786 185.506 375.56 193.89 370.77C200.968 366.696 209.687 369.061 215.328 374.413C221.436 380.219 224.299 388.509 225.999 396.549C226.754 400.133 227.329 403.717 227.903 407.468H229.041C227.293 396.203 225.592 384.77 218.107 375.871L218.143 375.835ZM144.486 139.734C143.831 139.797 143.185 139.869 142.546 139.949C139.815 143.126 136.664 145.919 133.18 148.251C128.386 151.509 123.073 153.933 117.467 155.419L116.006 157.067C117.361 156.793 118.7 156.446 120.018 156.028C128.797 153.209 138.402 147.534 144.486 139.734ZM146.163 172.86C144.723 170 144.353 166.721 145.121 163.614C146.462 157.545 151.325 151.668 157.696 150.652C165.948 149.314 172.464 156.554 179.674 159.17C183.338 160.508 187.937 160.902 191.435 159.265C191.303 158.979 191.159 158.704 191.027 158.441C187.901 160.018 183.997 159.636 180.739 158.549C173.41 156.159 167.565 149.434 159.409 149.529C148.63 149.673 140.366 163.351 145.037 172.991C146.678 176.336 149.828 178.606 152.523 180.995C155.339 183.325 157.594 186.256 159.122 189.572C160.498 192.684 161.226 196.042 161.261 199.443C161.296 202.844 160.637 206.216 159.325 209.355C158.079 212.397 155.983 215.018 153.286 216.907C150.59 218.796 147.407 219.873 144.115 220.011C140.974 220.089 137.857 219.45 135.001 218.144C132.145 216.837 129.625 214.898 127.635 212.473C125.724 210.092 124.636 207.159 124.533 204.111C124.425 200.025 125.97 196.059 126.928 192.165C128.449 186.371 128.677 178.773 122.03 176.121C116.7 173.983 110.389 176.647 106.221 180.028C100.652 184.531 98.4001 191.639 95.2861 197.827C91.9566 204.433 87.0941 210.705 79.1776 211.422C78.6746 211.422 78.1835 211.493 77.6925 211.493C77.4769 211.876 77.2613 212.27 77.0338 212.688H77.3451C83.7407 212.748 89.0823 209.427 92.783 204.326C97.1425 198.353 99.0109 190.946 103.227 184.854C106.82 179.681 114.521 174.903 121.012 176.945C130.462 179.92 125.719 191.579 124.162 198.102C122.749 203.991 123.407 209.546 127.587 214.157C135.288 222.627 149.828 223.714 157.349 214.516C165.062 205.031 163.409 189.787 154.654 181.533C151.828 178.797 148.115 176.527 146.163 172.86ZM180.572 207.253C186.931 209.642 193.95 206.715 199.195 203.095C201.421 201.543 203.476 199.761 205.327 197.779L205.04 196.752C204.19 197.66 203.303 198.532 202.393 199.344C196.872 204.23 188.464 209.14 180.895 206.273C173.098 203.322 171.446 194.243 173.913 187.159C176.691 179.12 184.32 174.246 191.662 170.805C193.027 170.168 194.405 169.559 195.794 168.977C195.686 168.667 195.555 168.368 195.423 168.058C184.189 172.92 172.428 179.215 171.745 192.643C171.434 198.831 174.476 204.947 180.572 207.253ZM220.298 272.741C215.513 276.964 209.854 280.084 203.723 281.879C195.159 284.268 186.476 282.19 181.039 274.915C178.7 271.652 176.934 268.016 175.817 264.163C174.344 259.385 173.278 254.236 174.619 249.326C176.799 241.084 184.728 235.923 192.441 233.51C199.052 231.431 205.998 230.738 212.801 229.627C212.717 229.245 212.645 228.863 212.573 228.433C209.771 228.935 206.98 229.377 204.262 229.783C196.177 230.977 187.878 232.65 181.29 237.787C178.295 239.986 175.948 242.948 174.496 246.364C173.044 249.78 172.54 253.522 173.038 257.199C173.985 264.581 176.943 272.729 182.249 278.057C187.554 283.385 194.98 284.902 202.214 283.373C208.984 281.784 215.257 278.555 220.478 273.971C220.394 273.601 220.298 273.171 220.298 272.741Z" fill="white"/>
<path d="M333.957 394.996C317.189 412.318 283.727 413.859 188.189 417.359C175.015 417.849 146.45 325.709 160.535 324.467C178.284 322.902 247.497 320.68 252.575 321.146C295.44 325.148 345.31 383.253 333.957 394.996Z" fill="#FFB4AB"/>
<path d="M191.279 326.689C191.279 326.689 153.636 318.327 132.497 320.059C104.196 322.364 80.7102 335.983 71.2127 342.278C51.3914 355.419 12.5272 400.814 23.7493 414.301C33.8696 426.462 71.1888 378.009 71.1888 378.009C71.1888 378.009 24.959 421.146 39.8339 433.558C54.7089 445.97 94.8307 387.255 94.8307 387.255C94.8307 387.255 48.3374 432.65 65.7035 443.019C78.8778 450.868 118.173 399.739 118.173 399.739C118.173 399.739 78.4706 439.089 91.6209 447.666C106.161 457.223 145.444 412.294 145.444 412.294C182.572 428.66 206.98 421.301 223.699 414.002C227.747 412.234 191.279 326.689 191.279 326.689Z" fill="#FFB4AB"/>
<path d="M86.2198 362.061C80.6028 366.935 74.8899 371.833 69.728 377.185C64.566 382.536 59.5957 388.067 54.9488 393.909C43.571 408.161 38.6845 418.852 39.0558 418.219C47.9065 403.382 66.0871 383.934 71.249 378.582C76.4109 373.231 81.2854 367.64 86.4354 362.288C86.5671 362.121 86.3516 361.953 86.2198 362.061Z" fill="#263238"/>
<path d="M105.933 380.303C99.0344 386.825 91.9442 393.061 85.3331 399.894C78.722 406.727 73.105 413.728 66.9969 420.967C66.5298 421.516 66.9969 421.588 67.4759 421.05C73.8475 414.062 80.291 408.089 86.7464 401.184C93.2018 394.279 99.3937 387.1 106.077 380.458C106.208 380.35 106.041 380.207 105.933 380.303Z" fill="#263238"/>
<path d="M125.683 392.918C114.629 402.355 105.323 413.823 96.4843 425.279C96.0411 425.853 96.64 425.877 97.119 425.279C106.628 414.337 113.994 405.676 126.007 393.252C126.198 393.109 125.911 392.714 125.683 392.918Z" fill="#263238"/>
<path d="M171.554 321.887L238.455 424.861C238.455 424.861 321.094 417.264 336.496 398.162C346.652 385.595 296.075 321.791 248.372 320.955L171.554 321.887Z" fill="#FFE8E8"/>
<path d="M183.314 323.284C183.543 327.963 182.906 332.645 181.434 337.094L180.632 335.899C181.72 332.172 182.229 328.3 182.141 324.419C182.117 323.544 182.045 322.67 181.925 321.803H183.123C183.219 322.281 183.283 322.774 183.314 323.284ZM201.279 367.664L201.998 368.763C206.969 368.965 211.689 370.99 215.256 374.449C221.364 380.255 224.227 388.545 225.927 396.585C226.778 400.563 227.389 404.684 228.023 408.83L229.508 411.123C227.58 398.687 226.382 385.726 218.095 375.87C213.903 370.865 207.914 367.413 201.291 367.664H201.279ZM292.925 350.318C290.529 344.596 287.02 338.945 285.846 332.853L284.733 332.196C285.318 335.659 286.395 339.022 287.93 342.183C289.903 346.03 291.635 349.996 293.116 354.057C294.297 357.792 294.954 361.671 295.068 365.585C295.548 381.318 286.912 396.74 271.175 401.16C257.019 405.138 240.958 399.034 236.994 384.065C235.242 377.693 235.956 370.896 238.994 365.024C243.006 357.605 250.432 355.323 257.833 352.397C263.929 350.007 271.091 345.563 271.534 338.252C271.882 332.279 267.067 328.313 261.714 326.987C254.863 325.279 248.635 327.549 242.611 330.727C235.293 334.585 227.784 339.399 219.137 337.584C215.034 336.648 211.241 334.68 208.117 331.867C204.993 329.055 202.643 325.491 201.291 321.516H199.842C201.313 325.953 203.951 329.914 207.483 332.984C211.014 336.055 215.308 338.122 219.915 338.969C235.485 341.358 246.922 323.439 262.576 328.469C265.63 329.46 268.564 331.407 269.762 334.442C271.319 338.396 269.57 342.517 266.804 345.444C260.743 351.823 251.234 352.182 244.288 357.163C234.431 364.235 232.646 378.606 237.652 389.083C243.557 401.447 258.36 405.652 270.983 402.319C285.272 398.544 294.374 385.881 295.955 371.558C296.742 364.338 295.705 357.036 292.937 350.318H292.925ZM323.537 365.716L322.663 364.641C319.585 364.558 316.567 363.686 314.842 360.89C313.771 359.019 313.35 356.848 313.644 354.714L312.602 353.675C312.376 355.131 312.376 356.614 312.602 358.071C313.608 363.829 318.507 365.681 323.549 365.716H323.537ZM310.243 397.17C304.59 395.498 297.955 395.199 292.494 397.72C286.673 400.396 284.206 406.082 285.008 412.318C285.299 414.164 285.699 415.991 286.206 417.789L287.212 417.598C286.014 412.7 285.02 407.814 287.691 403.358C291.14 397.624 298.829 396.549 304.925 397.254C312.566 398.138 318.902 402.415 325.465 406.058L326.771 405.401C321.333 402.403 316.111 398.902 310.243 397.17Z" fill="white"/>
<path d="M301.895 344.166C277.882 324.646 269.762 321.277 231.964 320.823C231.652 320.823 231.593 321.218 231.904 321.23C273.355 323.093 292.494 338.372 301.62 344.476C301.86 344.62 302.111 344.345 301.895 344.166Z" fill="#263238"/>
<path d="M263.043 413.262C256.3 401.543 248.922 390.194 241.485 378.869C234.048 367.544 226.694 356.172 219.005 345.05C214.657 338.742 210.346 332.423 205.831 326.271C205.711 326.115 205.411 326.271 205.519 326.45C212.25 338.157 219.58 349.542 226.897 360.89C234.215 372.239 241.677 383.588 249.234 394.829C253.51 401.172 257.893 407.444 262.408 413.596C262.684 413.895 263.247 413.596 263.043 413.262Z" fill="#263238"/>
<path opacity="0.1" d="M255.917 321.588L200.824 366.983L171.517 321.887L248.36 320.955C249.258 320.955 250.168 321.014 251.078 321.074L255.378 321.54L255.917 321.588Z" fill="black"/>
<path d="M98.4356 209.534C88.6268 319.987 103.957 407.969 150.45 414.313C181.326 418.518 173.589 325.124 173.517 323.129C173.278 316.296 169.721 259.301 147.827 197.301C123.742 129.102 102.819 160.185 98.4356 209.534Z" fill="#FFB4AB"/>
<path d="M98.4356 209.534C88.6268 319.987 103.957 407.969 150.45 414.313C181.326 418.518 185.65 339.758 185.578 337.763C185.326 330.93 169.721 259.301 147.827 197.301C123.742 129.102 102.819 160.185 98.4356 209.534Z" fill="#FFE8E8"/>
<path d="M150.511 205.162C157.278 225.96 163.434 246.973 169.41 267.998C175.099 289.107 181.171 310.191 184.74 331.778C176.632 294.745 160.607 242.302 150.511 205.15V205.162Z" fill="#263238"/>
<path d="M156.235 210.323C157.768 216.296 158.918 222.663 157.505 228.708C157.684 222.651 156.559 216.367 156.235 210.323Z" fill="#263238"/>
<path d="M103.334 184.89C102.795 185.666 102.304 186.455 101.825 187.279C102.073 186.172 102.336 185.085 102.616 184.018C103.678 182.549 104.926 181.224 106.328 180.075C110.496 176.695 116.808 174.031 122.137 176.169C128.785 178.821 128.557 186.419 127.036 192.213C126.018 196.107 124.473 200.073 124.641 204.159C124.744 207.207 125.832 210.14 127.743 212.521C129.733 214.946 132.252 216.885 135.108 218.192C137.964 219.498 141.081 220.137 144.222 220.059C147.909 219.961 151.455 218.622 154.283 216.26C154.415 216.63 154.534 217.001 154.654 217.383C146.737 223.475 134.569 221.731 127.755 214.241C123.575 209.63 122.964 204.075 124.329 198.186C125.886 191.663 130.629 180.004 121.179 177.029C114.628 174.939 106.915 179.717 103.334 184.89ZM114.568 228.767C115.035 225.578 114.568 222.125 111.945 219.987C109.682 218.37 106.88 217.69 104.125 218.088C101.814 218.326 99.5725 219.012 97.5255 220.106C97.5255 220.525 97.4536 220.943 97.4297 221.361C98.2015 220.929 99.0018 220.55 99.825 220.226C102.975 218.96 107.011 218.446 110.137 220.083C114.484 222.364 113.933 227.692 112.796 231.718C110.005 241.49 102.508 248.634 95.7529 256.112C95.7529 256.649 95.7529 257.187 95.7529 257.713C99.1902 253.782 102.843 250.043 106.101 245.958C110.113 240.952 113.622 235.23 114.568 228.767ZM150.247 288.223C157.684 275.333 159.469 255.658 144.426 247.319C141.478 245.625 138.104 244.812 134.705 244.98C131.307 245.147 128.029 246.287 125.263 248.263C119.275 252.492 115.598 259.325 112.784 265.919C109.646 273.29 106.795 281.449 100.687 286.909C99.2776 288.197 97.6574 289.235 95.8967 289.979C95.8967 290.409 95.8966 290.827 95.9565 291.245C102.484 288.975 106.831 281.855 109.622 276.026C113.047 268.858 115.347 261.201 120.221 254.845C125.096 248.49 132.581 244.237 140.689 246.997C149.372 249.948 154.343 258.501 154.666 267.305C155.265 283.396 143.887 296.716 132.294 306.428C121.67 315.304 109.742 322.615 99.7172 332.208C99.801 332.769 99.8849 333.331 99.9807 333.88C106.374 327.845 113.177 322.257 120.341 317.156C131.575 308.997 143.204 300.42 150.247 288.223ZM177.11 347.355C180.703 340.486 183.422 332.889 183.374 325.088C183.374 324.479 183.374 323.893 183.314 323.284C183.121 320.02 182.308 316.821 180.919 313.859C179.235 310.188 176.561 307.056 173.194 304.816C170.47 302.949 167.253 301.927 163.948 301.878C160.643 301.829 157.397 302.755 154.618 304.541C148.857 308.22 145.133 314.731 143.707 321.265C141.635 330.762 143.36 340.51 143.552 350.091C143.885 368.45 138.93 386.518 129.276 402.152C129.012 402.582 128.737 403 128.461 403.43C128.785 403.741 129.12 404.039 129.455 404.338C132.35 399.907 134.839 395.225 136.893 390.349C140.398 382.239 142.779 373.691 143.971 364.94C145.228 355.718 144.642 346.674 144.151 337.464C143.683 328.6 143.971 319.318 149.157 311.744C153.72 305.078 161.696 300.993 169.613 304.314C177.529 307.635 181.973 316.045 182.14 324.407C182.62 341.693 170.164 356.207 161.624 370.125C157.552 376.743 153.9 383.743 152.187 391.365C150.582 398.593 150.833 406.108 152.917 413.214C153.037 413.644 153.181 414.074 153.313 414.504C153.72 414.504 154.127 414.504 154.51 414.42C151.839 406.27 151.635 397.515 153.923 389.25C158.331 373.673 169.793 361.44 177.11 347.355Z" fill="white"/>
<path d="M96.3281 224.682C96.1964 251.644 96.891 278.642 99.1306 305.497C101.969 339.101 109.91 409.941 153.026 413.285C159.78 413.692 166.008 412.378 171.47 408.161C179.65 402.319 186.488 394.805 193.028 387.207C206.046 371.869 217.855 354.846 228.802 338.3L226.179 335.636L228.898 338.205C225.448 344.034 221.795 349.733 218.119 355.395C207.16 371.701 181.877 409.152 163.301 414.516C140.546 419.545 123.443 403.956 114.197 384.723C93.837 341.8 95.0346 272.215 96.2922 224.646L96.3281 224.682Z" fill="#263238"/>
<path d="M94.1007 231.36C94.6756 236.473 95.514 241.406 96.0649 246.519C94.21 241.694 93.5367 236.497 94.1007 231.36Z" fill="#263238"/>
<path d="M175.362 204.947C175.362 204.947 135.516 168.583 110.544 170.303L89.9565 189.775C89.9565 189.775 83.07 192.284 80.7585 187.948C75.0696 177.196 73.1294 150.915 95.2622 133.092C115.539 116.738 158.331 118.517 186.991 125.04C214.538 131.3 230.107 146.818 222.31 164.844C214.514 182.871 175.362 204.947 175.362 204.947Z" fill="#FFE8E8"/>
<path opacity="0.1" d="M177.817 196.513C177.817 196.513 208.357 173.182 211.148 159.851C213.938 146.519 186.991 134.764 169.697 130.404C142.929 123.63 124.928 125.936 110.544 140.546C96.1601 155.156 177.817 196.513 177.817 196.513Z" fill="black"/>
<path d="M182.225 192.069C167.948 193.861 146.295 170.076 138.737 151.859C138.222 150.664 141.372 138.372 144.498 123.32C146.355 114.181 148.211 103.967 149.229 94.5179C149.433 92.5707 207.088 115.268 207.088 115.268C207.088 115.268 199.124 134.453 197.447 150.939C197.333 152.243 197.333 153.554 197.447 154.857C197.447 155.036 197.447 155.263 197.447 155.514C197.866 163.004 196.022 190.325 182.225 192.069Z" fill="#FFB4AB"/>
<path d="M191.327 155.168C193.353 155.461 195.401 155.573 197.447 155.502C197.447 155.252 197.447 155.036 197.447 154.845C197.322 153.542 197.322 152.23 197.447 150.927C199.112 134.465 207.029 115.28 207.029 115.28C207.029 115.28 160.224 96.8474 150.738 94.6135C151.529 105.723 156.367 150.652 191.327 155.168Z" fill="#263238"/>
<path d="M130.329 46.9609C128.832 69.0013 153.588 125.936 171.361 135.791C197.123 150.127 232.442 143.831 242.814 114.528C252.91 86.108 219.328 12.4847 200.117 4.24193C171.84 -7.90717 132.545 14.396 130.329 46.9609Z" fill="#FFB4AB"/>
<path d="M196.919 70.7334C196.824 70.602 196.692 71.044 196.764 71.1993C198.536 74.9982 199.926 79.6332 196.991 82.3928C196.896 82.4883 196.991 82.6675 197.111 82.5958C201.135 80.1827 199.207 74.0425 196.919 70.7334Z" fill="#263238"/>
<path d="M191.758 68.1889C185.363 70.375 190.189 82.9781 196.118 80.9592C202.046 78.9403 197.124 66.3731 191.758 68.1889Z" fill="#263238"/>
<path d="M220.729 61.0572C220.729 60.89 221.101 61.0572 221.161 61.2842C222.526 65.2383 224.754 69.527 228.814 69.4792C228.933 69.4792 228.993 69.6703 228.814 69.7061C224.31 70.7454 221.388 65.0114 220.729 61.0572Z" fill="#263238"/>
<path d="M222.694 55.6218C228.802 52.7428 234.131 65.1786 228.466 67.8067C222.801 70.4348 217.532 58.011 222.694 55.6218Z" fill="#263238"/>
<path d="M186.321 68.6907C188.066 68.0736 189.777 67.3638 191.447 66.5643C193.411 65.7281 195.04 65.2622 196.237 63.3986C196.522 62.8368 196.612 62.1964 196.493 61.5781C196.374 60.9598 196.052 60.3984 195.579 59.982C193.459 58.2977 190.788 58.7277 188.393 59.6476C185.946 60.4703 183.896 62.1744 182.644 64.426C181.338 66.7913 183.925 69.4314 186.321 68.6907Z" fill="#263238"/>
<path d="M222.981 45.1929C221.153 45.4948 219.31 45.7022 217.46 45.8141C215.34 46.0291 213.663 46.4114 211.711 45.3721C211.188 45.018 210.797 44.502 210.598 43.9038C210.399 43.3057 210.403 42.6587 210.609 42.063C211.663 39.5663 214.202 38.6584 216.729 38.3C219.283 37.8492 221.914 38.3647 224.107 39.7455C226.406 41.1312 225.424 44.6912 222.981 45.1929Z" fill="#263238"/>
<path d="M207.004 106.99C208.285 107.551 209.711 108.447 211.172 108.029C212.618 107.443 213.924 106.56 215.004 105.437C215.025 105.409 215.054 105.39 215.088 105.382C215.121 105.375 215.156 105.379 215.186 105.395C215.217 105.411 215.24 105.437 215.253 105.469C215.266 105.501 215.267 105.536 215.256 105.568C214.989 106.549 214.463 107.441 213.732 108.15C213 108.858 212.091 109.357 211.1 109.594C209.208 109.952 207.747 108.758 206.693 107.312C206.549 107.085 206.812 106.882 207.004 106.99Z" fill="#263238"/>
<path d="M209.423 100.813C213.615 96.931 220.202 95.0913 224.478 94.0281C224.897 93.7892 224.969 92.7379 224.873 92.284L221.412 84.1368C222.717 84.2563 229.233 84.5908 228.538 83.0736C222.765 70.5303 216.346 56.5773 207.95 45.3003C207.899 45.2116 207.815 45.1467 207.716 45.1198C207.618 45.0929 207.512 45.1063 207.423 45.157C207.334 45.2077 207.269 45.2915 207.242 45.3901C207.215 45.4887 207.229 45.5939 207.279 45.6826C212.346 57.9511 219.543 69.264 224.837 81.5206C222.801 81.5206 219.436 81.4131 217.891 82.0582C217.507 82.333 221.999 90.4921 222.37 91.8778C222.37 91.8778 213.555 92.5827 208.705 99.1769C207.435 100.849 207.411 102.665 209.423 100.813Z" fill="#263238"/>
<path d="M143.061 101.017C152.714 100.133 155.481 84.3639 155.649 78.0802C155.816 71.7966 146.978 48.4183 148.127 38.6584C149.277 28.8985 158.343 22.4954 166.332 21.934C174.32 21.3725 187.195 27.238 192.309 24.7532C197.423 22.2685 194.345 10.3224 198.034 8.92475C206.154 5.85462 217.197 22.5432 222.059 30.8696C222.059 30.8696 211.58 -9.74688 168.488 2.19914C129.192 12.9506 126.905 43.8071 127.947 56.4699C129.923 80.6128 143.061 101.017 143.061 101.017Z" fill="#263238"/>
<path d="M200.752 96.513C197.547 97.434 194.147 97.4392 190.939 96.5281C187.731 95.617 184.844 93.8262 182.605 91.3592C180.367 88.8923 178.868 85.8484 178.278 82.5737C177.689 79.299 178.033 75.9249 179.27 72.8354C180.508 69.7459 182.591 67.0649 185.28 65.0974C187.97 63.1299 191.16 61.9549 194.486 61.7061C197.812 61.4572 201.142 62.1445 204.096 63.6897C207.05 65.2349 209.51 67.576 211.196 70.4468C213.578 74.5163 214.245 79.3621 213.051 83.9215C211.857 88.4809 208.898 92.3818 204.824 94.7689C203.544 95.5145 202.176 96.1003 200.752 96.513ZM191.554 64.629C190.32 64.9814 189.137 65.4914 188.033 66.1462C184.66 68.1296 182.172 71.3206 181.075 75.0696C179.979 78.8186 180.356 82.8436 182.13 86.3251C183.904 89.8065 186.941 92.4827 190.624 93.8086C194.307 95.1346 198.358 95.0105 201.952 93.4619C205.547 91.9132 208.414 89.0563 209.971 85.4728C211.527 81.8894 211.656 77.8489 210.331 74.1741C209.006 70.4992 206.326 67.4664 202.838 65.693C199.349 63.9197 195.314 63.5392 191.554 64.629Z" fill="#EBEBEB"/>
<path d="M238.371 80.5172C231.82 82.4047 223.999 77.4232 220.406 68.8698C218.612 64.8125 218.138 60.296 219.053 55.9562C219.393 54.0929 220.178 52.3386 221.341 50.8416C222.505 49.3445 224.012 48.1487 225.736 47.3551C229.089 45.9454 232.922 46.4113 236.575 48.6213C240.319 51.0099 243.221 54.5058 244.875 58.6201C248.671 67.6633 246.276 77.3157 239.533 80.123C239.156 80.282 238.768 80.4137 238.371 80.5172ZM227.485 49.2545C227.192 49.338 226.904 49.4377 226.622 49.5531C225.246 50.2026 224.047 51.1738 223.128 52.3842C222.208 53.5946 221.595 55.0085 221.341 56.5057C220.538 60.352 220.957 64.3519 222.538 67.95C225.844 75.7746 233.006 80.2783 238.551 77.9488C244.096 75.6193 245.905 67.3766 242.611 59.54C241.156 55.8877 238.594 52.7803 235.281 50.6522C234.151 49.8913 232.873 49.374 231.531 49.1333C230.188 48.8927 228.81 48.9339 227.485 49.2545Z" fill="#EBEBEB"/>
<path d="M211.435 72.5731L209.315 71.486C210.932 68.3562 215.519 63.1238 221.292 65.74L220.322 67.9022C215.148 65.5608 211.591 72.3462 211.435 72.5731Z" fill="#EBEBEB"/>
<path d="M140.055 107.444L137.659 107.252C137.743 106.153 138.653 96.3816 143.228 93.5384C147.504 90.8864 178.104 81.3057 179.398 80.8995L180.116 83.1693C171.338 85.9049 147.779 93.4906 144.486 95.5453C141.444 97.4328 140.222 104.768 140.055 107.444Z" fill="#EBEBEB"/>
<path d="M158.295 93.5504C158.295 93.5504 140.055 77.8055 132.509 84.782C124.964 91.7585 142.174 116.941 153.361 118.159C164.547 119.378 165.864 109.056 165.864 109.056L158.295 93.5504Z" fill="#FFB4AB"/>
<path d="M137.659 91.8779C137.621 91.8779 137.585 91.893 137.558 91.9199C137.531 91.9467 137.516 91.9832 137.516 92.0212C137.516 92.0592 137.531 92.0957 137.558 92.1226C137.585 92.1495 137.621 92.1646 137.659 92.1646C145.564 93.2517 151.025 98.926 155.409 105.126C152.606 103.024 149.337 102.307 146.426 105.735C146.283 105.914 146.534 106.165 146.726 106.07C149.492 104.696 151.744 104.672 154.319 106.512C156.085 107.926 157.692 109.528 159.11 111.29C159.613 111.84 160.679 111.207 160.247 110.538C160.223 110.482 160.19 110.429 160.152 110.382C158.02 101.267 147.648 90.2652 137.659 91.8779Z" fill="#263238"/>
<path d="M177.817 196.513C177.817 196.513 145.132 145.312 106.328 141.43L110.544 170.303C110.544 170.303 133.587 169.587 175.361 204.947L177.817 196.513Z" fill="#FFE8E8"/>
<path d="M100.149 171.152C107.191 170.041 114.269 171.367 120.976 173.23C127.695 175.226 134.165 177.979 140.258 181.437C146.401 184.82 152.31 188.607 157.948 192.774L166.248 199.261L174.26 206.13L175.158 206.906L176.117 206.381C183.197 202.44 190 198.022 196.477 193.156C199.753 190.768 202.881 188.183 205.843 185.415C208.832 182.687 211.548 179.674 213.951 176.42C208.418 182.297 201.866 186.944 195.243 191.412C191.914 193.622 188.488 195.701 185.027 197.696C181.566 199.691 178.093 201.71 174.572 203.513L176.416 203.752L168.392 196.644C165.625 194.387 162.798 192.189 160.008 190.003C157.217 187.816 154.127 185.893 151.097 184.03C148.067 182.166 144.953 180.302 141.696 178.773C135.298 175.452 128.5 172.963 121.467 171.367C119.73 170.937 117.934 170.698 116.161 170.399C114.389 170.1 112.568 170.029 110.784 170.005C107.199 169.784 103.603 170.171 100.149 171.152Z" fill="#263238"/>
<path d="M89.9561 189.775C93.7876 186.982 97.4248 183.933 100.843 180.649C104.311 177.418 107.552 173.953 110.544 170.28C106.706 173.065 103.064 176.111 99.6452 179.394C96.1871 182.635 92.9502 186.104 89.9561 189.775Z" fill="#263238"/>
<path d="M163.026 186.311C161.799 198.499 161.631 210.769 162.523 222.985C163.086 231.515 169.026 261.75 178.416 259.827C187.805 257.904 170.643 239.519 166.523 223.678C162.355 207.575 165.708 195.653 165.445 185.965L163.026 186.311Z" fill="#FFE8E8"/>
<g opacity="0.1">
<path d="M163.026 186.311C161.799 198.499 161.631 210.769 162.523 222.985C163.086 231.515 169.026 261.75 178.416 259.827C187.805 257.904 170.643 239.519 166.523 223.678C162.355 207.575 165.708 195.653 165.445 185.965L163.026 186.311Z" fill="black"/>
</g>
<path d="M195.051 187.828C199.25 198.114 202.552 208.741 204.92 219.593C206.633 227.155 209.255 254.977 200.596 255.706C191.937 256.434 202.129 236.078 201.626 221.217C201.135 206.142 195.147 196.585 192.859 188.139L195.051 187.828Z" fill="#FFE8E8"/>
<g opacity="0.1">
<path d="M195.051 187.828C199.25 198.114 202.552 208.741 204.92 219.593C206.633 227.155 209.255 254.977 200.596 255.706C191.937 256.434 202.129 236.078 201.626 221.217C201.135 206.142 195.147 196.585 192.859 188.139L195.051 187.828Z" fill="black"/>
</g>
<path d="M159.098 407.611C184.584 403.705 226.346 346.436 252.815 280.983C257.857 268.524 160.87 218.147 157.002 232.005C144.69 276.456 120.581 334.597 121.359 370.459C121.994 398.341 141.48 410.323 159.098 407.611Z" fill="#FFB4AB"/>
<path d="M204.465 184.83C198.285 177.28 197.339 156.159 191.794 143.712C186.248 131.264 169.996 125.422 167.134 129.998C164.271 134.573 168.511 139.184 169.84 159.636C170.691 172.776 160.594 199.058 164.906 222.95C167.074 234.931 210.717 192.38 204.465 184.83Z" fill="#F7A9A0"/>
<path d="M204.465 184.83C198.285 177.28 197.339 156.159 191.794 143.712C186.248 131.264 169.996 125.422 167.134 129.998C164.271 134.573 168.511 139.184 169.84 159.636C170.691 172.776 160.594 199.058 164.906 222.95C167.074 234.931 210.717 192.38 204.465 184.83Z" fill="#FFB4AB"/>
<path opacity="0.06" d="M204.465 184.83C198.285 177.28 197.339 156.159 191.794 143.712C186.248 131.264 169.996 125.422 167.134 129.998C164.271 134.573 168.511 139.184 169.84 159.636C170.691 172.776 160.594 199.058 164.906 222.95C167.074 234.931 210.717 192.38 204.465 184.83Z" fill="black"/>
<path d="M252.635 120.596C261.294 128.648 239.568 148.251 239.568 148.251C239.568 148.251 247.461 146.125 254.324 149.948C262.18 154.308 258.755 168.524 258.755 168.524C258.755 168.524 267.198 168.022 274.037 172.776C281.139 177.722 279.726 192.547 279.726 192.547C279.726 192.547 287.846 196.394 290.792 204.732C295.847 219.007 280.013 236.126 272.348 248.657C264.12 262.073 253.797 278.726 247.88 286.992L155.121 239.925C155.121 239.925 171.014 169.169 183.602 157.055C194.249 146.854 239.461 108.28 252.635 120.596Z" fill="#FFB4AB"/>
<path d="M239.198 148.191C225.305 156.339 213.4 167.783 202.07 178.952C202.018 179.005 201.988 179.076 201.988 179.15C201.988 179.223 202.018 179.294 202.07 179.347C202.123 179.399 202.194 179.428 202.268 179.428C202.342 179.428 202.413 179.399 202.465 179.347C213.64 168.105 228.095 159.576 239.689 148.801C239.77 148.736 239.822 148.641 239.833 148.538C239.844 148.435 239.814 148.332 239.749 148.251C239.683 148.17 239.589 148.119 239.486 148.108C239.382 148.096 239.279 148.127 239.198 148.191Z" fill="#263238"/>
<path d="M257.63 168.01C254.54 169.945 252.109 172.896 249.665 175.548C247.031 178.403 244.444 181.318 241.916 184.256C236.838 190.15 231.908 196.167 227.125 202.307C226.91 202.582 227.281 202.976 227.521 202.701C232.587 196.836 237.749 191.042 243.09 185.403C245.749 182.576 248.432 179.789 251.139 177.041C253.642 174.449 256.516 171.928 258.408 168.822C258.462 168.771 258.505 168.71 258.535 168.643C258.564 168.575 258.581 168.502 258.582 168.429C258.584 168.355 258.571 168.282 258.544 168.213C258.518 168.144 258.477 168.081 258.426 168.028C258.375 167.974 258.314 167.932 258.246 167.902C258.179 167.872 258.106 167.856 258.032 167.854C257.958 167.853 257.884 167.865 257.815 167.892C257.746 167.919 257.683 167.959 257.63 168.01Z" fill="#263238"/>
<path d="M279.546 192.786C276.792 194.363 274.756 197.564 272.732 199.954C270.48 202.693 268.209 205.417 265.917 208.125C261.342 213.536 256.767 218.948 252 224.204C251.761 224.467 252.156 224.861 252.395 224.598C257.258 219.282 262.192 214.038 267.007 208.674C269.402 206.046 271.754 203.402 274.061 200.742C276.049 198.484 278.792 195.892 279.822 193.013C279.834 192.976 279.835 192.937 279.824 192.9C279.813 192.863 279.792 192.83 279.762 192.805C279.732 192.781 279.696 192.766 279.657 192.762C279.619 192.759 279.58 192.767 279.546 192.786Z" fill="#263238"/>
<path d="M242.324 118.195C226.575 124.694 207.699 138.503 196.633 147.08C192.502 150.274 188.541 153.679 184.764 157.282C181.099 160.95 178.704 165.645 176.38 170.244C174.788 173.362 173.434 176.599 172.093 179.801C174.488 171.438 177.363 162.55 183.327 155.909C187.053 152.115 191.03 148.575 195.232 145.312C206.37 136.771 217.796 128.11 230.754 122.531L242.324 118.195Z" fill="#263238"/>
<path d="M137.049 257.82L228.85 338.253C228.85 338.253 180.848 415.639 158.463 414.122C136.079 412.605 111.754 398.15 113.587 344.476C114.03 331.037 137.049 257.82 137.049 257.82Z" fill="#FFE8E8"/>
<path d="M120.461 317.24L119.264 318.1C119.431 317.455 119.611 316.809 119.779 316.152C124.03 313.011 128.282 309.857 132.33 306.464C142.546 297.935 152.547 286.61 154.403 273.015L155.313 273.816C154.478 278.86 152.747 283.715 150.199 288.151C143.205 300.42 131.576 308.997 120.461 317.24ZM173.218 304.828C170.494 302.961 167.277 301.938 163.972 301.89C160.667 301.841 157.421 302.767 154.643 304.553C148.882 308.232 145.157 314.743 143.732 321.277C141.66 330.774 143.385 340.522 143.576 350.103C143.901 368.28 139.037 386.174 129.552 401.698C129.875 402.032 130.21 402.355 130.546 402.665C132.97 398.719 135.095 394.598 136.905 390.337C140.41 382.227 142.791 373.679 143.983 364.928C145.241 355.706 144.654 346.663 144.163 337.452C143.696 328.588 143.983 319.306 149.169 311.732C153.732 305.067 161.709 300.981 169.625 304.302C177.542 307.623 181.973 316.045 182.141 324.407C182.62 341.693 170.164 356.207 161.625 370.125C157.553 376.743 153.9 383.743 152.187 391.365C150.583 398.593 150.834 406.108 152.918 413.214C152.945 413.315 152.976 413.415 153.014 413.512L154.295 413.716C151.836 405.762 151.711 397.272 153.936 389.25C158.331 373.72 169.793 361.523 177.111 347.439C180.931 340.044 183.842 331.802 183.315 323.368C183.2 319.704 182.227 316.118 180.474 312.897C178.721 309.675 176.236 306.908 173.218 304.816V304.828ZM200.118 367.747C193.651 368.38 187.974 372.526 186.584 379.036C185.602 383.695 186.752 388.474 188.752 392.858C189.028 392.535 189.327 392.213 189.614 391.89C186.536 384.603 186.021 375.309 193.83 370.817C195.878 369.68 198.147 368.993 200.484 368.803C202.82 368.614 205.17 368.926 207.376 369.718C207.615 369.396 207.843 369.073 208.094 368.751C205.545 367.823 202.819 367.476 200.118 367.735V367.747ZM227.856 337.392C224.987 338.103 221.994 338.156 219.101 337.548C207.795 335.159 199.268 324.073 200.214 313.154L199.016 312.067C197.16 324.55 207.603 337.034 219.915 338.945C222.885 339.376 225.912 339.16 228.79 338.312L228.85 338.205L227.856 337.392Z" fill="white"/>
<path d="M136.031 291.09C140.522 294.829 144.714 298.962 148.977 302.952C153.241 306.942 157.481 310.992 161.661 315.089C170.012 323.284 178.296 331.539 186.512 339.853C188.752 342.135 190.991 344.417 193.195 346.746C195.399 349.076 197.591 352.014 199.974 354.463C200.002 354.505 200.015 354.555 200.01 354.604C200.005 354.654 199.983 354.701 199.948 354.736C199.912 354.771 199.866 354.793 199.816 354.798C199.766 354.803 199.716 354.79 199.675 354.762C197.591 352.791 195.219 351.106 193.087 349.171C190.956 347.236 188.716 345.11 186.56 343.043C182.344 338.989 178.145 334.92 173.961 330.834C165.577 322.663 157.277 314.432 149.193 305.998C144.63 301.22 139.875 296.537 135.599 291.508C135.544 291.451 135.513 291.374 135.514 291.294C135.516 291.215 135.548 291.139 135.605 291.084C135.663 291.028 135.74 290.998 135.819 290.999C135.899 291 135.975 291.033 136.031 291.09Z" fill="#263238"/>
<path d="M147.444 266.935L136.833 258.071L137.348 257.928C132.306 276.898 126.737 295.725 121.515 314.635C119.103 322.813 117.105 331.106 115.527 339.483C114.159 350.389 114.127 361.421 115.431 372.335C112.792 361.494 111.943 350.297 112.916 339.184C115.515 320.847 121.407 303.155 126.893 285.535C130.018 276.038 133.324 266.612 136.905 257.271L137.252 257.581L147.432 266.935H147.444Z" fill="#263238"/>
</svg>
