<svg width="306" height="726" viewBox="0 0 306 726" fill="none" xmlns="http://www.w3.org/2000/svg">
<path d="M53.1 724.02C57.7086 725.504 189.222 723.822 194.187 720.579C196.165 719.372 196.976 700.206 197.352 677.064V676.332C197.45 671.545 197.51 666.62 197.53 661.636C197.53 660.944 197.53 660.271 197.53 659.658L191.161 591.439L103.182 592.289L111.845 659.875L111.964 662.565L112.478 676.55V677.993C112.478 677.993 62.4161 701.135 57.3328 705.289C52.2495 709.443 48.4914 722.537 53.1 724.02Z" fill="#FFB2A6"/>
<path d="M53.1 724.02C57.7086 725.504 189.222 723.823 194.187 720.579C196.165 719.372 196.976 700.206 197.352 677.064V676.332C197.45 671.545 197.51 666.62 197.53 661.636C197.53 660.944 197.53 660.271 197.53 659.658L111.845 659.876L111.964 662.566L112.478 676.55V677.994C112.478 677.994 62.4161 701.135 57.3328 705.289C52.2495 709.443 48.4914 722.537 53.1 724.02Z" fill="#EBEBEB"/>
<path d="M53.0792 724C55.4527 724.772 91.1942 724.693 126.105 724C133.127 723.862 140.109 723.704 146.774 723.526C171.677 722.853 192.267 721.825 194.245 720.579C196.223 719.333 197.014 700.799 197.41 677.974C197.41 677.637 197.41 677.321 197.41 677.005C197.41 676.688 197.41 676.49 197.41 676.253H197.212L112.457 676.391V677.855C112.457 677.855 62.4151 700.997 57.3317 705.131C52.2484 709.265 48.4706 722.537 53.0792 724Z" fill="#E51D1B"/>
<path d="M54.5244 718.897C76.6774 718.067 166.14 716.82 188.115 717.691C188.293 717.691 188.293 717.829 188.115 717.829C166.179 719.135 76.6972 719.649 54.5244 719.253C54.0497 719.253 54.0497 718.917 54.5244 718.897Z" fill="#263238"/>
<path d="M103.063 676.728C111.766 674.987 122.447 676.194 129.192 682.325C129.449 682.563 129.192 682.938 128.836 682.839C120.466 680.266 111.847 678.588 103.123 677.835C102.976 677.843 102.832 677.792 102.722 677.694C102.613 677.596 102.547 677.458 102.539 677.311C102.531 677.164 102.582 677.02 102.681 676.911C102.779 676.801 102.917 676.736 103.063 676.728Z" fill="#263238"/>
<path d="M96.812 680.683C105.515 678.943 116.196 680.149 122.941 686.281C123.218 686.518 122.941 686.874 122.585 686.795C114.215 684.22 105.596 682.542 96.8713 681.791C96.7244 681.799 96.5804 681.748 96.471 681.65C96.3616 681.552 96.2957 681.414 96.2878 681.267C96.28 681.12 96.3307 680.976 96.429 680.867C96.5273 680.757 96.6651 680.691 96.812 680.683Z" fill="#263238"/>
<path d="M90.5613 684.521C99.2643 682.78 109.945 683.987 116.69 690.118C116.967 690.356 116.69 690.712 116.334 690.632C107.967 688.048 99.3463 686.37 90.6206 685.628C90.4738 685.636 90.3298 685.585 90.2203 685.487C90.1109 685.389 90.045 685.251 90.0371 685.104C90.0293 684.957 90.0801 684.813 90.1784 684.704C90.2767 684.594 90.4144 684.528 90.5613 684.521Z" fill="#263238"/>
<path d="M126.006 724C133.028 723.862 140.01 723.704 146.676 723.526C171.578 722.853 192.169 721.825 194.147 720.579C196.125 719.333 196.916 700.799 197.311 677.974C197.311 677.637 197.311 677.321 197.311 677.005C197.311 676.688 197.311 676.49 197.311 676.253H197.212C185.641 684.402 144.718 711.638 126.006 724Z" fill="#263238"/>
<path d="M107.435 676.728H202.159C202.159 676.728 183.131 455.494 183.882 451.637C184.832 446.693 190.429 424.302 197.866 395.048C200.2 385.891 202.732 376.08 205.343 365.894C212.404 338.38 220.197 308.296 226.982 282.128C237.168 242.925 245.139 212.464 245.139 212.464H164.855C164.855 212.464 155.499 242.134 143.691 280.703C124.465 343.404 98.7912 429.702 96.2199 450.688C92.1255 484.55 107.435 676.728 107.435 676.728Z" fill="#455A64"/>
<path d="M111.627 660.548C126.106 660.251 121.952 660.133 136.411 659.994C143.492 659.994 190.013 659.519 196.64 660.627C196.778 660.627 196.778 660.884 196.64 660.924C190.013 662.012 143.492 661.596 136.411 661.517C121.952 661.379 126.106 661.26 111.627 660.963C111.583 660.949 111.545 660.922 111.517 660.884C111.49 660.847 111.475 660.802 111.475 660.756C111.475 660.709 111.49 660.664 111.517 660.627C111.545 660.589 111.583 660.562 111.627 660.548Z" fill="#263238"/>
<path d="M166.06 438.108C169.165 424.421 173.813 411.01 177.927 397.56C186.155 370.265 194.423 342.976 202.731 315.693C206.858 302.045 211.025 288.411 215.231 274.789C217.341 267.906 219.471 261.029 221.62 254.159C223.736 247.434 226.13 240.769 228.029 233.984C228.8 231.235 229.235 232.738 228.246 236.259C226.268 243.32 224.29 250.381 222.213 257.423C218.126 271.387 214.011 285.338 209.871 299.276C201.656 326.967 193.368 354.692 185.008 382.449C180.841 396.347 176.661 410.239 172.468 424.124C170.348 430.738 168.637 437.475 167.345 444.299C166.222 451.428 165.937 458.664 166.495 465.859C167.405 480.357 169.086 494.816 170.451 509.275C171.815 523.733 173.121 538.251 174.406 552.789C177.044 581.601 179.681 610.433 182.318 639.285C182.661 642.938 182.971 646.597 183.248 650.263C183.347 651.489 181.487 651.39 181.369 650.263C178.244 621.76 175.87 593.159 173.2 564.598C170.53 536.036 167.879 507.771 165.288 479.368C164.635 472.228 163.864 465.087 163.864 457.907C163.846 451.246 164.582 444.604 166.06 438.108Z" fill="#263238"/>
<path d="M173.973 212.445C179.531 255.564 190.133 336.402 197.866 395.048C215.984 324.001 245.139 212.464 245.139 212.464L173.973 212.445Z" fill="#263238"/>
<path d="M155.141 725.306C159.75 726.809 291.263 725.622 296.248 722.379C298.226 721.192 299.096 702.025 299.571 678.864C299.571 678.607 299.571 678.369 299.571 678.132C299.571 673.345 299.749 668.42 299.788 663.436C299.788 662.744 299.788 662.071 299.788 661.458C300.105 627.971 297.692 593.219 297.692 593.219L211.73 593.773L214.123 661.359V664.049L214.598 678.033V679.477C214.598 679.477 164.457 702.441 159.354 706.575C154.251 710.709 150.532 723.822 155.141 725.306Z" fill="#FFB2A6"/>
<path d="M155.143 725.306C159.751 726.809 291.265 725.622 296.249 722.378C298.227 721.192 299.097 702.025 299.572 678.864C299.572 678.607 299.572 678.369 299.572 678.132C299.572 673.345 299.75 668.42 299.79 663.436C299.79 662.743 299.79 662.071 299.79 661.458L214.125 661.359V664.049L214.6 678.033V679.477C214.6 679.477 164.459 702.441 159.356 706.575C154.253 710.709 150.534 723.822 155.143 725.306Z" fill="#EBEBEB"/>
<path d="M155.142 725.306C159.75 726.809 291.264 725.622 296.248 722.378C298.226 721.192 299.097 702.025 299.571 678.864C299.571 678.607 299.571 678.369 299.571 678.132L214.698 677.954V679.398C214.698 679.398 164.557 702.362 159.454 706.496C154.351 710.629 150.533 723.822 155.142 725.306Z" fill="#E51D1B"/>
<path d="M156.585 720.242C178.758 719.51 268.22 718.581 290.195 719.53C290.373 719.53 290.373 719.669 290.195 719.669C268.24 720.895 178.758 721.093 156.585 720.618C156.13 720.539 156.11 720.242 156.585 720.242Z" fill="#263238"/>
<path d="M205.283 678.25C213.986 676.53 224.667 677.776 231.392 683.927C231.649 684.165 231.392 684.54 231.036 684.441C222.67 681.834 214.051 680.123 205.323 679.338C205.195 679.319 205.078 679.256 204.992 679.16C204.906 679.063 204.857 678.94 204.852 678.811C204.847 678.682 204.888 678.555 204.967 678.453C205.045 678.35 205.158 678.279 205.283 678.25Z" fill="#263238"/>
<path d="M199.013 682.088C207.736 680.387 218.417 681.633 225.142 687.784C225.399 688.022 225.043 688.397 224.766 688.298C216.401 685.688 207.781 683.977 199.053 683.195C198.906 683.201 198.763 683.147 198.655 683.047C198.548 682.947 198.484 682.808 198.479 682.661C198.474 682.514 198.527 682.371 198.627 682.264C198.727 682.156 198.866 682.093 199.013 682.088Z" fill="#263238"/>
<path d="M192.763 685.945C201.466 684.244 212.147 685.49 218.872 691.641C219.129 691.879 218.872 692.235 218.516 692.155C210.152 689.539 201.532 687.828 192.802 687.052C192.656 687.058 192.513 687.004 192.405 686.904C192.297 686.804 192.234 686.665 192.229 686.518C192.224 686.371 192.277 686.229 192.377 686.121C192.477 686.013 192.616 685.95 192.763 685.945Z" fill="#263238"/>
<path d="M167.445 212.445C167.445 212.445 169.304 250.856 178.086 281.277C178.778 283.789 179.55 286.261 180.38 288.635C188.432 291.88 196.172 295.853 203.503 300.503C203.503 300.503 204.432 331.398 205.342 365.775C206.351 404.305 207.32 447.286 207.201 456.385C206.371 490.484 211.414 677.914 211.414 677.914L306 678.508C306 678.508 288.93 469.122 289.049 456.622C289.247 436.546 284.499 347.835 280.821 283.097C278.585 243.221 276.746 212.464 276.746 212.464L167.445 212.445Z" fill="#455A64"/>
<path d="M214.659 661.26C229.118 661.023 224.964 660.884 239.442 660.825C246.523 660.825 293.045 660.587 299.651 661.715C299.79 661.715 299.79 661.972 299.651 662.012C293.025 663.08 246.504 662.467 239.423 662.348C224.964 662.15 229.118 662.051 214.659 661.695C214.601 661.695 214.546 661.672 214.505 661.631C214.464 661.591 214.441 661.535 214.441 661.478C214.441 661.42 214.464 661.364 214.505 661.324C214.546 661.283 214.601 661.26 214.659 661.26Z" fill="#263238"/>
<path d="M268.875 226.191C270.615 279.022 272.435 331.853 274.808 384.664C277.182 437.475 280.347 490.643 284.698 543.493C287.171 573.024 289.485 614.561 292.61 644.032C292.61 644.23 292.333 644.309 292.313 644.032C285.43 591.617 281.593 526.819 278.211 474.067C274.828 421.316 272.554 368.524 270.773 315.713C269.745 285.826 268.993 255.959 268.103 226.073C268.202 225.756 268.855 225.756 268.875 226.191Z" fill="#263238"/>
<path d="M176.444 286.341C185.859 290.278 194.913 295.03 203.502 300.542C203.839 300.74 203.502 301.274 203.225 301.096C194.087 296.646 184.751 292.373 175.89 287.428C175.761 287.347 175.668 287.22 175.628 287.073C175.588 286.926 175.604 286.769 175.673 286.633C175.742 286.497 175.859 286.392 176.002 286.338C176.144 286.284 176.302 286.285 176.444 286.341Z" fill="#263238"/>
<path d="M175.91 253.764C176.543 257.126 177.354 260.469 178.085 263.812C178.817 267.154 179.252 270.141 180.063 273.246C180.752 276.249 182.282 278.993 184.474 281.158C185.7 282.286 187.045 283.314 188.43 284.363L190.626 286.044L190.388 284.679C190.151 283.413 189.933 282.127 189.736 280.862C189.261 278.013 188.806 275.185 188.371 272.337C187.52 266.759 186.729 261.102 185.562 255.583C185.549 255.536 185.555 255.486 185.579 255.443C185.603 255.4 185.643 255.369 185.691 255.356C185.738 255.343 185.788 255.349 185.831 255.373C185.874 255.397 185.905 255.437 185.918 255.485C187.303 260.963 188.845 266.383 190.052 271.921C190.645 274.631 192.762 288.002 192.861 288.951C192.96 289.901 193.039 290.929 193.058 291.899C193.197 292.896 193.197 293.908 193.058 294.905C193.058 295.142 192.722 295.103 192.604 294.905C192.19 293.979 191.903 293.001 191.753 291.997C191.493 291.046 191.282 290.082 191.12 289.11C191.12 288.754 191.001 288.398 190.962 288.042C189.637 287.231 188.41 286.182 187.184 285.292C185.958 284.402 184.494 283.314 183.228 282.325C180.903 280.372 179.226 277.757 178.422 274.829C177.618 271.67 177.088 268.447 176.839 265.196C176.424 261.399 176.107 257.581 175.573 253.784C175.455 253.625 175.87 253.447 175.91 253.764Z" fill="#263238"/>
<path d="M201.545 113.389C196.304 128.026 177.81 160.86 149.446 186.711C138.469 196.7 56.7994 190.133 48.7096 186.988C43.0526 184.773 32.4904 143.612 38.444 139.893C49.5996 132.911 122.606 149.012 125.711 147.37C130.458 144.838 161.888 123.773 182.142 103.756C196.917 89.1592 210.268 89.0207 201.545 113.389Z" fill="#FFB2A6"/>
<path d="M180.559 156.647L134.236 138.252C134.236 138.252 175.772 102.511 191.003 95.4493C208.112 87.5375 208.428 97.9811 202.415 114.873C196.402 131.764 180.559 156.647 180.559 156.647Z" fill="#37474F"/>
<path d="M144.026 132.615C145.727 132.99 160.245 138.548 163.37 139.775C166.496 141.001 179.372 146.084 182.497 147.687C182.529 147.687 182.559 147.699 182.581 147.721C182.603 147.744 182.616 147.774 182.616 147.805C182.616 147.837 182.603 147.867 182.581 147.889C182.559 147.911 182.529 147.924 182.497 147.924C179.135 146.975 166.159 141.99 162.935 140.685C159.711 139.379 145.47 133.683 143.987 132.773C143.809 132.793 143.809 132.595 144.026 132.615Z" fill="#263238"/>
<path d="M162.697 149.546L180.499 156.647C180.499 156.647 196.322 131.744 202.256 114.872C206.647 102.53 207.656 93.5898 201.208 92.7986L162.697 149.546Z" fill="#263238"/>
<path d="M287.407 254.258C287.111 254.595 156.111 255.445 154.885 254.12C153.204 252.142 182.299 110.185 195.69 92.6009C198.558 88.8428 216.617 83.72 227.1 92.2647C249.372 110.402 268.637 172.648 273.186 191.439C280.623 222.413 288.495 253.032 287.407 254.258Z" fill="#E51D1B"/>
<path opacity="0.1" d="M194.958 93.7085H228.86C228.306 93.1942 227.752 92.7195 227.198 92.2646C226.862 91.99 226.512 91.7326 226.15 91.4932H197.015C196.555 91.8015 196.142 92.1745 195.789 92.6008C195.488 92.9518 195.211 93.3218 194.958 93.7085Z" fill="black"/>
<path opacity="0.1" d="M191.794 100.077H234.616C234.003 99.306 233.39 98.5543 232.757 97.8423H192.763C192.446 98.5346 192.13 99.2862 191.794 100.077Z" fill="black"/>
<path opacity="0.1" d="M189.302 106.446H239.206C238.691 105.675 238.197 104.943 237.682 104.211H190.212L189.302 106.446Z" fill="black"/>
<path opacity="0.1" d="M187.185 112.796H243.102C242.666 112.044 242.231 111.292 241.776 110.561H187.917C187.66 111.292 187.323 112.044 187.185 112.796Z" fill="black"/>
<path opacity="0.1" d="M185.167 119.165H246.661C246.266 118.413 245.89 117.662 245.475 116.93H185.939C185.642 117.662 185.345 118.413 185.167 119.165Z" fill="black"/>
<path opacity="0.1" d="M183.368 125.534H249.767C249.411 124.782 249.055 124.03 248.68 123.299H183.941L183.368 125.534Z" fill="black"/>
<path opacity="0.1" d="M181.389 131.883H252.595L251.587 129.648H182.022C181.904 130.38 181.706 131.131 181.389 131.883Z" fill="black"/>
<path opacity="0.1" d="M179.768 138.252H255.444L254.495 136.017H180.362L179.768 138.252Z" fill="black"/>
<path opacity="0.1" d="M178.087 144.66H258.015C257.738 143.909 257.442 143.177 257.125 142.425H178.66C178.482 143.118 178.284 143.869 178.087 144.66Z" fill="black"/>
<path opacity="0.1" d="M176.464 150.97H260.507C260.23 150.218 259.953 149.486 259.657 148.735H177.058C176.84 149.486 176.642 150.218 176.464 150.97Z" fill="black"/>
<path opacity="0.1" d="M174.863 157.339H262.782C262.525 156.587 262.248 155.856 261.971 155.104H175.456C175.239 155.856 175.061 156.528 174.863 157.339Z" fill="black"/>
<path opacity="0.1" d="M173.319 163.688H264.977C264.739 162.956 264.482 162.205 264.205 161.473H173.853L173.319 163.688Z" fill="black"/>
<path opacity="0.1" d="M171.797 170.057H267.074L266.362 167.822H172.331L171.797 170.057Z" fill="black"/>
<path opacity="0.1" d="M170.313 176.426H269.052C268.835 175.694 268.617 174.943 268.38 174.191H170.808C170.65 174.943 170.472 175.694 170.313 176.426Z" fill="black"/>
<path opacity="0.1" d="M168.829 182.775H270.911L270.278 180.56H169.402C169.185 181.312 169.007 182.044 168.829 182.775Z" fill="black"/>
<path opacity="0.1" d="M167.405 189.144H272.632C272.454 188.452 272.256 187.7 272.058 186.909H167.899C167.741 187.661 167.543 188.393 167.405 189.144Z" fill="black"/>
<path opacity="0.1" d="M165.981 195.513H274.175L273.641 193.278H166.476C166.318 194.109 166.159 194.782 165.981 195.513Z" fill="black"/>
<path opacity="0.1" d="M164.597 201.863H275.718L275.184 199.647H165.072L164.597 201.863Z" fill="black"/>
<path opacity="0.1" d="M163.251 208.232H277.26L276.726 205.997H163.726C163.587 206.748 163.389 207.48 163.251 208.232Z" fill="black"/>
<path opacity="0.1" d="M161.906 214.601H278.803L278.269 212.365H162.361C162.203 213.117 162.045 213.889 161.906 214.601Z" fill="black"/>
<path opacity="0.1" d="M160.601 220.95H280.286L279.752 218.715H161.076C160.898 219.466 160.74 220.218 160.601 220.95Z" fill="black"/>
<path opacity="0.1" d="M159.315 227.319H281.948C281.75 226.587 281.572 225.835 281.394 225.083H159.81C159.632 225.756 159.454 226.587 159.315 227.319Z" fill="black"/>
<path opacity="0.1" d="M158.069 233.668H283.412C283.234 232.936 283.076 232.204 282.878 231.433H158.505C158.366 232.224 158.208 232.956 158.069 233.668Z" fill="black"/>
<path opacity="0.1" d="M156.883 240.037H284.895C284.737 239.305 284.559 238.573 284.381 237.802H157.298C157.16 238.573 157.021 239.305 156.883 240.037Z" fill="black"/>
<path opacity="0.1" d="M155.676 246.406H286.22C286.082 245.714 285.924 244.962 285.726 244.171H156.072C156.012 244.962 155.894 245.694 155.676 246.406Z" fill="black"/>
<path opacity="0.1" d="M154.865 252.775H287.387C287.387 252.181 287.209 251.43 287.051 250.54H155.082C155.003 251.469 154.924 252.201 154.865 252.775Z" fill="black"/>
<path d="M189.361 257.977L168.414 168.435L160.147 88.1504L116.711 99.6818L80.3959 92.403L47.9379 106.288L1.71329 95.8248L32.9846 180.619L46.1577 266.482L81.108 275.145L116.256 260.054L151.879 271.704L189.361 257.977Z" fill="#EBEBEB"/>
<path d="M151.878 271.704L116.711 99.6819L80.3955 92.4031L116.256 260.054L151.878 271.704Z" fill="#DBDBDB"/>
<path d="M81.1071 275.145L47.9369 106.288L1.71236 95.825L32.9837 180.619L46.1568 266.482L81.1071 275.145Z" fill="#DBDBDB"/>
<path d="M10.4157 134.197C8.9718 142.702 2.6424 154.57 3.63137 160.899C3.82405 162.47 4.51635 163.936 5.60614 165.083C6.69593 166.23 8.12549 166.996 9.68387 167.268C9.68387 167.268 4.42254 172.055 6.2818 177.652C7.23122 180.54 12.6904 181.608 12.6904 181.608C11.5572 182.756 10.762 184.194 10.3922 185.764C10.0223 187.334 10.092 188.976 10.5937 190.509C12.1563 194.465 17.3781 194.821 17.3781 194.821C17.3781 194.821 15.2815 200.478 18.1495 203.92C23.9449 210.922 58.5391 201.15 60.2797 186.889C61.0907 180.244 52.7833 183.092 52.7833 183.092C52.7833 183.092 63.7609 176.11 61.9214 168.91C60.0819 161.71 49.4999 166.081 49.4999 166.081C49.4999 166.081 60.0819 159.218 57.4117 151.959C54.7415 144.7 44.7924 150.574 44.7924 150.574C44.7924 150.574 51.0229 143.197 47.7 138.094C42.2606 129.687 28.059 146.164 20.0087 146.52L15.8748 134.355L10.4157 134.197Z" fill="#FFB2A6"/>
<path d="M7.3304 146.816C8.0029 138.627 1.75259 136.926 0.190018 129.193C-1.55057 120.549 9.071 119.936 15.7169 133.861L20.009 146.46L7.3304 146.816Z" fill="#FFB2A6"/>
<path d="M18.1883 194.94C18.162 194.94 18.1369 194.95 18.1183 194.969C18.0998 194.987 18.0894 195.012 18.0894 195.039C18.0894 195.065 18.0998 195.09 18.1183 195.109C18.1369 195.127 18.162 195.137 18.1883 195.137C30.8372 194.711 43.0589 190.455 53.2374 182.934C53.5539 182.676 53.2374 182.063 52.8814 182.261C41.9916 188.144 30.3053 192.415 18.1883 194.94Z" fill="#263238"/>
<path d="M12.5317 181.668C12.3932 181.668 12.5317 181.925 12.5317 181.905C26.4742 181.319 39.7446 175.754 49.9346 166.22C50.2708 165.884 50.2511 165.231 49.8159 165.587C42.6558 171.738 23.9444 179.472 12.5317 181.668Z" fill="#263238"/>
<path d="M45.3255 149.566C35.2577 158.783 23.2714 163.846 10.1971 167.367C10.0389 167.367 10.1971 167.664 10.1971 167.664C17.0606 167.664 25.1504 164.657 31.2623 161.73C36.9804 159.142 41.9185 155.097 45.5826 150.001C45.7804 149.704 45.543 149.368 45.3255 149.566Z" fill="#263238"/>
<path d="M244.683 103.954C267.745 129.509 312.447 195.494 303.843 212.998C292.272 236.575 248.362 271.743 232.637 277.499C225.853 279.972 196.658 230.8 202.968 226.29C210.484 220.89 252.258 191.162 251.843 188.373C251.427 185.584 238.294 153.462 231.134 125.079C222.767 92.2448 232.004 89.9109 244.683 103.954Z" fill="#FFB2A6"/>
<path d="M231.451 221.662C231.451 221.662 210.227 215.946 196.184 212.84C188.272 211.119 174.644 209.379 168.315 210.744C158.84 212.722 120.508 227.398 123.85 236.773C126.877 245.259 158.207 228.525 158.207 228.525C158.207 228.525 125.097 242.608 130.615 252.142C136.133 261.676 169.027 238.079 169.027 238.079C169.027 238.079 135.402 253.309 142.582 262.249C148.06 269.014 179.055 249.294 179.055 249.294C179.055 249.294 150.197 262.605 155.517 269.785C161.451 277.697 191.12 261.339 191.12 261.339C207.775 277.341 222.767 280.347 232.657 277.499C235.05 276.787 231.451 221.662 231.451 221.662Z" fill="#FFB2A6"/>
<path d="M169.343 222.908C165.387 224.431 161.431 225.934 157.594 227.794C153.757 229.653 150.058 231.65 146.439 233.846C141.664 236.625 137.224 239.944 133.206 243.736C140.841 237.505 154.331 230.642 158.148 228.782C161.965 226.923 165.625 224.827 169.422 223.007C169.521 223.007 169.521 222.868 169.343 222.908Z" fill="#263238"/>
<path d="M176.326 236.516C171.362 238.672 166.436 240.61 161.492 242.984C156.547 245.358 152.255 248.008 147.646 250.698C147.27 250.916 147.507 251.034 147.883 250.836C152.65 248.344 157.259 246.406 162.045 243.953C166.832 241.501 171.559 238.89 176.425 236.635L176.326 236.516Z" fill="#263238"/>
<path d="M184.396 247.118C176.708 250.226 169.364 254.124 162.48 258.748C162.144 258.966 162.48 259.104 162.817 258.906C170.036 254.951 175.654 251.687 184.574 247.375C184.633 247.316 184.554 247.059 184.396 247.118Z" fill="#263238"/>
<path d="M240.391 159.693L289.286 149.942C289.286 149.942 254.85 107.277 241.182 97.5853C225.794 86.6869 223.578 96.9326 226.446 114.635C229.314 132.338 240.391 159.693 240.391 159.693Z" fill="#37474F"/>
<path d="M239.957 151.148C241.598 150.555 256.809 147.39 260.132 146.777C263.454 146.164 277.003 143.533 280.485 143.177C280.516 143.177 280.546 143.19 280.569 143.212C280.591 143.234 280.603 143.264 280.603 143.296C280.603 143.327 280.591 143.357 280.569 143.38C280.546 143.402 280.516 143.414 280.485 143.414C277.142 144.403 263.474 147.113 260.112 147.805C256.749 148.498 241.618 151.306 239.917 151.385C239.838 151.385 239.838 151.188 239.957 151.148Z" fill="#263238"/>
<path d="M211.612 82.7508C222.391 81.5442 235.347 90.7812 225.734 103.262C216.121 115.743 205.955 118.176 200.258 116.435C193.513 114.319 191.001 100.612 192.663 94.2426C194.324 87.8736 202.414 83.7793 211.612 82.7508Z" fill="#455A64"/>
<path d="M202.752 111.925C207.261 112.598 220.553 104.35 225.518 95.4491C225.854 94.8359 223.54 70.2105 223.639 65.2855C223.639 64.2767 192.664 72.4258 192.664 72.4258C194.36 78.6047 195.29 84.9687 195.433 91.3745C195.415 92.0397 195.335 92.7018 195.196 93.3525C195.196 93.3525 195.196 93.5503 195.196 93.6887C194.484 97.5655 196.145 111.035 202.752 111.925Z" fill="#FFB2A6"/>
<path d="M221.661 65.4238C220.415 72.8807 215.411 93.748 198.321 93.9458C197.262 93.9581 196.204 93.8853 195.156 93.7282V93.392C195.28 92.7393 195.353 92.078 195.374 91.414C195.233 85.0093 194.31 78.6459 192.625 72.4653C192.625 72.4653 214.797 66.6106 221.661 65.4238Z" fill="#263238"/>
<path d="M178.343 17.5576C178.343 17.5576 169.007 23.7881 169.185 34.4691C169.363 45.15 173.833 55.5144 174.822 55.8704C175.811 56.2264 178.343 17.5576 178.343 17.5576Z" fill="#263238"/>
<path d="M220.632 23.6496C226.17 33.6778 227.06 65.8392 220.909 74.3443C211.968 86.6867 194.088 91.4734 182.774 80.0013C171.816 68.8654 171.401 26.933 178.581 18.863C189.163 6.97555 212.463 8.8546 220.632 23.6496Z" fill="#FFB2A6"/>
<path d="M194.403 49.2444C194.403 49.2444 194.562 49.2444 194.562 49.4422C194.562 51.5981 194.937 54.0903 196.915 54.7431V54.8617C194.502 54.6046 194.047 51.3014 194.403 49.2444Z" fill="#263238"/>
<path d="M196.263 46.9302C199.724 46.5544 200.219 53.5168 197.014 53.8728C193.81 54.2288 193.256 47.2467 196.263 46.9302Z" fill="#263238"/>
<path d="M182.477 49.9563C182.477 49.8574 182.319 49.9563 182.319 50.1541C182.556 52.31 182.437 54.822 180.538 55.6725C180.538 55.6725 180.538 55.811 180.538 55.7912C182.932 55.2769 183.031 51.954 182.477 49.9563Z" fill="#263238"/>
<path d="M180.381 47.8401C176.9 47.8401 177.117 54.8025 180.381 54.8222C183.644 54.842 183.368 47.8401 180.381 47.8401Z" fill="#263238"/>
<path d="M199.191 44.596C198.253 44.4035 197.328 44.1525 196.422 43.8444C195.412 43.7147 194.474 43.2559 193.751 42.539C193.568 42.2697 193.478 41.9476 193.496 41.6223C193.514 41.2969 193.638 40.9866 193.85 40.739C194.345 40.3115 194.946 40.0252 195.59 39.9103C196.234 39.7955 196.897 39.8563 197.509 40.0863C198.823 40.3601 199.987 41.1149 200.773 42.2027C200.94 42.4581 201.028 42.7567 201.028 43.0618C201.027 43.3669 200.937 43.665 200.769 43.9195C200.6 44.174 200.361 44.3737 200.081 44.4939C199.8 44.6141 199.491 44.6496 199.191 44.596Z" fill="#263238"/>
<path d="M177.433 42.9742C178.352 42.7214 179.257 42.4176 180.142 42.0644C181.143 41.8722 182.053 41.3582 182.733 40.6007C182.904 40.3209 182.977 39.9926 182.941 39.667C182.905 39.3414 182.763 39.0368 182.536 38.8008C182.013 38.4076 181.395 38.1601 180.745 38.0837C180.095 38.0072 179.437 38.1045 178.837 38.3656C177.548 38.7189 176.435 39.536 175.712 40.66C175.554 40.9251 175.479 41.2308 175.495 41.5387C175.511 41.8466 175.617 42.1429 175.801 42.3903C175.985 42.6377 176.238 42.8251 176.529 42.929C176.819 43.0329 177.133 43.0486 177.433 42.9742Z" fill="#263238"/>
<path d="M198.4 68.6084C197.925 69.1623 197.45 69.8941 196.679 70.0128C195.87 70.0559 195.061 69.9278 194.305 69.637C194.305 69.637 194.167 69.637 194.305 69.7556C194.643 70.1599 195.086 70.4639 195.584 70.6348C196.083 70.8056 196.619 70.8368 197.134 70.7248C197.557 70.5815 197.931 70.3183 198.208 69.9673C198.485 69.6162 198.655 69.1923 198.696 68.7469C198.637 68.5689 198.459 68.5293 198.4 68.6084Z" fill="#263238"/>
<path d="M195.671 62.2988C195.179 63.1933 194.509 63.9777 193.703 64.6036C192.897 65.2295 191.971 65.6837 190.983 65.9383C190.123 66.156 189.238 66.2559 188.352 66.235C188.181 66.2551 188.009 66.2551 187.838 66.235H187.363C187.246 66.2198 187.136 66.1674 187.051 66.0856C186.966 66.0037 186.909 65.8966 186.888 65.78V65.5427V65.3449C186.71 63.6834 186.691 61.1319 186.691 61.1319C186.117 61.4879 183.111 63.1098 183.091 62.2395C182.751 54.7262 183.176 47.1977 184.357 39.7701C184.357 39.7176 184.378 39.6673 184.415 39.6302C184.452 39.5931 184.502 39.5723 184.555 39.5723C184.607 39.5723 184.657 39.5931 184.694 39.6302C184.731 39.6673 184.752 39.7176 184.752 39.7701C185.108 46.7126 184.258 53.6157 184.495 60.6374C185.564 60.0538 186.709 59.6212 187.897 59.3517C188.135 59.3517 187.897 64.257 187.897 64.9889C189.272 65.0305 190.641 64.7945 191.922 64.2949C193.203 63.7953 194.371 63.0424 195.354 62.0813C195.591 61.9824 195.769 62.1208 195.671 62.2988Z" fill="#263238"/>
<path d="M189.3 65.3251C190.303 66.4458 191.577 67.2903 192.999 67.7777C193.776 68.0343 194.615 68.0343 195.392 67.7777C197.093 67.2041 197.014 65.6218 196.599 64.2965C196.368 63.603 196.056 62.9391 195.669 62.3186C193.925 63.9798 191.692 65.0342 189.3 65.3251Z" fill="#263238"/>
<path d="M192.961 67.7776C193.738 68.0341 194.577 68.0341 195.354 67.7776C197.055 67.204 196.976 65.6216 196.56 64.2964C195.651 64.3723 194.796 64.7604 194.139 65.3948C193.483 66.0293 193.067 66.8711 192.961 67.7776Z" fill="#FF9CBD"/>
<path d="M224.469 53.9123C220.631 55.1979 215.924 43.6665 214.579 39.2359C213.392 35.28 211.829 22.8585 211.612 22.008C211.394 21.1575 195.017 33.4405 185.206 30.8099C175.396 28.1792 168.71 19.5751 168.473 15.5006C168.236 11.426 180.123 0.804431 190.567 0.0330327C201.01 -0.738366 215.489 12.2567 215.489 12.2567C213.727 10.3712 212.12 8.34718 210.682 6.20423C210.841 5.72952 217.645 8.18217 219.009 13.0677C219.009 13.0677 217.526 7.13386 218.04 6.91629C218.555 6.69871 223.974 11.8611 222.827 15.817C222.827 15.817 229.018 20.9399 229.71 26.6957C230.402 32.4516 228.978 52.4288 224.469 53.9123Z" fill="#263238"/>
<path d="M178.225 28.9308C181.146 30.4165 184.273 31.4565 187.501 32.0164C191.098 32.2152 194.689 31.5364 197.965 30.0384C201.285 28.6595 204.358 26.7489 207.063 24.3815C209.437 22.4036 211.553 19.852 214.105 18.0125C214.757 17.5378 215.529 18.4674 215.153 19.0608C210.953 25.2865 204.855 29.9899 197.767 32.4713C194.478 33.6306 190.944 33.9156 187.511 33.2984C184.078 32.6812 180.865 31.183 178.185 28.9506C178.185 28.9506 178.185 28.911 178.225 28.9308Z" fill="#263238"/>
<path d="M200.297 60.7559C202.065 60.4675 203.716 59.689 205.064 58.5088C206.411 57.3287 207.4 55.7943 207.919 54.0799C208.438 52.3656 208.465 50.5402 207.998 48.8111C207.531 47.082 206.588 45.5186 205.277 44.2987C203.965 43.0787 202.338 42.251 200.58 41.9098C198.822 41.5685 197.003 41.7273 195.33 42.3682C193.658 43.009 192.199 44.1062 191.119 45.535C190.039 46.9639 189.381 48.667 189.221 50.4509C189.007 52.9801 189.802 55.4914 191.432 57.4369C193.062 59.3823 195.396 60.6039 197.924 60.8351C198.715 60.9083 199.513 60.8818 200.297 60.7559ZM197.429 43.1127C198.087 43.0394 198.75 43.0394 199.407 43.1127C201.51 43.3648 203.437 44.4102 204.794 46.0353C206.152 47.6604 206.837 49.7426 206.711 51.8563C206.585 53.9701 205.656 55.9558 204.115 57.4078C202.574 58.8597 200.536 59.6683 198.418 59.6683C196.301 59.6683 194.263 58.8597 192.722 57.4078C191.181 55.9558 190.252 53.9701 190.126 51.8563C190 49.7426 190.685 47.6604 192.043 46.0353C193.4 44.4102 195.327 43.3648 197.429 43.1127Z" fill="#E51D1B"/>
<path d="M178.343 61.5866C181.963 60.9932 184.633 56.7604 184.415 51.6969C184.36 49.3057 183.55 46.9933 182.101 45.0905C181.536 44.2316 180.758 43.5342 179.842 43.0666C178.927 42.599 177.906 42.3773 176.879 42.4231C175.852 42.469 174.854 42.7809 173.984 43.3282C173.114 43.8756 172.401 44.6396 171.915 45.5455C170.648 47.5656 170.04 49.9293 170.174 52.31C170.411 57.5911 173.794 61.7448 177.73 61.5668L178.343 61.5866ZM176.365 43.7851H176.859C177.678 43.7806 178.485 43.9744 179.211 44.3498C179.938 44.7253 180.563 45.2713 181.033 45.941C182.291 47.6663 182.982 49.7398 183.011 51.8749C183.209 56.4242 180.756 60.2614 177.532 60.3998C174.308 60.5383 171.598 56.9384 171.321 52.4881C171.199 50.3998 171.731 48.3254 172.844 46.5542C173.198 45.8522 173.706 45.2388 174.329 44.7595C174.952 44.2802 175.675 43.9471 176.444 43.7851H176.365Z" fill="#E51D1B"/>
<path d="M189.598 51.5586L190.369 50.5301C188.866 49.3829 185.444 47.8797 183.229 50.5301L184.198 51.3608C186.176 48.9873 189.459 51.44 189.598 51.5586Z" fill="#E51D1B"/>
<path d="M230.443 52.5672L231.551 51.9343C231.254 51.42 228.564 46.8707 225.617 46.5345C222.67 46.1982 207.815 48.1366 207.004 48.2553L207.182 49.5212C213.237 48.6038 219.339 48.0293 225.459 47.8004C227.436 48.0179 229.731 51.3211 230.443 52.5672Z" fill="#E51D1B"/>
<path d="M219.365 50.2927C219.365 50.2927 224.468 38.8997 229.512 40.5414C234.556 42.1831 232.044 57.7496 227.079 60.756C226.466 61.1943 225.77 61.5032 225.034 61.6642C224.298 61.8251 223.537 61.8346 222.797 61.6922C222.057 61.5497 221.353 61.2583 220.729 60.8355C220.106 60.4128 219.574 59.8675 219.168 59.233L219.365 50.2927Z" fill="#FFB2A6"/>
<path d="M228.682 44.9719C228.682 44.9719 228.8 45.0708 228.682 45.1104C225.22 47.3455 223.895 51.2024 223.203 55.0001C223.35 54.5816 223.585 54.2 223.894 53.8816C224.203 53.5632 224.577 53.3155 224.991 53.1556C225.404 52.9958 225.848 52.9276 226.29 52.9558C226.733 52.984 227.164 53.1078 227.554 53.3189V53.5562C226.856 53.473 226.149 53.6068 225.53 53.9395C224.911 54.2722 224.409 54.7875 224.093 55.4155C223.586 56.4802 223.188 57.5935 222.906 58.7384C222.787 59.1142 222.154 59.0351 222.214 58.7384C221.185 53.8529 223.638 46.4356 228.682 44.9719Z" fill="#263238"/>
</svg>
