<svg width="293" height="384" viewBox="0 0 293 384" fill="none" xmlns="http://www.w3.org/2000/svg">
<path d="M97.4662 169.878C51.8427 224.769 16.4343 267.794 18.8392 286.445C24.2445 328.153 46.9745 334.098 51.0488 333.188C78.8222 326.964 118.935 230.97 134.042 182.199C147.526 138.638 121.842 140.596 97.4662 169.878Z" fill="#37474F"/>
<path opacity="0.1" d="M22.6098 270.429C27.1602 273.184 31.4575 276.336 35.4516 279.847C41.2888 284.93 46.5773 290.455 52.6597 295.199C58.2297 299.586 64.2621 303.354 70.6499 306.436C72.7046 307.415 74.7826 308.336 76.8957 309.152C78.1954 307.264 79.4913 305.298 80.7832 303.254C74.0717 300.707 67.6907 297.365 61.7774 293.299C55.66 289.126 50.173 284.137 44.4176 279.497C38.9482 275.06 33.087 271.127 26.906 267.747C26.1277 267.305 25.3105 266.873 24.4544 266.454C23.7773 267.817 23.1469 269.146 22.6098 270.429ZM41.1838 240.296C45.289 241.793 49.4894 243.016 53.7571 243.956C73.2299 247.861 89.7959 235.691 106.455 227.1C101.586 221.5 96.1826 216.386 90.3212 211.83C86.1611 208.636 81.5907 206.013 76.7322 204.032C74.8229 203.282 72.8743 202.636 70.8951 202.097L75.2262 196.781C79.9787 198.196 84.5299 200.214 88.7685 202.785C97.8045 208.31 105.229 216.073 112.281 223.86L112.549 224.151L113.775 223.615C115.923 222.706 118.098 221.878 120.301 221.132C118.41 226.016 116.413 230.994 114.335 236.006C113.693 235.272 113.051 234.526 112.397 233.791L111.23 232.451C105.299 235.377 99.5556 238.734 93.7185 241.776C84.0637 246.859 73.4401 251.638 62.291 251.393C56.0102 251.253 50.103 249.143 44.4176 246.649L38.5103 244.038C39.3626 242.837 40.2615 241.566 41.1838 240.296ZM102.626 164.108C105.556 165.746 108.577 167.217 111.674 168.514C119.717 171.929 128.683 171.638 137.077 169.679C137.489 167.264 137.719 164.821 137.766 162.371C135.716 162.91 133.639 163.342 131.543 163.665C127.286 164.273 122.966 164.3 118.702 163.746C114.996 163.413 111.347 162.61 107.844 161.357C112.818 159.655 117.826 158.081 122.928 156.834C127.434 155.708 132.026 154.955 136.657 154.584C136.157 152.891 135.136 151.399 133.738 150.319C132.34 149.239 130.636 148.627 128.87 148.569C126.348 148.977 123.85 149.502 121.363 150.108C115.76 152.427 109.245 157.195 102.626 164.096V164.108Z" fill="black"/>
<path opacity="0.1" d="M53.6987 332.291C81.3086 320.937 119.402 229.385 134.042 182.152C138.595 167.453 138.711 157.953 135.84 152.917L53.6987 332.291Z" fill="black"/>
<path d="M82.1491 384L293 383.674C292.475 379.337 248.486 184.04 197.48 139.057C179.969 123.6 146.452 135.082 142.249 138.509C101.459 171.731 79.0671 381.459 82.1491 384Z" fill="#37474F"/>
<path d="M82.1491 384L293 383.674C292.93 383.091 292.089 379.116 290.548 372.565C290.467 372.157 290.362 371.749 290.268 371.329C288.821 365.186 286.836 357.026 284.373 347.41C283.742 344.938 283.077 342.362 282.376 339.704C276.446 317.137 268.285 288.357 258.549 259.39C257.837 257.245 257.101 255.1 256.366 252.943C255.875 251.521 255.373 250.111 254.883 248.689L253.19 243.898C246.485 224.716 238.758 205.906 230.04 187.549C229.013 185.451 227.982 183.388 226.946 181.359C220.572 168.875 213.929 157.929 207.1 149.373C205.096 146.832 202.952 144.404 200.679 142.099C199.617 141.015 198.543 140.001 197.469 139.057C179.957 123.6 146.44 135.082 142.237 138.509C139.038 141.243 136.25 144.423 133.96 147.951C132.294 150.402 130.759 152.939 129.36 155.551C127.913 158.232 126.488 161.119 125.087 164.212C124.107 166.396 123.138 168.669 122.181 171.031C116.694 184.588 111.674 200.954 107.296 218.533C106.665 221.004 106.058 223.51 105.451 226.04C105.311 226.646 105.159 227.264 105.019 227.87C104.319 230.831 103.634 233.811 102.965 236.81C97.7928 259.961 93.52 284.172 90.2161 306.121C89.8581 308.453 89.5157 310.741 89.1888 312.987C87.8345 322.313 86.6671 331.113 85.6865 339.157C85.5113 340.637 85.3246 342.094 85.1611 343.528C82.3593 367.214 81.2969 383.312 82.1491 384Z" fill="#37474F"/>
<path opacity="0.1" d="M85.1615 343.493C88.979 345.043 92.6915 346.838 96.3923 348.657C103.023 351.932 109.759 355.488 116.974 357.318C123.687 359.079 130.74 359.1 137.463 357.376C149.744 354.147 159.644 345.719 169.345 337.874C175.207 332.89 181.559 328.512 188.305 324.807L188.982 325.262C198.321 331.65 206.902 338.993 215.611 346.162C224.32 353.331 233.461 360.512 243.629 365.582C254.487 370.991 266.149 374.313 278.372 373.975C282.462 373.855 286.533 373.371 290.537 372.53C290.455 372.122 290.35 371.714 290.257 371.294C282.343 372.687 274.236 372.557 266.371 370.91C254.93 368.45 244.972 362.575 235.668 355.697C221.658 345.206 209.54 332.139 195.473 321.718C198.031 320.795 200.658 320.074 203.33 319.562C217.339 316.939 232.165 319.667 244.832 326.043C257.148 332.244 268.181 340.754 280.941 346.116C282.108 346.582 283.206 347.025 284.373 347.421C283.743 344.95 283.077 342.374 282.377 339.716C278.174 337.659 274.079 335.391 270.107 332.92C258.269 325.786 246.828 317.836 233.298 314.269C219.032 310.446 203.68 310.772 189.916 316.321C189.437 316.519 188.97 316.717 188.515 316.927C186.612 315.762 184.674 314.596 182.678 313.43C171.528 307.331 158.963 304.279 146.254 304.583C130.913 304.897 115.737 308.674 100.35 307.613C96.9418 307.377 93.5576 306.874 90.2282 306.11C89.8702 308.441 89.5277 310.73 89.2008 312.976L90.6018 313.267C98.0989 314.645 105.744 315.037 113.343 314.433C128.52 313.419 144 309.77 159.212 312.299C167.033 313.719 174.542 316.505 181.393 320.529C173.221 325.378 166.007 331.79 158.593 337.653C149.429 344.88 139.062 351.921 126.909 351.758C112.41 351.571 99.5794 343.598 86.1305 339.261L85.6752 339.122C85.5117 340.602 85.325 342.059 85.1615 343.493ZM105.008 227.835L106.432 227.089L105.44 226.005C106.047 223.475 106.607 220.969 107.284 218.498C108.966 220.27 110.623 222.065 112.246 223.86L112.515 224.151L113.74 223.615C125.236 218.693 137.66 216.307 150.164 216.621C162.306 216.947 173.945 220.118 185.188 224.676C196.208 229.14 206.855 234.479 218.063 238.477C227.978 242.118 238.459 243.984 249.023 243.991C250.424 243.991 251.813 243.933 253.214 243.851L254.93 248.654C245.886 250.035 236.671 249.838 227.694 248.071C215.926 245.681 204.987 240.727 194.06 235.936C183.133 231.145 172.042 226.378 160.204 224.501C148.095 222.604 135.71 223.522 124.014 227.182C121.772 227.87 119.589 228.709 117.429 229.607C122.718 235.753 128.395 241.554 134.427 246.975C142.901 254.505 153.255 259.608 164.395 261.744C191.842 266.908 219.125 256.231 246.186 253.48C249.548 253.142 252.957 252.943 256.366 252.908C257.102 255.065 257.837 257.21 258.549 259.355C256.506 259.355 254.463 259.518 252.409 259.693C224.682 262.117 197.341 272.457 169.252 269.379C156.975 268.215 145.242 263.76 135.291 256.487C126.641 250.018 119.472 241.881 112.386 233.791L111.219 232.451C108.44 233.815 105.708 235.283 103.047 236.776C103.661 233.784 104.323 230.803 105.031 227.835H105.008ZM122.169 170.997C127.67 171.331 133.19 170.776 138.513 169.353C147.456 167.092 155.838 163.163 164.197 159.328C167.863 160.809 171.447 162.499 174.937 164.282C183.436 168.63 191.585 173.608 200.084 177.979C208.517 182.492 217.636 185.592 227.075 187.153C228.033 187.293 228.99 187.421 229.947 187.514C228.92 185.416 227.889 183.353 226.853 181.324C224.421 180.755 222.021 180.058 219.662 179.238C202.991 173.41 188.667 163 172.801 155.528C178.645 152.949 184.745 150.995 191.001 149.7C196.3 148.696 201.73 148.586 207.065 149.373C205.061 146.832 202.918 144.404 200.644 142.1C194.928 142.008 189.23 142.77 183.74 144.361C177.018 146.39 170.454 148.91 164.104 151.903C157.24 149.3 149.995 147.839 142.658 147.578C139.742 147.521 136.826 147.646 133.925 147.951C132.26 150.402 130.724 152.939 129.326 155.551C135.941 154.335 142.709 154.19 149.371 155.12C151.133 155.388 152.873 155.761 154.589 156.193C147.094 159.515 139.622 162.511 131.497 163.734C129.364 164.053 127.21 164.213 125.053 164.212C124.103 166.373 123.15 168.634 122.193 170.997H122.169Z" fill="black"/>
<path d="M149.253 193.389C149.253 193.389 187.218 161.112 210.159 163.49L228.511 182.14C228.511 182.14 234.78 184.682 237.045 180.753C242.648 171.055 245.299 146.832 225.464 129.639C207.298 113.89 175.859 112.806 149.218 117.9C123.628 122.784 100.688 137.938 107.272 154.84C113.857 171.743 149.253 193.389 149.253 193.389Z" fill="#37474F"/>
<path opacity="0.1" d="M147.268 185.509C147.268 185.509 119.857 162.988 117.721 150.539C115.584 138.09 140.812 128.24 156.865 124.754C181.766 119.381 198.297 122.085 211.081 136.038C223.864 149.991 147.268 185.509 147.268 185.509Z" fill="black"/>
<path d="M150.012 184.005C162.515 184.402 179.28 162.044 184.37 145.655C184.708 144.489 180.984 134.185 177.062 121.397C174.727 113.634 172.264 104.926 170.617 96.8248C170.291 95.1695 122.239 119.509 122.239 119.509C122.239 119.509 130.703 135.467 133.493 149.618C133.708 150.736 133.817 151.872 133.82 153.01C133.81 153.197 133.81 153.383 133.82 153.57C134.112 160.098 137.929 183.609 150.012 184.005Z" fill="#FFB096"/>
<path d="M167.535 97.6758C167.955 111.85 166.169 146.634 139.131 152.8C137.401 153.208 135.64 153.469 133.866 153.581C133.846 153.392 133.846 153.2 133.866 153.01C133.856 151.873 133.751 150.738 133.551 149.618C130.761 135.455 122.285 119.486 122.285 119.486C122.285 119.486 156.865 101.93 167.535 97.6758Z" fill="#263238"/>
<path d="M158.173 31.314C169.205 47.0739 176.361 100.59 167.512 115.895C154.764 138.043 125.695 149.21 104.762 132.028C84.4723 115.382 76.3703 45.4653 86.9589 30.7312C102.603 9.01471 141.887 8.0472 158.173 31.314Z" fill="#FFB096"/>
<path d="M118.655 78.2673C118.655 78.1274 118.958 78.4188 118.97 78.5587C119.215 82.1956 120.138 86.3104 123.511 87.1847C123.616 87.1847 123.628 87.3945 123.511 87.3828C119.449 87.173 118.34 81.7643 118.655 78.2673Z" fill="#263238"/>
<path d="M121.515 74.1175C127.352 73.0917 128.928 84.7251 123.57 85.6693C118.211 86.6135 116.67 74.9801 121.515 74.1175Z" fill="#263238"/>
<path d="M98.4929 81.1465C98.4929 81.0183 98.236 81.3563 98.2594 81.5078C98.8781 85.0981 98.9832 89.3062 95.9245 90.9498C95.8311 91.0081 95.9245 91.1829 95.9829 91.148C99.8354 90.0406 99.6603 84.4453 98.4929 81.1465Z" fill="#263238"/>
<path d="M94.7337 77.836C88.8965 78.209 90.064 89.889 95.4809 89.551C100.898 89.213 99.6603 77.5329 94.7337 77.836Z" fill="#263238"/>
<path d="M125.846 64.4773C124.234 64.5259 122.621 64.487 121.013 64.3608C119.169 64.3608 117.686 64.4424 116.11 63.3116C115.702 62.9467 115.427 62.4569 115.327 61.9189C115.228 61.381 115.31 60.8254 115.561 60.3392C116.729 58.3109 119.063 57.8213 121.27 57.798C123.52 57.7095 125.722 58.4618 127.446 59.9079C129.279 61.365 128.018 64.2792 125.846 64.4773Z" fill="#263238"/>
<path d="M88.2086 70.1076C89.726 69.5711 91.2146 68.9564 92.6682 68.2658C94.3726 67.5431 95.7969 67.1002 96.8593 65.5148C97.1054 65.0257 97.1828 64.4691 97.0793 63.9315C96.9759 63.3939 96.6974 62.9056 96.2872 62.5424C94.4427 61.0736 92.1428 61.4466 90.0531 62.2393C87.9245 62.9655 86.1431 64.4574 85.0565 66.4241C83.8774 68.4407 86.1305 70.7371 88.2086 70.1076Z" fill="#263238"/>
<path d="M129.372 110.906C128.625 111.874 127.924 113.156 126.628 113.447C125.283 113.607 123.919 113.484 122.624 113.086C122.598 113.069 122.566 113.063 122.535 113.07C122.504 113.076 122.478 113.095 122.46 113.121C122.443 113.147 122.438 113.179 122.444 113.21C122.451 113.24 122.469 113.267 122.496 113.284C123.11 113.921 123.886 114.38 124.742 114.612C125.597 114.844 126.499 114.841 127.352 114.601C128.051 114.301 128.645 113.801 129.061 113.164C129.476 112.527 129.694 111.783 129.687 111.023C129.769 110.743 129.477 110.708 129.372 110.906Z" fill="#263238"/>
<path d="M124.072 100.59C123.356 102.144 122.325 103.533 121.045 104.67C119.766 105.808 118.264 106.669 116.636 107.199C115.22 107.682 113.741 107.957 112.246 108.015C111.959 108.044 111.669 108.044 111.382 108.015C111.114 108.015 110.88 108.015 110.577 108.015C110.378 108.008 110.188 107.934 110.037 107.805C109.887 107.675 109.785 107.499 109.748 107.304C109.736 107.18 109.736 107.055 109.748 106.931V106.616C109.292 103.854 108.966 99.6224 108.966 99.6224C108.02 100.264 103.128 103.318 103.047 101.849C102.089 89.7608 101.015 76.3089 102.615 64.0694C102.615 63.9797 102.65 63.8937 102.714 63.8303C102.777 63.7669 102.863 63.7313 102.953 63.7313C103.043 63.7313 103.129 63.7669 103.193 63.8303C103.256 63.8937 103.292 63.9797 103.292 64.0694C104.681 75.6562 104.016 87.3828 105.218 99.0396C106.782 98.177 109.316 96.6499 110.775 96.4751C111.184 96.5334 111.242 104.705 111.557 105.929C111.548 105.971 111.548 106.015 111.557 106.057C116.309 106.057 119.624 104.099 123.722 100.345C123.92 100.077 124.247 100.275 124.072 100.59Z" fill="#263238"/>
<path d="M113.67 106.383C115.472 108.149 117.7 109.421 120.138 110.079C121.486 110.396 122.9 110.278 124.177 109.74C126.955 108.575 126.652 105.929 125.811 103.749C125.351 102.591 124.755 101.492 124.037 100.473C121.303 103.499 117.669 105.571 113.67 106.383Z" fill="#263238"/>
<path d="M120.149 110.078C121.494 110.393 122.904 110.275 124.177 109.74C126.955 108.575 126.652 105.929 125.811 103.749C122.753 104.53 119.997 107.048 120.149 110.078Z" fill="#FF98B9"/>
<path d="M82.8262 51.2003C103.98 61.6331 127.481 37.9233 127.481 37.9233C135.84 52.0746 150.631 48.123 150.631 48.123C150.631 48.123 159.083 80.144 167.664 78.8501C180.763 76.9034 178.439 31.9201 173.057 23.7837C167.676 15.6473 156.246 15.0062 156.246 15.0062C156.246 15.0062 154.46 8.3502 145.483 3.34946C135.559 -2.2108 106 11.4159 106 11.4159C103.646 7.54438 100.415 4.27842 96.567 1.88071C95.6393 1.2812 94.5994 0.875787 93.5102 0.689004C92.4211 0.502221 91.3054 0.537944 90.2304 0.794008C89.1555 1.05007 88.1438 1.52116 87.2564 2.17878C86.3691 2.8364 85.6245 3.66689 85.0677 4.62004C87.0501 6.79053 88.5149 9.38086 89.3522 12.1969C92.2708 21.5223 84.4723 22.618 83.2932 13.9571C82.742 10.7367 83.372 7.42583 85.0677 4.6317C80.398 -0.473951 73.8603 -1.40649 70.4748 2.16047C64.3457 8.60664 65.233 42.5277 82.8262 51.2003Z" fill="#263238"/>
<path d="M151.028 37.5619C151.026 37.5005 151.037 37.4392 151.06 37.3823C151.083 37.3253 151.118 37.274 151.163 37.2318C151.208 37.1895 151.261 37.1574 151.32 37.1374C151.378 37.1174 151.44 37.1101 151.501 37.116C151.562 37.1219 151.622 37.1408 151.675 37.1714C151.729 37.2021 151.775 37.2438 151.811 37.2938C151.847 37.3437 151.871 37.4008 151.884 37.4611C151.896 37.5214 151.895 37.5836 151.88 37.6435C151.659 44.3345 151.413 51.0954 152.791 57.7281C154.169 64.3608 160.006 80.2722 169.135 76.985C169.225 76.9464 169.325 76.9441 169.416 76.9786C169.507 77.0132 169.581 77.0818 169.622 77.1699C169.663 77.258 169.668 77.3586 169.636 77.4504C169.604 77.5421 169.538 77.6177 169.45 77.6611C163.613 81.5311 158.196 74.1641 155.359 68.9185C150.234 59.4067 149.861 48.0297 151.028 37.5619Z" fill="#263238"/>
<path d="M70.918 1.62426C70.9273 1.61035 70.9417 1.60069 70.9582 1.59742C70.9746 1.59414 70.9916 1.59751 71.0056 1.60678C71.0195 1.61606 71.0292 1.63048 71.0324 1.64687C71.0357 1.66327 71.0324 1.68029 71.0231 1.6942C62.851 15.7988 63.0261 34.1815 74.2102 46.8057C88.2778 62.6939 110.015 48.053 122.881 38.646C123.511 38.1798 124.317 39.0773 123.686 39.5669C111.241 49.207 89.0483 63.3816 74.6538 49.1721C61.8937 36.4429 61.5435 16.1719 70.918 1.62426Z" fill="#263238"/>
<path d="M153.48 15.321C166.543 14.8547 176.618 19.6106 179.84 33.0392C183.062 46.4677 179.689 61.5282 171.773 72.6721C171.69 72.763 171.576 72.8209 171.454 72.8352C171.331 72.8494 171.207 72.8191 171.105 72.7497C171.003 72.6804 170.93 72.5766 170.898 72.4575C170.866 72.3383 170.879 72.2117 170.933 72.1009C176.28 62.8338 179.852 52.9605 179.572 42.1198C179.362 34.1 177.155 25.4273 170.734 20.0769C166.065 16.2185 159.118 16.1369 153.433 15.8455C153.106 15.8455 153.164 15.3792 153.48 15.321Z" fill="#263238"/>
<path d="M102.556 14.6915C117.196 2.58014 147.654 -11.2681 156.083 14.843C156.153 15.0645 155.791 15.1811 155.709 14.9712C145.739 -10.9766 118.351 5.22622 102.976 15.3326C102.603 15.5774 102.217 14.9712 102.556 14.6915Z" fill="#263238"/>
<path d="M157.274 77.4164C157.274 77.4164 163.811 57.5067 172.52 59.3485C181.23 61.1902 179.794 87.5927 172.042 93.5377C171.095 94.3619 169.992 94.9871 168.798 95.3758C167.604 95.7645 166.344 95.9088 165.092 95.8C163.841 95.6912 162.625 95.3315 161.516 94.7425C160.407 94.1535 159.429 93.3472 158.64 92.372L157.274 77.4164Z" fill="#FFB096"/>
<path d="M171.913 66.9136C171.942 66.906 171.971 66.9082 171.998 66.9199C172.025 66.9315 172.047 66.9519 172.061 66.9777C172.074 67.0035 172.079 67.0331 172.073 67.0618C172.067 67.0904 172.052 67.1163 172.03 67.1351C166.637 71.4831 165.119 78.1507 164.64 84.7368C165.808 81.9159 167.897 79.9226 171.645 81.1698C171.832 81.2398 171.762 81.5312 171.575 81.5545C170.39 81.5359 169.228 81.8846 168.249 82.5527C167.271 83.2207 166.524 84.1752 166.111 85.2847C165.437 87.1446 164.963 89.0711 164.699 91.0314C164.582 91.6725 163.531 91.6725 163.531 91.0314C163.537 90.9772 163.537 90.9225 163.531 90.8682C160.963 83.0466 163.741 70.2475 171.913 66.9136Z" fill="#263238"/>
<path d="M147.269 185.509C147.269 185.509 179.082 139.302 214.98 136.982L210.147 163.478C210.147 163.478 188.923 162.067 149.242 193.377L147.269 185.509Z" fill="#37474F"/>
<path d="M219.72 164.632C213.264 163.373 206.691 164.376 200.446 165.879C194.18 167.51 188.124 169.857 182.397 172.873C176.624 175.797 171.05 179.099 165.714 182.758L157.846 188.482L150.234 194.566L149.382 195.254L148.518 194.73C142.101 190.883 135.957 186.599 130.131 181.907C127.185 179.596 124.386 177.104 121.749 174.447C119.078 171.835 116.673 168.965 114.569 165.879C119.472 171.486 125.368 175.997 131.333 180.334C134.322 182.49 137.416 184.507 140.544 186.465C143.673 188.423 146.813 190.393 150.001 192.177L148.284 192.34L155.92 186.034C158.546 184.04 161.231 182.105 163.916 180.205C166.602 178.305 169.462 176.603 172.322 174.937C175.182 173.27 178.159 171.696 181.171 170.39C187.177 167.534 193.525 165.458 200.06 164.212C201.683 163.874 203.341 163.711 204.987 163.49C206.633 163.268 208.302 163.268 209.96 163.303C213.266 163.188 216.566 163.637 219.72 164.632Z" fill="#263238"/>
<path d="M228.511 182.152C225.069 179.446 221.813 176.514 218.763 173.375C215.674 170.278 212.8 166.975 210.159 163.49C213.605 166.185 216.862 169.114 219.907 172.255C222.995 175.357 225.87 178.663 228.511 182.152Z" fill="#263238"/>
<path d="M163.041 175.135C165.386 186.224 166.769 197.495 167.174 208.823C167.512 216.703 165.084 245.063 156.281 244.236C147.479 243.408 161.383 224.839 163.566 209.86C165.784 194.706 161.523 184.04 160.788 175.111L163.041 175.135Z" fill="#37474F"/>
<g opacity="0.1">
<path d="M163.041 175.135C165.386 186.224 166.769 197.495 167.174 208.823C167.512 216.703 165.084 245.063 156.281 244.236C147.479 243.408 161.383 224.839 163.566 209.86C165.784 194.706 161.523 184.04 160.788 175.111L163.041 175.135Z" fill="black"/>
</g>
<path d="M130.902 174.004C128.091 183.87 126.138 193.959 125.064 204.16C124.247 211.271 124.632 237.09 132.641 236.892C140.65 236.694 129.267 219.011 128.251 205.326C127.212 191.431 131.754 182.105 132.921 174.074L130.902 174.004Z" fill="#37474F"/>
<g opacity="0.1">
<path d="M130.902 174.004C128.091 183.87 126.138 193.959 125.064 204.16C124.247 211.271 124.632 237.09 132.641 236.892C140.65 236.694 129.267 219.011 128.251 205.326C127.212 191.431 131.754 182.105 132.921 174.074L130.902 174.004Z" fill="black"/>
</g>
<path d="M51.4922 324.504C67.5561 309.98 90.8465 264.414 114.067 195.616C117.861 184.367 53.7571 149.875 48.4452 161.403C41.7558 175.927 6.41747 259.844 5.33176 264.274C-4.24123 301.715 40.8218 334.156 51.4922 324.504Z" fill="#FFB096"/>
<path d="M120.313 157.906C122.94 171.952 114.289 194.846 114.289 194.846L45.5153 168.665C45.5153 168.665 51.2008 146.273 48.5156 134.29C47.7335 130.792 44.4063 112.433 40.0284 94.8082C35.0668 74.7936 32.4283 53.182 33.6191 51.0022C35.954 46.8057 43.7758 48.3211 50.3018 60.992C56.8278 73.6628 65.2684 100.625 66.2023 102.07C66.5586 102.526 66.9489 102.955 67.3698 103.353C68.0585 103.714 88.3019 102.618 94.0691 109.729C99.8362 116.839 120.675 155.33 120.313 157.906Z" fill="#FFB096"/>
<path d="M68.6421 129.697C68.6421 129.697 46.4609 102.886 45.9355 95.7174C45.4102 88.5485 35.2651 45.8033 37.4716 41.5602C39.678 37.3172 47.6283 38.8792 54.1542 51.55C60.6802 64.2209 69.1208 91.1829 70.0547 92.64C70.9887 94.0971 94.0689 114.228 95.6333 116.734C97.1977 119.241 68.6421 129.697 68.6421 129.697Z" fill="#FFB096"/>
<path d="M54.0372 116.385C52.3211 112.981 50.745 109.519 49.1573 106.057C48.379 104.316 47.6319 102.564 46.9159 100.8C46.5656 99.9139 46.2037 99.028 45.8768 98.1188C45.7134 97.6758 45.5616 97.1979 45.4099 96.7316C45.2762 96.2478 45.1671 95.7576 45.083 95.2629C43.6237 87.8375 42.1877 80.3539 40.7985 72.8819C39.4092 65.41 38.0667 57.9613 36.9109 50.3961C36.6471 48.4638 36.6196 46.5066 36.8292 44.5677C36.9414 43.5664 37.1929 42.5856 37.5764 41.6536C37.9504 40.648 38.6485 39.7951 39.561 39.229C40.0345 38.9793 40.5538 38.8278 41.0874 38.7838C41.6211 38.7397 42.1582 38.8039 42.6664 38.9725C43.6127 39.265 44.5013 39.7185 45.2931 40.313C46.8277 41.4722 48.1949 42.8373 49.3558 44.3696C48.0483 43.0052 46.587 41.7966 45.0012 40.7677C44.2247 40.2782 43.3728 39.9198 42.4796 39.7069C42.0743 39.6035 41.6522 39.5832 41.2388 39.6474C40.8255 39.7115 40.4294 39.8586 40.0747 40.0799C38.7088 41.0008 38.2418 42.9358 38.1017 44.7426C37.9912 46.584 38.1089 48.432 38.4519 50.2446C39.9463 57.6466 41.4055 65.1419 42.7831 72.6022C44.1607 80.0625 45.5032 87.5461 46.6006 95.0997C46.9204 96.9256 47.425 98.7143 48.1066 100.438C48.7254 102.222 49.4025 103.994 50.0563 105.777L54.0372 116.385Z" fill="#263238"/>
<path d="M76.4291 130.723C76.4291 130.723 52.2865 101.266 51.7028 94.0622C51.119 86.8584 41.0324 44.1481 43.2505 39.9051C45.4686 35.662 53.4072 37.224 59.9332 49.8949C66.4592 62.5658 74.8997 89.5278 75.8337 90.9849C76.7676 92.442 97.0227 114.193 98.5987 116.63C100.175 119.066 76.4291 130.723 76.4291 130.723Z" fill="#FFB096"/>
<path d="M60.4934 119.392C58.5788 115.138 56.8277 110.813 55.0765 106.477C54.2476 104.297 53.4188 102.105 52.6483 99.9022C52.263 98.7948 51.8777 97.6874 51.4808 96.5567C51.1309 95.4113 50.8617 94.2427 50.6753 93.0597C48.9786 83.9131 47.3325 74.7392 45.737 65.5382L43.4021 51.7483L42.8651 48.2512C42.6592 47.0677 42.5267 45.8725 42.4682 44.6726C42.407 43.4329 42.5091 42.1906 42.7717 40.9774C43.0097 39.6367 43.6776 38.4094 44.6746 37.4804C45.241 37.0075 45.9364 36.7151 46.6709 36.6411C47.3566 36.5847 48.0463 36.6802 48.6906 36.9209C49.8547 37.361 50.9331 38 51.8777 38.8093C53.6893 40.3559 55.3221 42.0997 56.7459 44.0082C59.5768 47.7683 61.7371 51.9877 63.1318 56.4809C61.3985 52.1742 58.9865 48.172 55.9871 44.626C54.5334 42.8554 52.8978 41.2419 51.1072 39.8118C50.2545 39.1318 49.2909 38.6035 48.2587 38.2498C47.8316 38.0735 47.3643 38.0172 46.9075 38.0871C46.4506 38.157 46.0217 38.3503 45.667 38.6461C44.9841 39.3776 44.5438 40.3016 44.4061 41.2922C44.2203 42.3696 44.1576 43.4645 44.2194 44.5561C44.3594 46.7242 44.9081 49.0672 45.2817 51.3519L47.6983 65.1185C49.2743 74.304 50.8621 83.4895 52.2396 92.7217C52.3745 93.8535 52.5851 94.9751 52.8701 96.0788C53.1619 97.2445 53.4771 98.3052 53.8157 99.4126C54.4928 101.627 55.2283 103.842 55.9638 106.045L60.4934 119.392Z" fill="#263238"/>
<path d="M75.3426 131.282C75.3426 131.282 60.3644 100.811 59.8274 94.1088C59.2904 87.4061 50.5696 58.6723 52.6243 54.709C54.679 50.7457 62.0806 52.2145 68.1629 64.0344C74.2453 75.8543 81.4133 89.8541 82.2772 91.2529C83.1411 92.6517 97.1387 114.403 98.598 116.734C100.057 119.066 75.3426 131.282 75.3426 131.282Z" fill="#FFB096"/>
<path d="M68.8287 124.393C66.4938 118.844 64.3107 113.261 62.0809 107.677C60.9134 104.891 59.8744 102.094 58.8004 99.2843L58.0065 97.1745C57.7298 96.4527 57.5035 95.7127 57.3294 94.9597C56.9558 93.4909 56.6406 92.0105 56.3488 90.5418C55.1813 84.6318 54.1306 78.7102 53.3018 72.7419C52.8815 69.7695 52.4846 66.7854 52.1343 63.7896C51.9826 62.2859 51.8308 60.7821 51.7257 59.2668C51.5975 57.7152 51.5975 56.1557 51.7257 54.6041C51.7724 54.106 51.9171 53.6221 52.1515 53.18C52.3858 52.738 52.7053 52.3465 53.0916 52.0279C53.9183 51.4551 54.934 51.2213 55.9285 51.3752C57.5654 51.6461 59.1232 52.2707 60.4932 53.2053C63.1682 54.922 65.3809 57.2674 66.9374 60.0361C69.8677 65.3283 72.6228 70.6437 75.4247 75.9592C78.2265 81.2747 81.0167 86.6717 83.5968 91.9289C85.0677 94.5167 86.6438 97.0929 88.1848 99.6573C89.7258 102.222 91.2318 104.845 92.6561 107.491C88.9903 102.711 85.523 97.8389 82.1491 92.8148L73.7202 76.8335C70.895 71.553 68.0698 66.2258 65.1396 61.0386C63.7407 58.5445 61.763 56.4218 59.3724 54.8489C58.2635 54.0647 56.9965 53.5317 55.66 53.2869C55.4145 53.2118 55.1548 53.1955 54.9019 53.2393C54.6489 53.2831 54.4099 53.3858 54.2041 53.5391C53.9983 53.6923 53.8316 53.8918 53.7174 54.1214C53.6032 54.351 53.5448 54.6042 53.5469 54.8605C53.4364 56.2922 53.4364 57.7302 53.5469 59.1619C53.6403 60.6423 53.7687 62.1343 53.9205 63.6264C54.224 66.5989 54.5859 69.5713 54.9829 72.5321C55.8001 78.4654 56.5939 84.4103 57.6446 90.3086C57.9015 91.7774 58.1699 93.2461 58.4968 94.6916C58.8497 96.1289 59.2942 97.5423 59.8277 98.923L62.8747 107.409L68.8287 124.393Z" fill="#263238"/>
<path d="M82.1491 92.7916C84.8809 96.5218 87.2975 100.462 89.7141 104.448C92.1307 108.435 94.5356 112.328 96.9289 116.28C101.669 124.207 106.397 132.145 110.856 140.2C113.098 144.221 115.293 148.289 117.207 152.427C117.686 153.453 118.141 154.502 118.526 155.54C118.748 156.064 118.888 156.577 119.052 157.09C119.196 157.601 119.294 158.124 119.344 158.652C119.449 159.818 119.612 160.89 119.624 162.021L119.706 163.723V165.425C119.625 169.989 119.168 174.539 118.34 179.028C117.526 183.578 116.451 188.077 115.118 192.503C116.866 188.202 118.301 183.78 119.414 179.273C120.551 174.741 121.258 170.112 121.527 165.448C121.667 163.093 121.62 160.731 121.387 158.384C121.34 157.759 121.238 157.138 121.083 156.531C120.92 155.936 120.756 155.365 120.546 154.782C120.149 153.616 119.706 152.567 119.227 151.495C117.336 147.205 115.141 143.114 112.911 139.034C108.374 130.944 103.564 123.025 98.4816 115.277C95.9444 111.392 93.3448 107.561 90.6831 103.784C89.3289 101.907 87.963 100.03 86.562 98.177C85.1958 96.2988 83.7224 94.5007 82.1491 92.7916Z" fill="#263238"/>
<path d="M38.5921 162.266L114.16 228.639C114.16 228.639 74.3507 319.713 55.5432 331.288C33.7472 344.693 -11.3859 310.539 2.65833 261.348L38.5921 162.266Z" fill="#37474F"/>
<path opacity="0.1" d="M2.62329 261.429C14.7295 265.223 25.9103 271.496 35.4516 279.847C41.2888 284.929 46.5773 290.455 52.6596 295.199C58.2297 299.586 64.2621 303.354 70.6499 306.436C71.8173 306.972 72.9147 307.497 74.0705 307.986C75.2379 306.063 76.4053 304.058 77.5728 302.007C72.0151 299.63 66.705 296.713 61.719 293.299C55.6016 289.126 50.1146 284.137 44.3592 279.497C38.8899 275.06 33.0287 271.127 26.8476 267.747C19.4823 263.743 11.6363 260.692 3.49887 258.667L2.54156 261.301L2.62329 261.429ZM13.2703 232.136C14.7179 232.47 16.1656 232.82 17.6132 233.185C23.8356 234.701 29.953 236.589 36.0587 238.524C41.8959 240.389 47.7331 242.685 53.8037 243.898C73.2766 247.803 89.8425 235.633 106.502 227.042C101.615 221.459 96.1961 216.365 90.3212 211.83C86.1611 208.636 81.5907 206.013 76.7322 204.032C70.4494 201.71 63.8854 200.232 57.2127 199.637C46.8342 198.471 36.3506 198.471 26.0771 196.665L27.7349 192.107C35.7669 192.806 43.8922 192.701 51.9358 193.121C61.4505 193.611 70.86 194.916 79.6275 198.308L114.125 228.616C114.125 228.616 113.355 230.364 111.989 233.418C111.72 233.104 111.452 232.789 111.172 232.486C105.241 235.412 99.4973 238.769 93.6601 241.811C84.0054 246.893 73.3817 251.673 62.2326 251.428C55.9518 251.288 50.0446 249.178 44.3592 246.684C38.6738 244.189 32.6848 241.45 26.7309 239.2C21.9911 237.428 17.2201 235.792 12.4181 234.293L13.2703 232.136ZM35.9069 169.656C36.8759 169.982 37.8449 170.297 38.8255 170.589C42.7573 171.758 46.7852 172.577 50.8618 173.036L41.0437 164.422C40.0513 164.189 39.059 163.944 38.0784 163.688L35.9069 169.656Z" fill="black"/>
<path d="M35.9181 188.843C63.7498 217.355 92.1536 238.023 97.6872 242.93C97.9557 243.152 98.2943 242.709 98.0258 242.487C92.3404 237.965 62.3372 209.464 36.28 188.365C35.9765 188.12 35.6496 188.563 35.9181 188.843Z" fill="#263238"/>
<path d="M71.1285 312.404C76.9657 301.587 82.8729 290.804 88.6401 279.929C94.4072 269.053 99.7657 258.037 104.984 246.928C107.879 240.797 110.168 234.899 112.899 228.697C110.144 226.249 108.16 224.163 105.253 221.377C104.867 221.004 105.416 220.316 105.848 220.643C109.35 223.289 115.012 228.138 114.896 228.429C110.226 239.806 105.167 251.02 99.7191 262.071C94.271 273.121 88.465 284.04 82.3009 294.826C78.8375 300.841 75.164 306.731 71.2803 312.498C71.2219 312.568 71.0701 312.568 71.1285 312.404Z" fill="#263238"/>
<path d="M253.342 331.778C232.527 325.74 183.296 263.539 154.635 192.363C150.199 181.359 207.894 138.603 214.77 149.233C223.409 162.72 272.441 237.498 274.193 241.741C288.914 277.457 267.456 335.881 253.342 331.778Z" fill="#FFB096"/>
<path d="M143.008 156.134C142.424 170.414 154.274 191.839 154.274 191.839L218.588 156.111C218.588 156.111 209.762 134.756 210.696 122.516C210.976 118.961 211.642 100.298 213.439 82.2305C215.494 61.7147 215.016 39.9516 213.521 37.935C210.649 34.1116 203.084 36.7693 198.45 50.2095C193.815 63.6497 189.297 91.5326 188.585 93.1296C188.286 93.6344 187.946 94.1139 187.569 94.5634C186.939 95.018 166.754 96.8248 162.061 104.681C157.367 112.538 142.249 153.651 143.008 156.134Z" fill="#FFB096"/>
<path d="M190.113 120.849C190.113 120.849 208.232 91.183 207.73 83.9675C207.228 76.7519 211.151 33.0509 208.349 29.1808C205.547 25.3108 197.924 28.0151 193.266 41.4554C188.607 54.8956 184.124 82.7785 183.412 84.3871C182.7 85.9957 162.702 109.169 161.535 111.862C160.367 114.555 190.113 120.849 190.113 120.849Z" fill="#FFB096"/>
<path d="M202.663 105.579C203.831 101.977 204.998 98.3285 206.026 94.6683C206.539 92.8382 207.018 90.9964 207.485 89.143C207.707 88.2105 207.928 87.2896 208.127 86.3454C208.232 85.8791 208.302 85.3779 208.395 84.9C208.46 84.4011 208.499 83.8991 208.512 83.3962C208.886 75.8427 209.236 68.2425 209.551 60.6423C209.866 53.0421 210.112 45.4886 210.182 37.8301C210.168 35.8636 209.913 33.9062 209.423 32.0017C209.165 31.0273 208.772 30.0935 208.255 29.2274C207.732 28.2858 206.911 27.5439 205.921 27.1175C205.418 26.9364 204.884 26.8586 204.35 26.8886C203.816 26.9187 203.294 27.056 202.815 27.2924C201.92 27.7192 201.106 28.2991 200.41 29.0059C199.056 30.3668 197.897 31.9084 196.966 33.587C198.068 32.0532 199.341 30.6493 200.76 29.4023C201.458 28.8131 202.246 28.3407 203.095 28.0035C203.481 27.8383 203.896 27.7531 204.315 27.7531C204.735 27.7531 205.15 27.8383 205.535 28.0035C207.018 28.7145 207.765 30.5679 208.15 32.2931C208.521 34.0985 208.67 35.9422 208.594 37.7835C208.174 45.3254 207.8 52.9372 207.508 60.5374C207.216 68.1376 206.948 75.6911 206.948 83.3496C206.885 85.1988 206.642 87.0375 206.224 88.8399C205.862 90.6934 205.442 92.5468 205.057 94.4002L202.663 105.579Z" fill="#263238"/>
<path d="M182.549 122.994C182.549 122.994 202.232 90.3553 201.776 83.1864C201.321 76.0175 205.185 32.2582 202.395 28.3998C199.605 24.5414 191.958 27.2341 187.312 40.6743C182.665 54.1145 178.171 81.9858 177.459 83.5944C176.747 85.203 159.795 109.601 158.605 112.293C157.414 114.986 182.549 122.994 182.549 122.994Z" fill="#FFB096"/>
<path d="M196.71 109.484C197.994 104.996 199.103 100.462 200.212 95.9273C200.725 93.6503 201.212 91.3656 201.671 89.0731C201.905 87.9075 202.115 86.7418 202.29 85.5761C202.471 84.3952 202.572 83.2036 202.593 82.0092C202.959 72.6838 203.274 63.3584 203.539 54.033L203.854 40.0449V36.5479C203.89 35.346 203.851 34.143 203.737 32.946C203.612 31.7107 203.329 30.4965 202.897 29.3324C202.473 28.0624 201.655 26.9602 200.562 26.1851C199.937 25.7963 199.208 25.6053 198.472 25.6372C197.786 25.683 197.118 25.8737 196.511 26.1967C195.418 26.8012 194.439 27.59 193.616 28.5281C192.049 30.314 190.686 32.2689 189.553 34.3564C187.281 38.4778 185.744 42.9626 185.012 47.6101C186.108 43.0764 187.925 38.7475 190.394 34.7877C191.572 32.8268 192.957 30.9978 194.526 29.3324C195.271 28.5359 196.148 27.8734 197.118 27.3741C197.515 27.138 197.969 27.0134 198.431 27.0134C198.894 27.0134 199.348 27.138 199.745 27.3741C200.524 27.9999 201.091 28.8508 201.368 29.8103C201.712 30.8493 201.931 31.9253 202.021 33.0159C202.196 35.1957 202.021 37.5854 201.951 39.8934L201.531 53.8815C201.286 63.2069 201.029 72.5322 200.982 81.8576C201.012 82.9941 200.966 84.1312 200.842 85.2614C200.714 86.4271 200.55 87.5927 200.375 88.7584C200.025 91.0898 199.616 93.3395 199.208 95.6242L196.71 109.484Z" fill="#263238"/>
<path d="M183.716 123.367C183.716 123.367 194.223 91.0664 193.756 84.3638C193.289 77.6612 197.842 47.9715 195.239 44.3462C192.635 40.721 185.526 43.1806 181.23 55.7698C176.933 68.3591 171.82 83.2214 171.155 84.7252C170.489 86.2289 159.76 109.764 158.651 112.27C157.542 114.776 183.716 123.367 183.716 123.367Z" fill="#FFB096"/>
<path d="M189.168 115.569C190.662 109.74 192.051 103.912 193.464 98.0837C194.18 95.1696 194.861 92.2437 195.507 89.3062L195.997 87.1031C196.162 86.334 196.279 85.5554 196.348 84.7718C196.499 83.2564 196.604 81.7527 196.686 80.2489C197.001 74.2341 197.188 68.2309 197.153 62.2043C197.153 59.1969 197.153 56.1895 196.99 53.182C196.99 51.6666 196.873 50.1629 196.768 48.6476C196.692 47.0788 196.485 45.5192 196.149 43.9849C195.9 43.0124 195.28 42.1758 194.421 41.6535C193.522 41.2064 192.485 41.1229 191.526 41.4204C189.945 41.9161 188.493 42.7561 187.277 43.88C184.874 45.9616 183.018 48.599 181.871 51.5617C179.735 57.2152 177.75 62.8688 175.742 68.5339C173.734 74.1991 171.738 79.9342 169.905 85.5061C168.819 88.2804 167.57 91.0547 166.473 93.8174C165.375 96.58 164.208 99.3893 163.169 102.21C166.111 96.9414 168.854 91.6259 171.469 86.1706L177.528 69.1634C179.583 63.5215 181.614 57.8564 183.763 52.2961C184.796 49.6352 186.449 47.2579 188.584 45.3604C189.583 44.4157 190.779 43.7032 192.086 43.2738C192.32 43.1607 192.576 43.1047 192.835 43.1103C193.095 43.1158 193.349 43.1829 193.577 43.3059C193.805 43.4289 194 43.6043 194.147 43.8176C194.294 44.0309 194.388 44.276 194.421 44.5327C194.731 45.9367 194.926 47.3635 195.005 48.7991C195.133 50.2795 195.203 51.7716 195.273 53.2636C195.402 56.2477 195.472 59.2435 195.507 62.2393C195.507 68.2192 195.612 74.2224 195.414 80.2023C195.414 81.6944 195.308 83.1865 195.192 84.6669C195.049 86.1378 194.812 87.598 194.48 89.0381L192.728 97.8739L189.168 115.569Z" fill="#263238"/>
<path d="M171.119 84.7251L164.85 97.6408C162.784 101.954 160.741 106.278 158.756 110.638C154.775 119.346 150.969 128.123 147.479 137.064C145.774 141.552 144.116 146.051 142.809 150.749C142.478 151.944 142.221 153.159 142.038 154.386C141.942 155.042 141.911 155.705 141.945 156.367L142.073 158.197C142.315 160.616 142.705 163.018 143.241 165.39C144.239 170.11 145.633 174.739 147.408 179.226C148.291 181.465 149.293 183.656 150.409 185.789C151.472 187.948 152.78 189.978 154.308 191.839C151.794 187.78 149.831 183.405 148.471 178.83C147.724 176.568 147.058 174.295 146.498 171.987C145.938 169.679 145.424 167.325 145.015 164.993C144.607 162.662 144.326 160.331 144.151 157.999L144.07 156.251C144.057 155.72 144.096 155.189 144.186 154.665C144.373 153.558 144.665 152.427 144.969 151.297C146.241 146.774 147.945 142.309 149.638 137.868C153.059 128.962 156.76 120.15 160.39 111.314C164.021 102.478 167.78 93.7124 171.119 84.7251Z" fill="#263238"/>
<path d="M224.646 148.744L165.597 241.998C165.597 241.998 233.647 327.232 253.891 336.044C277.368 346.372 297.249 285.139 276.41 238.419L224.646 148.744Z" fill="#37474F"/>
<path opacity="0.1" d="M226.713 312.766C230.075 316.263 233.321 319.492 236.379 322.406C239.271 323.419 242.095 324.618 244.832 325.996C251.112 329.155 257.055 332.92 263.067 336.557C265.462 335.696 267.638 334.319 269.441 332.524C257.837 325.53 246.571 317.766 233.251 314.211C231.126 313.628 228.931 313.139 226.713 312.766ZM178.229 222.088C180.564 222.881 182.899 223.755 185.164 224.687C196.184 229.152 206.831 234.491 218.039 238.489C227.954 242.129 238.435 243.996 248.999 244.003C258.437 243.925 267.795 242.278 276.691 239.13C277.111 240.074 277.508 241.019 277.858 241.974C271.765 244.737 265.366 246.772 258.794 248.036C248.508 250.091 237.92 250.119 227.623 248.118C215.856 245.728 204.917 240.774 193.99 235.983C187.58 233.174 181.148 230.353 174.412 228.138L178.229 222.088ZM246.186 253.48C258.292 252.116 270.547 253.025 282.318 256.161C282.8 258.204 283.213 260.244 283.555 262.28C273.401 259.625 262.862 258.749 252.408 259.693C230.986 261.558 209.797 268.167 188.328 269.647C186.413 267.374 184.568 265.183 182.829 263.085C204.065 262.514 225.195 255.613 246.186 253.48ZM204.73 180.205C211.834 183.592 219.385 185.947 227.157 187.199C233.709 188.155 240.361 188.226 246.933 187.409L244.598 183.306C236.154 183.405 227.757 182.044 219.778 179.285C215.895 177.911 212.091 176.324 208.384 174.529L204.73 180.205ZM221.705 153.395C224.37 154.474 226.964 155.724 229.468 157.137L224.635 148.767L221.705 153.395Z" fill="black"/>
<path d="M186.845 249.015C210.707 217.122 226.725 185.882 230.717 179.658C230.904 179.366 230.414 179.098 230.239 179.401C226.643 185.707 203.131 219.745 186.308 248.735C186.051 249.062 186.611 249.318 186.845 249.015Z" fill="#263238"/>
<path d="M171.983 230.224C172.056 230.111 172.17 230.031 172.301 230.001C172.432 229.971 172.57 229.994 172.685 230.064C172.799 230.134 172.882 230.246 172.914 230.377C172.947 230.507 172.927 230.645 172.859 230.761C171.283 233.523 167.489 240.611 167.442 241.252C167.442 241.671 178.801 255.555 182.537 260.276C189.939 269.663 197.535 278.891 205.325 287.96C213.116 297.029 221.136 306.009 229.386 314.899C233.157 318.955 236.87 323.14 240.944 326.905C244.586 330.263 248.742 333.317 253.622 334.564C262.296 336.802 271.858 331.743 275.885 323.956C276.387 322.962 276.797 321.924 277.111 320.856C277.111 320.751 277.31 320.774 277.286 320.856C275.839 330.041 267.235 336.872 258.07 337.105C247.05 337.385 238.749 328.258 231.826 320.902C223.265 311.833 214.91 302.589 206.761 293.171C198.613 283.752 190.624 274.135 182.794 264.32C178.93 259.46 165.061 241.427 164.944 241.007C164.827 240.587 171.085 231.588 171.983 230.224Z" fill="#263238"/>
<path d="M219.288 156.216C219.662 155.481 224.728 147.287 224.903 147.578C227.53 151.891 230.18 156.67 232.608 161.1C233.776 163.291 235.037 165.471 236.216 167.686C237.453 169.821 238.56 172.028 239.531 174.295C239.531 174.4 239.403 174.482 239.345 174.4C237.933 172.431 236.646 170.376 235.492 168.246C234.196 166.054 232.947 163.828 231.675 161.613C229.34 157.463 226.795 153.092 224.67 149.595C223.958 150.76 220.385 155.831 219.86 156.519C219.82 156.595 219.751 156.651 219.669 156.676C219.587 156.702 219.498 156.693 219.422 156.653C219.346 156.613 219.29 156.544 219.264 156.462C219.239 156.38 219.248 156.292 219.288 156.216Z" fill="#263238"/>
</svg>
