<svg width="166" height="26" viewBox="0 0 166 26" fill="none" xmlns="http://www.w3.org/2000/svg">
<path d="M3.79296 25.3016C3.91296 25.6416 166.403 25.3016 164.353 25.3016C163.413 25.3016 165.773 23.9016 164.853 23.4516C159.563 20.8216 153.773 20.7516 148.013 20.2216C144.611 20.0762 141.272 19.2642 138.183 17.8316C135.123 16.2316 133.183 13.4416 131.033 10.8316C127.682 6.86531 123.376 3.81876 118.52 1.97977C113.665 0.140785 108.42 -0.429908 103.283 0.321608C91.733 2.13161 82.623 10.9316 71.053 12.5516C64.103 13.5516 57.523 10.8316 50.733 9.88161C45.133 9.1116 40.473 10.2016 35.473 12.6816C31.803 14.4916 28.413 16.0216 24.273 16.3116C21.093 16.5316 17.903 16.1716 14.713 16.1416C9.49164 16.2368 4.48476 18.2353 0.632955 21.7616C0.122955 22.2616 -1.48704 25.3016 3.79296 25.3016Z" fill="#FFE8E8"/>
</svg>
