<svg width="229" height="35" viewBox="0 0 229 35" fill="none" xmlns="http://www.w3.org/2000/svg">
<path d="M5.26193 34.7922C5.42841 35.2597 230.849 34.7922 228.005 34.7922C226.701 34.7922 229.975 32.8671 228.699 32.2483C221.36 28.6318 213.328 28.5355 205.337 27.8067C200.618 27.6068 195.984 26.4902 191.7 24.5202C187.455 22.3201 184.763 18.4835 181.781 14.8945C177.132 9.44048 171.158 5.25117 164.422 2.72238C157.686 0.193594 150.411 -0.591166 143.283 0.442242C127.26 2.93117 114.622 15.032 98.571 17.2597C88.9293 18.6348 79.801 14.8945 70.3813 13.5882C62.6125 12.5294 56.1477 14.0282 49.2113 17.4385C44.1199 19.9274 39.417 22.0313 33.6736 22.4301C29.262 22.7326 24.8366 22.2376 20.4111 22.1963C13.1676 22.3272 6.22166 25.0753 0.878091 29.9244C0.170574 30.6119 -2.06296 34.7922 5.26193 34.7922Z" fill="#FFE8E8"/>
</svg>
