<svg width="444" height="581" viewBox="0 0 444 581" fill="none" xmlns="http://www.w3.org/2000/svg">
<path d="M276.163 435.393L244.46 493.602C238.339 504.702 233.179 514.534 230.982 519.868C230.982 519.868 230.982 519.868 230.995 519.952C230.343 521.143 229.974 522.468 229.914 523.825C229.914 523.825 229.927 523.908 229.931 523.936C231.963 527.995 319.217 579.453 322.873 580.225C326.529 580.997 328.999 570.674 327.211 565.968C325.422 561.261 300.82 526.621 300.82 526.621L331.896 468.122L276.163 435.393Z" fill="#EB9481"/>
<path d="M250.958 481.606L244.452 493.546C238.331 504.646 233.171 514.478 230.974 519.812C230.974 519.812 230.974 519.812 230.987 519.896C230.482 521.142 230.12 522.441 229.906 523.769C229.906 523.769 229.919 523.852 229.923 523.88C231.955 527.939 319.209 579.397 322.865 580.169C326.521 580.941 328.992 570.618 327.203 565.912C325.415 561.205 300.812 526.565 300.812 526.565L307.604 514.539L250.958 481.606Z" fill="#EBEBEB"/>
<path d="M322.836 580.174C319.182 579.415 231.97 527.951 229.894 523.884C229.079 522.344 235.831 509.201 244.453 493.56L244.733 493.063L301.368 525.642L300.785 526.583C300.785 526.583 325.366 561.269 327.176 565.93C328.986 570.591 326.48 580.962 322.836 580.174Z" fill="#E51D1B"/>
<path d="M323.847 576.212C309.351 567.176 250.068 532.109 235.001 524.282C234.877 524.215 234.82 524.309 234.944 524.376C249.129 533.615 308.687 568.242 323.638 576.428C324.051 576.622 324.147 576.408 323.847 576.212Z" fill="#263238"/>
<path d="M305.411 529.541C300.269 525.04 292.668 521.762 285.816 523.276C285.538 523.318 285.638 523.701 285.887 523.749C292.469 525.231 298.874 527.413 304.992 530.258C305.082 530.278 305.177 530.268 305.261 530.231C305.346 530.194 305.416 530.131 305.463 530.052C305.509 529.972 305.529 529.88 305.52 529.788C305.511 529.696 305.472 529.609 305.411 529.541Z" fill="#263238"/>
<path d="M308.108 534.523C302.953 530.024 295.351 526.747 288.499 528.261C288.235 528.3 288.321 528.686 288.57 528.733C295.152 530.21 301.556 532.388 307.673 535.228C307.765 535.263 307.866 535.264 307.958 535.232C308.051 535.201 308.13 535.138 308.181 535.055C308.232 534.971 308.253 534.873 308.24 534.776C308.226 534.679 308.18 534.589 308.108 534.523Z" fill="#263238"/>
<path d="M310.792 539.507C305.65 535.006 298.047 531.715 291.195 533.229C290.931 533.269 291.019 533.668 291.268 533.716C297.848 535.199 304.251 537.376 310.371 540.21C310.461 540.238 310.558 540.234 310.646 540.201C310.734 540.167 310.808 540.104 310.857 540.023C310.905 539.942 310.925 539.848 310.913 539.754C310.901 539.661 310.859 539.574 310.792 539.507Z" fill="#263238"/>
<path d="M246.355 486.265L307.329 523.494C307.329 523.494 357.659 434.505 365.676 392.256C371.369 362.156 303.7 225.993 303.7 225.993L244.059 230.885C244.059 230.885 303.009 362.958 300.783 376.984C298.01 394.077 246.355 486.265 246.355 486.265Z" fill="#2D393F"/>
<path d="M311.389 509.563C301.933 503.877 304.727 505.348 295.184 499.746C290.505 496.995 259.859 478.973 255.052 477.166C254.955 477.181 254.858 477.295 254.94 477.368C258.911 480.609 289.889 498.098 294.597 500.759C304.242 506.188 301.532 504.52 311.232 509.842C311.251 509.853 311.271 509.859 311.292 509.862C311.313 509.864 311.334 509.863 311.354 509.857C311.374 509.851 311.393 509.842 311.41 509.829C311.426 509.816 311.44 509.799 311.45 509.781C311.461 509.763 311.467 509.742 311.47 509.722C311.472 509.701 311.471 509.679 311.465 509.659C311.459 509.639 311.45 509.62 311.437 509.603C311.424 509.587 311.408 509.573 311.389 509.563Z" fill="#263238"/>
<path d="M262.852 473.732C271.054 459.647 278.931 445.354 286.483 430.854C293.987 416.476 301.337 401.921 307.769 387.036C309.352 383.671 310.495 380.116 311.168 376.459C311.675 372.329 311.191 368.138 309.755 364.232C307.223 356.382 304.337 348.627 301.454 340.901C295.653 325.396 289.403 310.063 282.706 294.902C276.02 279.758 268.842 264.83 261.399 250.042C260.487 248.231 259.559 246.409 258.631 244.587C258.492 244.324 258.92 244.145 259.059 244.409C267.132 259.136 274.65 274.145 281.613 289.437C288.577 304.729 295.05 320.127 301.031 335.633C304.028 343.456 306.905 351.336 309.663 359.27C311.207 363.099 312.286 367.098 312.876 371.184C313.134 374.782 312.667 378.396 311.504 381.811C310.259 385.477 308.759 389.052 307.015 392.509C305.279 396.22 303.515 399.925 301.721 403.626C298.104 411.08 294.383 418.478 290.559 425.82C282.941 440.386 275.026 454.869 266.274 468.796C265.21 470.506 264.129 472.204 263.062 473.9C263.041 474.045 262.761 473.888 262.852 473.732Z" fill="#263238"/>
<path d="M244.004 230.894C244.004 230.894 261.174 269.425 276.667 307.013C284.066 283.154 296.625 242.084 300.533 226.199L244.004 230.894Z" fill="#263238"/>
<path d="M187.573 333.098L145.313 292.03C135.663 283.828 127.056 276.792 122.264 273.575C122.24 273.57 122.216 273.574 122.194 273.586C120.4 272.434 119.139 271.7 118.608 271.765C118.608 271.765 118.539 271.776 118.511 271.78C114.116 272.996 46.2548 348.174 44.7791 351.595C43.3034 355.015 52.9219 359.511 57.8882 358.693C62.8546 357.874 101.716 340.726 101.716 340.726L146.23 381.469L187.573 333.098Z" fill="#EB9481"/>
<path d="M118.6 271.71L118.503 271.725C114.11 272.954 46.249 348.132 44.7733 351.553C43.2976 354.974 52.9161 359.469 57.8686 358.653C62.821 357.837 101.71 340.684 101.71 340.684L109.865 348.968C121.073 336.719 141.507 314.353 153.847 300.37C149.076 295.401 145.324 292.099 145.308 292.087C135.67 283.87 127.078 276.846 122.289 273.643L122.195 273.586C120.382 272.309 119.131 271.644 118.6 271.71Z" fill="#EBEBEB"/>
<path d="M44.7695 351.525C46.2452 348.104 114.106 272.926 118.501 271.711C120.162 271.219 131.688 280.46 145.3 292.032L145.726 292.408L102.429 341.401L101.618 340.641C101.618 340.641 62.7818 357.857 57.7911 358.608C52.8003 359.359 43.2639 354.936 44.7695 351.525Z" fill="#E51D1B"/>
<path d="M48.4478 353.303C60.1895 340.917 106.411 289.821 117.088 276.686C117.17 276.574 117.063 276.519 117.006 276.613C105.096 288.64 59.2848 340.101 48.2357 353.122C48.005 353.384 48.2032 353.568 48.4478 353.303Z" fill="#263238"/>
<path d="M97.8593 344.576C103.292 340.432 108.041 333.633 107.951 326.609C107.911 326.345 107.558 326.356 107.46 326.555C104.696 332.708 101.286 338.549 97.2862 343.98C97.2307 344.06 97.2046 344.157 97.2124 344.254C97.2201 344.351 97.2612 344.442 97.3287 344.512C97.3962 344.583 97.4859 344.627 97.5827 344.639C97.6794 344.651 97.7772 344.628 97.8593 344.576Z" fill="#263238"/>
<path d="M92.448 346.214C97.8808 342.07 102.616 335.274 102.54 328.248C102.5 327.984 102.16 327.992 102.064 328.206C99.3005 334.354 95.8894 340.19 91.8889 345.616C91.8484 345.696 91.8335 345.786 91.846 345.875C91.8586 345.963 91.8981 346.046 91.9591 346.111C92.0202 346.176 92.0998 346.221 92.1873 346.24C92.2747 346.258 92.3657 346.249 92.448 346.214Z" fill="#263238"/>
<path d="M87.0358 347.854C92.4546 343.712 97.2036 336.913 97.1297 329.901C97.0879 329.623 96.734 329.633 96.6382 329.847C93.8779 335.997 90.4666 341.834 86.4627 347.257C86.4202 347.338 86.4042 347.431 86.4171 347.521C86.4299 347.612 86.4709 347.696 86.5343 347.762C86.5977 347.828 86.6803 347.872 86.7703 347.889C86.8603 347.905 86.9531 347.893 87.0358 347.854Z" fill="#263238"/>
<path d="M302.583 226.033L302.594 226.103C302.426 227.35 299.842 247.031 296.923 264.004C294.778 276.396 292.414 287.329 290.669 288.586C288.678 289.995 278.811 295.375 275.485 297.083C275.485 297.083 264.713 378.188 249.805 406.29C244.702 415.929 216.813 428.996 201.126 421.774C164.319 404.85 106.109 355.191 106.109 355.191L156.802 299.229L205.886 347.289C213.19 326.955 212.984 288.161 212.984 288.161C212.984 288.161 209.631 250.281 221.049 232.627L302.583 226.033Z" fill="#2D393F"/>
<path d="M121.076 359.991C128.783 352.065 126.681 354.442 134.304 346.429C137.979 342.507 162.53 316.707 165.356 312.429C165.365 312.408 165.368 312.385 165.364 312.362C165.359 312.34 165.348 312.319 165.332 312.303C165.316 312.287 165.295 312.276 165.272 312.272C165.25 312.268 165.226 312.271 165.206 312.281C161.141 315.409 137.108 341.629 133.443 345.62C125.985 353.779 128.218 351.524 120.844 359.77C120.829 359.785 120.818 359.803 120.81 359.823C120.803 359.843 120.799 359.864 120.8 359.885C120.8 359.906 120.805 359.926 120.813 359.946C120.822 359.965 120.834 359.982 120.849 359.997C120.865 360.011 120.883 360.023 120.902 360.03C120.922 360.038 120.943 360.041 120.964 360.041C120.985 360.04 121.006 360.036 121.025 360.027C121.044 360.019 121.062 360.006 121.076 359.991Z" fill="#263238"/>
<path d="M229.339 276.29C231.149 275.662 233.107 275.353 234.959 274.904C236.467 274.535 237.957 274.14 239.439 273.69C242.28 272.944 244.92 271.575 247.167 269.684C249.604 267.455 250.618 264.274 251.691 261.198C252.3 259.386 252.923 257.573 253.561 255.77L254.518 253.153C254.969 252.126 255.361 251.075 255.694 250.005C255.673 249.866 255.986 249.961 255.929 250.055C255.725 250.788 255.566 251.534 255.454 252.287C255.272 253.153 255.105 254.031 254.909 254.9C254.562 256.373 254.236 257.986 253.858 259.536C253.33 262.358 252.47 265.107 251.294 267.726C248.877 272.355 244.05 274.574 239.131 275.612C237.752 275.891 236.294 276.125 234.874 276.324C233.082 276.644 231.264 276.803 229.444 276.8C229.376 276.814 229.306 276.8 229.248 276.762C229.19 276.724 229.15 276.665 229.136 276.597C229.122 276.53 229.136 276.459 229.174 276.401C229.212 276.344 229.271 276.303 229.339 276.29Z" fill="#263238"/>
<path d="M295.88 285.428C288.788 288.692 281.993 292.569 275.574 297.013C275.546 297.028 275.522 297.049 275.502 297.074C275.483 297.098 275.468 297.127 275.459 297.157C275.451 297.187 275.448 297.219 275.452 297.251C275.455 297.282 275.465 297.312 275.481 297.34C275.496 297.367 275.517 297.392 275.541 297.411C275.566 297.431 275.594 297.445 275.625 297.454C275.655 297.463 275.687 297.465 275.718 297.462C275.749 297.458 275.78 297.448 275.807 297.433C282.667 293.799 289.674 290.286 296.334 286.27C296.446 286.21 296.529 286.108 296.565 285.986C296.602 285.865 296.588 285.734 296.528 285.622C296.468 285.511 296.366 285.427 296.244 285.391C296.123 285.355 295.992 285.368 295.88 285.428Z" fill="#263238"/>
<path d="M293.983 236.525C293.946 236.275 293.502 236.256 293.528 236.522C294.268 244.941 294.344 252.436 294.274 260.379C294.234 264.081 292.95 284.561 286.479 283.601C285.389 283.438 284.769 282.437 284.459 280.849C284.318 278.75 284.431 276.643 284.794 274.571C285.154 270.252 285.374 265.954 285.386 261.688C285.489 253.654 284.758 245.631 283.206 237.748C283.188 237.705 283.156 237.67 283.115 237.647C283.074 237.625 283.027 237.616 282.981 237.623C282.935 237.63 282.893 237.652 282.861 237.686C282.829 237.719 282.808 237.762 282.803 237.809C283.891 248.85 284.137 259.958 283.537 271.036C283.173 276.365 281.172 284.513 286.741 284.87C292.311 285.226 294.962 271.663 295.34 267.938C296.245 257.452 295.789 246.893 293.983 236.525Z" fill="#263238"/>
<path d="M286.706 284.164C286.253 285.578 285.891 287.019 285.62 288.479C285.304 289.613 285.198 290.794 285.306 291.966C285.321 292.011 285.349 292.051 285.385 292.081C285.422 292.111 285.466 292.13 285.512 292.136C285.559 292.143 285.607 292.136 285.65 292.116C285.693 292.097 285.73 292.066 285.756 292.027C286.334 290.937 286.738 289.763 286.953 288.548C287.335 287.212 287.746 285.884 288.084 284.54C288.117 284.363 288.082 284.181 287.986 284.029C287.89 283.876 287.741 283.766 287.568 283.719C287.394 283.671 287.209 283.691 287.05 283.774C286.89 283.856 286.767 283.996 286.706 284.164Z" fill="#263238"/>
<path d="M165.965 318.649C176.765 330.085 188.053 341.077 199.828 351.626C203.01 354.446 206.233 357.221 209.497 359.953C216.665 346.079 218.821 330.458 220.096 315.026C220.425 311.067 220.696 307.103 220.994 303.134C221.465 298.894 221.721 294.633 221.76 290.366C221.652 285.961 220.753 281.59 220.487 277.18C220.253 272.912 220.289 268.633 220.593 264.37C221.298 254.705 223.125 245.156 226.036 235.914C226.019 235.803 226.286 235.876 226.257 235.966C224.039 244.411 222.482 253.015 221.599 261.702C221.206 266.111 221.084 270.54 221.234 274.964C221.393 279.418 222.107 283.789 222.476 288.226C222.652 292.459 222.492 296.7 221.996 300.908C221.695 304.863 221.424 308.827 221.123 312.782C220.612 320.584 219.673 328.352 218.312 336.051C216.829 344.642 214.027 352.952 210.005 360.686C209.974 360.744 209.93 360.794 209.877 360.831C209.823 360.869 209.762 360.894 209.697 360.903C209.632 360.913 209.566 360.908 209.504 360.887C209.441 360.867 209.385 360.833 209.338 360.787C197.371 350.603 185.8 339.933 174.866 328.584C171.746 325.357 168.671 322.085 165.642 318.769C165.504 318.704 165.797 318.475 165.965 318.649Z" fill="#263238"/>
<path d="M205.41 347.048C205.836 347.54 206.236 348.054 206.608 348.588L206.933 348.766C207.146 348.877 207.347 349.008 207.533 349.159C207.896 349.473 208.225 349.823 208.515 350.206C209.06 351.011 209.412 351.931 209.545 352.894C209.278 352.008 208.835 351.185 208.242 350.474C207.973 350.123 207.672 349.797 207.343 349.501C207.248 349.427 207.16 349.345 207.078 349.256C207.095 349.368 207.221 349.448 207.281 349.567C207.792 350.547 208.203 351.576 208.511 352.638C208.804 353.641 208.96 354.679 208.975 355.724C209.023 356.752 208.974 357.783 208.827 358.803L208.758 358.813C208.603 357.784 208.575 356.751 208.293 355.727C208.011 354.703 207.672 353.773 207.383 352.793C207.101 351.835 206.764 350.893 206.376 349.973C205.993 349.036 205.646 348.05 205.207 347.121C205.167 347.042 205.326 346.961 205.41 347.048Z" fill="#263238"/>
<path d="M239.223 139.107C251.32 145.333 305.43 158.389 322.607 146.223C340.102 133.81 351.128 79.622 354.191 74.6546C362.572 60.9116 316.027 50.2288 313.283 59.2994C308.695 74.4477 300.113 114.351 293.688 116.156C280.171 119.952 267.264 120.06 245.677 123.038C230.534 125.103 225.919 132.223 239.223 139.107Z" fill="#EB9481"/>
<path d="M310.07 69.322C310.07 69.322 298.258 112.327 294.393 114.045C287.967 116.974 251.396 121.182 238.362 123.371C225.328 125.559 214.487 139.018 247.17 145.915C279.853 152.812 306.811 154.912 323.077 148.598C333.176 144.662 355.065 95.0232 355.065 95.0232L310.07 69.322Z" fill="#E51D1B"/>
<path opacity="0.1" d="M310.07 69.322C310.07 69.322 298.258 112.327 294.393 114.045C287.967 116.974 251.396 121.182 238.362 123.371C225.328 125.559 214.487 139.018 247.17 145.915C279.853 152.812 306.811 154.912 323.077 148.598C333.176 144.662 355.065 95.0232 355.065 95.0232L310.07 69.322Z" fill="black"/>
<path d="M348.391 103.576C332.025 92.22 313.191 82.8842 310.024 81.0149C309.868 80.9246 309.751 81.184 309.907 81.2743C313.114 82.9384 333.541 96.0579 348.288 103.933C348.447 103.952 348.549 103.681 348.391 103.576Z" fill="#263238"/>
<path opacity="0.1" d="M225.819 134.683C226.99 138.687 232.958 142.921 247.17 145.915C279.841 152.828 306.811 154.912 323.063 148.6C325.077 147.814 327.571 145.206 330.257 141.518C305.642 139.961 246.297 136.237 225.819 134.683Z" fill="black"/>
<path d="M352.059 79.6667C348.232 83.5264 315.091 70.1872 313.574 64.8284C313.227 62.9698 313.123 61.0737 313.266 59.1882C313.266 59.1882 309.306 47.4157 302.52 38.7837C296.837 31.5352 287.567 21.4146 291.35 18.2153C296.856 13.5201 310.115 24.9173 317.336 31.9059C318.73 26.6209 320.413 22.2164 322.353 19.9912C328.777 12.6985 365.155 37.1654 364.768 47.0615C364.371 56.6177 355.887 75.821 352.059 79.6667Z" fill="#EB9481"/>
<path d="M314.738 33.3488C317.169 37.7883 321.022 32.4035 321.022 32.4035C321.022 32.4035 317.355 41.4849 321.639 45.1054C325.923 48.7259 330.182 41.8867 330.509 41.4111C330.325 41.8936 327.177 50.3569 331.851 53.549C336.526 56.7411 339.994 49.367 340.205 48.8803C340.169 49.3975 339.812 56.1898 343.922 57.8035C350.976 60.5664 352.347 43.2153 357.166 39.4337C357.166 39.4337 364.509 46.8587 364.781 47.0595C364.781 47.0595 366.424 30.5772 360.952 24.349C360.173 23.428 359.101 22.8016 357.916 22.5739C356.731 22.3461 355.503 22.5308 354.438 23.0971C354.438 23.0971 355.552 17.8401 351.96 15.2244C350.109 13.8822 346.336 15.6439 346.336 15.6439C346.336 15.6439 347.118 11.3894 343.712 9.25749C341.037 7.54167 337.649 9.58683 337.649 9.58683C337.649 9.58683 336.447 5.18993 333.148 4.33564C326.487 2.57984 309.532 23.7825 314.738 33.3488Z" fill="#EB9481"/>
<path d="M337.033 9.83603C337.033 9.83603 337.007 9.66921 336.944 9.72137C329.354 15.5443 323.715 23.5374 320.773 32.64C320.69 32.9369 321.128 33.1981 321.282 32.9047C325.387 24.4928 330.693 16.7221 337.033 9.83603Z" fill="#263238"/>
<path d="M346.343 15.5007C346.426 15.4881 346.314 15.306 346.211 15.3784C338.731 21.2235 331.926 30.8909 330.121 41.4835C330.063 41.8478 330.376 42.2272 330.47 41.8149C332.212 34.8712 340.309 21.8818 346.343 15.5007Z" fill="#263238"/>
<path d="M340.336 49.6567C342.458 39.5708 347.593 31.1783 354.115 23.3163C354.2 23.2182 354.084 23.1077 353.951 23.1704C349.722 26.1522 346.077 31.5911 343.613 36.0988C341.244 40.2159 339.986 44.8779 339.962 49.6277C340.04 49.7722 340.284 49.8778 340.336 49.6567Z" fill="#263238"/>
<path d="M320.855 32.4286C320.753 32.7852 321.371 32.55 321.282 32.9045C320.894 34.3847 319.353 43.5159 322.293 45.0071C324.662 46.2003 327.905 43.85 328.789 42.4517L331.046 39.0272L330.152 43.0997C329.744 44.9008 329.634 46.7568 329.827 48.5935C329.865 49.4493 330.083 50.2874 330.468 51.0528C330.852 51.8181 331.395 52.4935 332.059 53.0344C332.682 53.5289 333.457 53.7941 334.253 53.7856C335.049 53.7772 335.817 53.4956 336.43 52.9881C337.785 51.8296 338.82 50.3425 339.434 48.6693L341.309 44.1223L341.035 49.0113C340.96 50.3731 341.056 51.7389 341.32 53.077C341.528 54.3547 342.108 55.543 342.986 56.4943C343.399 56.9047 343.918 57.1915 344.485 57.3222C345.053 57.4529 345.645 57.4223 346.196 57.2339C347.365 56.6253 348.339 55.7004 349.007 54.5647C350.472 52.1061 351.744 49.5382 352.813 46.8839C353.412 45.5713 353.995 44.2468 354.653 42.9536C355.236 41.6212 356.093 40.4265 357.168 39.4476C356.222 40.5238 355.493 41.7728 355.02 43.1258C354.465 44.4461 354 45.7955 353.496 47.1652C352.583 49.9337 351.41 52.6093 349.992 55.1559C349.253 56.5628 348.118 57.7222 346.726 58.4905C345.928 58.8177 345.051 58.9053 344.204 58.7425C343.356 58.5796 342.574 58.1735 341.954 57.5736C340.815 56.4205 340.053 54.9486 339.769 53.353C339.446 51.8645 339.317 50.3404 339.386 48.8188L340.973 49.1629C340.282 51.1515 339.076 52.9219 337.48 54.2945C336.577 55.0408 335.439 55.4437 334.268 55.4317C333.124 55.3867 332.02 54.9979 331.1 54.316C330.254 53.6364 329.564 52.7837 329.075 51.8151C328.586 50.8466 328.31 49.7846 328.265 48.7005C328.093 46.6701 328.266 44.6253 328.777 42.6526L330.127 43.2172C328.965 44.9416 325.595 47.9649 321.706 46.5881C316.812 44.0119 320.125 34.1876 320.855 32.4286Z" fill="#263238"/>
<path d="M321.017 32.3758C320.256 33.1047 319.389 33.7144 318.446 34.1842C318.075 34.3789 317.658 34.47 317.239 34.4479C316.821 34.4258 316.416 34.2914 316.067 34.0587C315.372 33.4496 314.871 32.6501 314.626 31.7592C314.309 30.7833 314.011 29.7477 313.765 28.6759C313.455 29.7625 313.384 30.9031 313.557 32.0196C313.613 32.6383 313.791 33.2398 314.081 33.7892C314.371 34.3385 314.767 34.8249 315.247 35.22C315.818 35.6034 316.493 35.8042 317.181 35.7961C317.831 35.7471 318.455 35.5256 318.99 35.1544C319.945 34.4682 320.655 33.4945 321.017 32.3758Z" fill="#263238"/>
<path d="M216.928 255.225C217.254 255.404 305.437 231.958 306 230.694C306.773 228.843 266.069 139.901 242.678 123.901C236.831 119.905 222.957 124.167 218.184 131.183C194.479 166.011 215.794 254.586 216.928 255.225Z" fill="#EBEBEB"/>
<path d="M243.46 123.812L296.781 244.165L312.493 228.878C312.493 228.878 271.523 151.876 261.235 140.188C250.947 128.5 243.46 123.812 243.46 123.812Z" fill="#E51D1B"/>
<path opacity="0.1" d="M243.46 123.812L296.781 244.165L312.493 228.878C312.493 228.878 271.523 151.876 261.235 140.188C250.947 128.5 243.46 123.812 243.46 123.812Z" fill="black"/>
<path d="M223.045 125.973C223.045 125.973 231.701 174.059 233.407 185.403C235.114 196.747 247.061 258.298 247.061 258.298L205.14 256.999C205.14 256.999 203.554 195.808 204.053 181.545C204.551 167.282 210.425 132.052 223.045 125.973Z" fill="#E51D1B"/>
<path opacity="0.1" d="M223.045 125.973C223.045 125.973 231.701 174.059 233.407 185.403C235.114 196.747 247.061 258.298 247.061 258.298L205.14 256.999C205.14 256.999 203.554 195.808 204.053 181.545C204.551 167.282 210.425 132.052 223.045 125.973Z" fill="black"/>
<path d="M217.453 154.579C197.39 182.434 169.867 213.145 151.834 212.062C135.522 211.076 110.018 195.962 82.226 179.714C76.7087 176.493 104.041 134.878 109.581 138.906C120.483 146.834 143.567 167.785 151.235 169.332C154.518 169.99 186.763 147.326 208.304 135.157C234.456 120.376 225.45 143.482 217.453 154.579Z" fill="#EB9481"/>
<path d="M57.9153 166.099C65.5988 172.947 90.3839 184.23 96.175 184.17C101.966 184.109 116.601 148.527 113.602 143.334C110.603 138.141 82.9662 117.065 72.4743 116.497C61.9824 115.928 49.9516 158.994 57.9153 166.099Z" fill="#EB9481"/>
<path d="M88.4877 120.599C90.0811 125.804 83.023 124.719 83.023 124.719C83.023 124.719 92.8108 128.734 92.3699 134.686C91.9414 140.437 83.474 138.868 82.8587 138.747C83.3753 138.968 92.2699 142.904 91.2047 148.864C90.1098 155.1 81.8837 152.015 81.3351 151.771C81.7593 152.134 87.2627 156.964 85.4322 161.333C82.3074 168.912 67.8572 156.869 61.3109 157.769C61.3109 157.769 58.5221 166.164 58.4569 166.486C58.4569 166.486 47.5384 158.263 46.8401 149.369C46.7025 148.074 47.0183 146.772 47.7335 145.685C48.4488 144.597 49.5192 143.791 50.7622 143.405C50.7622 143.405 45.8623 140.318 46.5324 135.511C46.89 133.069 51.099 131.469 51.099 131.469C51.099 131.469 47.29 128.83 48.1536 124.648C48.8306 121.305 52.946 120.216 52.946 120.216C52.946 120.216 50.4612 115.984 52.2706 112.798C55.9264 106.575 85.0447 109.431 88.4877 120.599Z" fill="#EB9481"/>
<path d="M53.606 120.16C53.5901 120.156 53.5759 120.147 53.5649 120.134C53.554 120.122 53.5468 120.107 53.5444 120.091C53.5419 120.075 53.5443 120.058 53.5512 120.043C53.558 120.028 53.5691 120.016 53.583 120.007C63.7699 118.519 74.1683 120.168 83.3952 124.734C83.6886 124.889 83.5693 125.419 83.2126 125.316C73.6464 122.169 63.6729 120.432 53.606 120.16Z" fill="#263238"/>
<path d="M50.9631 131.604C50.8519 131.62 50.8504 131.421 50.9338 131.409C61.0475 130.03 73.6177 132.034 83.1481 138.59C83.4659 138.812 83.5314 139.342 83.1421 139.117C76.5422 135.219 60.4497 131.726 50.9631 131.604Z" fill="#263238"/>
<path d="M81.8722 152.6C72.4498 146.668 62.1476 144.336 51.1982 143.467C51.0592 143.488 51.0813 143.257 51.1626 143.231C56.692 142.186 63.5688 143.483 68.8761 144.931C73.8308 146.184 78.3692 148.717 82.0368 152.277C82.2266 152.404 82.0759 152.726 81.8722 152.6Z" fill="#263238"/>
<path d="M83.0168 124.677C84.8266 125.611 86.5409 126.72 88.1351 127.987C89.7411 129.142 91.0112 130.702 91.8151 132.509C92.1341 133.359 92.1283 134.296 91.7988 135.142C91.4605 135.993 90.907 136.743 90.1926 137.317C89.4325 137.826 88.5746 138.172 87.6735 138.332C86.7724 138.492 85.8478 138.463 84.9586 138.246L80.558 137.344L84.3552 139.716C86.0536 140.747 87.5706 142.051 88.8454 143.575C89.4755 144.251 89.9563 145.051 90.2567 145.924C90.5571 146.798 90.6703 147.724 90.5889 148.644C90.5004 149.495 90.1244 150.289 89.523 150.897C88.9216 151.504 88.1308 151.888 87.2815 151.985C85.3722 152.155 83.451 151.837 81.6978 151.062L76.7802 149.087L80.7544 152.541C81.8652 153.507 82.8482 154.61 83.6796 155.825C84.506 156.944 84.9885 158.279 85.068 159.668C85.074 160.294 84.9058 160.909 84.5822 161.445C84.2586 161.981 83.7923 162.416 83.2356 162.702C81.8911 163.156 80.4449 163.215 79.0676 162.874C76.0789 162.178 73.1491 161.25 70.3049 160.098C68.8039 159.57 67.3863 159.03 65.8936 158.558C64.4289 157.99 62.86 157.742 61.2915 157.829C62.8248 157.906 64.3288 158.279 65.7214 158.925C67.2287 159.494 68.5637 160.147 69.982 160.786C72.8037 162.161 75.7497 163.265 78.7804 164.083C80.4143 164.56 82.1525 164.546 83.7783 164.042C84.632 163.673 85.3594 163.062 85.8713 162.286C86.3833 161.509 86.6576 160.6 86.6606 159.67C86.615 157.941 86.0611 156.264 85.068 154.849C84.1602 153.487 83.085 152.244 81.8674 151.151L80.9262 152.643C82.9882 153.595 85.2628 153.992 87.5256 153.797C88.7743 153.647 89.9332 153.071 90.8059 152.166C91.6364 151.251 92.1682 150.105 92.3303 148.88C92.4341 147.717 92.2919 146.546 91.9127 145.442C91.5335 144.338 90.9259 143.326 90.1295 142.472C88.6972 140.818 87.0061 139.406 85.122 138.293L84.5388 139.802C85.652 140.036 86.8031 140.024 87.9112 139.767C89.0193 139.509 90.0577 139.012 90.9535 138.311C91.802 137.56 92.4414 136.601 92.8097 135.53C93.1735 134.429 93.1251 133.234 92.6734 132.167C91.7104 130.264 90.2344 128.669 88.4123 127.562C86.728 126.4 84.9181 125.433 83.0168 124.677Z" fill="#263238"/>
<path d="M109.581 138.906C109.581 138.906 91.0753 99.3397 79.1588 114.155C75.5571 118.563 66.3285 140.85 70.7608 142.813C76.4995 145.333 82.116 136.74 84.7834 130.752C84.7834 130.752 89.1863 145.088 100.079 145.013C102.071 144.967 104.012 144.373 105.688 143.295C107.365 142.218 108.712 140.699 109.581 138.906Z" fill="#EB9481"/>
<path d="M80.2208 112.985C78.6297 114.546 77.2746 116.33 76.1983 118.282C75.0703 120.21 74.0748 122.212 73.2187 124.275C71.4316 128.375 70.0062 132.623 68.9589 136.971C68.6864 138.127 68.5781 139.316 68.6372 140.503C68.6788 141.184 68.8661 141.849 69.1865 142.453C69.3662 142.785 69.5987 143.087 69.8751 143.344C70.1524 143.59 70.4657 143.793 70.804 143.944C72.0399 144.462 73.4202 144.521 74.6962 144.112C75.8566 143.711 76.9401 143.116 77.9 142.35C79.6801 140.87 81.1923 139.094 82.3702 137.1C83.5596 135.186 84.6034 133.185 85.4929 131.114L84.0546 131.004C84.6164 132.623 85.3275 134.187 86.1789 135.674C87.0099 137.153 87.9952 138.539 89.1183 139.81C90.2475 141.079 91.5572 142.175 93.0055 143.063C94.4406 143.947 96.0318 144.547 97.6929 144.832C96.1232 144.348 94.6434 143.61 93.3126 142.647C92.0163 141.661 90.8577 140.507 89.8674 139.214C88.876 137.927 88.0115 136.548 87.286 135.095C86.5667 133.657 85.9793 132.156 85.531 130.611L85.0018 128.7L84.0927 130.501C83.1526 132.456 82.0888 134.349 80.9079 136.169C79.7861 137.965 78.3868 139.571 76.7621 140.929C75.1965 142.146 73.133 142.982 71.577 142.278C70.1517 141.782 70.3127 139.355 70.6892 137.322C71.1125 135.186 71.649 133.075 72.2964 130.996C72.9031 128.886 73.5535 126.783 74.2957 124.724C75.8677 120.621 77.4411 116.432 80.2208 112.985Z" fill="#263238"/>
<path d="M115.11 142.866C115.11 142.866 148.269 167.859 152.428 166.964C159.312 165.473 198.546 139.085 210.305 133.051C222.064 127.017 235.71 127.48 219.617 153.557C201.452 182.974 180.218 209.939 154.657 213.813C140.88 215.885 93.4743 192.395 93.4743 192.395L115.11 142.866Z" fill="#E51D1B"/>
<path opacity="0.1" d="M115.11 142.866C115.11 142.866 148.269 167.859 152.428 166.964C159.312 165.473 198.546 139.085 210.305 133.051C222.064 127.017 235.71 127.48 219.617 153.557C201.452 182.974 180.218 209.939 154.657 213.813C140.88 215.885 93.4743 192.395 93.4743 192.395L115.11 142.866Z" fill="black"/>
<path d="M104.832 193.231C111.173 174.336 120.697 155.616 122.137 152.243C122.198 152.078 122.443 152.197 122.371 152.379C120.798 155.629 112.247 178.354 105.094 193.362C105.01 193.56 104.76 193.413 104.832 193.231Z" fill="#263238"/>
<path d="M204.269 176.182C204.819 175.396 205.322 174.58 205.778 173.737C206.348 172.897 206.947 172.054 207.489 171.219C208.67 169.62 209.726 168.039 210.823 166.353C213.022 163.108 215.408 159.977 217.715 156.786C215.678 160.163 213.685 163.548 211.413 166.776L211.261 166.998L212.685 165.689C213.672 164.787 214.66 163.885 215.631 162.971C215.631 162.971 215.781 163.02 215.731 163.07C214.842 164.057 213.919 165.006 212.931 165.908C212.432 166.367 211.93 166.812 211.398 167.247L210.663 167.841L208.093 171.455C207.505 172.269 206.912 173.054 206.298 173.886C205.684 174.718 204.902 175.376 204.377 176.236C204.379 176.435 204.117 176.304 204.269 176.182Z" fill="#263238"/>
<path d="M243.032 141.277C238.932 142.946 227.505 138.239 221.781 132.888C221.399 132.519 220.541 127.573 219.204 121.618C218.39 118.002 217.39 114.001 216.21 110.411L240.49 108.507C240.68 113.41 241.468 118.27 242.838 122.982C243.004 123.477 243.218 123.954 243.479 124.406C243.489 124.476 243.502 124.559 243.517 124.657C244.97 127.324 249.448 138.663 243.032 141.277Z" fill="#EB9481"/>
<path d="M243.466 124.408C243.519 124.481 243.559 124.561 243.587 124.646C242.856 125.001 242.097 125.296 241.318 125.528C228.427 129.429 220.193 114.859 217.968 110.275L240.447 108.499C240.63 113.411 241.41 118.283 242.772 123.006C242.965 123.491 243.197 123.96 243.466 124.408Z" fill="#263238"/>
<path d="M201.392 84.3924C202.347 93.1055 216 113.641 223.614 116.249C234.66 120.032 247.983 115.128 250.043 102.933C251.989 91.1105 233.738 64.6699 225.666 62.7993C213.735 60.0309 199.984 71.5392 201.392 84.3924Z" fill="#EB9481"/>
<path d="M221.481 86.1895C221.971 85.6437 222.431 85.0715 222.858 84.4754C223.447 83.9481 223.841 83.2378 223.976 82.459C223.966 82.2076 223.874 81.9665 223.714 81.7724C223.554 81.5783 223.334 81.4419 223.09 81.384C222.591 81.3465 222.091 81.4427 221.642 81.6627C221.193 81.8827 220.81 82.2186 220.534 82.6357C219.842 83.3897 219.458 84.3758 219.457 85.3993C219.476 85.625 219.557 85.8409 219.693 86.0225C219.828 86.204 220.011 86.344 220.222 86.4263C220.433 86.5087 220.663 86.5301 220.886 86.4883C221.108 86.4464 221.315 86.3429 221.481 86.1895Z" fill="#525252"/>
<path d="M235.371 77.5889C234.675 77.8784 234.014 78.0204 233.267 78.2467C232.559 78.5749 231.765 78.6645 231.002 78.5021C230.774 78.4017 230.584 78.2298 230.461 78.0124C230.339 77.795 230.29 77.5437 230.323 77.2963C230.471 76.816 230.745 76.3841 231.117 76.0456C231.488 75.7072 231.944 75.4746 232.436 75.372C233.392 74.9976 234.454 75.0004 235.408 75.3797C235.621 75.4783 235.799 75.6363 235.923 75.8345C236.048 76.0327 236.111 76.2626 236.108 76.4964C236.104 76.7302 236.032 76.9579 235.901 77.1518C235.771 77.3457 235.586 77.4975 235.371 77.5889Z" fill="#525252"/>
<path d="M232.654 101.966C233.193 102.203 233.799 102.238 234.361 102.065C234.878 101.73 235.321 101.29 235.66 100.775L235.757 100.76C235.724 101.163 235.583 101.549 235.351 101.879C235.118 102.209 234.801 102.471 234.433 102.637C234.101 102.744 233.744 102.749 233.409 102.649C233.074 102.55 232.778 102.352 232.558 102.08C232.482 102.049 232.581 101.949 232.654 101.966Z" fill="#263238"/>
<path d="M231.513 96.8353C232.218 97.1736 232.987 97.3609 233.769 97.3852C234.551 97.4095 235.33 97.2703 236.055 96.9766C236.688 96.7289 237.283 96.3953 237.825 95.9852C237.934 95.9141 238.036 95.8321 238.129 95.7404C238.232 95.6726 238.325 95.5917 238.406 95.4998C238.473 95.4409 238.519 95.3617 238.536 95.2743C238.554 95.1869 238.543 95.0962 238.504 95.0159C238.478 94.9651 238.447 94.9173 238.411 94.8735L238.392 94.7483C237.742 93.6378 236.567 92.0659 236.567 92.0659C237.082 91.9885 239.653 91.6016 239.268 91.1194C236.105 86.3019 232.459 81.8202 228.385 77.7441C228.265 77.6058 228.037 77.7964 228.158 77.9347C231.048 82.4045 234.711 86.3458 237.697 90.7871C236.755 90.8915 235.833 91.1356 234.963 91.5112C234.84 91.6433 237.208 94.5285 237.458 95.0595C236.622 95.7002 235.665 96.1661 234.644 96.4295C233.624 96.6929 232.561 96.7484 231.519 96.5927C231.43 96.663 231.361 96.7728 231.513 96.8353Z" fill="#263238"/>
<path d="M236.851 95.8474C236.738 96.9915 236.33 98.0866 235.666 99.0254C235.288 99.5281 234.763 99.9004 234.163 100.09C232.804 100.508 232.18 99.4787 231.843 98.4633C231.667 97.9215 231.554 97.3613 231.506 96.7937C233.343 97.0543 235.215 96.7228 236.851 95.8474Z" fill="#263238"/>
<path d="M235.664 99.0114C235.286 99.5141 234.761 99.8864 234.161 100.076C232.803 100.494 232.179 99.4648 231.841 98.4493C232.45 98.1024 233.157 97.9693 233.85 98.0711C234.543 98.173 235.182 98.5041 235.664 99.0114Z" fill="#FF9BBC"/>
<path d="M223.773 89.6121C223.623 89.1882 223.589 88.7321 223.674 88.2907C223.737 88.0512 223.847 87.8269 223.999 87.6308C224.15 87.4347 224.339 87.2708 224.554 87.1489C224.776 87.0434 225.019 86.9887 225.265 86.9886C225.511 86.9885 225.753 87.043 225.976 87.1483C226.367 87.3445 226.706 87.6293 226.968 87.9799C227.119 88.1971 227.258 88.4232 227.383 88.6568C227.647 89.1343 227.795 89.6671 227.816 90.2123C227.648 89.8533 227.445 89.5124 227.208 89.1949C226.991 88.9119 226.756 88.6434 226.504 88.3909C225.987 87.8858 225.356 87.5684 224.876 87.8682C224.624 88.0404 224.435 88.2899 224.337 88.579C224.24 88.8681 224.239 89.1811 224.335 89.4707C224.483 90.2154 224.702 90.9441 224.989 91.6469C224.435 91.0694 224.019 90.3737 223.773 89.6121Z" fill="#263238"/>
<path d="M237.416 80.6932C237.099 80.3775 236.707 80.1478 236.278 80.0257C236.044 79.9662 235.8 79.9541 235.561 79.9901C235.323 80.026 235.093 80.1092 234.887 80.2348C234.683 80.3844 234.516 80.5791 234.4 80.8038C234.283 81.0285 234.22 81.2771 234.215 81.5301C234.221 81.9692 234.33 82.4008 234.533 82.7903C234.647 83.0275 234.781 83.2546 234.933 83.4692C235.245 83.9183 235.656 84.2894 236.134 84.5538C235.883 84.2476 235.671 83.912 235.5 83.5545C235.34 83.2349 235.205 82.9036 235.096 82.5634C234.878 81.8712 234.886 81.1732 235.353 80.8755C235.621 80.7249 235.93 80.6658 236.234 80.7074C236.538 80.7489 236.82 80.8887 237.037 81.1056C237.641 81.5724 238.196 82.0985 238.695 82.6759C238.433 81.9225 237.994 81.2427 237.416 80.6932Z" fill="#263238"/>
<g opacity="0.2">
<path d="M222.796 77.4477C223.643 77.1131 224.468 76.7231 225.264 76.2802C226.058 75.7911 226.745 75.1617 227.543 74.7005C229.102 73.8992 230.789 73.376 232.528 73.1545C232.681 73.1315 232.709 73.2267 232.543 73.2518C230.723 73.5532 228.989 74.2406 227.458 75.2678C226.265 76.2094 224.944 76.9776 223.536 77.5495C220.252 78.5967 217.386 80.6608 215.353 83.4436C217.181 80.7482 219.773 78.6603 222.796 77.4477Z" fill="black"/>
<path d="M221.565 75.4009C222.367 75.0853 223.148 74.7162 223.901 74.296C224.655 73.8272 225.304 73.2318 226.062 72.7908C227.54 72.0297 229.14 71.5339 230.789 71.3262C230.928 71.3053 230.955 71.3866 230.804 71.4235C229.08 71.7055 227.437 72.3551 225.987 73.3282C224.863 74.2201 223.618 74.9482 222.289 75.4909C219.165 76.4646 216.431 78.4041 214.479 81.0304C216.227 78.4893 218.694 76.5288 221.565 75.4009Z" fill="black"/>
</g>
<path d="M233.439 67.7716C228.598 77.1719 213.822 74.8739 213.822 74.8739C214.069 76.9021 213.655 78.9558 212.641 80.7297C211.627 82.5036 210.068 83.9028 208.195 84.7194C208.195 84.7194 213.682 98.5085 210.244 100.319C204.978 103.116 193.916 86.2848 193.629 81.9209C193.342 77.5569 197.338 74.2547 197.338 74.2547C196.688 71.8864 196.963 69.3596 198.108 67.187C200.261 62.5981 214.478 59.5779 214.478 59.5779C214.298 57.5574 214.591 55.5227 215.333 53.6348C215.507 53.1707 215.773 52.7468 216.116 52.389C216.459 52.0311 216.871 51.7467 217.327 51.5531C217.783 51.3595 218.274 51.2606 218.77 51.2626C219.266 51.2646 219.756 51.3674 220.21 51.5647C220.071 52.8731 220.236 54.1959 220.692 55.4301C222.125 59.5648 225.226 57.8757 223.387 54.4418C222.731 53.1331 221.622 52.1075 220.266 51.5563C220.585 48.4802 222.687 46.3869 224.865 46.7843C228.813 47.5125 237.469 59.9718 233.439 67.7716Z" fill="#525252"/>
<path d="M229.939 95.6364C231.283 94.4597 232.106 92.798 232.227 91.0156C232.348 89.2331 231.757 87.4755 230.584 86.128C229.755 85.1792 228.677 84.4819 227.471 84.1155C226.266 83.749 224.982 83.7282 223.765 84.0552C222.548 84.3822 221.447 85.044 220.588 85.9654C219.729 86.8868 219.145 88.0308 218.904 89.2673C218.662 90.5039 218.772 91.7834 219.222 92.9605C219.671 94.1375 220.442 95.1648 221.446 95.9257C222.45 96.6865 223.648 97.1504 224.903 97.2645C226.157 97.3786 227.419 97.1384 228.544 96.5712C229.049 96.3238 229.518 96.0094 229.939 95.6364ZM229.904 86.7136C230.664 87.5823 231.149 88.6568 231.298 89.8012C231.447 90.9456 231.254 92.1085 230.742 93.1428C230.23 94.1771 229.422 95.0363 228.422 95.6117C227.422 96.1872 226.273 96.453 225.122 96.3756C223.97 96.2982 222.867 95.881 221.953 95.1768C221.039 94.4727 220.354 93.5132 219.985 92.4196C219.616 91.3261 219.58 90.1478 219.881 89.0336C220.181 87.9195 220.806 86.9196 221.675 86.1604C222.038 85.8403 222.442 85.5693 222.876 85.3542C224.033 84.7702 225.35 84.5869 226.622 84.8329C227.895 85.079 229.049 85.7405 229.904 86.7136Z" fill="#455A64"/>
<path d="M241.773 87.7427C244.074 86.2166 244.289 82.4454 242.232 79.3571C241.328 77.9417 240.005 76.8437 238.447 76.2161C237.793 75.9139 237.073 75.7841 236.355 75.8391C235.637 75.8941 234.945 76.1319 234.345 76.53C233.745 76.9282 233.257 77.4733 232.928 78.1134C232.598 78.7536 232.438 79.4675 232.462 80.1872C232.423 81.8651 232.915 83.5126 233.867 84.8947C235.815 87.8287 239.096 89.1265 241.445 88.0195L241.773 87.7427ZM238.133 77.0594C239.515 77.6172 240.686 78.5946 241.482 79.8538C243.305 82.5223 243.164 85.7422 241.277 86.9929C239.389 88.2436 236.4 87.0868 234.617 84.3981C233.775 83.1704 233.337 81.7107 233.363 80.2222C233.353 79.6461 233.482 79.0761 233.738 78.5601C233.995 78.0441 234.371 77.5971 234.836 77.2569L235.123 77.0857C235.596 76.8722 236.107 76.7596 236.625 76.755C237.144 76.7505 237.657 76.8542 238.133 77.0594Z" fill="#455A64"/>
<path d="M230.829 86.9015L229.967 86.6474C230.343 85.3682 231.68 83.1057 234.024 83.6628L233.814 84.5332C231.705 84.026 230.87 86.7958 230.829 86.9015Z" fill="#455A64"/>
<path d="M206.77 104.922L205.881 105.056C205.82 104.653 205.476 100.951 206.973 99.5605C208.47 98.1696 219.069 92.5518 219.514 92.3L219.948 93.102C216.882 94.7431 208.671 99.2199 207.584 100.222C206.498 101.224 206.662 103.915 206.77 104.922Z" fill="#455A64"/>
<path d="M213.953 100.501C213.953 100.501 205.727 95.6252 203.288 98.8781C200.849 102.131 209.341 110.762 213.76 110.467C214.334 110.471 214.903 110.357 215.432 110.133C215.961 109.909 216.438 109.579 216.835 109.164C217.232 108.749 217.539 108.257 217.739 107.719C217.939 107.181 218.027 106.607 217.998 106.034L213.953 100.501Z" fill="#EB9481"/>
<path d="M205.783 101.289C205.713 101.3 205.8 101.4 205.8 101.4C208.964 101.266 211.487 103.104 213.64 105.225C213.363 105.028 213.047 104.892 212.714 104.829C212.38 104.765 212.037 104.775 211.707 104.857C211.377 104.939 211.07 105.091 210.805 105.304C210.54 105.516 210.324 105.784 210.173 106.088C210.166 106.106 210.166 106.125 210.17 106.144C210.175 106.162 210.185 106.179 210.199 106.192C210.213 106.205 210.23 106.214 210.249 106.217C210.268 106.22 210.287 106.218 210.305 106.21C210.705 105.846 211.209 105.615 211.747 105.549C212.285 105.484 212.83 105.587 213.306 105.844C214.094 106.28 214.835 106.797 215.515 107.388C215.757 107.579 216.14 107.294 215.913 107.016C214.374 103.494 209.576 99.9508 205.783 101.289Z" fill="#263238"/>
<path d="M243.607 123.932L240.628 139.094L219.738 124.595L215.864 131.262C215.864 131.262 238.37 156.309 238.233 155.022L241.717 141.703L251.705 148.559L246.997 127.474L243.607 123.932Z" fill="#EBEBEB"/>
<path d="M249.985 138.07C249.083 134.624 248.286 131.118 247.232 127.709C247.214 127.583 246.983 127.561 246.982 127.746C246.927 131.252 250.419 144.445 251.015 147.654C250.599 147.347 241.831 141.7 241.778 141.821C240.896 143.987 238.322 153.715 238.17 154.505C234.614 150.519 221.19 136.133 217.103 132.497C217.093 132.486 217.081 132.476 217.067 132.469C217.053 132.463 217.038 132.459 217.023 132.458C217.008 132.457 216.992 132.459 216.978 132.464C216.963 132.469 216.95 132.476 216.938 132.486C216.927 132.497 216.917 132.509 216.91 132.523C216.904 132.537 216.9 132.551 216.899 132.567C216.898 132.582 216.9 132.598 216.904 132.612C216.909 132.627 216.917 132.64 216.927 132.652C220.218 136.947 238.136 156.358 238.335 156.257C239.774 151.661 240.97 146.992 241.917 142.27C243.533 143.562 252.467 150.122 252.389 149.608C251.791 145.723 250.988 141.872 249.985 138.07Z" fill="#263238"/>
</svg>
