<svg width="910" height="736" viewBox="0 0 910 736" fill="none" xmlns="http://www.w3.org/2000/svg">
<g clip-path="url(#clip0_7_12381)">
<path d="M168.641 26.4257L143.98 26.9351L131.459 27.1352C127.273 27.1352 123.069 27.1352 118.883 27.2443H118.082V26.4257L117.973 6.04942V5.13977H118.883L143.78 5.26712C152.079 5.26712 160.36 5.48544 168.66 5.57641H169.151V6.04942C169.151 9.5061 168.987 12.9446 168.914 16.3285L168.641 26.4257ZM168.641 26.4257L168.387 16.1466C168.387 12.7445 168.186 9.39694 168.15 6.06761L168.641 6.55883C160.342 6.55883 152.061 6.84992 143.762 6.86811L118.883 6.97727L119.793 6.06761V26.4257L118.974 25.607C123.069 25.607 127.164 25.607 131.277 25.7161L143.635 25.9162L168.641 26.4257Z" fill="#EBEBEB"/>
<path d="M143.398 13.4359C67.4311 13.4359 67.3037 121.43 143.398 121.43C219.492 121.43 219.492 13.4359 143.398 13.4359Z" fill="#EBEBEB"/>
<path d="M122.099 44.0001H147.506V49.0815H137.895V69.0618H131.71V49.0815H122.099V44.0001ZM147.506 35.8149V40.8962H122.099V35.8149H147.506Z" fill="#DBDBDB"/>
<path d="M189.589 77.548C185.64 96.1413 170.134 112.242 143.398 112.242C80.2438 112.242 80.3348 22.6232 143.398 22.6232H144.635C85.2852 23.7148 85.5764 108.585 145.8 108.585C170.352 108.604 184.985 94.3948 189.589 77.548Z" fill="#DBDBDB"/>
<path d="M636.599 188.762C591.099 221.765 639.984 289.097 685.503 256.077C731.021 223.056 682.099 155.687 636.599 188.762Z" fill="#DBDBDB"/>
<path d="M640.86 185.651C597.562 217.107 646.32 284.44 689.763 252.966C733.206 221.492 684.321 154.141 640.86 185.651Z" fill="#EBEBEB"/>
<path d="M696.241 206.464C702.338 219.727 700.846 236.137 685.613 247.217C649.613 273.36 609.173 217.489 645.008 191.382L645.736 190.873C612.394 216.125 651.014 268.885 685.321 243.96C699.335 233.79 701.228 218.908 696.241 206.464Z" fill="#DBDBDB"/>
<path d="M122.099 44.0001H147.506V49.0815H137.895V69.0618H131.71V49.0815H122.099V44.0001ZM147.506 35.8149V40.8962H122.099V35.8149H147.506Z" fill="#DBDBDB"/>
<path d="M85.54 240.617H384.02V300.398H271.111V535.467H198.449V300.398H85.54V240.617ZM384.02 144.317V204.098H85.54V144.317H384.02Z" fill="#EBEBEB"/>
<path d="M766.603 264.718C690.636 264.718 690.509 372.712 766.603 372.712C842.697 372.712 842.661 264.718 766.603 264.718Z" fill="#EBEBEB"/>
<path d="M812.794 328.849C808.754 347.424 793.338 363.543 766.584 363.543C703.449 363.543 703.54 273.906 766.584 273.906H767.822C708.49 274.997 708.781 359.868 768.987 359.868C793.52 359.886 808.189 345.696 812.794 328.849Z" fill="#DBDBDB"/>
<path d="M744.38 301.899H791.7V311.631H773.8V349.898H762.28V311.631H744.38V301.899ZM791.7 286.223V295.955H744.38V286.223H791.7Z" fill="#DBDBDB"/>
<path d="M240.149 360.741H286.559L384.275 514.927H337.883L240.149 360.741Z" fill="#37474F"/>
<path d="M490.709 273.815H537.101L634.835 428.019H588.425L490.709 273.815Z" fill="#37474F"/>
<path d="M286.486 360.741H240.094L111.784 563.175H158.194L286.486 360.741Z" fill="#455A64"/>
<path d="M537.172 273.815H490.78L337.955 514.927H384.347L537.172 273.815Z" fill="#455A64"/>
<path d="M787.405 186.888H741.013L588.188 428.019H634.598L787.405 186.888Z" fill="#455A64"/>
<path d="M730.237 186.888H798.378L780.888 154.668L730.237 186.888Z" fill="#455A64"/>
<path d="M257.202 563.175H151.679V736.901H257.202V563.175Z" fill="#E51D1B"/>
<path opacity="0.6" d="M257.202 563.175H151.679V736.901H257.202V563.175Z" fill="white"/>
<path d="M111.784 736.919H151.679L151.679 563.194H111.784L111.784 736.919Z" fill="#E51D1B"/>
<path opacity="0.4" d="M111.784 736.919H151.679L151.679 563.194H111.784L111.784 736.919Z" fill="white"/>
<path d="M437.546 325.52H332.023V736.901H437.546V325.52Z" fill="#E51D1B"/>
<path opacity="0.6" d="M437.546 325.52H332.023V736.901H437.546V325.52Z" fill="white"/>
<path d="M292.109 736.901H332.004L332.004 325.52H292.109L292.109 736.901Z" fill="#E51D1B"/>
<path opacity="0.4" d="M292.109 736.901H332.004L332.004 325.52H292.109L292.109 736.901Z" fill="white"/>
<path d="M617.871 426.655H512.348V736.919H617.871V426.655Z" fill="#E51D1B"/>
<path opacity="0.6" d="M617.871 426.655H512.348V736.919H617.871V426.655Z" fill="white"/>
<path d="M472.471 736.901H512.365V426.636H472.471L472.471 736.901Z" fill="#E51D1B"/>
<path opacity="0.4" d="M472.471 736.901H512.365V426.636H472.471L472.471 736.901Z" fill="white"/>
<path d="M798.215 389.45H692.691V736.901H798.215V389.45Z" fill="#E51D1B"/>
<path opacity="0.6" d="M798.215 389.45H692.691V736.901H798.215V389.45Z" fill="white"/>
<path d="M652.797 736.919H692.691V389.468H652.797V736.919Z" fill="#E51D1B"/>
<path opacity="0.4" d="M652.797 736.919H692.691V389.468H652.797V736.919Z" fill="white"/>
<path d="M420.074 138.459C421.275 159.945 422.131 182.122 420.074 203.499C418.436 220.182 411.411 233.936 394.048 238.066C377.941 241.868 355.009 241.577 341.396 230.916C335.044 225.931 332.842 218.908 333.26 211.049C333.843 200.133 342.524 140.205 345.108 121.521C346.674 110.15 348.184 98.6158 351.77 87.6271C359.25 64.5583 370.77 64.1217 372.354 63.6669C373.719 62.7936 382.382 59.5007 394.849 63.485C398.107 64.5128 401.112 66.2177 403.665 68.4877C406.218 70.7577 408.262 73.5415 409.664 76.6567C418.6 95.1955 418.946 118.355 420.074 138.459Z" fill="#263238"/>
<path d="M368.623 67.451C354.882 73.855 351.624 88.846 348.294 102.273C343.671 120.975 339.357 139.768 335.954 158.671C334.316 167.804 332.908 176.961 331.732 186.143C330.64 194.948 328.911 204.336 329.511 213.214C330.494 227.914 343.944 234.609 356.975 236.701C357.105 236.725 357.24 236.697 357.349 236.621C357.458 236.546 357.533 236.431 357.557 236.301C357.581 236.171 357.553 236.036 357.478 235.927C357.403 235.818 357.287 235.743 357.157 235.719C349.731 234.245 342.16 232.189 336.646 226.622C329.548 219.563 330.385 210.358 331.186 201.152C332.605 185.542 334.826 170.023 337.792 154.614C340.759 139.204 344.089 123.849 347.748 108.586C351.224 94.0311 353.754 74.9284 368.678 67.542C368.841 67.6147 368.769 67.3782 368.623 67.451Z" fill="#263238"/>
<path d="M415.907 92.3209C413.304 81.0776 407.462 70.1436 395.632 66.8506C410.92 71.781 414.651 88.4822 416.78 102.473C418.928 117.154 420.42 131.909 421.567 146.718C422.586 160.945 423.387 175.299 423.023 189.563C422.732 204.972 419.947 219.399 410.847 232.098C410.819 232.122 410.797 232.152 410.781 232.185C410.766 232.219 410.758 232.255 410.758 232.292C410.757 232.329 410.765 232.365 410.781 232.398C410.796 232.432 410.819 232.462 410.846 232.485C410.874 232.509 410.907 232.527 410.943 232.537C410.978 232.547 411.015 232.549 411.052 232.544C411.088 232.538 411.123 232.525 411.153 232.504C411.184 232.484 411.21 232.457 411.229 232.426C420.184 222.165 423.15 208.011 423.878 194.766C424.519 177.225 424.002 159.661 422.331 142.188C420.948 125.614 419.674 108.495 415.907 92.3209Z" fill="#263238"/>
<path d="M625.316 502.72C621.275 505.085 496.842 531.083 491.473 529.082C489.435 528.336 484.594 510.434 479.352 488.657C478.205 483.945 477.077 479.087 475.949 474.102C468.559 441.992 461.479 407.734 461.479 407.734L544.672 390.105L556.92 456.965L559.614 471.628C559.614 471.628 611.702 482.981 617.362 485.819C623.023 488.657 629.356 500.337 625.316 502.72Z" fill="#EB9481"/>
<path d="M481.372 496.953C485.794 514.818 489.689 528.409 491.473 529.064C496.842 531.083 621.275 505.067 625.316 502.702C629.356 500.337 622.895 488.657 617.271 485.8C613.777 484.072 592.61 479.087 576.904 475.503C590.626 478.796 616.216 488.093 563.29 491.877C519.519 495.097 490.654 496.534 481.372 496.953Z" fill="#263238"/>
<path d="M513.86 562.43C509.347 563.685 382.402 557.117 377.706 553.825C376.687 553.097 377.852 536.05 379.289 520.695C380.363 509.288 408.1 430.13 408.1 430.13L493.021 434.278L458.15 515.619C458.15 515.619 505.634 539.852 510.384 544.037C515.134 548.221 518.356 561.175 513.86 562.43Z" fill="#EB9481"/>
<path d="M377.703 553.806C382.399 557.135 509.326 563.685 513.857 562.43C518.389 561.174 515.095 548.221 510.381 544.036C508.161 542.09 496.677 535.813 485.065 529.646C499.625 537.851 522.757 556.171 379.032 523.515C377.721 538.051 376.739 553.151 377.703 553.806Z" fill="#263238"/>
<path d="M316.079 315.332C341.377 343.513 426.389 321.262 431.467 332.469C435.944 342.366 377.941 501.155 377.941 501.155L470.761 511.162C470.761 511.162 550.841 335.781 522.267 285.113C506.779 257.823 438.547 268.739 397.47 263.645C385.057 262.135 379.27 236.556 379.27 236.556H305.76C305.76 236.556 287.159 283.13 316.079 315.332Z" fill="#263238"/>
<path d="M496.46 269.412L418.491 329.049C392.611 328.503 335.936 337.473 316.08 315.332C287.16 283.13 305.706 236.556 305.706 236.556H379.216C379.216 236.556 385.058 262.153 397.416 263.663C426.335 267.156 468.505 262.845 496.46 269.412Z" fill="#37474F"/>
<path d="M474.309 490.458C471.742 489.657 447.682 486.983 442.368 486.401C431.739 485.255 398.287 482.126 392.227 482.144C392.188 482.144 392.151 482.159 392.124 482.186C392.096 482.214 392.081 482.251 392.081 482.289C392.081 482.328 392.096 482.365 392.124 482.392C392.151 482.419 392.188 482.435 392.227 482.435C397.505 483.526 418.853 486.073 424.149 486.565C434.796 487.656 471.342 491.204 474.309 490.913C474.358 490.899 474.402 490.869 474.433 490.828C474.464 490.787 474.48 490.737 474.48 490.685C474.48 490.634 474.464 490.584 474.433 490.543C474.402 490.502 474.358 490.472 474.309 490.458Z" fill="#37474F"/>
<path d="M442.734 323.173C436.764 320.207 391.519 321.681 359.014 318.643C348.439 317.642 337.829 315.386 329.748 308.455C322.71 302.111 317.686 293.844 315.297 284.676C312.185 273.578 312.494 262.008 313.04 250.655C313.168 247.853 313.35 245.07 313.532 242.268C313.532 242.123 313.259 242.086 313.241 242.268C310.765 262.608 308.873 285.331 322.122 302.96C327.998 310.69 336.35 316.168 345.782 318.479C365.365 323.646 438.984 322.354 441.569 324.337C444.681 326.702 397.07 471.555 396.069 474.321C395.887 474.83 396.797 475.176 397.015 474.666C401.82 463.532 447.921 325.756 442.734 323.173Z" fill="#37474F"/>
<path d="M525.597 290.025C521.211 278.909 511.219 271.995 496.477 269.357C496.241 269.357 496.259 269.667 496.477 269.74C509.217 273.487 518.463 278.636 523.486 289.443C525.852 294.5 527.126 301.596 527.672 311.092C530.712 358.522 489.325 466.17 488.488 468.044C488.47 468.059 488.457 468.078 488.448 468.099C488.44 468.12 488.436 468.143 488.438 468.166C488.44 468.188 488.447 468.21 488.459 468.23C488.471 468.249 488.487 468.266 488.507 468.278C488.526 468.29 488.548 468.297 488.571 468.299C488.594 468.301 488.617 468.297 488.638 468.289C488.659 468.28 488.678 468.267 488.693 468.249C488.708 468.232 488.719 468.212 488.724 468.189C494.639 458.365 543.652 335.853 525.597 290.025Z" fill="#37474F"/>
<path d="M559.158 452.707L488.852 467.662C488.852 467.662 544.307 302.105 518.263 280.856C510.983 274.943 495.313 272.869 476.603 280.856C448.666 292.918 416.343 317.497 385.858 326.502C357.32 334.907 323.432 327.175 311.784 314.349C287.287 287.387 305.705 236.446 305.705 236.446L406.806 232.644C406.806 232.644 405.296 233.881 410.119 238.102C410.119 238.102 469.542 224.639 495.349 240.394C541.923 268.994 559.158 452.707 559.158 452.707Z" fill="#263238"/>
<path d="M349.439 242.45C349.439 242.402 349.42 242.356 349.386 242.322C349.352 242.287 349.305 242.268 349.257 242.268C349.209 242.268 349.162 242.287 349.128 242.322C349.094 242.356 349.075 242.402 349.075 242.45C349.166 246.248 348.874 250.045 348.201 253.784C347.416 257.331 345.658 260.588 343.124 263.19C337.573 268.794 329.619 270.704 322.357 272.996C321.975 273.124 322.048 273.797 322.485 273.724C330.547 272.487 339.01 270.449 344.907 264.391C347.619 261.609 349.438 258.08 350.131 254.257C350.878 250.325 350.64 246.269 349.439 242.45Z" fill="#37474F"/>
<path d="M516.515 277.69C505.723 270.922 488.815 276.071 480.734 279.164C480.57 279.164 480.643 279.509 480.734 279.437C488.178 276.762 506.706 272.723 516.588 279.728C539.466 295.919 508.853 406.697 488.779 467.662C488.469 468.608 489.234 468.353 489.652 467.444C492.965 460.166 518.772 383.173 525.579 332.215C526.689 324.428 532.113 287.478 516.515 277.69Z" fill="#37474F"/>
<path d="M551.132 434.023C549.021 434.023 530.803 437.989 526.781 438.899C518.754 440.718 500.154 445.521 495.841 447.176C495.731 447.176 495.841 447.449 495.932 447.449C500.099 447.049 509.8 444.921 513.804 443.993C521.812 442.173 549.294 435.533 551.296 434.46C551.46 434.369 551.351 434.041 551.132 434.023Z" fill="#37474F"/>
<path d="M513.078 274.815C505.798 270.849 497.153 270.194 489.09 271.177C480.563 272.5 472.29 275.119 464.556 278.945C448.176 286.477 432.452 295.647 415.981 303.124C399.51 310.601 382.147 316.387 364.092 316.932C348.677 317.405 329.167 314.695 319.248 300.832C303.96 279.455 312.859 242.614 313.041 240.23C313.041 240.049 312.805 240.067 312.768 240.23C300.902 285.513 316.154 303.087 326.455 310.492C334.627 316.35 346.366 317.769 354.119 318.497C372.064 320.007 390.064 315.623 406.699 309C423.752 302.196 439.732 293.063 456.075 284.713C471.727 276.708 489.181 268.448 507.035 273.033C509.066 273.567 511.055 274.248 512.987 275.07C513.114 275.034 513.241 274.87 513.078 274.815Z" fill="#37474F"/>
<path d="M365.821 147.628C376.377 177.41 395.159 212.413 402.057 217.653C410.793 224.275 458.095 229.66 460.715 229.642C467.213 229.551 472.072 186.088 465.12 185.888C454.527 185.579 425.407 186.106 422.878 184.069C420.348 182.031 401.948 163.62 382.838 142.752C369.679 128.307 359.196 129.144 365.821 147.628Z" fill="#EB9481"/>
<path d="M458.167 229.66C464.099 231.904 470.18 233.728 476.367 235.118C481.281 235.937 495.514 237.956 496.97 232.626C497.953 228.987 489.69 226.84 483.957 225.167C480.899 224.293 476.968 221.674 477.623 219.709C478.733 216.27 486.596 218.69 491.837 220.964C501.993 225.403 515.825 233.899 521.067 228.405C523.05 226.313 520.12 223.293 516.025 220.473C522.504 223.566 529.329 225.931 531.623 223.711C532.216 223.145 532.57 222.373 532.61 221.553C532.651 220.734 532.376 219.931 531.841 219.309C532.646 219.572 533.511 219.592 534.327 219.365C535.143 219.138 535.874 218.676 536.427 218.035C538.247 215.743 536.846 212.814 534.334 209.957C534.698 209.868 535.035 209.697 535.323 209.457C535.61 209.218 535.838 208.916 535.991 208.575C539.412 201.734 516.462 185.906 509.036 185.033C494.366 183.569 479.572 183.874 464.974 185.943C457.476 193.438 458.149 229.642 458.167 229.66Z" fill="#EB9481"/>
<path d="M487.124 206.537C492.27 206.744 497.313 208.04 501.92 210.339C507.708 213.268 511.748 217.016 516.753 220.691C516.881 220.782 516.753 220.982 516.608 220.891C514.224 219.072 504.45 212.705 501.957 211.267C497.43 208.609 492.358 207.017 487.124 206.61C487.124 206.61 487.069 206.519 487.124 206.537Z" fill="#263238"/>
<path d="M490.035 197.076C495.865 197.755 501.61 199.029 507.18 200.879C513.168 203.117 518.1 207.301 523.032 211.34C525.962 213.76 528.856 216.234 531.659 218.781C531.786 218.89 531.659 219.09 531.513 218.981C526.563 214.821 521.479 210.806 516.262 206.937C511.454 203.314 505.972 200.686 500.136 199.205C496.806 198.35 493.421 197.768 490.035 197.167C489.963 197.167 489.981 197.076 490.035 197.076Z" fill="#263238"/>
<path d="M495.041 188.508C500.592 188.999 505.433 189.399 510.565 191.746C516.358 194.707 521.762 198.374 526.654 202.662C529.33 204.936 531.914 207.283 534.48 209.666C534.59 209.775 534.48 209.957 534.316 209.848C528.485 204.64 522.327 199.809 515.88 195.385C512.837 193.242 509.486 191.574 505.943 190.436C502.362 189.497 498.709 188.859 495.023 188.526L495.041 188.508Z" fill="#263238"/>
<path d="M464.901 182.631L454.745 235.1C454.745 235.1 410.046 227.732 401.146 220.109C392.247 212.486 372.591 170.151 365.82 149.302C359.05 128.452 369.933 127.725 381.399 140.041C392.865 152.358 421.33 182.122 422.804 182.686C424.279 183.25 464.901 182.631 464.901 182.631Z" fill="#E51D1B"/>
<path d="M448.012 213.086C449.25 206.883 450.56 200.697 451.652 194.475C452.216 190.927 452.817 187.38 453.363 183.832C453.363 183.686 453.163 183.632 453.126 183.832C451.634 189.999 450.142 196.185 448.922 202.407C447.703 208.629 446.447 214.815 445.282 221.019C444.645 224.657 444.099 228.096 443.681 231.68H443.808C445.482 225.53 446.756 219.327 448.012 213.086Z" fill="#263238"/>
<path opacity="0.1" d="M455.764 229.824L454.763 235.045C454.763 235.045 410.045 227.677 401.145 220.073C392.246 212.468 372.571 170.151 365.819 149.302C360.887 134.056 365.364 129.562 372.608 133.073C393.538 157.052 432.995 202.298 455.764 229.824Z" fill="black"/>
<path d="M303.395 236.301L409.319 238.12L401.019 206.41C403.808 202.428 405.687 197.882 406.524 193.094C407.36 188.306 407.134 183.393 405.861 178.702C403.331 169.369 391.301 155.378 383.875 146.5C365.875 124.868 350.241 134.656 345.255 140.205C326.126 161.455 303.395 236.301 303.395 236.301Z" fill="#EBEBEB"/>
<path d="M353.353 134.129C353.353 134.129 363.745 161.709 367.804 168.004C371.863 174.299 383.802 185.579 383.802 185.579C383.802 185.579 385.185 169.314 383.802 160.017C382.419 150.721 374.52 137.476 374.52 137.476C376.635 138.584 378.528 140.07 380.107 141.861C389.08 150.957 404.677 168.968 407.025 181.267C407.915 185.529 407.949 189.926 407.124 194.202C406.299 198.478 404.632 202.547 402.22 206.173L414.159 244.251L397.434 249.436L389.207 239.685L380.708 250.51L295.969 238.702L310.055 212.14C310.055 212.14 330.221 159.781 338.229 148.319C347.347 135.22 353.353 134.129 353.353 134.129Z" fill="#E51D1B"/>
<path d="M372.682 204.463C377.214 204.054 381.77 203.981 386.313 204.245C388.57 204.408 390.791 204.663 393.029 204.972C394.139 205.136 395.268 205.245 396.378 205.373C397.551 205.509 398.736 205.509 399.909 205.373C400.018 205.373 400.036 205.5 399.909 205.536C398.822 205.777 397.722 205.953 396.615 206.064C395.542 206.137 394.466 206.137 393.393 206.064C391.1 205.919 388.807 205.682 386.532 205.518C381.909 205.173 377.304 204.845 372.682 204.845C372.481 204.845 372.463 204.481 372.682 204.463Z" fill="#263238"/>
<path d="M362.38 210.412C365.969 209.363 369.615 208.518 373.3 207.883C375.12 207.574 376.94 207.356 378.888 207.21C379.78 207.21 380.708 207.065 381.563 207.028C382.419 206.992 383.547 207.028 384.53 207.028C384.53 207.028 384.657 207.174 384.53 207.174C383.602 207.265 382.71 207.519 381.782 207.665L378.997 208.083L373.537 208.957C369.897 209.502 366.148 210.085 362.453 210.776C362.18 210.758 362.18 210.467 362.38 210.412Z" fill="#263238"/>
<path d="M352.897 134.765C351.842 142.043 350.622 149.429 349.385 156.743L349.003 156.142C353.316 157.27 357.611 158.507 361.906 159.69L362.634 159.89L362.325 160.581C361.051 163.401 359.777 166.239 358.448 169.041L358.285 168.259C362.835 172.225 367.385 176.118 371.935 180.157C376.485 184.196 381.035 188.18 385.384 192.31C380.634 188.671 375.957 184.76 371.298 180.921C366.638 177.082 362.052 173.153 357.411 169.278L357.029 168.95L357.247 168.495C358.503 165.657 359.832 162.855 361.142 160.035L361.561 160.927C357.284 159.672 352.988 158.471 348.711 157.161L348.238 157.015V156.542C349.785 149.283 351.259 142.006 352.897 134.765Z" fill="#263238"/>
<path d="M376.739 139.095C379.142 141.588 380.816 143.371 383.128 145.918C385.439 148.465 387.823 150.975 390.08 153.577L390.553 154.123L389.934 154.487L385.457 157.27L385.585 156.27C387.405 158.089 389.225 159.908 391.045 161.818L391.281 162.073V162.401C390.335 167.385 389.461 172.407 388.478 177.373C387.496 182.34 386.495 187.343 385.366 192.31C385.985 187.252 386.731 182.231 387.514 177.21C388.296 172.188 389.152 167.185 389.953 162.182L390.135 162.764C388.315 160.945 386.495 159.126 384.675 157.179L384.092 156.597L384.784 156.179L389.316 153.468L389.17 154.377C386.913 151.776 384.747 149.083 382.527 146.445C380.307 143.807 378.887 141.824 376.739 139.095Z" fill="#263238"/>
<path d="M385.385 192.31C386.022 194.73 386.677 197.149 387.205 199.587C387.733 202.025 388.351 204.445 388.879 206.864C389.061 212.322 389.098 217.78 389.189 223.238C389.28 228.696 389.189 234.154 389.189 239.612C388.861 234.154 388.643 228.696 388.461 223.238C388.279 217.78 388.133 212.322 388.078 206.864V206.955C387.569 204.499 387.077 202.043 386.641 199.587C386.204 197.131 385.84 194.766 385.385 192.31Z" fill="#263238"/>
<path d="M384.02 198.896C384.03 199.316 383.895 199.727 383.636 200.059C383.377 200.391 383.011 200.623 382.601 200.715C382.338 200.758 382.07 200.742 381.814 200.67C381.559 200.598 381.322 200.471 381.121 200.297C380.92 200.124 380.759 199.909 380.65 199.666C380.541 199.424 380.486 199.161 380.489 198.896C380.488 198.619 380.549 198.346 380.669 198.097C380.789 197.848 380.964 197.63 381.181 197.459C381.381 197.306 381.61 197.197 381.855 197.137C382.099 197.078 382.353 197.069 382.601 197.113C383.005 197.204 383.366 197.43 383.624 197.755C383.882 198.079 384.022 198.481 384.02 198.896ZM384.02 198.896C384.023 198.712 383.982 198.53 383.899 198.365C383.817 198.2 383.696 198.058 383.547 197.95C383.408 197.862 383.252 197.804 383.089 197.779C382.926 197.754 382.76 197.762 382.601 197.804C382.379 197.885 382.189 198.035 382.058 198.231C381.927 198.427 381.862 198.66 381.873 198.896C381.863 199.129 381.929 199.359 382.06 199.552C382.191 199.745 382.38 199.892 382.601 199.969C382.759 200.016 382.926 200.027 383.09 200.002C383.254 199.977 383.41 199.916 383.547 199.824C383.694 199.717 383.813 199.578 383.895 199.417C383.977 199.255 384.02 199.077 384.02 198.896Z" fill="#263238"/>
<path d="M386.077 214.56C386.087 214.981 385.951 215.392 385.692 215.723C385.433 216.055 385.068 216.287 384.657 216.379C384.409 216.423 384.155 216.415 383.911 216.355C383.667 216.296 383.437 216.186 383.237 216.034C383.022 215.863 382.847 215.646 382.727 215.399C382.607 215.152 382.545 214.88 382.545 214.606C382.545 214.331 382.607 214.059 382.727 213.812C382.847 213.565 383.022 213.348 383.237 213.177C383.437 213.025 383.667 212.915 383.911 212.856C384.155 212.796 384.409 212.788 384.657 212.832C385.052 212.921 385.407 213.139 385.664 213.452C385.921 213.765 386.066 214.155 386.077 214.56ZM386.077 214.56C386.079 214.374 386.036 214.19 385.95 214.025C385.864 213.86 385.739 213.719 385.585 213.614C385.45 213.526 385.297 213.467 385.137 213.442C384.977 213.417 384.813 213.426 384.657 213.469C384.437 213.553 384.247 213.703 384.114 213.898C383.981 214.093 383.91 214.324 383.911 214.56C383.897 214.761 383.94 214.961 384.036 215.138C384.132 215.315 384.276 215.46 384.452 215.558C384.628 215.655 384.828 215.701 385.029 215.688C385.23 215.676 385.423 215.606 385.585 215.488C385.737 215.386 385.862 215.248 385.948 215.086C386.033 214.924 386.078 214.743 386.077 214.56Z" fill="#263238"/>
<path d="M386.823 228.987C386.833 229.41 386.694 229.823 386.432 230.156C386.17 230.488 385.8 230.718 385.386 230.807C385.138 230.85 384.884 230.842 384.64 230.782C384.395 230.723 384.166 230.613 383.966 230.461C383.75 230.291 383.576 230.074 383.456 229.826C383.336 229.579 383.274 229.308 383.274 229.033C383.274 228.758 383.336 228.487 383.456 228.239C383.576 227.992 383.75 227.775 383.966 227.605C384.166 227.452 384.395 227.343 384.64 227.283C384.884 227.224 385.138 227.215 385.386 227.259C385.784 227.344 386.143 227.561 386.404 227.875C386.664 228.188 386.812 228.58 386.823 228.987ZM386.823 228.987C386.819 228.803 386.772 228.622 386.687 228.458C386.602 228.294 386.48 228.151 386.332 228.041C386.193 227.952 386.037 227.894 385.874 227.868C385.711 227.843 385.545 227.853 385.386 227.896C385.164 227.977 384.974 228.126 384.843 228.322C384.712 228.519 384.647 228.752 384.658 228.987C384.648 229.22 384.714 229.451 384.845 229.644C384.976 229.837 385.165 229.983 385.386 230.061C385.544 230.109 385.712 230.12 385.875 230.095C386.039 230.07 386.195 230.008 386.332 229.915C386.478 229.807 386.598 229.667 386.683 229.507C386.768 229.346 386.816 229.169 386.823 228.987Z" fill="#263238"/>
<path d="M357.775 135.402C357.775 137.367 363.235 151.776 371.898 153.595C374.701 154.195 378.687 139.041 378.687 139.041L379.251 137.985L386.932 123.322L371.753 106.639L369.46 104.51C369.46 104.51 367.64 108.658 365.383 113.843C365.274 114.08 365.164 114.316 365.055 114.589C364.946 114.862 364.801 115.153 364.691 115.426C364.346 116.19 363.981 116.972 363.654 117.773C363.326 118.573 363.162 118.955 362.908 119.592C362.653 120.229 362.416 120.848 362.143 121.412C360.383 125.974 358.924 130.648 357.775 135.402Z" fill="#EB9481"/>
<path d="M365.456 113.843C365.852 118.648 367.291 123.309 369.674 127.5C372.056 131.692 375.325 135.314 379.252 138.113L386.932 123.449L371.753 106.766L369.46 104.51C369.46 104.51 367.64 108.658 365.456 113.843Z" fill="#263238"/>
<path d="M415.36 103.946C412.084 132.8 394.43 134.11 388.206 133.401C382.546 132.764 363.381 129.762 363.654 100.799C363.927 71.8355 378.36 64.1399 391.3 64.9404C404.24 65.7409 418.6 75.0739 415.36 103.946Z" fill="#EB9481"/>
<path d="M411.848 98.5065C411.175 98.3246 410.592 98.0699 410.028 97.8334C409.324 97.685 408.687 97.3152 408.208 96.7782C408.093 96.5802 408.047 96.3497 408.076 96.1227C408.106 95.8956 408.21 95.6847 408.372 95.5229C408.743 95.2511 409.181 95.0841 409.638 95.0393C410.096 94.9945 410.558 95.0735 410.975 95.2682C411.867 95.533 412.631 96.1155 413.122 96.9056C413.237 97.0962 413.291 97.3175 413.276 97.5396C413.262 97.7617 413.18 97.9741 413.041 98.1483C412.903 98.3225 412.714 98.4502 412.501 98.5142C412.288 98.5782 412.06 98.5755 411.848 98.5065Z" fill="#263238"/>
<path d="M392.101 94.8863C392.771 94.8746 393.439 94.826 394.103 94.7407C394.816 94.7898 395.526 94.6045 396.123 94.2131C396.286 94.0513 396.39 93.8404 396.419 93.6133C396.449 93.3863 396.402 93.1558 396.287 92.9578C396.005 92.5993 395.631 92.3237 395.205 92.1604C394.779 91.997 394.316 91.952 393.867 92.03C392.926 92.0241 392.019 92.3827 391.337 93.0306C391.187 93.1831 391.086 93.3763 391.045 93.586C391.004 93.7957 391.025 94.0128 391.107 94.2104C391.188 94.408 391.326 94.5773 391.503 94.6975C391.679 94.8176 391.887 94.8833 392.101 94.8863Z" fill="#263238"/>
<path d="M395.703 103.455C395.703 103.364 395.54 103.455 395.54 103.601C395.376 105.584 394.866 107.803 393.01 108.258V108.385C395.23 108.313 395.885 105.347 395.703 103.455Z" fill="#263238"/>
<path d="M394.175 101.199C391.045 100.599 390.098 106.912 392.992 107.476C395.886 108.04 396.759 101.69 394.175 101.199Z" fill="#263238"/>
<path d="M392.902 101.345C392.283 101.618 391.646 102.163 390.972 102.127C390.299 102.091 389.717 101.345 389.316 100.635C389.316 100.635 389.207 100.635 389.189 100.635C389.003 101.198 389.039 101.811 389.289 102.348C389.539 102.886 389.985 103.308 390.536 103.528C391.7 103.873 392.701 102.927 393.193 101.708C393.284 101.599 393.12 101.235 392.902 101.345Z" fill="#263238"/>
<path d="M406.643 104.674C406.643 104.674 406.789 104.801 406.771 104.874C406.407 106.821 406.298 109.113 407.954 110.041C407.954 110.041 407.954 110.168 407.954 110.15C405.861 109.495 405.988 106.457 406.643 104.674Z" fill="#263238"/>
<path d="M408.718 102.927C411.903 103.182 411.139 109.513 408.19 109.277C405.242 109.04 406.061 102.691 408.718 102.927Z" fill="#263238"/>
<path d="M409.992 103.491C410.447 103.892 410.884 104.565 411.466 104.674C412.048 104.783 412.758 104.183 413.286 103.564C413.286 103.564 413.395 103.564 413.377 103.655C413.268 104.874 412.722 106.075 411.557 106.166C410.392 106.257 409.828 105.129 409.737 103.892C409.591 103.655 409.81 103.328 409.992 103.491Z" fill="#263238"/>
<path d="M402.22 113.534C402.226 114.986 402.159 116.437 402.02 117.882C402.02 118.028 401.656 118.028 401.182 117.991C399.967 118.042 398.762 117.756 397.699 117.165C396.636 116.574 395.757 115.702 395.158 114.644C395.158 114.498 395.267 114.389 395.395 114.498C396.988 115.943 399.005 116.836 401.146 117.045C401.292 116.681 400.982 111.933 401.146 111.951C402.206 112.195 403.228 112.581 404.185 113.097C404.367 106.875 403.548 100.69 403.84 94.5041C403.84 94.4558 403.859 94.4095 403.893 94.3754C403.927 94.3413 403.973 94.3221 404.022 94.3221C404.07 94.3221 404.116 94.3413 404.15 94.3754C404.184 94.4095 404.204 94.4558 404.204 94.5041C405.279 101.117 405.688 107.822 405.423 114.516C405.459 115.208 402.748 113.843 402.22 113.534Z" fill="#263238"/>
<path d="M401.093 117.3C400.18 118.342 399.014 119.132 397.708 119.592C396.992 119.828 396.22 119.828 395.505 119.592C393.94 119.083 393.995 117.609 394.377 116.39C394.579 115.751 394.86 115.14 395.214 114.571C396.831 116.086 398.892 117.043 401.093 117.3Z" fill="#263238"/>
<path d="M397.708 119.592C396.992 119.828 396.22 119.828 395.505 119.592C393.94 119.083 393.995 117.609 394.377 116.39C395.217 116.456 396.008 116.811 396.616 117.395C397.223 117.979 397.609 118.756 397.708 119.592Z" fill="#FF9BBC"/>
<path d="M363.727 104.292C365.732 103.715 367.553 102.63 369.014 101.141C370.475 99.6521 371.525 97.8107 372.062 95.7957C377.472 94.4833 382.438 91.7658 386.459 87.9181C386.149 88.4821 384.02 92.521 382.819 94.5586C401.692 94.3221 409.791 81.3322 409.791 81.3322C412.726 85.151 414.755 89.5865 415.724 94.3039C415.724 94.3039 417.817 83.1152 413.358 74.619C411.952 71.6865 409.789 69.1817 407.092 67.3622C404.395 65.5427 401.262 64.4744 398.016 64.2672C393.695 62.3831 388.946 61.6997 384.269 62.2888C379.592 62.878 375.161 64.718 371.444 67.6147C357.32 78.4214 363.727 104.292 363.727 104.292Z" fill="#263238"/>
<path d="M397.269 93.9036C394.052 94.9966 390.692 95.6096 387.296 95.7229C392.723 95.2245 397.897 93.1997 402.22 89.883C404.054 88.4889 405.705 86.8691 407.134 85.0618C408.765 83.1453 410.002 80.9258 410.774 78.5305C410.784 78.5026 410.803 78.4786 410.827 78.4617C410.852 78.4447 410.881 78.4356 410.91 78.4356C410.94 78.4356 410.969 78.4447 410.994 78.4617C411.018 78.4786 411.037 78.5026 411.047 78.5305C410.541 80.9833 409.624 83.333 408.335 85.4803C406.976 87.5589 405.242 89.3665 403.221 90.8108C401.421 92.091 399.448 93.1079 397.36 93.8309L397.269 93.9036Z" fill="#263238"/>
<path d="M361.925 110.605C362.315 110.86 362.737 111.062 363.181 111.205C363.606 111.373 364.053 111.477 364.509 111.515C365.123 111.595 365.747 111.526 366.329 111.314C366.77 111.172 367.188 110.963 367.567 110.696C368.122 110.327 368.603 109.858 368.986 109.313V101.399C368.986 101.399 364.564 91.2475 360.087 92.6666C355.609 94.0857 357.538 107.931 361.925 110.605Z" fill="#EB9481"/>
<path d="M360.651 96.5963C360.651 96.5963 360.542 96.5963 360.651 96.7236C363.69 98.7431 364.819 102.182 365.401 105.602C365.275 105.232 365.07 104.894 364.801 104.61C364.532 104.327 364.204 104.105 363.841 103.96C363.478 103.814 363.088 103.75 362.698 103.769C362.307 103.789 361.926 103.893 361.579 104.074C361.56 104.082 361.543 104.096 361.531 104.114C361.52 104.132 361.513 104.152 361.513 104.174C361.513 104.195 361.52 104.216 361.531 104.234C361.543 104.251 361.56 104.265 361.579 104.274C362.199 104.206 362.824 104.332 363.369 104.635C363.913 104.938 364.35 105.403 364.618 105.966C365.072 106.907 365.42 107.895 365.656 108.913C365.747 109.24 366.311 109.186 366.275 108.822C367.203 104.528 365.11 97.9426 360.651 96.5963Z" fill="#263238"/>
<path d="M336.809 144.062C319.592 159.144 275.512 218.453 286.341 231.152C297.17 243.851 365.201 235.045 384.766 228.023C390.59 225.931 372.955 189.199 366.566 187.743C361.197 186.525 332.132 196.44 331.477 194.766C330.822 193.092 336.518 179.975 345.618 156.561C356.065 129.453 344.399 137.403 336.809 144.062Z" fill="#EB9481"/>
<path d="M395.232 179.32C408.918 178.811 412.522 180.776 423.842 174.19C431.268 169.878 437.219 172.771 432.469 180.321C424.697 192.71 407.171 197.095 400.655 196.858L395.232 179.32Z" fill="#EB9481"/>
<path d="M358.067 188.726C367.875 184.607 378.121 181.622 388.607 179.83C398.672 178.429 420.876 177.865 439.676 201.661C444.135 207.283 446.501 218.472 435.872 211.922C428.319 207.265 424.952 202.043 420.057 200.133C420.057 200.133 421.385 214.688 415.561 218.963C410.478 222.678 405.138 226.028 399.582 228.987C398.808 228.092 398.091 227.151 397.434 226.167C397.434 226.167 391.628 229.606 381.545 227.623L358.067 188.726Z" fill="#EB9481"/>
<path d="M398.417 180.03C402.858 182.941 412.194 189.29 418 197.113C424.479 205.827 434.58 224.403 428.101 229.042C423.351 232.48 418.874 225.749 418.874 225.749C418.874 225.749 421.44 234.281 416.471 236.465C411.939 238.448 408.773 233.044 408.773 233.044C408.773 233.044 409.446 238.502 404.714 239.557C399.017 240.831 398.562 229.224 391.665 225.549C390.118 224.73 398.417 180.03 398.417 180.03Z" fill="#EB9481"/>
<path d="M407.679 202.407C413.709 208.795 417.652 216.867 418.982 225.549C418.982 225.767 418.854 225.913 418.781 225.713C416.031 217.566 412.304 209.784 407.679 202.535C407.679 202.535 407.679 202.371 407.679 202.407Z" fill="#263238"/>
<path d="M399.071 209.193C401.983 212.486 408.171 223.038 408.972 232.971C408.972 233.19 408.827 233.317 408.754 233.117C406.409 224.817 403.13 216.809 398.98 209.248C398.98 209.248 399.035 209.157 399.071 209.193Z" fill="#263238"/>
<path d="M420.073 199.969C423.917 201.73 427.427 204.143 430.447 207.101C432.133 208.596 433.908 209.987 435.762 211.267C437.454 212.413 439.948 214.141 442.004 212.813C442.498 212.388 442.868 211.837 443.077 211.22C443.285 210.602 443.323 209.94 443.187 209.302C442.818 207.467 442.167 205.699 441.258 204.063C441.258 204.063 441.258 203.935 441.367 204.063C442.266 205.557 443.004 207.143 443.57 208.793C443.925 209.924 443.925 211.137 443.57 212.268C442.678 214.615 439.784 214.651 437.818 213.778C436.653 213.221 435.549 212.544 434.524 211.758C433.523 211.049 432.559 210.285 431.594 209.484C429.647 207.865 427.79 206.137 425.861 204.481C423.979 202.93 422.004 201.497 419.946 200.187C419.91 200.06 419.982 199.951 420.073 199.969Z" fill="#263238"/>
<path d="M358.066 188.726L374.92 235.609C374.92 235.609 289.816 245.943 284.083 230.752C278.35 215.561 316.37 162.091 332.586 147.064C351.387 129.617 352.898 136.348 347.474 152.94C341.796 170.296 331.713 195.221 331.713 195.221L358.066 188.726Z" fill="#E51D1B"/>
<path d="M305.142 204.572C313.36 200.008 322.22 196.709 331.422 194.784C334.025 194.202 336.646 193.747 339.267 193.292C339.267 193.292 339.358 193.402 339.267 193.402C334.68 194.401 330.153 195.658 325.708 197.168C321.285 198.641 316.899 200.169 312.531 201.807C310.056 202.716 307.635 203.753 305.251 204.754C305.227 204.769 305.198 204.773 305.17 204.766C305.143 204.759 305.12 204.742 305.105 204.718C305.091 204.694 305.086 204.665 305.093 204.637C305.1 204.61 305.117 204.587 305.142 204.572Z" fill="#263238"/>
<path d="M357.848 188.58C357.429 188.58 333.897 193.875 333.132 194.147C333.26 193.802 338.592 182.122 339.339 180.412C339.406 180.237 339.485 180.067 339.575 179.902C340.067 179.138 340.558 178.392 341.031 177.628C341.504 176.864 342.214 175.663 342.851 174.663L340.94 177.537C340.649 177.974 340.376 178.429 340.103 178.883C340.631 177.683 341.14 176.464 341.65 175.245C342.469 173.298 343.215 171.315 343.961 169.35C343.961 169.35 343.961 169.259 343.87 169.35C342.305 172.752 340.631 176.118 339.066 179.52C337.5 182.922 331.513 195.439 331.549 195.421C331.585 195.403 357.502 189.108 358.012 188.944C358.036 188.933 358.057 188.918 358.075 188.899C358.093 188.88 358.107 188.858 358.117 188.833C358.126 188.809 358.13 188.782 358.129 188.756C358.129 188.73 358.123 188.704 358.112 188.68C358.101 188.657 358.086 188.635 358.067 188.617C358.048 188.599 358.025 188.585 358.001 188.576C357.976 188.566 357.95 188.562 357.924 188.563C357.898 188.564 357.872 188.57 357.848 188.58Z" fill="#263238"/>
<path d="M356.465 217.926C354.645 212.686 352.825 207.447 350.787 202.28C349.622 199.351 348.494 196.404 347.293 193.493C347.293 193.384 347.056 193.493 347.092 193.493C348.73 198.823 350.387 204.154 352.279 209.393C354.172 214.633 355.919 219.854 357.921 225.058C359.032 228.005 360.215 230.916 361.561 233.809H361.671C360.142 228.442 358.322 223.184 356.465 217.926Z" fill="#263238"/>
<path d="M375.848 236.41C375.156 234.955 374.301 232.772 373.555 231.443C373.355 231.061 373.063 231.098 373.227 231.443C373.737 232.753 374.119 234.209 374.61 235.555L370.97 235.901L366.839 236.337C364.127 236.61 361.379 236.865 358.722 237.083C353.25 237.544 347.79 237.884 342.342 238.102C331.329 238.609 320.297 238.542 309.291 237.902C306.215 237.702 303.139 237.447 300.081 237.101C297.024 236.756 293.62 236.337 291.072 235.755C290.981 235.755 290.963 235.864 291.072 235.901C293.61 236.713 296.209 237.321 298.844 237.72C301.61 238.138 304.304 238.484 307.161 238.721C312.712 239.212 318.263 239.412 323.832 239.467C334.861 239.564 345.879 239.188 356.884 238.339C359.959 238.12 363.035 237.847 366.111 237.538C367.676 237.393 369.223 237.229 370.77 237.047C372.478 236.986 374.178 236.773 375.848 236.41Z" fill="#263238"/>
<path d="M490.782 241.377H383.62V246.18H490.782V241.377Z" fill="#C7C7C7"/>
<path d="M490.781 241.377V246.18H417.927L421.603 241.377H490.781Z" fill="#A6A6A6"/>
<path d="M432.668 246.18H526.453L540.03 180.03H446.245L432.668 246.18Z" fill="#A6A6A6"/>
<path d="M437.055 246.18H530.839L544.417 180.03H450.614L437.055 246.18Z" fill="#C7C7C7"/>
<path d="M499.19 210.649C499.266 212.121 498.846 213.577 497.999 214.783C497.151 215.99 495.924 216.879 494.512 217.307C491.837 217.871 489.58 215.797 489.489 212.668C489.406 211.192 489.822 209.73 490.67 208.519C491.519 207.308 492.75 206.418 494.167 205.991C496.86 205.427 499.081 207.519 499.19 210.649Z" fill="white"/>
<path d="M732.857 711.158H616.286V736.901H732.857V711.158Z" fill="#FBC018"/>
<g opacity="0.1">
<path d="M621.092 713.523C622.305 720.334 622.305 727.306 621.092 734.117C620.437 730.725 620.132 727.275 620.182 723.82C620.141 720.366 620.446 716.916 621.092 713.523Z" fill="black"/>
<path d="M629.718 713.523C630.931 720.334 630.931 727.306 629.718 734.117C628.505 727.306 628.505 720.334 629.718 713.523Z" fill="black"/>
<path d="M634.012 713.523C635.226 720.334 635.226 727.306 634.012 734.117C633.358 730.725 633.053 727.275 633.102 723.82C633.062 720.366 633.367 716.916 634.012 713.523Z" fill="black"/>
<path d="M657.291 713.523C657.928 716.918 658.232 720.366 658.201 723.82C658.242 727.274 657.937 730.724 657.291 734.117C656.636 730.725 656.331 727.275 656.381 723.82C656.34 720.366 656.645 716.916 657.291 713.523Z" fill="black"/>
<path d="M663.588 713.523C664.225 716.918 664.53 720.366 664.498 723.82C664.539 727.274 664.234 730.724 663.588 734.117C662.933 730.725 662.628 727.275 662.678 723.82C662.647 720.366 662.951 716.918 663.588 713.523Z" fill="black"/>
<path d="M689.633 713.523C690.846 720.334 690.846 727.306 689.633 734.117C688.978 730.725 688.673 727.275 688.723 723.82C688.682 720.366 688.987 716.916 689.633 713.523Z" fill="black"/>
<path d="M695.639 713.523C696.852 720.334 696.852 727.306 695.639 734.117C694.426 727.306 694.426 720.334 695.639 713.523Z" fill="black"/>
<path d="M706.687 713.523C707.9 720.334 707.9 727.306 706.687 734.117C705.497 727.304 705.497 720.336 706.687 713.523Z" fill="black"/>
<path d="M684.592 713.523C685.805 720.334 685.805 727.306 684.592 734.117C683.378 727.306 683.378 720.334 684.592 713.523Z" fill="black"/>
<path d="M641.713 713.523C642.927 720.334 642.927 727.306 641.713 734.117C640.5 727.306 640.5 720.334 641.713 713.523Z" fill="black"/>
<path d="M671.87 713.523C673.084 720.334 673.084 727.306 671.87 734.117C670.657 727.306 670.657 720.334 671.87 713.523Z" fill="black"/>
<path d="M676.219 713.523C677.432 720.334 677.432 727.306 676.219 734.117C675.006 727.306 675.006 720.334 676.219 713.523Z" fill="black"/>
<path d="M721.102 713.523C722.315 720.334 722.315 727.306 721.102 734.117C720.447 730.725 720.142 727.275 720.192 723.82C720.151 720.366 720.456 716.916 721.102 713.523Z" fill="black"/>
<path d="M727.618 713.523C728.807 720.336 728.807 727.304 727.618 734.117C726.405 727.306 726.405 720.334 727.618 713.523Z" fill="black"/>
<path d="M711.818 713.523C713.031 720.334 713.031 727.306 711.818 734.117C710.605 727.306 710.605 720.334 711.818 713.523Z" fill="black"/>
<path d="M652.251 713.523C653.464 720.334 653.464 727.306 652.251 734.117C651.062 727.304 651.062 720.336 652.251 713.523Z" fill="black"/>
</g>
<path opacity="0.1" d="M732.839 711.158V716.634L616.286 720.309V711.158H732.839Z" fill="black"/>
<path d="M723.122 685.415H606.551V711.158H723.122V685.415Z" fill="#FBC018"/>
<g opacity="0.1">
<path d="M717.88 708.301C717.243 704.907 716.938 701.458 716.97 698.004C716.928 694.55 717.233 691.1 717.88 687.707C718.535 691.099 718.84 694.55 718.79 698.004C718.821 701.458 718.516 704.907 717.88 708.301Z" fill="black"/>
<path d="M709.198 708.302C708.561 704.907 708.256 701.458 708.288 698.004C708.247 694.55 708.551 691.1 709.198 687.707C709.853 691.099 710.158 694.55 710.108 698.004C710.148 701.458 709.844 704.908 709.198 708.302Z" fill="black"/>
<path d="M704.957 708.301C704.32 704.907 704.015 701.458 704.047 698.004C704.005 694.55 704.31 691.1 704.957 687.707C705.612 691.099 705.917 694.55 705.867 698.004C705.898 701.458 705.593 704.907 704.957 708.301Z" fill="black"/>
<path d="M681.679 708.302C681.042 704.907 680.738 701.458 680.769 698.004C680.719 694.55 681.024 691.099 681.679 687.707C682.326 691.1 682.63 694.55 682.589 698.004C682.621 701.458 682.316 704.907 681.679 708.302Z" fill="black"/>
<path d="M675.382 708.301C674.736 704.908 674.432 701.458 674.472 698.004C674.422 694.55 674.727 691.099 675.382 687.707C676.029 691.1 676.333 694.55 676.292 698.004C676.324 701.458 676.019 704.907 675.382 708.301Z" fill="black"/>
<path d="M649.338 708.302C648.702 704.907 648.397 701.458 648.428 698.004C648.378 694.55 648.683 691.099 649.338 687.707C649.994 691.099 650.299 694.55 650.248 698.004C650.28 701.458 649.975 704.907 649.338 708.302Z" fill="black"/>
<path d="M643.313 708.301C642.1 701.49 642.1 694.518 643.313 687.707C644.526 694.518 644.526 701.49 643.313 708.301Z" fill="black"/>
<path d="M632.267 708.301C631.054 701.49 631.054 694.518 632.267 687.707C633.48 694.518 633.48 701.49 632.267 708.301Z" fill="black"/>
<path d="M654.361 708.301C653.148 701.49 653.148 694.518 654.361 687.707C655.574 694.518 655.574 701.49 654.361 708.301Z" fill="black"/>
<path d="M697.259 708.302C696.046 701.49 696.046 694.518 697.259 687.707C698.473 694.518 698.473 701.49 697.259 708.302Z" fill="black"/>
<path d="M667.1 708.301C665.887 701.49 665.887 694.518 667.1 687.707C668.313 694.518 668.313 701.49 667.1 708.301Z" fill="black"/>
<path d="M662.752 708.302C662.116 704.907 661.811 701.458 661.842 698.004C661.801 694.55 662.106 691.1 662.752 687.707C663.408 691.099 663.713 694.55 663.662 698.004C663.703 701.458 663.398 704.908 662.752 708.302Z" fill="black"/>
<path d="M617.871 708.301C617.234 704.907 616.929 701.458 616.961 698.004C616.919 694.55 617.224 691.1 617.871 687.707C618.526 691.099 618.831 694.55 618.781 698.004C618.812 701.458 618.507 704.907 617.871 708.301Z" fill="black"/>
<path d="M611.355 708.301C610.142 701.49 610.142 694.518 611.355 687.707C612.568 694.518 612.568 701.49 611.355 708.301Z" fill="black"/>
<path d="M627.152 708.302C625.939 701.49 625.939 694.518 627.152 687.707C628.341 694.52 628.341 701.488 627.152 708.302Z" fill="black"/>
<path d="M686.704 708.302C685.491 701.49 685.491 694.518 686.704 687.707C687.917 694.518 687.917 701.49 686.704 708.302Z" fill="black"/>
</g>
<path opacity="0.1" d="M723.122 685.415V690.891L606.551 694.566V685.415H723.122Z" fill="black"/>
<path d="M732.113 659.871H615.542V685.615H732.113V659.871Z" fill="#FBC018"/>
<g opacity="0.1">
<path d="M620.345 662.237C621.558 669.048 621.558 676.02 620.345 682.831C619.69 679.439 619.385 675.988 619.435 672.534C619.395 669.08 619.7 665.63 620.345 662.237Z" fill="black"/>
<path d="M629.028 662.237C630.241 669.048 630.241 676.02 629.028 682.831C627.815 676.02 627.815 669.048 629.028 662.237Z" fill="black"/>
<path d="M633.36 662.237C634.573 669.048 634.573 676.02 633.36 682.831C632.704 679.439 632.399 675.988 632.45 672.534C632.41 669.08 632.715 665.63 633.36 662.237Z" fill="black"/>
<path d="M656.544 662.237C657.18 665.632 657.485 669.08 657.454 672.534C657.496 675.988 657.191 679.438 656.544 682.831C655.889 679.439 655.584 675.988 655.634 672.534C655.595 669.08 655.899 665.63 656.544 662.237Z" fill="black"/>
<path d="M662.841 662.237C663.477 665.632 663.782 669.08 663.751 672.534C663.793 675.988 663.488 679.438 662.841 682.831C662.186 679.439 661.881 675.988 661.931 672.534C661.901 669.08 662.205 665.632 662.841 662.237Z" fill="black"/>
<path d="M688.886 662.237C690.099 669.048 690.099 676.02 688.886 682.831C688.231 679.439 687.926 675.988 687.976 672.534C687.936 669.08 688.241 665.63 688.886 662.237Z" fill="black"/>
<path d="M694.892 662.237C696.105 669.048 696.105 676.02 694.892 682.831C693.679 676.02 693.679 669.048 694.892 662.237Z" fill="black"/>
<path d="M705.94 662.237C707.153 669.048 707.153 676.02 705.94 682.831C704.727 676.02 704.727 669.048 705.94 662.237Z" fill="black"/>
<path d="M683.845 662.237C685.058 669.048 685.058 676.02 683.845 682.831C682.631 676.02 682.631 669.048 683.845 662.237Z" fill="black"/>
<path d="M640.967 662.237C642.18 669.048 642.18 676.02 640.967 682.831C639.753 676.02 639.753 669.048 640.967 662.237Z" fill="black"/>
<path d="M671.124 662.237C672.337 669.048 672.337 676.02 671.124 682.831C669.91 676.02 669.91 669.048 671.124 662.237Z" fill="black"/>
<path d="M675.472 662.237C676.685 669.048 676.685 676.02 675.472 682.831C674.259 676.02 674.259 669.048 675.472 662.237Z" fill="black"/>
<path d="M720.354 662.237C721.567 669.048 721.567 676.02 720.354 682.831C719.141 676.02 719.141 669.048 720.354 662.237Z" fill="black"/>
<path d="M726.853 662.237C728.066 669.048 728.066 676.02 726.853 682.831C725.664 676.018 725.664 669.05 726.853 662.237Z" fill="black"/>
<path d="M711.071 662.237C712.284 669.048 712.284 676.02 711.071 682.831C709.858 676.02 709.858 669.048 711.071 662.237Z" fill="black"/>
<path d="M651.559 662.237C652.772 669.048 652.772 676.02 651.559 682.831C650.346 676.02 650.346 669.048 651.559 662.237Z" fill="black"/>
</g>
<path opacity="0.1" d="M732.095 659.89V665.348L615.542 669.023V659.89H732.095Z" fill="black"/>
<path d="M376.776 711.158H260.205V736.901H376.776V711.158Z" fill="#FBC018"/>
<g opacity="0.1">
<path d="M265.009 713.523C265.654 716.916 265.959 720.366 265.919 723.82C265.968 727.275 265.663 730.725 265.009 734.117C264.363 730.724 264.058 727.274 264.099 723.82C264.067 720.366 264.372 716.918 265.009 713.523Z" fill="black"/>
<path d="M273.689 713.523C274.335 716.916 274.64 720.366 274.599 723.82C274.649 727.275 274.344 730.725 273.689 734.117C273.044 730.724 272.739 727.274 272.779 723.82C272.748 720.366 273.053 716.918 273.689 713.523Z" fill="black"/>
<path d="M277.929 713.523C278.575 716.916 278.88 720.366 278.839 723.82C278.889 727.275 278.584 730.725 277.929 734.117C276.716 727.306 276.716 720.334 277.929 713.523Z" fill="black"/>
<path d="M301.207 713.523C302.42 720.334 302.42 727.306 301.207 734.117C299.994 727.306 299.994 720.334 301.207 713.523Z" fill="black"/>
<path d="M307.577 713.523C308.79 720.334 308.79 727.306 307.577 734.117C306.364 727.306 306.364 720.334 307.577 713.523Z" fill="black"/>
<path d="M333.55 713.523C334.195 716.916 334.5 720.366 334.46 723.82C334.509 727.275 334.204 730.725 333.55 734.117C332.336 727.306 332.336 720.334 333.55 713.523Z" fill="black"/>
<path d="M339.573 713.523C340.786 720.334 340.786 727.306 339.573 734.117C338.918 730.725 338.613 727.275 338.663 723.82C338.622 720.366 338.927 716.916 339.573 713.523Z" fill="black"/>
<path d="M350.622 713.523C351.835 720.334 351.835 727.306 350.622 734.117C349.967 730.725 349.662 727.275 349.712 723.82C349.671 720.366 349.976 716.916 350.622 713.523Z" fill="black"/>
<path d="M328.527 713.523C329.741 720.334 329.741 727.306 328.527 734.117C327.314 727.306 327.314 720.334 328.527 713.523Z" fill="black"/>
<path d="M285.629 713.523C286.266 716.918 286.571 720.366 286.539 723.82C286.58 727.274 286.275 730.724 285.629 734.117C284.975 730.725 284.67 727.275 284.719 723.82C284.679 720.366 284.984 716.916 285.629 713.523Z" fill="black"/>
<path d="M315.806 713.523C317.019 720.334 317.019 727.306 315.806 734.117C314.592 727.306 314.592 720.334 315.806 713.523Z" fill="black"/>
<path d="M320.136 713.523C320.773 716.918 321.078 720.366 321.046 723.82C321.096 727.275 320.791 730.725 320.136 734.117C319.491 730.724 319.186 727.274 319.226 723.82C319.195 720.366 319.5 716.918 320.136 713.523Z" fill="black"/>
<path d="M365.017 713.523C365.663 716.916 365.968 720.366 365.927 723.82C365.977 727.275 365.672 730.725 365.017 734.117C364.372 730.724 364.067 727.274 364.107 723.82C364.076 720.366 364.381 716.918 365.017 713.523Z" fill="black"/>
<path d="M371.534 713.523C372.747 720.334 372.747 727.306 371.534 734.117C370.879 730.725 370.574 727.275 370.624 723.82C370.583 720.366 370.888 716.916 371.534 713.523Z" fill="black"/>
<path d="M355.754 713.523C356.967 720.334 356.967 727.306 355.754 734.117C354.541 727.306 354.541 720.334 355.754 713.523Z" fill="black"/>
<path d="M296.185 713.523C297.398 720.334 297.398 727.306 296.185 734.117C295.53 730.725 295.225 727.275 295.275 723.82C295.234 720.366 295.539 716.916 296.185 713.523Z" fill="black"/>
</g>
<path opacity="0.1" d="M376.758 711.158V716.634L260.205 720.309V711.158H376.758Z" fill="black"/>
<path d="M368.803 685.415H252.232V711.158H368.803V685.415Z" fill="#FBC018"/>
<g opacity="0.1">
<path d="M257.039 687.78C257.685 691.173 257.99 694.623 257.949 698.077C257.998 701.532 257.693 704.982 257.039 708.374C256.393 704.981 256.088 701.531 256.129 698.077C256.096 694.623 256.401 691.174 257.039 687.78Z" fill="black"/>
<path d="M265.719 687.78C266.366 691.173 266.67 694.623 266.629 698.077C266.674 701.507 266.369 704.933 265.719 708.302C265.073 704.908 264.769 701.458 264.809 698.004C264.782 694.575 265.086 691.151 265.719 687.78Z" fill="black"/>
<path d="M269.959 687.78C270.606 691.173 270.911 694.623 270.869 698.077C270.919 701.532 270.614 704.982 269.959 708.374C269.314 704.981 269.009 701.531 269.049 698.077C269.017 694.623 269.322 691.174 269.959 687.78Z" fill="black"/>
<path d="M293.237 687.78C294.45 694.591 294.45 701.563 293.237 708.374C292.024 701.563 292.024 694.591 293.237 687.78Z" fill="black"/>
<path d="M299.537 687.78C300.75 694.591 300.75 701.563 299.537 708.374C298.324 701.563 298.324 694.591 299.537 687.78Z" fill="black"/>
<path d="M325.58 687.78C326.226 691.173 326.531 694.623 326.49 698.077C326.539 701.532 326.234 704.982 325.58 708.374C324.934 704.981 324.629 701.531 324.67 698.077C324.637 694.623 324.942 691.174 325.58 687.78Z" fill="black"/>
<path d="M331.603 687.78C332.816 694.591 332.816 701.563 331.603 708.374C330.39 701.563 330.39 694.591 331.603 687.78Z" fill="black"/>
<path d="M342.651 687.78C343.864 694.591 343.864 701.563 342.651 708.374C341.997 704.982 341.692 701.532 341.741 698.077C341.7 694.623 342.005 691.173 342.651 687.78Z" fill="black"/>
<path d="M320.557 687.78C321.77 694.591 321.77 701.563 320.557 708.374C319.344 701.563 319.344 694.591 320.557 687.78Z" fill="black"/>
<path d="M277.659 687.78C278.297 691.174 278.601 694.623 278.569 698.077C278.61 701.531 278.305 704.981 277.659 708.374C277.004 704.982 276.7 701.532 276.749 698.077C276.708 694.623 277.013 691.173 277.659 687.78Z" fill="black"/>
<path d="M307.835 687.78C309.048 694.591 309.048 701.563 307.835 708.374C306.622 701.563 306.622 694.591 307.835 687.78Z" fill="black"/>
<path d="M312.166 687.78C312.804 691.174 313.109 694.623 313.076 698.077C313.126 701.532 312.821 704.982 312.166 708.374C311.521 704.981 311.216 701.531 311.256 698.077C311.224 694.623 311.529 691.174 312.166 687.78Z" fill="black"/>
<path d="M357.048 687.78C357.695 691.173 358 694.623 357.958 698.077C358.008 701.532 357.703 704.982 357.048 708.374C356.403 704.981 356.098 701.531 356.138 698.077C356.106 694.623 356.411 691.174 357.048 687.78Z" fill="black"/>
<path d="M363.564 687.78C364.777 694.591 364.777 701.563 363.564 708.374C362.909 704.982 362.604 701.532 362.654 698.077C362.612 694.623 362.917 691.173 363.564 687.78Z" fill="black"/>
<path d="M347.784 687.78C348.997 694.591 348.997 701.563 347.784 708.374C346.571 701.563 346.571 694.591 347.784 687.78Z" fill="black"/>
<path d="M288.215 687.78C289.428 694.591 289.428 701.563 288.215 708.374C287.56 704.982 287.255 701.532 287.305 698.077C287.264 694.623 287.568 691.173 288.215 687.78Z" fill="black"/>
</g>
<path opacity="0.1" d="M368.785 685.415V690.891L252.232 694.566V685.415H368.785Z" fill="black"/>
<path d="M386.822 634.129H270.251V659.872H386.822V634.129Z" fill="#FBC018"/>
<g opacity="0.1">
<path d="M275.056 636.493C276.27 643.305 276.27 650.277 275.056 657.088C273.843 650.277 273.843 643.305 275.056 636.493Z" fill="black"/>
<path d="M283.719 636.493C284.932 643.305 284.932 650.277 283.719 657.088C282.53 650.275 282.53 643.307 283.719 636.493Z" fill="black"/>
<path d="M287.978 636.493C289.191 643.305 289.191 650.277 287.978 657.088C286.765 650.277 286.765 643.305 287.978 636.493Z" fill="black"/>
<path d="M311.219 636.493C312.433 643.305 312.433 650.277 311.219 657.088C310.006 650.277 310.006 643.305 311.219 636.493Z" fill="black"/>
<path d="M317.552 636.493C318.766 643.305 318.766 650.277 317.552 657.088C316.339 650.277 316.339 643.305 317.552 636.493Z" fill="black"/>
<path d="M343.597 636.493C344.811 643.305 344.811 650.277 343.597 657.088C342.384 650.277 342.384 643.305 343.597 636.493Z" fill="black"/>
<path d="M349.603 636.493C350.249 639.887 350.554 643.337 350.513 646.791C350.564 650.245 350.259 653.696 349.603 657.088C348.39 650.277 348.39 643.305 349.603 636.493Z" fill="black"/>
<path d="M360.652 636.493C361.865 643.305 361.865 650.277 360.652 657.088C359.439 650.277 359.439 643.305 360.652 636.493Z" fill="black"/>
<path d="M338.52 636.493C339.166 639.887 339.471 643.337 339.43 646.791C339.481 650.245 339.176 653.696 338.52 657.088C337.307 650.277 337.307 643.305 338.52 636.493Z" fill="black"/>
<path d="M295.66 636.493C296.873 643.305 296.873 650.277 295.66 657.088C294.447 650.277 294.447 643.305 295.66 636.493Z" fill="black"/>
<path d="M325.78 636.493C326.417 639.888 326.721 643.337 326.69 646.791C326.731 650.245 326.426 653.695 325.78 657.088C325.124 653.696 324.819 650.245 324.87 646.791C324.838 643.337 325.143 639.888 325.78 636.493Z" fill="black"/>
<path d="M330.167 636.493C331.38 643.305 331.38 650.277 330.167 657.088C328.953 650.277 328.953 643.305 330.167 636.493Z" fill="black"/>
<path d="M375.066 636.493C376.255 643.307 376.255 650.275 375.066 657.088C373.853 650.277 373.853 643.305 375.066 636.493Z" fill="black"/>
<path d="M381.562 636.493C382.775 643.305 382.775 650.277 381.562 657.088C380.349 650.277 380.349 643.305 381.562 636.493Z" fill="black"/>
<path d="M365.821 636.493C366.457 639.888 366.762 643.337 366.731 646.791C366.781 650.245 366.476 653.696 365.821 657.088C365.174 653.695 364.869 650.245 364.911 646.791C364.879 643.337 365.184 639.888 365.821 636.493Z" fill="black"/>
<path d="M306.215 636.493C307.428 643.305 307.428 650.277 306.215 657.088C305.002 650.277 305.002 643.305 306.215 636.493Z" fill="black"/>
</g>
<path opacity="0.1" d="M386.804 634.129V639.605L270.251 643.28V634.129H386.804Z" fill="black"/>
<path d="M383.873 608.385H267.302V634.128H383.873V608.385Z" fill="#FBC018"/>
<g opacity="0.1">
<path d="M378.559 631.345C377.346 624.534 377.346 617.562 378.559 610.75C379.772 617.562 379.772 624.534 378.559 631.345Z" fill="black"/>
<path d="M369.952 631.345C368.739 624.534 368.739 617.562 369.952 610.75C371.165 617.562 371.165 624.534 369.952 631.345Z" fill="black"/>
<path d="M365.711 631.345C364.497 624.534 364.497 617.562 365.711 610.75C366.924 617.562 366.924 624.534 365.711 631.345Z" fill="black"/>
<path d="M342.414 631.345C341.201 624.534 341.201 617.562 342.414 610.75C343.627 617.562 343.627 624.534 342.414 631.345Z" fill="black"/>
<path d="M336.117 631.345C334.904 624.534 334.904 617.562 336.117 610.75C337.33 617.562 337.33 624.534 336.117 631.345Z" fill="black"/>
<path d="M310.092 631.345C308.878 624.534 308.878 617.562 310.092 610.75C311.305 617.562 311.305 624.534 310.092 631.345Z" fill="black"/>
<path d="M304.068 631.345C303.422 627.951 303.117 624.502 303.158 621.048C303.107 617.593 303.412 614.143 304.068 610.75C304.714 614.144 305.019 617.594 304.978 621.048C305.009 624.502 304.704 627.95 304.068 631.345Z" fill="black"/>
<path d="M293.02 631.345C292.374 627.951 292.069 624.502 292.11 621.048C292.059 617.593 292.364 614.143 293.02 610.75C293.666 614.144 293.971 617.594 293.93 621.048C293.961 624.502 293.657 627.95 293.02 631.345Z" fill="black"/>
<path d="M315.115 631.345C314.478 627.95 314.173 624.502 314.205 621.048C314.154 617.593 314.459 614.143 315.115 610.75C315.761 614.144 316.066 617.594 316.025 621.048C316.056 624.502 315.751 627.95 315.115 631.345Z" fill="black"/>
<path d="M358.012 631.345C357.366 627.951 357.061 624.502 357.102 621.048C357.052 617.593 357.357 614.143 358.012 610.75C359.225 617.562 359.225 624.534 358.012 631.345Z" fill="black"/>
<path d="M327.836 631.345C327.2 627.95 326.895 624.502 326.926 621.048C326.885 617.594 327.19 614.144 327.836 610.75C328.492 614.143 328.797 617.593 328.746 621.048C328.787 624.502 328.482 627.951 327.836 631.345Z" fill="black"/>
<path d="M323.506 631.345C322.292 624.534 322.292 617.562 323.506 610.75C324.719 617.562 324.719 624.534 323.506 631.345Z" fill="black"/>
<path d="M278.624 631.345C277.41 624.534 277.41 617.562 278.624 610.75C279.837 617.562 279.837 624.534 278.624 631.345Z" fill="black"/>
<path d="M272.108 631.345C271.452 627.928 271.141 624.454 271.18 620.975C271.13 617.52 271.435 614.07 272.09 610.678C272.737 614.071 273.041 617.521 273 620.975C273.042 624.452 272.744 627.926 272.108 631.345Z" fill="black"/>
<path d="M287.887 631.345C287.251 627.95 286.946 624.502 286.977 621.048C286.936 617.594 287.241 614.144 287.887 610.75C288.543 614.143 288.848 617.593 288.797 621.048C288.829 624.502 288.524 627.95 287.887 631.345Z" fill="black"/>
<path d="M347.456 631.345C346.811 627.951 346.506 624.502 346.546 621.048C346.496 617.593 346.801 614.143 347.456 610.75C348.103 614.144 348.408 617.594 348.366 621.048C348.398 624.502 348.093 627.95 347.456 631.345Z" fill="black"/>
</g>
<path opacity="0.1" d="M383.854 608.385V613.861L267.302 617.536V608.385H383.854Z" fill="black"/>
<path d="M376.776 582.642H260.205V608.385H376.776V582.642Z" fill="#FBC018"/>
<g opacity="0.1">
<path d="M265.009 585.007C266.222 591.818 266.222 598.79 265.009 605.602C263.796 598.79 263.796 591.818 265.009 585.007Z" fill="black"/>
<path d="M273.69 585.007C274.336 588.401 274.641 591.85 274.6 595.305C274.648 598.759 274.343 602.209 273.69 605.602C272.476 598.79 272.476 591.819 273.69 585.007Z" fill="black"/>
<path d="M277.931 585.007C279.144 591.818 279.144 598.79 277.931 605.602C276.717 598.79 276.717 591.818 277.931 585.007Z" fill="black"/>
<path d="M301.208 585.007C302.421 591.819 302.421 598.79 301.208 605.602C299.995 598.79 299.995 591.819 301.208 585.007Z" fill="black"/>
<path d="M307.578 585.007C308.791 591.818 308.791 598.79 307.578 605.602C306.365 598.79 306.365 591.818 307.578 585.007Z" fill="black"/>
<path d="M333.55 585.007C334.763 591.818 334.763 598.79 333.55 605.602C332.337 598.79 332.337 591.818 333.55 585.007Z" fill="black"/>
<path d="M339.573 585.007C340.211 588.402 340.516 591.851 340.483 595.304C340.523 598.759 340.218 602.208 339.573 605.602C338.92 602.209 338.615 598.759 338.663 595.304C338.622 591.85 338.927 588.401 339.573 585.007Z" fill="black"/>
<path d="M350.622 585.007C351.26 588.402 351.564 591.851 351.532 595.304C351.572 598.759 351.267 602.208 350.622 605.602C349.968 602.209 349.663 598.759 349.712 595.304C349.68 591.851 349.985 588.402 350.622 585.007Z" fill="black"/>
<path d="M328.528 585.007C329.165 588.402 329.47 591.851 329.438 595.305C329.477 598.759 329.172 602.208 328.528 605.602C327.874 602.209 327.569 598.759 327.618 595.305C327.576 591.85 327.881 588.401 328.528 585.007Z" fill="black"/>
<path d="M285.63 585.007C286.268 588.402 286.572 591.851 286.54 595.304C286.589 598.759 286.284 602.209 285.63 605.602C284.985 602.208 284.68 598.759 284.72 595.304C284.688 591.851 284.993 588.402 285.63 585.007Z" fill="black"/>
<path d="M315.805 585.007C317.019 591.819 317.019 598.79 315.805 605.602C314.592 598.79 314.592 591.819 315.805 585.007Z" fill="black"/>
<path d="M320.137 585.007C320.783 588.401 321.088 591.85 321.047 595.304C321.095 598.759 320.79 602.209 320.137 605.602C318.923 598.79 318.923 591.818 320.137 585.007Z" fill="black"/>
<path d="M365.018 585.007C366.232 591.818 366.232 598.79 365.018 605.602C363.805 598.79 363.805 591.818 365.018 585.007Z" fill="black"/>
<path d="M371.533 585.007C372.171 588.402 372.476 591.851 372.443 595.304C372.483 598.759 372.178 602.208 371.533 605.602C370.88 602.209 370.575 598.759 370.623 595.304C370.591 591.851 370.896 588.402 371.533 585.007Z" fill="black"/>
<path d="M355.755 585.007C356.968 591.818 356.968 598.79 355.755 605.602C355.101 602.209 354.796 598.759 354.845 595.304C354.804 591.85 355.109 588.401 355.755 585.007Z" fill="black"/>
<path d="M296.185 585.007C296.822 588.402 297.127 591.851 297.095 595.304C297.135 598.759 296.83 602.208 296.185 605.602C295.531 602.209 295.226 598.759 295.275 595.304C295.243 591.851 295.547 588.402 296.185 585.007Z" fill="black"/>
</g>
<path opacity="0.1" d="M376.758 582.642V588.118L260.205 591.793V582.642H376.758Z" fill="black"/>
<path d="M376.776 659.871H260.205V685.615H376.776V659.871Z" fill="#FBC018"/>
<g opacity="0.1">
<path d="M371.533 682.831C370.887 679.438 370.582 675.988 370.623 672.534C370.575 669.079 370.88 665.629 371.533 662.237C372.178 665.63 372.483 669.08 372.443 672.534C372.476 675.988 372.171 679.437 371.533 682.831Z" fill="black"/>
<path d="M362.852 682.831C362.214 679.437 361.909 675.988 361.942 672.534C361.893 669.079 362.198 665.629 362.852 662.237C363.496 665.63 363.801 669.08 363.762 672.534C363.794 675.988 363.489 679.437 362.852 682.831Z" fill="black"/>
<path d="M358.538 682.831C357.892 679.438 357.587 675.988 357.628 672.534C357.58 669.079 357.884 665.629 358.538 662.237C359.183 665.63 359.488 669.08 359.448 672.534C359.481 675.988 359.176 679.437 358.538 682.831Z" fill="black"/>
<path d="M335.332 682.831C334.686 679.438 334.381 675.988 334.422 672.534C334.373 669.079 334.678 665.629 335.332 662.237C336.545 669.048 336.545 676.02 335.332 682.831Z" fill="black"/>
<path d="M329.035 682.831C327.822 676.02 327.822 669.048 329.035 662.237C330.248 669.048 330.248 676.02 329.035 682.831Z" fill="black"/>
<path d="M302.992 682.831C302.346 679.438 302.041 675.988 302.082 672.534C302.034 669.079 302.339 665.629 302.992 662.237C303.637 665.63 303.942 669.08 303.902 672.534C303.935 675.988 303.63 679.437 302.992 682.831Z" fill="black"/>
<path d="M296.968 682.831C295.755 676.02 295.755 669.048 296.968 662.237C298.181 669.048 298.181 676.02 296.968 682.831Z" fill="black"/>
<path d="M285.921 682.831C284.708 676.02 284.708 669.048 285.921 662.237C286.575 665.629 286.88 669.079 286.831 672.534C286.872 675.988 286.567 679.438 285.921 682.831Z" fill="black"/>
<path d="M308.015 682.831C306.802 676.02 306.802 669.048 308.015 662.237C309.229 669.048 309.229 676.02 308.015 682.831Z" fill="black"/>
<path d="M350.913 682.831C349.7 676.02 349.7 669.048 350.913 662.237C351.567 665.629 351.872 669.079 351.823 672.534C351.864 675.988 351.559 679.438 350.913 682.831Z" fill="black"/>
<path d="M320.737 682.831C319.524 676.02 319.524 669.048 320.737 662.237C321.95 669.048 321.95 676.02 320.737 682.831Z" fill="black"/>
<path d="M316.406 682.831C315.769 679.437 315.464 675.988 315.496 672.534C315.448 669.079 315.753 665.629 316.406 662.237C317.051 665.63 317.356 669.08 317.316 672.534C317.349 675.988 317.044 679.437 316.406 682.831Z" fill="black"/>
<path d="M271.525 682.831C270.878 679.438 270.573 675.988 270.615 672.534C270.566 669.079 270.871 665.629 271.525 662.237C272.17 665.63 272.474 669.08 272.435 672.534C272.467 675.988 272.162 679.437 271.525 682.831Z" fill="black"/>
<path d="M265.009 682.831C263.796 676.02 263.796 669.048 265.009 662.237C265.663 665.629 265.967 669.079 265.919 672.534C265.96 675.988 265.655 679.438 265.009 682.831Z" fill="black"/>
<path d="M280.789 682.831C279.576 676.02 279.576 669.048 280.789 662.237C282.002 669.048 282.002 676.02 280.789 682.831Z" fill="black"/>
<path d="M340.339 682.831C339.125 676.02 339.125 669.048 340.339 662.237C340.992 665.629 341.297 669.079 341.249 672.534C341.29 675.988 340.985 679.438 340.339 682.831Z" fill="black"/>
</g>
<path opacity="0.1" d="M376.758 659.89V665.348L260.205 669.023V659.89H376.758Z" fill="black"/>
<path d="M250.486 622.157C327.217 635.911 306.906 749.509 230.084 735.755C153.262 722.001 173.627 608.367 250.486 622.157Z" fill="#FBC018"/>
<path opacity="0.1" d="M250.486 622.157C327.217 635.911 306.906 749.509 230.084 735.755C153.262 722.001 173.627 608.367 250.486 622.157Z" fill="black"/>
<path d="M243.278 620.866C316.406 633.965 296.058 747.598 222.894 734.463C149.73 721.328 170.042 607.712 243.278 620.866Z" fill="#FBC018"/>
<path d="M213.633 650.911L261.309 670.021L257.479 679.57L239.444 672.341L224.382 709.889L212.776 705.237L227.837 667.689L209.802 660.46L213.633 650.911ZM267.479 654.639L263.649 664.188L215.972 645.078L219.803 635.529L267.479 654.639Z" fill="#E6B323"/>
<path opacity="0.1" d="M186.713 680.339C187.095 700.569 198.889 720.181 224.623 724.802C285.411 735.718 302.246 641.405 241.549 630.508L240.367 630.326C297.26 641.715 280.952 730.952 223.004 720.563C199.362 716.324 187.969 698.841 186.713 680.339Z" fill="black"/>
<path d="M86.341 736.901L178.506 736.464L270.671 736.301L455 735.991L639.33 736.301L731.495 736.464L823.659 736.901L731.495 737.356L639.33 737.519L455 737.811L270.671 737.519L178.506 737.356L86.341 736.901Z" fill="#263238"/>
<path d="M633.669 16.1832H631.849V74.9649H633.669V16.1832Z" fill="#263238"/>
<path d="M632.759 17.0927C631.76 17.0963 630.783 16.8034 629.951 16.251C629.119 15.6986 628.47 14.9118 628.087 13.9902C627.703 13.0686 627.601 12.0538 627.795 11.0746C627.989 10.0953 628.47 9.1957 629.176 8.48982C629.882 7.78395 630.782 7.30361 631.762 7.10974C632.741 6.91587 633.756 7.01721 634.678 7.40089C635.6 7.78457 636.387 8.43331 636.94 9.26483C637.493 10.0963 637.786 11.0732 637.782 12.0714C637.777 13.4017 637.247 14.6761 636.306 15.6167C635.365 16.5574 634.09 17.0879 632.759 17.0927ZM632.759 8.85127C632.121 8.84766 631.496 9.03345 630.964 9.38509C630.432 9.73673 630.016 10.2384 629.77 10.8265C629.523 11.4146 629.457 12.0626 629.579 12.6884C629.701 13.3143 630.007 13.8898 630.456 14.3419C630.906 14.7941 631.48 15.1026 632.106 15.2283C632.731 15.3541 633.38 15.2914 633.969 15.0482C634.559 14.805 635.063 14.3923 635.418 13.8623C635.773 13.3324 635.962 12.7091 635.962 12.0714C635.962 11.2205 635.625 10.4042 635.025 9.80084C634.425 9.19746 633.61 8.85607 632.759 8.85127Z" fill="white"/>
<path d="M690.927 7.94168H645.245V9.99749H690.927V7.94168Z" fill="white"/>
<path d="M671.107 12.0715H645.245V14.1273H671.107V12.0715Z" fill="white"/>
<path d="M649.522 110.187H649.322H649.158L645.518 108.931H645.318L643.28 108.222H643.043L639.84 107.112L639.567 107.003L637.674 106.111H637.401L633.761 104.838L633.452 104.71L631.231 103.946L630.885 103.819L628.119 102.855L627.737 102.727L625.316 101.891L624.916 101.763L621.567 100.581L621.221 100.471L618.655 99.58L618.327 99.4527L615.87 98.6158L615.579 98.5066L612.795 97.5242H612.503L610.083 96.6873L609.846 96.5964L606.352 95.1955H606.115L602.475 93.9402H602.275L599.527 92.9941H599.345L595.705 91.7388H595.559L592.556 90.7018H592.429L589.28 89.6102L592.265 88.646H592.392L595.85 87.5362H596.014L598.963 86.5902H599.145L602.912 85.3712H603.13L605.66 84.5708H605.897L611.357 82.7515H611.63L613.031 82.3148H613.322L618.782 80.4955L619.128 80.3864L620.311 80.0043L620.675 79.8951L626.244 78.0758L626.663 77.9485L627.919 77.5482L628.319 77.4209L634.18 75.6016L634.616 75.456L635.29 75.2559L635.69 75.1104L642.461 72.2177L642.825 72.1085L643.425 71.9266L643.771 71.8174L650.105 69.7252L650.268 70.271C650.268 70.4166 650.268 70.5621 650.396 70.7076V70.835C650.396 71.0169 650.505 71.1989 650.56 71.3808C651.84 75.9416 652.633 80.6251 652.926 85.3531C652.926 85.535 652.926 85.7169 652.926 85.917C653.044 88.0743 653.044 90.2365 652.926 92.3938C652.926 92.8304 652.926 93.2307 652.926 93.6491C652.481 99.2812 651.337 104.836 649.522 110.187Z" fill="#C7C7C7"/>
<path d="M592.519 88.2459L592.683 90.3926H592.555L592.392 88.3368L592.519 88.2459ZM595.977 87.1361L595.686 91.4296H595.831L596.141 87.0269L595.977 87.1361ZM599.271 86.0809H599.089L599.399 92.685H599.581L599.271 86.0809ZM603.039 84.862L602.42 93.7402H602.62L603.348 84.6436L603.039 84.862ZM606.06 83.9159H605.823L606.151 94.9955H606.387L606.06 83.9159ZM610.701 89.3738L609.7 96.3418L609.936 96.4327L610.846 89.3556L611.775 82.0784H611.502L610.701 89.3738ZM613.576 81.5508H613.285L612.466 97.2332H612.757L613.576 81.5508ZM615.542 98.3976L615.833 98.5067L619.346 79.6951L619 79.8043L615.542 98.3976ZM620.529 79.2949L618.29 99.3072L618.618 99.4346L620.893 79.1493L620.529 79.2949ZM626.462 77.4756L621.184 100.435L621.53 100.544L626.899 77.33L626.48 77.4574L626.462 77.4756ZM628.155 76.9298L624.879 101.727L625.279 101.854L628.555 76.8024L628.155 76.9298ZM634.415 74.9103L627.7 102.691L628.082 102.819L634.816 74.6374L634.415 74.9103ZM635.526 74.5647L630.812 103.655L631.158 103.783L635.89 74.2918L635.526 74.5647ZM642.46 72.2178L633.36 104.547L633.669 104.674L642.769 72.1086L642.46 72.2178ZM643.424 71.9085L637.491 105.948H637.764L643.77 71.6902L643.424 71.9085ZM650.486 70.726C650.486 70.5804 650.395 70.4349 650.359 70.2893L639.73 106.675L640.003 106.785L650.486 70.6896V70.726ZM650.486 70.8897L643.206 107.949H643.443L650.723 71.3445C650.541 71.2535 650.504 71.0716 650.431 70.8897H650.486ZM653.052 85.9899C653.052 85.7898 653.052 85.6079 653.052 85.4259L645.481 108.749H645.681L652.998 86.0991L653.052 85.9899ZM653.052 92.4848L649.23 110.059H649.394L653.034 93.6856C652.925 93.3763 652.961 92.9215 652.979 92.4848H653.052Z" fill="#DBDBDB"/>
<path d="M649.521 110.168L644.425 109.623L584.311 88.7007L589.407 89.2465L649.521 110.168Z" fill="#A6A6A6"/>
<path d="M589.407 89.2463L584.311 88.7005L645.008 69.1793L650.104 69.7251L589.407 89.2463Z" fill="#A6A6A6"/>
<path d="M555.792 23.8241L555.373 89.3191L616.834 69.4887C608.208 41.8898 584.22 24.0242 555.792 23.8241Z" fill="#37474F"/>
<path d="M557.684 23.8606L555.773 27.0808V26.6987L557.465 23.8606H557.684ZM559.631 23.9516L555.736 32.6115V33.1027L559.849 24.0061L559.631 23.9516ZM566.711 24.7884L555.682 42.9815V43.4363L567.002 24.934L566.711 24.7884ZM568.24 25.0795L555.609 52.0234V52.6784L568.513 25.1341L568.24 25.0795ZM574.264 32.7752L577.685 27.6993L577.394 27.5902L574.009 32.5933L563.908 47.5116L555.554 59.8647V60.4104L564.181 47.6753L574.264 32.7752ZM578.14 27.8631L555.518 67.433V68.1425L578.468 27.9722L578.14 27.8631ZM585.839 31.3379L555.481 71.1444V71.7447L586.185 31.5199L585.839 31.3379ZM586.549 31.72L555.427 79.2767V80.0408L586.895 31.9019L586.549 31.72ZM593.174 35.9408L555.427 81.2597V81.9328L593.556 36.2137L593.174 35.9408ZM593.956 36.523L558.739 88.2094L559.504 87.9547L594.375 36.8141L593.956 36.523ZM599.744 41.4533L560.45 87.6455L561.324 87.3544L600.071 41.8717L599.744 41.4533ZM600.381 42.0718L569.441 84.7164L570.114 84.5162L600.708 42.4357C600.599 42.3084 600.49 42.181 600.381 42.0718ZM605.459 47.7663L572.699 83.6794L573.481 83.4247L605.695 48.0756L605.459 47.7663ZM606.259 48.7851L582.599 80.4774L583.182 80.2955L606.441 49.0944L606.259 48.7851ZM610.3 54.807L587.859 78.8218L588.514 78.6035L610.354 55.1163C610.348 55.0114 610.33 54.9076 610.3 54.807ZM610.9 55.8258L594.702 76.6023L595.194 76.4385L611.064 56.1169L610.9 55.8258ZM614.304 62.6118L603.111 73.8915L603.657 73.7096L614.413 62.7937L614.304 62.6118ZM614.886 64.0127L608.189 72.2541L608.607 72.1086L614.977 64.2674C614.955 64.1798 614.925 64.0945 614.886 64.0127Z" fill="#263238"/>
<path d="M555.373 89.2827L493.911 109.113C497.925 122.208 506.001 133.687 516.97 141.893C527.94 150.098 541.236 154.604 554.936 154.76C568.643 154.805 582.008 150.481 593.09 142.417C604.171 134.352 612.393 122.967 616.561 109.914L555.373 89.2827Z" fill="#E51D1B"/>
<path d="M493.913 109.113H488.78C492.794 122.208 500.87 133.688 511.84 141.893C522.809 150.098 536.105 154.604 549.805 154.76H554.937C541.237 154.604 527.942 150.098 516.972 141.893C506.002 133.688 497.927 122.208 493.913 109.113Z" fill="#E51D1B"/>
<g opacity="0.1">
<path d="M493.913 109.113H488.78C492.794 122.208 500.87 133.688 511.84 141.893C522.809 150.098 536.105 154.604 549.805 154.76H554.937C541.237 154.604 527.942 150.098 516.972 141.893C506.002 133.688 497.927 122.208 493.913 109.113Z" fill="black"/>
</g>
<path opacity="0.1" d="M496.715 108.203L496.005 114.862L496.715 108.294V108.203ZM503.667 105.966L498.516 120.229L503.685 105.893L503.667 105.966ZM506.124 105.183L502.993 127.524L506.124 105.056V105.183ZM510.528 103.746L504.013 128.907L510.565 103.619L510.528 103.746ZM512.257 103.2L508.818 134.602C508.849 134.642 508.886 134.679 508.927 134.711L512.366 103.164L512.257 103.2ZM517.444 101.508L509.837 135.657C509.868 135.698 509.905 135.734 509.946 135.766L517.608 101.472L517.444 101.508ZM518.718 101.108L515.624 140.842L515.788 140.969L518.882 101.054L518.718 101.108ZM516.553 141.57L516.716 141.697L523.887 99.4344H523.687L516.553 141.57ZM525.361 98.9614L524.797 146.918L525.034 147.046L525.58 98.8886L525.361 98.9614ZM525.507 147.3L525.743 147.428L531.331 97.0147H531.058L525.507 147.3ZM532.55 96.6509H532.277L532.714 150.484L533.005 150.611L532.55 96.6509ZM533.278 150.793L533.57 150.903L538.047 94.868L537.719 94.9771L533.278 150.793ZM539.011 94.5587L538.684 94.6678L540.504 152.977H540.868L539.011 94.5587ZM541.104 153.14H541.468L545.6 92.3573L545.199 92.4847L541.104 153.14ZM549.276 154.359L546.528 92.139L546.128 92.2663L548.858 154.432H549.276H549.695L551.861 90.3379L551.406 90.4834L549.276 154.359ZM557.521 154.359L552.861 90.1196L552.406 90.2651L557.12 154.76C557.253 154.778 557.388 154.778 557.521 154.76H557.958L559.468 90.7199L559.05 90.5926L557.521 154.359ZM560.287 90.9746L559.868 90.8473L565.711 153.941H566.075L560.287 90.9746ZM564.892 92.5392L566.075 153.868H566.457L565.256 92.703L564.892 92.5392ZM566.02 92.9031L565.656 92.794L574.756 151.758H574.956H575.047L566.02 92.9031ZM574.465 140.296L573.155 123.104L570.952 94.5769H570.661L572.845 123.213L574.156 140.423L574.829 149.011L575.12 151.594L575.43 151.485L575.12 148.865L574.465 140.296ZM571.971 94.9225L571.662 94.8134L584.22 147.955C584.304 147.93 584.383 147.893 584.457 147.846L571.971 94.9225ZM578.76 97.1967L584.966 147.482L585.203 147.373L578.997 97.2694L578.76 97.1967ZM580.016 97.6151H579.779L591.5 143.662L591.664 143.534L580.016 97.6151ZM595.286 102.764L599.508 137.331C599.541 137.285 599.585 137.247 599.635 137.221L595.413 102.855L595.286 102.764ZM596.76 103.273H596.633L605.532 130.708H605.623L596.76 103.273ZM586.732 99.871L592.61 142.879L592.792 142.77L586.896 99.9438L586.732 99.871ZM592.483 115.826L588.515 101.854L588.078 100.344H587.915L588.37 101.963L592.337 115.954L598.78 138.04H598.889L592.483 115.826ZM600.891 104.656L606.297 129.762V129.671L600.982 104.656H600.891ZM602.183 105.092H602.093L609.7 124.796L602.183 105.092ZM606.169 106.421L610.428 123.467L606.169 106.512V106.421ZM612.357 108.513L614.669 114.862L612.357 108.567V108.513ZM615.997 109.768C616.123 109.918 616.238 110.076 616.343 110.241L615.997 109.768Z" fill="black"/>
<path d="M555.792 23.8241C520.175 23.6058 491.109 52.7147 490.891 88.8643C490.78 95.7339 491.801 102.575 493.912 109.113L555.374 89.2827L555.792 23.8241Z" fill="#455A64"/>
<path d="M555.446 75.6926V76.1839L498.68 58.0818L498.898 57.6633L555.446 75.6926ZM498.316 58.8095L555.41 83.2791V82.8243L498.516 58.391C498.438 58.5246 498.371 58.6646 498.316 58.8095ZM503.576 50.3133C503.485 50.4407 503.376 50.568 503.303 50.6954L555.5 68.9976V68.561L503.576 50.3133ZM502.793 51.4049L555.464 74.6011V74.0735L503.066 51.0047C502.975 51.1138 502.884 51.2594 502.793 51.3867V51.4049ZM516.116 37.3781L515.843 37.5964L555.591 53.1514V52.8604L516.116 37.3781ZM514.714 38.506L555.555 58.8095V58.4456L515.06 38.2513L514.714 38.506ZM509.6 43.2726C509.491 43.3636 509.4 43.4727 509.309 43.5637L555.628 60.5014V60.1194L509.6 43.2726ZM508.344 44.5825L555.664 67.3784V66.9236L508.545 44.255L508.344 44.5825ZM535.644 27.008H535.408L555.846 37.1052V36.9778L535.644 27.008ZM532.769 28.0086L555.81 42.1264V41.8899L532.86 27.8813L532.769 28.0086ZM524.433 31.9201L524.16 32.0657L555.792 45.1829V44.9282L524.433 31.9201ZM522.395 33.1209L555.755 50.9865V50.6954L522.65 32.9571L522.395 33.1209ZM546.582 24.4428H546.382L555.901 29.5005V29.3913L546.582 24.4428ZM542.287 25.2251L555.865 34.5218V34.3398L542.469 25.2433C542.363 25.211 542.251 25.2048 542.142 25.2251H542.287ZM552.898 23.897H552.734L555.919 26.2439V26.062L552.898 23.897ZM491.127 95.3048L516.88 101.727L517.19 101.618L491.109 95.1956C491.112 95.2324 491.118 95.2689 491.127 95.3048ZM491.018 93.9403C491.018 93.9403 491.018 94.0676 491.018 94.1404L525.853 98.8342L526.344 98.6887L491.018 93.9403ZM492.437 103.71L502.447 106.366H502.684L492.401 103.655C492.401 103.655 492.419 103.655 492.437 103.71ZM492.274 102.946C492.263 102.994 492.263 103.043 492.274 103.091L507.562 104.692L507.926 104.583L492.274 102.946ZM490.945 86.4811L531.112 97.1059L531.44 97.0149L490.872 86.2628L490.945 86.4811ZM490.945 85.3895C490.945 85.3895 490.945 85.5533 490.945 85.6624L542.615 93.3763L543.234 93.1762L490.945 85.3895ZM502.32 78.549L493.73 75.8564L492.274 75.4016C492.263 75.5044 492.263 75.608 492.274 75.7108L493.693 76.1475L502.32 78.8218L519.501 84.2798L545.545 92.4848L546.018 92.3211L519.592 83.9887L502.32 78.549ZM492.365 74.9103C492.365 74.9103 492.365 75.1105 492.365 75.2196L554.081 89.7377L554.718 89.5194L492.365 74.9103ZM494.731 66.7417L554.7 89.4284L555.246 89.2647L494.931 66.4142C494.88 66.5325 494.838 66.6541 494.803 66.778L494.731 66.7417ZM495.076 65.832C495.017 65.9486 494.968 66.0704 494.931 66.1959L555.391 84.2798V83.8431L495.076 65.832Z" fill="#37474F"/>
<path d="M555.792 23.824H550.66C515.06 23.5693 485.94 52.6782 485.758 88.8279C485.646 95.6975 486.667 102.539 488.78 109.077H493.912C491.8 102.538 490.78 95.6974 490.891 88.8279C491.109 52.7146 520.175 23.6057 555.792 23.824Z" fill="#37474F"/>
<path d="M722.336 220.041L736.078 207.672L687.402 153.633L673.66 166.001L722.336 220.041Z" fill="#C7C7C7"/>
<path d="M760.395 269.34L781.18 250.637L730.748 194.657L709.981 213.36L760.395 269.34Z" fill="#263238"/>
<path d="M687.577 60.9926C696.902 74.8513 701.13 91.5139 699.54 108.14C697.95 124.766 690.641 140.326 678.858 152.168C667.075 164.01 651.549 171.4 634.925 173.079C618.302 174.757 601.61 170.621 587.696 161.374C573.782 152.127 563.507 138.343 558.623 122.371C553.738 106.398 554.547 89.2272 560.91 73.7842C567.274 58.3412 578.799 45.5825 593.52 37.683C608.241 29.7836 625.248 27.2325 641.64 30.4647C660.392 34.1599 676.912 45.1386 687.577 60.9926Z" fill="white"/>
<path d="M611.392 183.76C595.04 180.537 580.011 172.539 568.206 160.778C556.402 149.016 548.351 134.02 545.073 117.685C541.795 101.349 543.436 84.4094 549.789 69.0068C556.143 53.6042 566.923 40.4309 580.766 31.1528C594.61 21.8748 610.895 16.9088 627.562 16.8829C644.229 16.857 660.529 21.7723 674.401 31.0073C688.273 40.2422 699.094 53.3819 705.496 68.7647C711.897 84.1475 713.591 101.082 710.364 117.428C706.015 139.33 693.152 158.614 674.598 171.049C656.044 183.484 633.313 188.055 611.392 183.76ZM613.212 174.299C627.692 177.159 642.696 175.661 656.324 169.997C669.953 164.332 681.595 154.754 689.778 142.475C697.96 130.195 702.316 115.766 702.294 101.012C702.273 86.2574 697.874 71.8409 689.655 59.5858C681.436 47.3307 669.766 37.7873 656.12 32.1629C642.475 26.5384 627.467 25.0855 612.996 27.9878C598.524 30.8902 585.239 38.0175 574.82 48.4682C564.401 58.919 557.317 72.2237 554.463 86.6996C552.57 96.3162 552.592 106.211 554.527 115.82C556.462 125.428 560.273 134.561 565.741 142.696C571.208 150.831 578.227 157.81 586.394 163.233C594.561 168.655 603.718 172.416 613.34 174.299H613.212Z" fill="#37474F"/>
<path d="M702.519 82.7334C699.565 70.6947 693.748 59.5464 685.563 50.2353C677.377 40.9243 667.064 33.7254 655.5 29.2502C643.936 24.7749 631.463 23.1555 619.139 24.5293C606.815 25.9032 595.004 30.2297 584.711 37.1416C576.296 42.7699 569.075 50.0018 563.459 58.4232C557.844 66.8447 553.945 76.2905 551.986 86.2199C550.026 96.1494 550.045 106.368 552.041 116.29C554.037 126.212 557.971 135.643 563.617 144.044C573.708 159.09 588.78 170.103 606.185 175.147C623.59 180.191 642.217 178.945 658.794 171.628C675.372 164.311 688.841 151.39 696.837 135.133C704.833 118.877 706.845 100.325 702.519 82.7334ZM698.352 115.081C695.146 131.456 686.359 146.214 673.488 156.84C660.617 167.465 644.458 173.299 627.765 173.349C611.073 173.399 594.879 167.661 581.945 157.113C569.01 146.565 560.135 131.86 556.831 115.504C553.528 99.1473 556.001 82.152 563.829 67.4141C571.657 52.6761 584.355 41.1076 599.759 34.68C615.164 28.2525 632.322 27.3636 648.308 32.165C664.295 36.9663 678.122 47.1607 687.432 61.0109C698.117 76.8666 702.071 96.3134 698.424 115.081H698.352ZM702.519 82.7334C699.565 70.6947 693.748 59.5464 685.563 50.2353C677.377 40.9243 667.064 33.7254 655.5 29.2502C643.936 24.7749 631.463 23.1555 619.139 24.5293C606.815 25.9032 595.004 30.2297 584.711 37.1416C576.296 42.7699 569.075 50.0018 563.459 58.4232C557.844 66.8447 553.945 76.2905 551.986 86.2199C550.026 96.1494 550.045 106.368 552.041 116.29C554.037 126.212 557.971 135.643 563.617 144.044C573.708 159.09 588.78 170.103 606.185 175.147C623.59 180.191 642.217 178.945 658.794 171.628C675.372 164.311 688.841 151.39 696.837 135.133C704.833 118.877 706.845 100.325 702.519 82.7334ZM698.352 115.081C695.146 131.456 686.359 146.214 673.488 156.84C660.617 167.465 644.458 173.299 627.765 173.349C611.073 173.399 594.879 167.661 581.945 157.113C569.01 146.565 560.135 131.86 556.831 115.504C553.528 99.1473 556.001 82.152 563.829 67.4141C571.657 52.6761 584.355 41.1076 599.759 34.68C615.164 28.2525 632.322 27.3636 648.308 32.165C664.295 36.9663 678.122 47.1607 687.432 61.0109C698.117 76.8666 702.071 96.3134 698.424 115.081H698.352ZM711.911 80.4229C706.825 59.6525 694.247 41.4903 676.59 29.4199C658.932 17.3496 637.438 12.221 616.23 15.018C595.022 17.815 575.594 28.3406 561.672 44.5758C547.751 60.811 540.316 81.6126 540.793 102.991C541.271 124.369 549.627 144.818 564.26 160.416C578.893 176.014 598.772 185.662 620.083 187.51C641.395 189.357 662.639 183.275 679.74 170.429C696.841 157.582 708.595 138.877 712.748 117.901C715.227 105.502 714.967 92.7106 711.983 80.4229H711.911ZM707.979 117.027C704.086 136.79 693.03 154.419 676.932 166.534C660.835 178.648 640.83 184.396 620.754 182.673C600.678 180.95 581.945 171.878 568.149 157.198C554.353 142.518 546.465 123.263 545.998 103.126C545.53 82.99 552.517 63.39 565.617 48.0862C578.718 32.7823 597.009 22.8523 616.984 20.2008C636.958 17.5493 657.208 22.3631 673.85 33.7187C690.492 45.0744 702.354 62.1723 707.16 81.7328C710.02 93.2952 710.299 105.345 707.979 117.027ZM691.8 58.3183C686.163 49.9145 678.925 42.7028 670.5 37.095C662.075 31.4873 652.627 27.5932 642.697 25.6352C632.766 23.6772 622.547 23.6936 612.623 25.6835C602.698 27.6734 593.263 31.5977 584.856 37.2325C576.449 42.8673 569.235 50.1022 563.625 58.5241C558.015 66.946 554.12 76.3899 552.161 86.3167C550.202 96.2436 550.219 106.459 552.209 116.379C554.2 126.3 558.126 135.731 563.763 144.135C569.4 152.539 576.637 159.75 585.062 165.358C593.487 170.966 602.935 174.86 612.866 176.818C622.796 178.776 633.015 178.76 642.94 176.77C652.864 174.78 662.299 170.856 670.706 165.221C679.113 159.586 686.327 152.351 691.937 143.929C697.547 135.507 701.443 126.063 703.401 116.137C705.36 106.21 705.344 95.9944 703.353 86.074C701.362 76.1535 697.437 66.7221 691.8 58.3183ZM698.497 115.172C695.292 131.547 686.505 146.305 673.633 156.931C660.762 167.556 644.603 173.39 627.911 173.44C611.218 173.49 595.025 167.752 582.09 157.204C569.156 146.656 560.28 131.951 556.977 115.595C553.674 99.2383 556.147 82.243 563.974 67.505C571.802 52.7671 584.5 41.1986 599.905 34.771C615.31 28.3434 632.467 27.4546 648.454 32.2559C664.441 37.0573 678.267 47.2517 687.577 61.1018C698.188 76.9543 702.088 96.3618 698.424 115.081L698.497 115.172Z" fill="#37474F"/>
<path d="M654.982 34.4489V75.4742H653.162V33.7575C653.836 33.9759 654.4 34.2124 654.982 34.4489Z" fill="#263238"/>
<g opacity="0.3">
<path d="M613.739 171.825C597.357 168.621 582.594 159.837 571.965 146.971C561.335 134.104 555.499 117.952 555.449 101.265C555.399 84.579 561.139 68.3917 571.691 55.4621C582.243 42.5325 596.954 33.6606 613.316 30.3585C629.679 27.0564 646.681 29.5284 661.424 37.3532C676.168 45.178 687.741 57.8714 694.171 73.2701C700.601 88.6689 701.49 105.82 696.687 121.801C691.884 137.781 681.685 151.603 667.83 160.909C651.958 171.565 632.504 175.491 613.739 171.825Z" fill="white"/>
</g>
<path d="M576.502 131.582C572.409 125.034 569.731 117.703 568.64 110.059C568.051 106.177 567.844 102.247 568.021 98.3248C568.247 94.3517 568.857 90.4097 569.841 86.5539C571.881 78.807 575.513 71.57 580.506 65.3044C585.426 59.1482 591.442 53.9546 598.251 49.9858C592.831 55.3304 587.954 61.1991 583.691 67.5058C581.657 70.6215 579.873 73.8945 578.359 77.2936C576.815 80.6316 575.596 84.1104 574.719 87.6819C572.897 94.8073 572.191 102.172 572.626 109.514C573.028 116.998 574.33 124.408 576.502 131.582Z" fill="white"/>
<path d="M672.563 114.207H672.345H672.163L668.25 112.843H668.013L665.793 112.061L665.52 111.97L661.989 110.733L661.698 110.623L659.532 109.877L659.223 109.768L655.146 108.349L654.8 108.222L652.361 107.385L651.979 107.258L648.94 106.184L648.521 106.057L645.846 105.111L645.409 104.965L641.769 103.692L641.387 103.546L638.566 102.564L638.202 102.436L635.508 101.509L635.18 101.399L632.105 100.326L631.795 100.217L629.138 99.2891H628.865L625.116 97.9792H624.843L620.893 96.5965H620.675L617.654 95.5413H617.454L613.541 94.1768H613.377L610.064 93.0306H609.919L606.461 91.8299L609.755 90.7747H609.901L613.704 89.5558H613.868L617.126 88.5006H617.308L621.476 87.1725H621.694L624.479 86.281H624.734L630.867 84.3162L631.158 84.207L632.687 83.7158L633.015 83.6248L638.948 80.6412L639.312 80.532L640.64 80.1136L641.023 79.9862L647.174 78.0214L647.629 77.894L649.012 77.4392L649.467 77.2937L655.91 75.1833L656.383 75.0377L657.13 74.8012L657.585 74.6557L664.683 72.3633L665.101 72.236L665.756 72.0359L666.139 71.9267L673.2 69.7253C673.2 69.9255 673.328 70.1256 673.382 70.3257C673.439 70.4869 673.488 70.6508 673.528 70.8169V70.9625L673.692 71.5446C675.104 76.5681 675.976 81.7277 676.294 86.936C676.294 87.1361 676.294 87.3362 676.294 87.5545C676.431 89.9359 676.431 92.3231 676.294 94.7044C676.294 95.1592 676.294 95.6141 676.203 96.0871C675.733 102.253 674.511 108.338 672.563 114.207Z" fill="#C7C7C7"/>
<path d="M672.162 114.062H672.363L676.276 96.069C676.276 95.596 676.276 95.1593 676.367 94.6863L672.162 114.062ZM676.348 86.9725L667.94 112.606L668.177 112.697L676.312 87.591C676.367 87.3727 676.367 87.1726 676.348 86.9725ZM673.582 70.9626L665.519 111.751L665.792 111.842L673.764 71.5447C673.709 71.3628 673.637 71.1809 673.582 70.9626ZM673.382 70.3076L661.716 110.332H661.861H661.989L673.527 70.6169C673.489 70.5121 673.447 70.409 673.4 70.3076H673.382ZM665.756 72.1269L659.222 109.586H659.331H659.495L666.12 71.9632L665.756 72.1269ZM664.682 72.4726L654.8 107.931L655.145 108.058L665.101 72.2361L664.682 72.4726ZM657.402 74.8013L657.075 74.9105L651.979 107.021L652.361 107.167L657.584 74.7103L657.402 74.8013ZM655.855 75.2925L648.466 105.875L648.885 106.021L656.328 75.0924L655.855 75.2925ZM648.957 77.5121L645.317 104.802L645.736 104.947L649.376 77.4029L648.957 77.5121ZM647.356 78.0215H647.137L641.313 103.273L641.696 103.419L647.592 77.9487L647.356 78.0215ZM640.64 80.1683L638.165 102.218L638.565 102.327L641.04 80.0409L640.64 80.1683ZM638.966 80.7141L635.18 101.163L635.489 101.272L639.311 80.6413L638.966 80.7141ZM632.905 82.6607H632.668L631.777 99.9259H632.104L632.996 82.4788L632.905 82.6607ZM630.83 83.3339L629.847 91.2296L628.865 98.9799H629.119L630.12 91.1933L631.14 83.1519L630.83 83.3339ZM624.733 85.2987H624.46L624.824 97.5062H625.097L624.733 85.2987ZM621.639 86.2811H621.457L620.62 96.1236H620.838L621.639 86.1902V86.2811ZM617.308 87.682H617.107L617.435 94.9592H617.635L617.308 87.682ZM613.668 88.8463L613.358 93.5765H613.522L613.85 88.7372L613.668 88.8463ZM609.882 90.0653H609.736L609.918 92.3212H610.046L609.882 90.0653Z" fill="#DBDBDB"/>
<path d="M672.561 114.189L666.955 113.589L600.816 90.5747L606.422 91.1751L672.561 114.189Z" fill="#A6A6A6"/>
<path d="M606.422 91.175L600.816 90.5746L667.592 69.0886L673.198 69.689L606.422 91.175Z" fill="#A6A6A6"/>
<path d="M636.599 69.3979L627.499 72.3087L627.062 72.4543L622.075 74.0735L621.475 74.2554L612.811 77.0025L612.284 77.1663L605.55 79.3313L604.858 79.5496L599.671 81.2051L599.016 81.4053L588.988 84.6436L588.132 84.9347L585.311 85.8444L584.547 86.0627L575.592 88.9554L574.664 89.2647L573.59 89.6285L572.753 89.8832L569.113 91.084V85.6261V84.0433V76.766V74.4737V68.8702V66.6143V59.5372V59.0096C569.95 57.8271 570.842 56.6627 571.77 55.5347C574.631 52.0943 577.805 48.9272 581.253 46.0743C581.508 45.8418 581.775 45.6232 582.053 45.4194C586.191 42.0323 590.696 39.1212 595.485 36.7413L596.359 36.2865C597.05 35.9408 597.778 35.6133 598.47 35.3222L599.216 34.9766C602.419 33.5786 605.723 32.4231 609.099 31.5199L610.573 32.5569C610.717 32.6452 610.851 32.7489 610.973 32.8662L611.428 33.1937L611.847 33.5211C613.929 35.1008 615.916 36.8017 617.798 38.6152L617.962 38.7971C618.032 38.8548 618.093 38.9222 618.144 38.9972C618.273 39.0983 618.389 39.2144 618.49 39.3429H618.581H618.672L618.836 39.543C620.701 41.3934 622.451 43.3558 624.077 45.4194C624.184 45.5238 624.271 45.6472 624.332 45.7832C624.553 46.0261 624.759 46.2812 624.951 46.5474C625.042 46.6582 625.127 46.7735 625.206 46.893C626.734 48.9609 628.137 51.1175 629.41 53.3516C629.481 53.4484 629.542 53.552 629.592 53.6608C629.774 53.9337 629.919 54.2248 630.065 54.4977L630.174 54.6433V54.7888C631.495 57.1077 632.68 59.5011 633.723 61.9569C633.777 62.0422 633.82 62.1338 633.851 62.2298C634.033 62.6482 634.215 63.0849 634.378 63.5033L634.488 63.758C635.325 65.5409 635.98 67.4512 636.599 69.3979Z" fill="#37474F"/>
<path d="M634.451 63.4124L627.171 72.509L627.608 72.3634L634.633 63.7399L634.451 63.4124ZM633.814 61.866L621.529 74.2373L622.129 74.0554L633.941 62.1389L633.814 61.866ZM630.174 54.5888L630.083 54.4251L612.283 77.2392L612.829 77.0572L630.265 54.7162L630.174 54.5888ZM629.409 53.2971L604.821 79.6406L605.513 79.4041L629.591 53.57C629.537 53.4926 629.476 53.4196 629.409 53.3517V53.2971ZM624.95 46.6748L598.979 81.5145L599.634 81.3144L625.114 47.0023C625.065 46.8847 625.01 46.7693 624.95 46.6566V46.6748ZM624.077 45.5469L588.095 85.044L588.951 84.7529L624.259 45.8925C624.208 45.7666 624.147 45.6449 624.077 45.5287V45.5469ZM618.617 39.4704H618.526L584.51 86.0992L585.274 85.8627L618.799 39.6523L618.617 39.4704ZM617.907 38.779L617.743 38.5971L574.555 89.3921L575.465 89.101L618.053 38.9792L617.907 38.779ZM611.519 33.1574L572.644 90.0107L573.481 89.756L611.846 33.4849L611.519 33.1574ZM610.663 32.5206L569.04 82.4606V83.2065L610.9 32.9027C610.805 32.7639 610.695 32.6358 610.572 32.5206H610.663ZM598.56 35.2496L569.058 80.2046V81.0597L599.216 34.9039L598.56 35.2496ZM595.576 36.6687L569.204 71.2355V71.8904L596.504 36.1956L595.576 36.6687ZM581.252 46.0745L569.149 67.1784V67.9061L582.071 45.2922C581.783 45.5366 581.51 45.7978 581.252 46.0745ZM569.204 59.0643V59.5191L571.861 55.5894C570.933 56.6446 570.041 57.809 569.204 58.9915V59.0643Z" fill="#263238"/>
<path d="M636.309 113.898C636.289 114.024 636.252 114.146 636.199 114.262C635.653 116.081 635.016 117.646 634.379 119.302C634.052 120.084 633.724 120.866 633.378 121.63C632.297 124.031 631.082 126.37 629.738 128.635C629.465 129.108 629.192 129.581 628.901 130.035C627.755 131.855 626.535 133.674 625.261 135.493C625.043 135.803 624.824 136.094 624.588 136.367V136.476C622.591 139.008 620.42 141.397 618.09 143.626L617.945 143.735L617.162 144.463C617.162 144.463 617.071 144.554 617.017 144.572C614.978 146.439 612.82 148.171 610.556 149.757H610.446C610.446 149.757 610.446 149.757 610.355 149.757C610.028 150.011 609.682 150.248 609.336 150.484L609.136 150.612C606.915 152.118 604.599 153.479 602.202 154.687C602.123 154.74 602.037 154.783 601.947 154.814C601.762 154.929 601.567 155.027 601.365 155.105H601.237C598.061 156.671 594.776 158.009 591.409 159.108L591.063 159.217H590.954H590.736C589.735 159.526 588.716 159.836 587.733 160.09C585.577 158.652 583.511 157.084 581.545 155.397L581.144 155.051C580.966 154.915 580.796 154.769 580.635 154.614L580.18 154.214C577.491 151.82 574.99 149.223 572.7 146.446L572.226 145.863L570.516 143.68C570.334 143.407 570.152 143.171 569.97 142.916C569.405 142.152 568.841 141.37 568.332 140.569C566.829 138.335 565.45 136.022 564.2 133.638C564.055 133.347 563.891 133.055 563.745 132.728C562.804 130.908 561.966 129.038 561.234 127.125C561.033 126.688 560.87 126.251 560.706 125.796C559.245 121.948 558.125 117.979 557.357 113.935C557.248 113.352 557.157 112.788 557.066 112.224C556.11 106.454 555.872 100.588 556.356 94.7591L558.54 94.0496H558.704L559.159 93.904H559.304L559.741 93.7767L565.092 91.9574L565.62 91.7936L566.22 91.5935L566.712 91.448L568.059 91.0113L568.768 90.7748L569.369 90.5929L573.883 92.1029L574.338 92.2667L574.793 92.4304L579.852 94.1405L580.253 94.2679L580.708 94.3952L581.108 94.5408L586.222 96.3601L586.532 96.4692L587.314 96.7239L587.66 96.8331L595.195 99.3983L595.468 99.4893L596.323 99.7622H596.578L603.967 102.236H604.149L605.259 102.619H605.441L612.976 106.112H613.122L614.469 106.566H614.596L619.219 108.131L620.438 108.549H620.547L624.915 110.023L627.209 110.787L631.577 112.261L635.635 113.625L636.309 113.898Z" fill="#E51D1B"/>
<path opacity="0.1" d="M635.835 113.753C635.975 113.915 636.097 114.092 636.199 114.28C636.087 114.098 635.966 113.922 635.835 113.753ZM620.565 108.604H620.456L628.755 130.308L620.565 108.604ZM619.237 108.149H619.146L625.006 135.766L619.237 108.149ZM609.9 120.411L605.532 105.038L605.059 103.364H604.877L605.368 105.184L609.755 120.557L616.707 144.954C616.707 144.954 616.798 144.954 616.853 144.845L609.9 120.411ZM603.749 102.928H603.567L610.028 150.23C610.028 150.23 610.028 150.23 610.119 150.23H610.228L603.749 102.928ZM614.669 106.566H614.541L624.333 136.767V136.658L614.669 106.566ZM613.194 106.057H613.049L617.69 144.026L617.835 143.917L613.194 106.057ZM596.25 100.363H595.995L608.881 151.103L609.081 150.976L596.25 100.363ZM595.14 99.9987L594.867 99.9077L601.692 155.215C601.782 155.183 601.868 155.14 601.947 155.087L595.14 99.9987ZM587.332 97.3425L586.986 97.2333L600.855 155.633H600.982L587.332 97.3425ZM590.972 159.654L590.736 156.761L590.008 147.282L588.552 128.362L586.131 97.015L585.822 96.9059L588.206 128.416L589.644 147.337L590.39 156.816L590.608 159.799L590.972 159.654ZM580.707 95.1957L580.307 95.0502L590.244 159.945H590.463H590.572L580.707 95.1957ZM579.852 94.9228L579.452 94.7955L580.653 155.779L581.053 156.124L579.852 94.9228ZM574.392 93.1035L573.937 92.9398L579.688 154.96L580.143 155.36L574.392 93.1035ZM566.22 92.1575L565.729 92.303L569.478 143.662C569.66 143.917 569.842 144.153 570.024 144.426L566.22 92.1575ZM573.027 92.6487L571.735 146.609L572.208 147.191L573.482 92.776L573.027 92.6487ZM558.176 94.7409H558.048L557.794 94.85L556.574 112.916C556.665 113.48 556.756 114.044 556.865 114.626L558.212 94.6135L558.176 94.7409ZM559.25 94.4134L558.813 94.5408L560.214 126.524C560.378 126.979 560.542 127.416 560.742 127.852L559.25 94.4134ZM564.6 92.5941L563.254 133.401C563.399 133.729 563.563 134.02 563.709 134.311L565.128 92.4667L564.6 92.5941ZM558.176 94.6681H558.048L557.794 94.7773L556.574 112.843C556.665 113.407 556.756 113.971 556.865 114.553L558.212 94.5408L558.176 94.6681ZM558.176 94.6681H558.048L557.794 94.7773L556.574 112.843C556.665 113.407 556.756 113.971 556.865 114.553L558.212 94.5408L558.176 94.6681Z" fill="black"/>
<path d="M569.115 59.1187V59.0095V59.5371V66.6142V68.8702V74.4736V76.8023V84.0796V85.6624V91.1203L568.514 91.3022L567.804 91.5387L566.457 91.9754L565.966 92.1209L565.365 92.321L564.838 92.4848L558.904 94.3041L558.449 94.4496H558.286L556.102 95.1591C556.102 94.6861 556.102 94.2131 556.229 93.7401C556.222 93.6371 556.222 93.5338 556.229 93.4308C556.375 91.8844 556.575 90.3744 556.848 88.8279V88.4641C556.939 87.9365 557.03 87.4271 557.139 86.8995C557.139 86.7721 557.139 86.6448 557.23 86.4992C557.521 85.0438 557.849 83.6065 558.249 82.1875C558.268 82.0322 558.305 81.8797 558.358 81.7326C558.522 81.1323 558.704 80.5319 558.886 79.9133C558.886 79.786 558.886 79.6405 559.014 79.4767C559.596 77.6574 560.251 75.7289 560.997 73.9096C560.997 73.7641 561.107 73.6004 561.161 73.4366C561.434 72.8181 561.689 72.1995 561.962 71.6173C562.019 71.4472 562.093 71.2827 562.18 71.1261C562.836 69.6888 563.509 68.2698 564.273 66.8871C564.328 66.7388 564.401 66.5981 564.492 66.4687C564.747 65.9593 565.038 65.4499 565.311 64.9586C565.379 64.8307 565.458 64.709 565.547 64.5948C566.603 62.7755 567.768 60.9562 569.005 59.1369C569.042 59.1297 569.078 59.1236 569.115 59.1187Z" fill="#455A64"/>
<path d="M558.231 81.9693C558.177 82.1163 558.141 82.2689 558.121 82.4242L569.041 85.6625V85.1713L558.231 81.9693ZM557.102 86.7359C557.102 86.8814 557.102 87.0088 557.011 87.1361L568.313 91.4115L568.914 91.2296L557.102 86.7359ZM556.72 88.7371V89.101L567.64 91.6662L568.35 91.4297L556.72 88.7371ZM556.047 93.7038C556.039 93.8068 556.039 93.9102 556.047 94.0131L558.176 94.7045L558.631 94.5407L556.047 93.7038ZM565.42 64.8315C565.33 64.9456 565.251 65.0674 565.183 65.1953L569.132 67.0146V66.5234L565.42 64.8315ZM569.06 59.1188C568.97 59.2132 568.891 59.3169 568.823 59.4281L569.132 59.5373V59.137L569.06 59.1188ZM561.998 71.3628C561.91 71.5194 561.837 71.6838 561.78 71.854L569.06 75.056V74.4738L561.998 71.3628ZM564.309 66.7053C564.219 66.8347 564.145 66.9754 564.091 67.1238L569.06 68.9431V68.4519L564.309 66.7053ZM558.849 79.7316C558.849 79.8953 558.758 80.0409 558.722 80.1682L568.969 84.5891V84.0797L558.849 79.7316ZM560.997 73.6915C560.997 73.8552 560.87 74.019 560.833 74.1645L569.023 76.8025V76.2567L560.997 73.6915Z" fill="#37474F"/>
<path d="M646.797 216.679L675.84 197.113L679.663 202.783L668.676 210.184L683.706 232.478L676.636 237.241L661.606 214.947L650.619 222.348L646.797 216.679ZM669.683 187.98L673.505 193.65L644.462 213.215L640.64 207.546L669.683 187.98Z" fill="#DBDBDB"/>
</g>
<defs>
<clipPath id="clip0_7_12381">
<rect width="910" height="736" fill="white"/>
</clipPath>
</defs>
</svg>
