<svg width="64" height="64" viewBox="0 0 64 64" fill="none" xmlns="http://www.w3.org/2000/svg">
<path d="M58.104 3.94665L59.6773 5.51999C61.8453 7.69065 61.5173 11.5387 58.9387 14.1147L26.4934 46.56L15.9814 50.4053C14.6614 50.8907 13.376 50.2613 13.1147 49.0053C13.0264 48.5497 13.0679 48.0784 13.2347 47.6453L17.1547 37.0427L49.5093 4.68532C52.088 2.10932 55.936 1.77599 58.104 3.94665ZM25.0774 7.17332C25.4275 7.17332 25.7743 7.24229 26.0978 7.37631C26.4214 7.51032 26.7153 7.70675 26.963 7.95437C27.2106 8.20199 27.407 8.49596 27.541 8.8195C27.675 9.14303 27.744 9.48979 27.744 9.83999C27.744 10.1902 27.675 10.5369 27.541 10.8605C27.407 11.184 27.2106 11.478 26.963 11.7256C26.7153 11.9732 26.4214 12.1697 26.0978 12.3037C25.7743 12.4377 25.4275 12.5067 25.0774 12.5067H14.4107C12.9962 12.5067 11.6396 13.0686 10.6394 14.0688C9.63925 15.0689 9.07735 16.4255 9.07735 17.84V49.84C9.07735 51.2545 9.63925 52.611 10.6394 53.6112C11.6396 54.6114 12.9962 55.1733 14.4107 55.1733H46.4107C47.8252 55.1733 49.1817 54.6114 50.1819 53.6112C51.1821 52.611 51.744 51.2545 51.744 49.84V39.1733C51.744 38.4661 52.025 37.7878 52.5251 37.2877C53.0252 36.7876 53.7034 36.5067 54.4107 36.5067C55.1179 36.5067 55.7962 36.7876 56.2963 37.2877C56.7964 37.7878 57.0773 38.4661 57.0773 39.1733V49.84C57.0773 52.669 55.9535 55.3821 53.9532 57.3825C51.9528 59.3828 49.2397 60.5067 46.4107 60.5067H14.4107C11.5817 60.5067 8.8686 59.3828 6.86821 57.3825C4.86782 55.3821 3.74402 52.669 3.74402 49.84V17.84C3.74402 15.011 4.86782 12.2979 6.86821 10.2975C8.8686 8.29713 11.5817 7.17332 14.4107 7.17332H25.0774Z" fill="#E51D1B"/>
</svg>
