<svg width="630" height="729" viewBox="0 0 630 729" fill="none" xmlns="http://www.w3.org/2000/svg">
<g clip-path="url(#clip0_7_13307)">
<path d="M462.937 152.053H390.312V532.788H462.937V152.053Z" fill="#DBDBDB"/>
<path d="M415.716 164.423H401.592V178.955H415.716V164.423Z" fill="#EBEBEB"/>
<path d="M433.775 164.422H419.651V178.955H433.775V164.422Z" fill="#EBEBEB"/>
<path d="M415.716 189.105H401.592V203.638H415.716V189.105Z" fill="#EBEBEB"/>
<path d="M433.775 189.104H419.651V203.637H433.775V189.104Z" fill="#EBEBEB"/>
<path d="M415.716 213.788H401.592V228.321H415.716V213.788Z" fill="#EBEBEB"/>
<path d="M433.775 213.788H419.651V228.32H433.775V213.788Z" fill="#EBEBEB"/>
<path d="M415.716 238.47H401.592V253.003H415.716V238.47Z" fill="#EBEBEB"/>
<path d="M433.775 238.47H419.651V253.003H433.775V238.47Z" fill="#EBEBEB"/>
<path d="M415.716 263.152H401.592V277.685H415.716V263.152Z" fill="#EBEBEB"/>
<path d="M433.775 263.152H419.651V277.685H433.775V263.152Z" fill="#EBEBEB"/>
<path d="M415.716 287.834H401.592V302.367H415.716V287.834Z" fill="#EBEBEB"/>
<path d="M433.775 287.834H419.651V302.367H433.775V287.834Z" fill="#EBEBEB"/>
<path d="M415.716 312.517H401.592V327.049H415.716V312.517Z" fill="#EBEBEB"/>
<path d="M433.775 312.517H419.651V327.049H433.775V312.517Z" fill="#EBEBEB"/>
<path d="M415.716 337.199H401.592V351.731H415.716V337.199Z" fill="#EBEBEB"/>
<path d="M433.775 337.199H419.651V351.731H433.775V337.199Z" fill="#EBEBEB"/>
<path d="M415.716 361.882H401.592V376.415H415.716V361.882Z" fill="#EBEBEB"/>
<path d="M433.775 361.882H419.651V376.415H433.775V361.882Z" fill="#EBEBEB"/>
<path d="M415.716 386.564H401.592V401.097H415.716V386.564Z" fill="#EBEBEB"/>
<path d="M433.775 386.564H419.651V401.097H433.775V386.564Z" fill="#EBEBEB"/>
<path d="M415.716 411.246H401.592V425.779H415.716V411.246Z" fill="#EBEBEB"/>
<path d="M433.775 411.246H419.651V425.779H433.775V411.246Z" fill="#EBEBEB"/>
<path d="M415.716 435.928H401.592V450.461H415.716V435.928Z" fill="#EBEBEB"/>
<path d="M433.775 435.928H419.651V450.461H433.775V435.928Z" fill="#EBEBEB"/>
<path d="M415.716 460.611H401.592V475.143H415.716V460.611Z" fill="#EBEBEB"/>
<path d="M433.775 460.61H419.651V475.143H433.775V460.61Z" fill="#EBEBEB"/>
<path d="M415.716 485.293H401.592V499.826H415.716V485.293Z" fill="#EBEBEB"/>
<path d="M437.535 499.806H451.658V485.274H437.535V499.806Z" fill="#EBEBEB"/>
<path d="M437.535 475.124H451.658V460.592H437.535V475.124Z" fill="#EBEBEB"/>
<path d="M437.535 450.442H451.658V435.909H437.535V450.442Z" fill="#EBEBEB"/>
<path d="M437.535 425.779H451.658V411.246H437.535V425.779Z" fill="#EBEBEB"/>
<path d="M437.535 401.097H451.658V386.564H437.535V401.097Z" fill="#EBEBEB"/>
<path d="M437.535 376.415H451.658V361.882H437.535V376.415Z" fill="#EBEBEB"/>
<path d="M437.535 351.731H451.658V337.199H437.535V351.731Z" fill="#EBEBEB"/>
<path d="M437.535 327.049H451.658V312.517H437.535V327.049Z" fill="#EBEBEB"/>
<path d="M437.535 302.367H451.658V287.834H437.535V302.367Z" fill="#EBEBEB"/>
<path d="M437.535 277.685H451.658V263.152H437.535V277.685Z" fill="#EBEBEB"/>
<path d="M437.535 253.003H451.658V238.47H437.535V253.003Z" fill="#EBEBEB"/>
<path d="M437.535 228.321H451.658V213.788H437.535V228.321Z" fill="#EBEBEB"/>
<path d="M437.535 203.638H451.658V189.106H437.535V203.638Z" fill="#EBEBEB"/>
<path d="M437.535 178.955H451.658V164.423H437.535V178.955Z" fill="#EBEBEB"/>
<path d="M433.775 485.292H419.651V499.825H433.775V485.292Z" fill="#EBEBEB"/>
<path d="M520.211 152.053H462.938V532.788H520.211V152.053Z" fill="#A6A6A6"/>
<path d="M502.641 499.806H514.31V485.273H502.641V499.806Z" fill="#C7C7C7"/>
<path d="M487.737 499.806H499.387V485.274H487.737V499.806Z" fill="#C7C7C7"/>
<path d="M502.641 475.124H514.31V460.591H502.641V475.124Z" fill="#C7C7C7"/>
<path d="M487.737 475.124H499.387V460.592H487.737V475.124Z" fill="#C7C7C7"/>
<path d="M502.641 450.442H514.31V435.909H502.641V450.442Z" fill="#C7C7C7"/>
<path d="M487.737 450.442H499.387V435.909H487.737V450.442Z" fill="#C7C7C7"/>
<path d="M502.641 425.779H514.31V411.246H502.641V425.779Z" fill="#C7C7C7"/>
<path d="M487.737 425.779H499.387V411.246H487.737V425.779Z" fill="#C7C7C7"/>
<path d="M502.641 401.097H514.31V386.564H502.641V401.097Z" fill="#C7C7C7"/>
<path d="M487.737 401.097H499.387V386.564H487.737V401.097Z" fill="#C7C7C7"/>
<path d="M502.641 376.415H514.31V361.882H502.641V376.415Z" fill="#C7C7C7"/>
<path d="M487.737 376.415H499.387V361.882H487.737V376.415Z" fill="#C7C7C7"/>
<path d="M502.641 351.731H514.31V337.199H502.641V351.731Z" fill="#C7C7C7"/>
<path d="M487.737 351.731H499.387V337.199H487.737V351.731Z" fill="#C7C7C7"/>
<path d="M502.641 327.049H514.31V312.517H502.641V327.049Z" fill="#C7C7C7"/>
<path d="M487.737 327.049H499.387V312.517H487.737V327.049Z" fill="#C7C7C7"/>
<path d="M502.641 302.367H514.31V287.834H502.641V302.367Z" fill="#C7C7C7"/>
<path d="M487.737 302.367H499.387V287.834H487.737V302.367Z" fill="#C7C7C7"/>
<path d="M502.641 277.685H514.31V263.152H502.641V277.685Z" fill="#C7C7C7"/>
<path d="M487.737 277.685H499.387V263.152H487.737V277.685Z" fill="#C7C7C7"/>
<path d="M502.641 253.003H514.31V238.47H502.641V253.003Z" fill="#C7C7C7"/>
<path d="M487.737 253.003H499.387V238.47H487.737V253.003Z" fill="#C7C7C7"/>
<path d="M502.641 228.32H514.31V213.788H502.641V228.32Z" fill="#C7C7C7"/>
<path d="M487.737 228.321H499.387V213.788H487.737V228.321Z" fill="#C7C7C7"/>
<path d="M502.641 203.638H514.31V189.105H502.641V203.638Z" fill="#C7C7C7"/>
<path d="M487.737 203.638H499.387V189.106H487.737V203.638Z" fill="#C7C7C7"/>
<path d="M502.641 178.955H514.31V164.422H502.641V178.955Z" fill="#C7C7C7"/>
<path d="M484.6 164.423H472.95V178.955H484.6V164.423Z" fill="#C7C7C7"/>
<path d="M484.6 189.105H472.95V203.638H484.6V189.105Z" fill="#C7C7C7"/>
<path d="M484.6 213.788H472.95V228.321H484.6V213.788Z" fill="#C7C7C7"/>
<path d="M484.6 238.47H472.95V253.003H484.6V238.47Z" fill="#C7C7C7"/>
<path d="M484.6 263.152H472.95V277.685H484.6V263.152Z" fill="#C7C7C7"/>
<path d="M484.6 287.834H472.95V302.367H484.6V287.834Z" fill="#C7C7C7"/>
<path d="M484.6 312.517H472.95V327.049H484.6V312.517Z" fill="#C7C7C7"/>
<path d="M484.6 337.199H472.95V351.731H484.6V337.199Z" fill="#C7C7C7"/>
<path d="M484.6 361.882H472.95V376.415H484.6V361.882Z" fill="#C7C7C7"/>
<path d="M484.6 386.564H472.95V401.097H484.6V386.564Z" fill="#C7C7C7"/>
<path d="M484.6 411.246H472.95V425.779H484.6V411.246Z" fill="#C7C7C7"/>
<path d="M484.6 435.928H472.95V450.461H484.6V435.928Z" fill="#C7C7C7"/>
<path d="M484.6 460.611H472.95V475.143H484.6V460.611Z" fill="#C7C7C7"/>
<path d="M484.6 485.293H472.95V499.826H484.6V485.293Z" fill="#C7C7C7"/>
<path d="M487.737 178.955H499.387V164.423H487.737V178.955Z" fill="#C7C7C7"/>
<path d="M201.795 143.753H126.034V532.787H201.795V143.753Z" fill="#EBEBEB"/>
<path d="M201.815 136H124.223V143.753H201.815V136Z" fill="#C7C7C7"/>
<path d="M140.568 155.169H132.893V532.787H140.568V155.169Z" fill="white"/>
<path d="M154.165 155.169H146.489V532.787H154.165V155.169Z" fill="white"/>
<path d="M167.763 155.169H160.088V532.787H167.763V155.169Z" fill="white"/>
<path d="M181.36 155.169H173.685V532.787H181.36V155.169Z" fill="white"/>
<path d="M194.959 155.169H187.283V532.787H194.959V155.169Z" fill="white"/>
<path d="M140.568 164.949H132.893V180.241H140.568V164.949Z" fill="#EBEBEB"/>
<path d="M154.165 164.949H146.489V180.241H154.165V164.949Z" fill="#EBEBEB"/>
<path d="M167.763 164.949H160.088V180.241H167.763V164.949Z" fill="#EBEBEB"/>
<path d="M181.36 164.949H173.685V180.241H181.36V164.949Z" fill="#EBEBEB"/>
<path d="M194.959 164.949H187.283V180.241H194.959V164.949Z" fill="#EBEBEB"/>
<path d="M140.568 189.807H132.893V205.099H140.568V189.807Z" fill="#EBEBEB"/>
<path d="M154.165 189.807H146.489V205.099H154.165V189.807Z" fill="#EBEBEB"/>
<path d="M167.763 189.807H160.088V205.099H167.763V189.807Z" fill="#EBEBEB"/>
<path d="M181.36 189.807H173.685V205.099H181.36V189.807Z" fill="#EBEBEB"/>
<path d="M194.959 189.807H187.283V205.099H194.959V189.807Z" fill="#EBEBEB"/>
<path d="M140.568 214.664H132.893V229.957H140.568V214.664Z" fill="#EBEBEB"/>
<path d="M154.165 214.664H146.489V229.957H154.165V214.664Z" fill="#EBEBEB"/>
<path d="M167.763 214.664H160.088V229.957H167.763V214.664Z" fill="#EBEBEB"/>
<path d="M181.36 214.664H173.685V229.957H181.36V214.664Z" fill="#EBEBEB"/>
<path d="M194.959 214.664H187.283V229.957H194.959V214.664Z" fill="#EBEBEB"/>
<path d="M140.568 239.522H132.893V254.814H140.568V239.522Z" fill="#EBEBEB"/>
<path d="M154.165 239.522H146.489V254.814H154.165V239.522Z" fill="#EBEBEB"/>
<path d="M167.763 239.522H160.088V254.814H167.763V239.522Z" fill="#EBEBEB"/>
<path d="M181.36 239.522H173.685V254.814H181.36V239.522Z" fill="#EBEBEB"/>
<path d="M194.959 239.522H187.283V254.814H194.959V239.522Z" fill="#EBEBEB"/>
<path d="M140.568 264.379H132.893V279.672H140.568V264.379Z" fill="#EBEBEB"/>
<path d="M154.165 264.379H146.489V279.672H154.165V264.379Z" fill="#EBEBEB"/>
<path d="M167.763 264.379H160.088V279.672H167.763V264.379Z" fill="#EBEBEB"/>
<path d="M181.36 264.379H173.685V279.672H181.36V264.379Z" fill="#EBEBEB"/>
<path d="M194.959 264.379H187.283V279.672H194.959V264.379Z" fill="#EBEBEB"/>
<path d="M140.568 289.217H132.893V304.51H140.568V289.217Z" fill="#EBEBEB"/>
<path d="M154.165 289.217H146.489V304.51H154.165V289.217Z" fill="#EBEBEB"/>
<path d="M167.763 289.217H160.088V304.51H167.763V289.217Z" fill="#EBEBEB"/>
<path d="M181.36 289.217H173.685V304.51H181.36V289.217Z" fill="#EBEBEB"/>
<path d="M194.959 289.217H187.283V304.51H194.959V289.217Z" fill="#EBEBEB"/>
<path d="M140.568 314.076H132.893V329.368H140.568V314.076Z" fill="#EBEBEB"/>
<path d="M154.165 314.076H146.489V329.368H154.165V314.076Z" fill="#EBEBEB"/>
<path d="M167.763 314.076H160.088V329.368H167.763V314.076Z" fill="#EBEBEB"/>
<path d="M181.36 314.076H173.685V329.368H181.36V314.076Z" fill="#EBEBEB"/>
<path d="M194.959 314.076H187.283V329.368H194.959V314.076Z" fill="#EBEBEB"/>
<path d="M140.568 338.933H132.893V354.225H140.568V338.933Z" fill="#EBEBEB"/>
<path d="M154.165 338.933H146.489V354.225H154.165V338.933Z" fill="#EBEBEB"/>
<path d="M167.763 338.933H160.088V354.225H167.763V338.933Z" fill="#EBEBEB"/>
<path d="M181.36 338.933H173.685V354.225H181.36V338.933Z" fill="#EBEBEB"/>
<path d="M194.959 338.933H187.283V354.225H194.959V338.933Z" fill="#EBEBEB"/>
<path d="M140.568 363.791H132.893V379.084H140.568V363.791Z" fill="#EBEBEB"/>
<path d="M154.165 363.791H146.489V379.084H154.165V363.791Z" fill="#EBEBEB"/>
<path d="M167.763 363.791H160.088V379.084H167.763V363.791Z" fill="#EBEBEB"/>
<path d="M181.36 363.791H173.685V379.084H181.36V363.791Z" fill="#EBEBEB"/>
<path d="M194.959 363.791H187.283V379.084H194.959V363.791Z" fill="#EBEBEB"/>
<path d="M140.568 388.648H132.893V403.94H140.568V388.648Z" fill="#EBEBEB"/>
<path d="M154.165 388.648H146.489V403.94H154.165V388.648Z" fill="#EBEBEB"/>
<path d="M167.763 388.648H160.088V403.94H167.763V388.648Z" fill="#EBEBEB"/>
<path d="M181.36 388.648H173.685V403.94H181.36V388.648Z" fill="#EBEBEB"/>
<path d="M194.959 388.648H187.283V403.94H194.959V388.648Z" fill="#EBEBEB"/>
<path d="M140.568 413.506H132.893V428.799H140.568V413.506Z" fill="#EBEBEB"/>
<path d="M154.165 413.506H146.489V428.799H154.165V413.506Z" fill="#EBEBEB"/>
<path d="M167.763 413.506H160.088V428.799H167.763V413.506Z" fill="#EBEBEB"/>
<path d="M181.36 413.506H173.685V428.799H181.36V413.506Z" fill="#EBEBEB"/>
<path d="M194.959 413.506H187.283V428.799H194.959V413.506Z" fill="#EBEBEB"/>
<path d="M140.568 438.344H132.893V453.637H140.568V438.344Z" fill="#EBEBEB"/>
<path d="M154.165 438.344H146.489V453.637H154.165V438.344Z" fill="#EBEBEB"/>
<path d="M167.763 438.344H160.088V453.637H167.763V438.344Z" fill="#EBEBEB"/>
<path d="M181.36 438.344H173.685V453.637H181.36V438.344Z" fill="#EBEBEB"/>
<path d="M194.959 438.344H187.283V453.637H194.959V438.344Z" fill="#EBEBEB"/>
<path d="M140.568 463.202H132.893V478.494H140.568V463.202Z" fill="#EBEBEB"/>
<path d="M154.165 463.202H146.489V478.494H154.165V463.202Z" fill="#EBEBEB"/>
<path d="M167.763 463.202H160.088V478.494H167.763V463.202Z" fill="#EBEBEB"/>
<path d="M181.36 463.202H173.685V478.494H181.36V463.202Z" fill="#EBEBEB"/>
<path d="M194.959 463.202H187.283V478.494H194.959V463.202Z" fill="#EBEBEB"/>
<path d="M140.568 488.06H132.893V532.788H140.568V488.06Z" fill="#EBEBEB"/>
<path d="M154.165 488.06H146.489V532.788H154.165V488.06Z" fill="#EBEBEB"/>
<path d="M167.763 488.06H160.088V532.788H167.763V488.06Z" fill="#EBEBEB"/>
<path d="M181.36 488.06H173.685V532.788H181.36V488.06Z" fill="#EBEBEB"/>
<path d="M194.959 488.06H187.283V532.788H194.959V488.06Z" fill="#EBEBEB"/>
<path d="M250.459 143.753H201.816V532.787H250.459V143.753Z" fill="#DBDBDB"/>
<path d="M252.563 136H201.816V143.754H252.563V136Z" fill="#C7C7C7"/>
<path d="M216.329 155.169H208.653V532.787H216.329V155.169Z" fill="#C7C7C7"/>
<path d="M229.927 155.169H222.252V532.787H229.927V155.169Z" fill="#C7C7C7"/>
<path d="M243.524 155.169H235.849V532.787H243.524V155.169Z" fill="#C7C7C7"/>
<path d="M216.329 164.949H208.653V180.241H216.329V164.949Z" fill="#DBDBDB"/>
<path d="M229.927 164.949H222.252V180.241H229.927V164.949Z" fill="#DBDBDB"/>
<path d="M243.524 164.949H235.849V180.241H243.524V164.949Z" fill="#DBDBDB"/>
<path d="M216.329 189.807H208.653V205.099H216.329V189.807Z" fill="#DBDBDB"/>
<path d="M229.927 189.807H222.252V205.099H229.927V189.807Z" fill="#DBDBDB"/>
<path d="M243.524 189.807H235.849V205.099H243.524V189.807Z" fill="#DBDBDB"/>
<path d="M216.329 214.664H208.653V229.957H216.329V214.664Z" fill="#DBDBDB"/>
<path d="M229.927 214.664H222.252V229.957H229.927V214.664Z" fill="#DBDBDB"/>
<path d="M243.524 214.664H235.849V229.957H243.524V214.664Z" fill="#DBDBDB"/>
<path d="M216.329 239.522H208.653V254.814H216.329V239.522Z" fill="#DBDBDB"/>
<path d="M229.927 239.522H222.252V254.814H229.927V239.522Z" fill="#DBDBDB"/>
<path d="M243.524 239.522H235.849V254.814H243.524V239.522Z" fill="#DBDBDB"/>
<path d="M216.329 264.379H208.653V279.672H216.329V264.379Z" fill="#DBDBDB"/>
<path d="M229.927 264.379H222.252V279.672H229.927V264.379Z" fill="#DBDBDB"/>
<path d="M243.524 264.379H235.849V279.672H243.524V264.379Z" fill="#DBDBDB"/>
<path d="M216.329 289.217H208.653V304.51H216.329V289.217Z" fill="#DBDBDB"/>
<path d="M229.927 289.217H222.252V304.51H229.927V289.217Z" fill="#DBDBDB"/>
<path d="M243.524 289.217H235.849V304.51H243.524V289.217Z" fill="#DBDBDB"/>
<path d="M216.329 314.076H208.653V329.368H216.329V314.076Z" fill="#DBDBDB"/>
<path d="M229.927 314.076H222.252V329.368H229.927V314.076Z" fill="#DBDBDB"/>
<path d="M243.524 314.076H235.849V329.368H243.524V314.076Z" fill="#DBDBDB"/>
<path d="M216.329 338.933H208.653V354.225H216.329V338.933Z" fill="#DBDBDB"/>
<path d="M229.927 338.933H222.252V354.225H229.927V338.933Z" fill="#DBDBDB"/>
<path d="M243.524 338.933H235.849V354.225H243.524V338.933Z" fill="#DBDBDB"/>
<path d="M216.329 363.791H208.653V379.084H216.329V363.791Z" fill="#DBDBDB"/>
<path d="M229.927 363.791H222.252V379.084H229.927V363.791Z" fill="#DBDBDB"/>
<path d="M243.524 363.791H235.849V379.084H243.524V363.791Z" fill="#DBDBDB"/>
<path d="M216.329 388.648H208.653V403.94H216.329V388.648Z" fill="#DBDBDB"/>
<path d="M229.927 388.648H222.252V403.94H229.927V388.648Z" fill="#DBDBDB"/>
<path d="M243.524 388.648H235.849V403.94H243.524V388.648Z" fill="#DBDBDB"/>
<path d="M216.329 413.506H208.653V428.799H216.329V413.506Z" fill="#DBDBDB"/>
<path d="M229.927 413.506H222.252V428.799H229.927V413.506Z" fill="#DBDBDB"/>
<path d="M243.524 413.506H235.849V428.799H243.524V413.506Z" fill="#DBDBDB"/>
<path d="M216.329 438.344H208.653V453.637H216.329V438.344Z" fill="#DBDBDB"/>
<path d="M229.927 438.344H222.252V453.637H229.927V438.344Z" fill="#DBDBDB"/>
<path d="M243.524 438.344H235.849V453.637H243.524V438.344Z" fill="#DBDBDB"/>
<path d="M216.329 463.202H208.653V478.494H216.329V463.202Z" fill="#DBDBDB"/>
<path d="M229.927 463.202H222.252V478.494H229.927V463.202Z" fill="#DBDBDB"/>
<path d="M243.524 463.202H235.849V478.494H243.524V463.202Z" fill="#DBDBDB"/>
<path d="M216.329 488.06H208.653V532.788H216.329V488.06Z" fill="#DBDBDB"/>
<path d="M229.927 488.06H222.252V532.788H229.927V488.06Z" fill="#DBDBDB"/>
<path d="M243.524 488.06H235.849V532.788H243.524V488.06Z" fill="#DBDBDB"/>
<path d="M91.8651 260.269H20V532.788H91.8651V260.269Z" fill="#EBEBEB"/>
<path d="M91.8651 242.19H30.2275V260.268H91.8651V242.19Z" fill="#C7C7C7"/>
<path d="M83.9752 269.697H27.8701V473.429H83.9752V269.697Z" fill="#DBDBDB"/>
<path d="M83.9752 289.14H27.8701V293.951H83.9752V289.14Z" fill="white"/>
<path d="M83.9752 309.088H27.8701V313.9H83.9752V309.088Z" fill="white"/>
<path d="M83.9752 329.017H27.8701V333.829H83.9752V329.017Z" fill="white"/>
<path d="M83.9752 348.965H27.8701V353.777H83.9752V348.965Z" fill="white"/>
<path d="M83.9752 368.914H27.8701V373.726H83.9752V368.914Z" fill="white"/>
<path d="M83.9752 388.843H27.8701V393.655H83.9752V388.843Z" fill="white"/>
<path d="M83.9752 408.791H27.8701V413.603H83.9752V408.791Z" fill="white"/>
<path d="M83.9752 428.74H27.8701V433.552H83.9752V428.74Z" fill="white"/>
<path d="M83.9752 448.669H27.8701V453.481H83.9752V448.669Z" fill="white"/>
<path d="M83.9752 468.618H27.8701V473.429H83.9752V468.618Z" fill="white"/>
<path d="M136.865 260.269H91.8644V532.788H136.865V260.269Z" fill="#DBDBDB"/>
<path d="M130.125 242.19H91.8644V260.268H130.125V242.19Z" fill="#A6A6A6"/>
<path d="M132.659 269.698H98.0607V473.429H132.659V269.698Z" fill="#C7C7C7"/>
<path d="M132.659 289.14H98.0605V293.951H132.659V289.14Z" fill="white"/>
<path d="M132.659 309.088H98.0607V313.9H132.659V309.088Z" fill="white"/>
<path d="M132.659 329.017H98.0607V333.829H132.659V329.017Z" fill="white"/>
<path d="M132.659 348.965H98.0607V353.777H132.659V348.965Z" fill="white"/>
<path d="M132.659 368.914H98.0607V373.726H132.659V368.914Z" fill="white"/>
<path d="M132.659 388.843H98.0607V393.655H132.659V388.843Z" fill="white"/>
<path d="M132.659 408.791H98.0607V413.603H132.659V408.791Z" fill="white"/>
<path d="M132.659 428.74H98.0605V433.552H132.659V428.74Z" fill="white"/>
<path d="M132.659 448.669H98.0607V453.481H132.659V448.669Z" fill="white"/>
<path d="M132.659 468.618H98.0607V473.43H132.659V468.618Z" fill="white"/>
<path d="M285.545 264.866H247.168V310.198H285.545V264.866Z" fill="#DBDBDB"/>
<path d="M309.876 264.866H285.544V311.874H309.876V264.866Z" fill="#C7C7C7"/>
<path d="M311.513 284.873H287.357V311.854H311.513V284.873Z" fill="#DBDBDB"/>
<path d="M326.552 284.873H311.493V311.854H326.552V284.873Z" fill="#C7C7C7"/>
<path d="M294.506 307.257H232.439V532.807H294.506V307.257Z" fill="#EBEBEB"/>
<path d="M259.051 316.938H239.531V324.906H259.051V316.938Z" fill="white"/>
<path d="M284.025 316.938H264.505V324.906H284.025V316.938Z" fill="white"/>
<path d="M259.051 330.478H239.531V338.446H259.051V330.478Z" fill="white"/>
<path d="M284.025 330.479H264.505V338.446H284.025V330.479Z" fill="white"/>
<path d="M259.051 344.017H239.531V351.985H259.051V344.017Z" fill="white"/>
<path d="M284.025 344.017H264.505V351.985H284.025V344.017Z" fill="white"/>
<path d="M259.051 357.557H239.531V365.524H259.051V357.557Z" fill="white"/>
<path d="M284.025 357.557H264.505V365.524H284.025V357.557Z" fill="white"/>
<path d="M259.051 371.096H239.531V379.064H259.051V371.096Z" fill="white"/>
<path d="M284.025 371.096H264.505V379.064H284.025V371.096Z" fill="white"/>
<path d="M259.051 384.635H239.531V392.603H259.051V384.635Z" fill="white"/>
<path d="M284.025 384.635H264.505V392.602H284.025V384.635Z" fill="white"/>
<path d="M259.051 398.175H239.531V406.142H259.051V398.175Z" fill="white"/>
<path d="M284.025 398.174H264.505V406.142H284.025V398.174Z" fill="white"/>
<path d="M259.051 411.713H239.531V419.681H259.051V411.713Z" fill="white"/>
<path d="M284.025 411.713H264.505V419.681H284.025V411.713Z" fill="white"/>
<path d="M259.051 425.253H239.531V433.221H259.051V425.253Z" fill="white"/>
<path d="M284.025 425.253H264.505V433.221H284.025V425.253Z" fill="white"/>
<path d="M259.051 438.792H239.531V446.76H259.051V438.792Z" fill="white"/>
<path d="M284.025 438.792H264.505V446.76H284.025V438.792Z" fill="white"/>
<path d="M259.051 452.312H239.531V460.28H259.051V452.312Z" fill="white"/>
<path d="M284.025 452.312H264.505V460.28H284.025V452.312Z" fill="white"/>
<path d="M259.051 465.851H239.531V473.819H259.051V465.851Z" fill="white"/>
<path d="M284.025 465.851H264.505V473.818H284.025V465.851Z" fill="white"/>
<path d="M259.051 479.391H239.531V487.358H259.051V479.391Z" fill="white"/>
<path d="M284.025 479.391H264.505V487.358H284.025V479.391Z" fill="white"/>
<path d="M259.051 492.93H239.531V500.898H259.051V492.93Z" fill="white"/>
<path d="M284.025 492.93H264.505V500.898H284.025V492.93Z" fill="white"/>
<path d="M344.786 307.257H294.506V532.807H344.786V307.257Z" fill="#C7C7C7"/>
<path d="M323.727 500.917H339.74V492.949H323.727V500.917Z" fill="#EBEBEB"/>
<path d="M303.234 500.917H319.247V492.949H303.234V500.917Z" fill="#EBEBEB"/>
<path d="M323.727 487.378H339.74V479.41H323.727V487.378Z" fill="#EBEBEB"/>
<path d="M303.234 487.378H319.247V479.41H303.234V487.378Z" fill="#EBEBEB"/>
<path d="M323.727 473.838H339.74V465.87H323.727V473.838Z" fill="#EBEBEB"/>
<path d="M303.234 473.838H319.247V465.87H303.234V473.838Z" fill="#EBEBEB"/>
<path d="M323.727 460.299H339.74V452.332H323.727V460.299Z" fill="#EBEBEB"/>
<path d="M303.234 460.299H319.247V452.332H303.234V460.299Z" fill="#EBEBEB"/>
<path d="M323.727 446.74H339.74V438.772H323.727V446.74Z" fill="#EBEBEB"/>
<path d="M303.234 446.74H319.247V438.772H303.234V446.74Z" fill="#EBEBEB"/>
<path d="M323.727 433.22H339.74V425.252H323.727V433.22Z" fill="#EBEBEB"/>
<path d="M303.234 433.22H319.247V425.252H303.234V433.22Z" fill="#EBEBEB"/>
<path d="M323.727 419.682H339.74V411.714H323.727V419.682Z" fill="#EBEBEB"/>
<path d="M303.234 419.682H319.247V411.714H303.234V419.682Z" fill="#EBEBEB"/>
<path d="M323.727 406.142H339.74V398.174H323.727V406.142Z" fill="#EBEBEB"/>
<path d="M303.234 406.142H319.247V398.174H303.234V406.142Z" fill="#EBEBEB"/>
<path d="M323.727 392.603H339.74V384.635H323.727V392.603Z" fill="#EBEBEB"/>
<path d="M303.234 392.603H319.247V384.635H303.234V392.603Z" fill="#EBEBEB"/>
<path d="M323.727 379.064H339.74V371.096H323.727V379.064Z" fill="#EBEBEB"/>
<path d="M303.234 379.064H319.247V371.096H303.234V379.064Z" fill="#EBEBEB"/>
<path d="M323.727 365.524H339.74V357.556H323.727V365.524Z" fill="#EBEBEB"/>
<path d="M303.234 365.524H319.247V357.556H303.234V365.524Z" fill="#EBEBEB"/>
<path d="M323.727 352.004H339.74V344.037H323.727V352.004Z" fill="#EBEBEB"/>
<path d="M303.234 352.004H319.247V344.037H303.234V352.004Z" fill="#EBEBEB"/>
<path d="M323.727 338.466H339.74V330.498H323.727V338.466Z" fill="#EBEBEB"/>
<path d="M303.234 338.466H319.247V330.498H303.234V338.466Z" fill="#EBEBEB"/>
<path d="M323.727 324.926H339.74V316.958H323.727V324.926Z" fill="#EBEBEB"/>
<path d="M303.234 324.926H319.247V316.958H303.234V324.926Z" fill="#EBEBEB"/>
<path d="M88.4313 376.678C88.4313 376.678 40.6723 370.001 51.8261 312.337C51.8261 312.337 105.198 324.325 88.4313 376.678Z" fill="#B83735"/>
<path opacity="0.1" d="M88.4313 376.678C88.4313 376.678 40.6723 370.001 51.8261 312.337C51.8261 312.337 105.198 324.325 88.4313 376.678Z" fill="black"/>
<path d="M86.0155 364.637C85.0825 361.723 83.9976 358.86 82.7652 356.06C82.7652 355.687 82.7652 355.314 82.6409 354.959C82.6409 354.16 82.4988 353.378 82.4455 352.579C82.3034 350.803 82.1969 349.134 82.0903 347.411C81.895 343.966 81.6818 340.521 81.6285 337.075C81.6285 336.88 81.3266 336.898 81.3266 337.075C81.3266 340.538 81.3266 343.984 81.3266 347.429C81.3266 349.205 81.5042 350.874 81.6108 352.597C81.6108 352.987 81.6108 353.36 81.6108 353.751C78.9265 348.009 75.7158 342.527 72.0199 337.377C70.4627 335.082 68.7849 332.871 66.9936 330.753C65.0932 328.569 63.0862 326.491 61.1503 324.342C61.0259 324.2 60.8306 324.342 60.9549 324.555C64.3844 328.348 67.4637 332.444 70.155 336.791C71.6114 338.976 72.979 341.231 74.2933 343.522L73.8493 343.362L72.0732 342.67L68.1658 341.196C65.6082 340.237 63.0507 339.313 60.4931 338.336C60.3333 338.336 60.2267 338.549 60.3865 338.603C62.9263 339.615 65.4306 340.681 67.9527 341.764L71.6469 343.362L73.5118 344.126C73.9119 344.326 74.3355 344.475 74.7728 344.57C75.7319 346.346 76.691 348.033 77.5791 349.809C79.7941 354.276 81.7394 358.872 83.4046 363.572C83.5289 363.891 83.6355 364.229 83.7598 364.566C82.4983 363.84 81.1866 363.205 79.8347 362.666L74.8972 360.428C71.5404 358.883 68.2191 357.321 65.0044 355.509C64.9714 355.49 64.9323 355.485 64.8957 355.495C64.859 355.505 64.8278 355.53 64.809 355.563C64.7902 355.595 64.7852 355.635 64.7952 355.671C64.8052 355.708 64.8293 355.739 64.8623 355.758C68.1481 357.534 71.3628 359.469 74.6485 361.245C76.3003 362.133 77.952 363.021 79.6393 363.82C81.0278 364.646 82.5385 365.245 84.1151 365.596C85.7176 369.966 86.7735 374.517 87.2587 379.146C87.7916 385.664 87.7383 392.235 87.8981 398.77H88.058C88.5375 392.838 88.8039 386.854 88.8395 380.904C88.7697 375.366 87.8163 369.875 86.0155 364.637Z" fill="#263238"/>
<path d="M78.6633 330.735C78.2022 334.106 78.0417 337.512 78.1838 340.911C78.1838 341 78.3259 341 78.3259 340.911C78.5212 337.537 78.5568 334.163 78.9475 330.806C78.9653 330.629 78.6811 330.558 78.6633 330.735Z" fill="#263238"/>
<path d="M65.0049 333.63C62.8696 332.811 60.8128 331.801 58.8596 330.611C58.6998 330.505 58.5577 330.771 58.7175 330.86C60.631 332.151 62.7261 333.151 64.9338 333.826C65.0404 333.861 65.218 333.683 65.0049 333.63Z" fill="#263238"/>
<path d="M89.9593 468.207C89.9593 462.879 89.8172 457.658 89.764 452.384C89.6574 434.856 89.5153 417.328 89.1956 399.8C88.947 385.877 88.6213 371.966 88.2188 358.066C88.2176 358.03 88.2072 357.995 88.1885 357.964C88.1699 357.933 88.1436 357.907 88.1122 357.889C88.1122 354.088 88.1122 350.288 88.1122 346.488C88.1122 346.381 88.0056 346.345 87.8813 346.345C87.757 346.345 87.6504 346.345 87.6682 346.488C87.6682 350.3 87.6682 354.106 87.6682 357.907C87.6682 357.907 87.5439 357.995 87.5439 358.066C86.8512 382.929 86.2295 407.596 86.0697 432.37C86.0697 437.413 86.0697 442.439 86.0697 447.482C85.8921 463.619 85.827 479.768 85.8743 495.929C85.8743 498.486 85.8743 501.061 85.8743 503.636C85.8743 518.412 86.0342 533.187 86.0342 548.033C86.0342 548.815 86.9222 549.223 87.8103 549.259C88.6983 549.294 90.0304 548.868 90.0304 547.962C90.0304 531.677 90.1369 515.375 90.1369 499.09C90.0837 488.754 90.0837 478.472 89.9593 468.207Z" fill="#263238"/>
<path d="M70.0133 452.171C70.0133 452.171 47.0308 435.158 25.2382 446.63C3.44561 458.102 0 502.464 0 502.464C0 502.464 31.9696 507.046 52.1814 487.849C71.6118 469.379 70.0133 452.171 70.0133 452.171Z" fill="#B83735"/>
<path d="M76.2651 453.219C72.0456 451.537 67.4752 450.927 62.9622 451.443C62.0353 451.278 61.0972 451.183 60.156 451.159L56.9058 450.91L50.2099 450.448C45.6809 450.111 41.1341 449.827 36.6051 449.365C36.5737 449.376 36.5466 449.396 36.5274 449.423C36.5081 449.45 36.4978 449.483 36.4978 449.516C36.4978 449.549 36.5081 449.581 36.5274 449.609C36.5466 449.636 36.5737 449.656 36.6051 449.667C41.0808 450.235 45.4855 450.875 50.0146 451.318C52.3235 451.549 54.6324 451.798 56.959 451.958L58.6286 452.118C57.9537 452.277 57.261 452.437 56.5861 452.633C52.9814 453.682 49.4938 455.098 46.1782 456.859C44.4021 457.179 42.626 457.694 40.8499 458.102C38.0082 458.777 35.1842 459.505 32.3603 460.251C26.7833 461.707 21.2597 463.359 15.7183 464.975C15.5407 464.975 15.6295 465.295 15.7183 465.241C21.242 463.892 26.8189 462.649 32.3603 461.334L40.4237 459.399L42.5372 458.902C36.3726 462.735 30.862 467.532 26.215 473.109C21.7427 478.613 17.939 484.628 14.8836 491.027C14.8836 491.187 15.0256 491.347 15.1322 491.187C18.9145 484.646 23.5294 478.623 28.8614 473.268C28.7548 473.57 28.666 473.89 28.5594 474.192L27.2806 478.241C26.4281 480.958 25.5046 483.657 24.7586 486.375C24.7586 486.552 24.9895 486.605 25.0428 486.375C26.0196 483.746 26.9432 481.047 27.8668 478.472C28.3108 477.175 28.7726 475.897 29.2166 474.6C29.4652 473.926 29.6961 473.251 29.9093 472.576C29.9093 472.381 30.0691 472.167 30.1401 471.954C32.7006 469.468 35.4177 467.149 38.2746 465.011C42.0682 462.235 46.161 459.894 50.4763 458.031C50.4763 458.422 50.3342 458.83 50.2454 459.203C50.0145 460.251 49.7837 461.299 49.5705 462.347C49.1265 464.513 48.7002 466.698 48.274 468.882C47.4037 473.322 46.8709 477.761 46.0361 482.272C46.0361 482.468 46.2848 482.539 46.3203 482.272C47.3504 477.797 48.6825 473.393 49.6771 468.918C50.1744 466.68 50.6717 464.442 51.1512 462.205L51.7906 459.044C51.8972 458.458 52.0393 457.871 52.1103 457.268L53.3536 456.753C59.3745 454.515 66.0349 452.899 72.4643 454.142C75.5055 454.705 78.3602 456.012 80.7742 457.945C83.1881 459.879 85.0864 462.379 86.3 465.224C86.5131 465.721 87.2946 465.401 87.1703 464.886C85.927 459.452 81.327 455.35 76.2651 453.219Z" fill="#263238"/>
<path d="M41.0998 472.149C40.4604 475.062 39.8033 477.974 39.1639 480.887C38.4382 483.677 37.9041 486.513 37.5654 489.376C37.5654 489.5 37.7075 489.5 37.743 489.376C38.5889 486.576 39.2416 483.722 39.6967 480.834C40.2651 477.957 40.8334 475.08 41.384 472.203C41.4195 472.043 41.1354 471.972 41.0998 472.149Z" fill="#263238"/>
<path d="M18.8798 479.555C15.9493 481.029 13.1253 482.716 9.99936 483.941C9.98187 483.948 9.96593 483.959 9.95244 483.972C9.93896 483.985 9.9282 484.001 9.92078 484.018C9.91335 484.035 9.90942 484.054 9.90919 484.073C9.90896 484.092 9.91244 484.11 9.91944 484.128C9.92644 484.145 9.93681 484.161 9.94997 484.175C9.96313 484.188 9.97881 484.199 9.99613 484.206C10.0134 484.214 10.0321 484.218 10.0509 484.218C10.0697 484.218 10.0884 484.215 10.1059 484.208C13.1633 482.854 16.1455 481.336 19.0396 479.662C19.0396 479.662 19.0396 479.519 18.8798 479.555Z" fill="#263238"/>
<path d="M75.1816 420.915C75.1816 420.915 47.1017 422.691 34.0297 404.204C20.9577 385.717 23.906 359.238 23.906 359.238C23.906 359.238 53.4068 362.79 65.1112 376.127C76.8156 389.464 75.1816 420.915 75.1816 420.915Z" fill="#B83735"/>
<path d="M88.3064 448.619C87.3296 445.618 86.1218 442.652 84.9851 439.74C83.8484 436.827 82.7295 434.092 81.433 431.322C78.9322 425.664 76.1278 420.144 73.0321 414.788C71.0429 411.379 68.9116 408.058 66.727 404.79C66.727 404.293 66.5849 403.796 66.5139 403.298C66.3895 402.428 66.2652 401.522 66.1231 400.688C65.8389 398.912 65.537 397.136 65.2351 395.36C64.5957 391.471 63.7964 387.617 63.1748 383.746C63.1748 383.568 62.8551 383.568 62.8906 383.746C63.4412 387.582 63.832 391.435 64.3648 395.271C64.6312 397.154 64.8799 399.036 65.164 400.919L65.4837 402.961C61.201 396.693 56.5637 390.675 51.5947 384.936L49.6588 382.698C49.6588 382.485 49.4812 382.272 49.3924 382.059C49.1792 381.526 48.9839 380.993 48.7885 380.443C48.3623 379.341 47.9715 378.223 47.563 377.104C46.7815 374.902 46.0711 372.682 45.4672 370.427C45.4672 370.249 45.1475 370.338 45.2008 370.427C45.7692 372.735 46.3553 375.026 46.9769 377.299C47.3144 378.4 47.6696 379.484 48.0603 380.567C48.0603 380.744 48.1846 380.922 48.2557 381.1C44.7035 377.193 40.9204 373.428 37.1374 369.698C37.0131 369.574 36.8177 369.698 36.942 369.912C44.1977 377.503 50.8486 385.649 56.8342 394.277C56.1531 394.061 55.459 393.889 54.7562 393.762C52.5893 393.336 50.4225 393.034 48.2379 392.749C43.6556 392.163 39.0911 391.595 34.5443 390.867C34.3489 390.867 34.2779 391.116 34.5443 391.151C38.8957 392.004 43.1938 392.927 47.5275 393.993C49.57 394.454 51.6125 394.845 53.655 395.254C55.3303 395.61 56.9798 396.079 58.5925 396.656C59.0365 397.314 59.5161 397.953 59.9601 398.61C62.0204 401.593 63.9918 404.666 65.9277 407.738L63.0682 407.187C60.9014 406.761 58.7168 406.371 56.55 406.015C52.2696 405.305 47.9715 404.559 43.7444 403.6C43.5668 403.6 43.4958 403.849 43.7444 403.884C48.0426 404.897 52.2874 406.069 56.55 407.205C58.6103 407.756 60.6883 408.253 62.7663 408.715L65.8745 409.39C66.2933 409.499 66.7214 409.571 67.1532 409.603C71.256 416.245 75.0924 423.064 78.6623 430.008C80.2252 433.062 81.7349 436.152 83.1913 439.242C84.6477 442.332 85.9798 445.689 87.3651 448.921C87.5605 449.596 88.5728 449.329 88.3064 448.619Z" fill="#263238"/>
<path d="M59.6058 384.101C59.073 381.419 58.5047 378.773 57.8297 376.074C57.8297 375.896 57.51 375.985 57.5456 376.074C58.0784 378.702 58.5935 381.402 59.073 383.977C59.4648 386.624 59.9924 389.25 60.6537 391.844C60.4862 389.242 60.136 386.654 59.6058 384.101Z" fill="#263238"/>
<path d="M43.2299 383.32C41.9334 382.663 40.548 382.148 39.1982 381.544L37.0669 380.709L35.9835 380.283C35.5685 380.149 35.1695 379.971 34.7935 379.75C34.5804 379.608 34.4561 379.963 34.6692 379.999C35.0858 380.112 35.4858 380.279 35.8592 380.496L36.9248 380.976L38.9851 381.881C40.3309 382.512 41.7127 383.064 43.1234 383.533C43.2832 383.657 43.3898 383.391 43.2299 383.32Z" fill="#263238"/>
<path d="M103.919 398.841C103.919 398.841 120.916 367.106 146.758 362.186C172.6 357.267 188.443 383.87 188.443 383.87C188.443 383.87 169.581 407.951 145.817 412.16C122.053 416.369 103.919 398.841 103.919 398.841Z" fill="#B83735"/>
<path d="M164.093 376.411C157.356 375.498 150.522 375.582 143.81 376.66L144.964 376.038L150.701 373.09C154.642 370.911 158.691 368.931 162.831 367.159C163.027 367.07 162.831 366.804 162.725 366.892C158.675 368.775 154.484 370.444 150.434 372.22C148.392 373.144 146.403 374.12 144.431 375.168C143.152 375.843 141.749 376.482 140.488 377.299C134.81 378.438 129.292 380.269 124.06 382.751L127.292 379.199C129.69 376.553 132.07 373.783 134.716 371.385C134.858 371.261 134.716 371.066 134.503 371.19C131.803 373.641 128.944 375.914 126.315 378.471C125.054 379.714 123.829 380.993 122.639 382.325C122.053 382.982 121.449 383.657 120.863 384.367C111.984 389.12 104.27 395.782 98.275 403.874C92.2802 411.965 88.154 421.285 86.1934 431.162C86.1934 431.339 86.4243 431.428 86.4775 431.251C90.1186 419.152 96.6396 408.116 105.482 399.089C115.011 389.415 126.997 382.52 140.151 379.146C147.954 377.158 156.024 376.427 164.057 376.979C164.132 376.984 164.207 376.959 164.263 376.909C164.32 376.859 164.354 376.788 164.359 376.713C164.364 376.638 164.338 376.564 164.288 376.507C164.238 376.45 164.168 376.416 164.093 376.411Z" fill="#263238"/>
<path opacity="0.1" d="M188.444 383.87C188.444 383.87 169.582 407.951 145.818 412.16C127.72 415.357 112.836 405.927 106.744 401.274L105.43 399.125C105.43 399.125 117.667 388.825 140.827 382.876C163.987 376.926 188.444 383.87 188.444 383.87Z" fill="black"/>
<path d="M149.066 365.099C147.088 366.256 145.173 367.519 143.329 368.882C141.533 370.251 139.863 371.779 138.339 373.446C138.319 373.477 138.311 373.515 138.316 373.552C138.321 373.589 138.338 373.623 138.366 373.648C138.393 373.673 138.428 373.688 138.466 373.69C138.503 373.692 138.54 373.681 138.57 373.659C140.346 372.167 141.997 370.675 143.791 369.272C145.519 367.852 147.334 366.541 149.226 365.348C149.242 365.337 149.257 365.323 149.268 365.307C149.279 365.292 149.286 365.274 149.291 365.255C149.295 365.236 149.295 365.216 149.292 365.197C149.288 365.178 149.281 365.16 149.27 365.143C149.26 365.127 149.246 365.113 149.23 365.102C149.214 365.091 149.197 365.083 149.178 365.079C149.159 365.075 149.139 365.074 149.12 365.078C149.101 365.081 149.083 365.088 149.066 365.099Z" fill="#263238"/>
<path d="M163.259 370.462C162.3 370.871 161.323 371.208 160.364 371.617L157.486 372.806C157.291 372.806 157.38 373.233 157.593 373.144L160.47 371.972C161.447 371.581 162.388 371.137 163.348 370.746C163.525 370.675 163.436 370.391 163.259 370.462Z" fill="#263238"/>
<path d="M100.526 438.781C100.526 438.781 105.073 470.267 128.748 481.278C152.424 492.288 181.285 481.278 181.285 481.278C181.285 481.278 170.007 413.172 100.526 438.781Z" fill="#B83735"/>
<path d="M164.963 460.837C162.796 460.589 160.611 460.216 158.462 459.825L155.265 459.221L153.613 458.884C152.974 458.298 152.352 457.694 151.695 457.108C147.199 453.17 142.347 449.656 137.202 446.612C134.405 444.955 131.511 443.466 128.535 442.155H128.979L136.776 442.492C141.962 442.741 147.166 442.848 152.352 443.185C152.548 443.185 152.53 442.919 152.352 442.901C147.131 442.546 141.944 441.977 136.74 441.533L129.174 440.859L125.267 440.521L124.272 440.415C122.923 439.9 121.573 439.42 120.187 438.994C113.734 436.779 106.793 436.398 100.135 437.893C94.1855 439.42 88.2356 443.327 86.6904 449.596C86.6904 449.809 86.9746 449.969 87.0634 449.756C89.2835 444.428 95.109 441.853 100.366 440.77C103.881 440.103 107.484 440.031 111.023 440.557C111.262 442.178 111.66 443.773 112.213 445.316C112.87 447.536 113.509 449.756 114.184 451.958C115.534 456.38 117.008 460.837 118.322 465.188C118.322 465.226 118.337 465.262 118.364 465.289C118.391 465.315 118.427 465.33 118.465 465.33C118.502 465.33 118.538 465.315 118.565 465.289C118.592 465.262 118.607 465.226 118.607 465.188C117.505 460.766 116.564 456.309 115.498 451.869C114.983 449.703 114.433 447.536 113.9 445.369C113.591 443.856 113.193 442.362 112.71 440.894C114.784 441.256 116.836 441.736 118.855 442.333C122.487 443.42 126.047 444.737 129.512 446.275C129.849 448.513 130.364 450.733 130.879 452.952C131.519 455.723 132.247 458.475 133.117 461.193C133.127 461.22 133.146 461.243 133.169 461.26C133.193 461.276 133.221 461.285 133.25 461.285C133.279 461.285 133.308 461.276 133.332 461.26C133.355 461.243 133.374 461.22 133.384 461.193L133.277 460.678C132.744 458.102 132.176 455.527 131.625 452.952C131.199 450.875 130.791 448.797 130.347 446.737C133.296 448.047 136.176 449.505 138.978 451.105C138.978 451.745 139.191 452.402 139.28 452.988C139.458 454.053 139.653 455.137 139.849 456.22C140.293 458.635 140.772 461.068 141.358 463.466C142.43 468.109 143.788 472.682 145.426 477.158C145.405 477.183 145.394 477.214 145.394 477.247C145.394 477.279 145.405 477.31 145.426 477.335L145.568 477.495C145.674 477.62 145.834 477.495 145.799 477.353C144.715 472.683 143.454 468.047 142.424 463.377C141.927 461.033 141.412 458.689 140.932 456.273C140.701 455.101 140.488 453.929 140.257 452.722L140.097 451.674C143.286 453.542 146.364 455.594 149.315 457.818C154.426 461.645 159.154 465.957 163.435 470.694C163.595 470.889 163.932 470.694 163.773 470.409C162.015 468.023 160.136 465.729 158.142 463.537C156.952 462.258 155.709 461.015 154.448 459.807H154.839C155.958 460.003 157.059 460.163 158.178 460.305C160.362 460.607 162.565 460.82 164.767 461.068C165.087 461.104 165.158 460.837 164.963 460.837Z" fill="#263238"/>
<path d="M148.338 471.492C148.338 471.226 148.338 470.942 148.196 470.676C148.054 470.409 147.965 470.001 147.912 469.645C147.433 467.532 147.024 465.419 146.633 463.288C146.633 463.146 146.385 463.181 146.385 463.288C146.529 466.106 147.129 468.883 148.161 471.51C148.161 471.599 148.356 471.51 148.338 471.51V471.492Z" fill="#263238"/>
<path d="M128.517 470.978C128.517 470.978 128.517 470.836 128.375 470.836C127.7 468.047 127.061 465.259 126.493 462.453C126.191 460.979 125.889 459.505 125.605 458.031C125.445 457.232 125.303 456.433 125.161 455.634C125.099 454.93 124.925 454.241 124.646 453.592C124.635 453.565 124.617 453.541 124.593 453.524C124.57 453.508 124.541 453.499 124.512 453.499C124.483 453.499 124.455 453.508 124.431 453.524C124.407 453.541 124.389 453.565 124.379 453.592C124.36 455.023 124.564 456.449 124.983 457.818C125.267 459.346 125.569 460.891 125.907 462.418C126.599 465.526 127.363 468.616 128.251 471.67C128.262 471.702 128.282 471.729 128.309 471.748C128.336 471.767 128.369 471.778 128.402 471.778C128.435 471.778 128.468 471.767 128.495 471.748C128.522 471.729 128.542 471.702 128.553 471.67L128.517 470.978Z" fill="#263238"/>
<path d="M162.903 451.727C158.569 451.141 154.253 450.519 149.92 449.951C149.742 449.951 149.671 450.218 149.92 450.235C154.235 450.875 158.569 451.407 162.903 452.011C162.903 452.047 162.992 451.763 162.903 451.727Z" fill="#263238"/>
<path d="M88.3962 364.939C88.3962 364.939 73.9033 301.398 142.194 275.665C142.194 275.665 161.127 359.327 88.3962 364.939Z" fill="#B83735"/>
<path d="M103.138 328.906L103.866 328.462L107.738 326.296L115.659 321.874C120.863 318.943 126.014 315.924 131.253 312.994C131.431 312.994 131.253 312.657 131.111 312.746C125.783 315.605 120.455 318.286 115.215 321.074L107.383 325.212L104.186 326.988C106.459 322.673 108.892 318.446 111.574 314.362C115.127 308.91 119.052 303.706 123.119 298.663C123.161 298.618 123.184 298.558 123.183 298.497C123.181 298.435 123.155 298.377 123.11 298.334C123.065 298.292 123.006 298.269 122.944 298.271C122.882 298.272 122.824 298.298 122.781 298.343C116.785 304.161 111.486 310.657 106.992 317.7C106.992 317.469 106.992 317.239 106.992 317.025C106.992 315.445 107.116 313.864 107.134 312.284C107.134 309.176 107.028 306.068 107.134 302.978C107.134 302.783 106.85 302.801 106.832 302.978C106.708 306.033 106.335 309.087 106.157 312.142C106.157 313.651 106.015 315.179 105.962 316.706C105.962 317.523 105.962 318.482 105.962 319.37C104.565 321.607 103.221 323.874 101.93 326.171C99.6414 330.314 97.6013 334.59 95.8205 338.975C95.8205 337.395 95.6606 335.814 95.5718 334.234C95.3587 330.682 94.9502 327.29 94.7903 323.809C94.7903 323.772 94.7754 323.736 94.7487 323.709C94.7221 323.682 94.6859 323.667 94.6482 323.667C94.6105 323.667 94.5744 323.682 94.5478 323.709C94.5211 323.736 94.5061 323.772 94.5061 323.809C94.5061 327.361 94.5061 330.771 94.5061 334.252C94.5061 336.027 94.6127 337.803 94.7193 339.473C94.7193 340.112 94.7193 340.769 94.8436 341.408C92.6723 347.09 90.9501 352.933 89.6929 358.883C88.5084 365.233 87.6606 371.641 87.1531 378.081C87.8415 372.288 89.03 366.566 90.7053 360.979C91.5401 357.978 92.4814 354.994 93.405 352.099C96.2467 350.767 98.9641 349.098 101.699 347.571L110.278 342.882C115.979 339.757 121.662 336.578 127.541 333.825C127.701 333.825 127.541 333.488 127.382 333.577C121.432 336.258 115.428 338.904 109.621 341.764C106.708 343.238 103.848 344.8 101.007 346.399C98.6444 347.731 96.1934 349.063 93.9023 350.608C94.5594 348.619 95.2521 346.647 96.0158 344.712C98.1115 339.322 100.489 334.046 103.138 328.906Z" fill="#263238"/>
<path d="M97.383 314.362C97.3721 314.33 97.3517 314.303 97.3246 314.284C97.2976 314.265 97.2652 314.254 97.232 314.254C97.1988 314.254 97.1665 314.265 97.1394 314.284C97.1124 314.303 97.092 314.33 97.0811 314.362C97.3297 317.913 97.454 321.607 97.8448 325.23C97.8448 325.273 97.8616 325.313 97.8916 325.343C97.9216 325.373 97.9622 325.39 98.0046 325.39C98.047 325.39 98.0877 325.373 98.1177 325.343C98.1476 325.313 98.1645 325.273 98.1645 325.23C98.0402 321.607 97.6494 318.002 97.383 314.362Z" fill="#263238"/>
<path d="M130.115 326.509C125.852 328.285 121.537 329.866 117.274 331.642C117.167 331.642 117.274 331.89 117.274 331.837C121.59 330.221 125.835 328.463 130.133 326.794C130.381 326.722 130.293 326.438 130.115 326.509Z" fill="#263238"/>
<path d="M136.617 297.189C132.436 299.107 128.379 301.284 124.468 303.707C124.44 303.738 124.423 303.777 124.419 303.819C124.415 303.861 124.425 303.903 124.447 303.939C124.469 303.975 124.502 304.003 124.541 304.019C124.58 304.034 124.623 304.037 124.664 304.026C128.624 301.7 132.656 299.48 136.759 297.438C136.936 297.455 136.777 297.118 136.617 297.189Z" fill="#263238"/>
<path d="M135.568 502.375H37.084V606.176H135.568V502.375Z" fill="#455A64"/>
<path d="M35.3622 539.119H30.3181V716.921H35.3622V539.119Z" fill="#263238"/>
<path d="M141.838 539.119H136.794V716.921H141.838V539.119Z" fill="#263238"/>
<path d="M91.2725 539.119H86.2284V716.921H91.2725V539.119Z" fill="#263238"/>
<path d="M139.316 599.534H32.84V613.901H139.316V599.534Z" fill="#263238"/>
<path d="M494.386 584.271C494.386 584.271 494.386 665.41 494.386 665.467C494.386 680.971 494.254 694.573 493.482 701.6C493.491 701.617 493.497 701.636 493.497 701.656C493.497 701.676 493.491 701.695 493.482 701.713C493.482 703.38 493.095 705.024 492.351 706.517L492.256 706.611C487.657 709.757 363.636 714.014 359.263 712.696C354.89 711.377 358.264 698.83 363.033 694.818C367.801 690.805 414.488 667.972 414.488 667.972L415.261 586.871L494.386 584.271Z" fill="#FF9E90"/>
<path d="M494.367 648.795V665.467C494.367 680.972 494.235 694.573 493.462 701.6C493.472 701.617 493.477 701.637 493.477 701.657C493.477 701.676 493.472 701.696 493.462 701.713C493.267 703.352 492.887 704.963 492.331 706.517L492.237 706.611C487.638 709.757 363.616 714.015 359.244 712.696C354.871 711.377 358.245 698.831 363.013 694.818C367.782 690.805 414.469 667.973 414.469 667.973L414.243 651.018L494.367 648.795Z" fill="#C7C7C7"/>
<path d="M359.245 712.696C363.618 714.015 487.639 709.776 492.257 706.611C494.029 705.443 494.463 687.339 494.368 665.468V664.771L414.32 666.654L414.414 668.011C414.414 668.011 367.67 690.862 362.958 694.875C358.246 698.888 354.854 711.434 359.245 712.696Z" fill="#263238"/>
<path d="M360.469 707.855C381.372 706.611 465.737 703.635 486.47 704.087C486.64 704.087 486.64 704.2 486.47 704.219C465.737 705.877 381.41 708.194 360.488 708.269C360.055 708.194 360.036 707.873 360.469 707.855Z" fill="#455A64"/>
<path d="M407.665 668.444C415.845 666.56 425.948 667.54 432.432 673.191C432.696 673.418 432.432 673.757 432.111 673.681C424.161 671.418 415.991 670.01 407.741 669.48C407.617 669.468 407.502 669.412 407.416 669.323C407.33 669.234 407.277 669.117 407.268 668.994C407.259 668.87 407.294 668.747 407.367 668.647C407.439 668.546 407.545 668.474 407.665 668.444Z" fill="#455A64"/>
<path d="M401.861 672.23C410.022 670.347 420.144 671.326 426.627 676.978C426.872 677.185 426.627 677.543 426.288 677.468C418.338 675.201 410.168 673.793 401.917 673.267C401.795 673.251 401.682 673.193 401.598 673.103C401.513 673.012 401.464 672.895 401.457 672.772C401.45 672.649 401.487 672.527 401.561 672.428C401.635 672.329 401.741 672.259 401.861 672.23Z" fill="#455A64"/>
<path d="M396.037 675.998C404.217 674.115 414.32 675.113 420.804 680.746C421.068 680.972 420.804 681.33 420.483 681.254C412.533 678.985 404.363 677.57 396.112 677.034C395.989 677.022 395.874 676.966 395.788 676.877C395.701 676.788 395.649 676.672 395.64 676.548C395.631 676.424 395.666 676.302 395.739 676.201C395.811 676.101 395.917 676.029 396.037 675.998Z" fill="#455A64"/>
<path d="M501.492 283.472L501.417 288.841L498.382 525.947L498.363 526.851L496.573 668.877L409.758 667.144L426.514 283.755L426.74 278.631L427.588 234.152H500.908L501.492 283.472Z" fill="#455A64"/>
<path d="M413.395 652.676C426.947 652.544 423.045 652.393 436.597 652.431C443.232 652.431 486.828 652.6 493.01 653.693C493.142 653.693 493.142 653.957 493.01 653.975C486.79 654.917 443.213 653.975 436.578 653.862C423.027 653.58 426.928 653.504 413.376 653.071C413.335 653.056 413.299 653.028 413.274 652.991C413.25 652.954 413.237 652.911 413.24 652.866C413.242 652.822 413.258 652.78 413.286 652.745C413.314 652.711 413.352 652.687 413.395 652.676Z" fill="#263238"/>
<path d="M452.28 308.415C452.28 308.375 452.264 308.337 452.235 308.309C452.207 308.281 452.169 308.265 452.129 308.265C452.089 308.265 452.05 308.281 452.022 308.309C451.994 308.337 451.978 308.375 451.978 308.415C451.978 331.116 451.054 343.832 450.508 366.514C449.961 389.196 449.301 411.878 448.623 434.541C447.398 479.886 445.57 525.194 443.892 570.52C442.95 595.94 441.775 621.347 440.367 646.742C440.367 646.777 440.381 646.81 440.406 646.835C440.431 646.86 440.464 646.873 440.499 646.873C440.534 646.873 440.568 646.86 440.593 646.835C440.617 646.81 440.631 646.777 440.631 646.742C443.93 601.528 447.077 556.165 448.887 510.82C450.696 465.475 451.978 420.148 452.185 374.803C452.374 349.352 452.223 333.867 452.28 308.415Z" fill="#263238"/>
<path d="M501.474 283.472L498.383 525.947L440.198 234.152H500.89L501.474 283.472Z" fill="#263238"/>
<path d="M591.756 579.883C591.756 579.883 602.688 660.268 602.688 660.325C604.875 675.697 606.458 689.204 606.684 696.269C606.684 696.269 606.684 696.269 606.684 696.382C606.904 698.028 606.75 699.702 606.232 701.28C606.23 701.318 606.23 701.356 606.232 701.393C602.085 705.161 479.76 726.072 475.255 725.356C470.751 724.64 472.409 711.754 476.499 707.139C480.589 702.523 523.865 673.606 523.865 673.606L513.687 593.145L591.756 579.883Z" fill="#FF9E90"/>
<path d="M600.445 643.821C600.445 643.821 602.688 660.268 602.688 660.324C604.875 675.697 606.458 689.204 606.684 696.269C606.684 696.269 606.684 696.269 606.684 696.382C606.719 698.026 606.568 699.669 606.232 701.28C606.23 701.317 606.23 701.355 606.232 701.393C602.085 705.161 479.76 726.072 475.255 725.356C470.751 724.64 472.409 711.754 476.499 707.139C480.589 702.523 523.865 673.605 523.865 673.605L521.283 656.801L600.445 643.821Z" fill="#C7C7C7"/>
<path d="M475.18 725.356C479.703 726.072 602.01 705.142 606.156 701.393C607.758 699.98 605.742 682.008 602.688 660.324L602.575 659.646L523.526 672.268L523.79 673.606C523.79 673.606 480.552 702.542 476.424 707.157C472.296 711.773 470.581 724.621 475.18 725.356Z" fill="#263238"/>
<path d="M475.746 720.382C496.29 716.351 579.411 702.015 600.144 699.66C600.314 699.66 600.333 699.754 600.144 699.792C579.882 704.238 496.592 717.896 475.859 720.797C475.369 720.853 475.312 720.477 475.746 720.382Z" fill="#455A64"/>
<path d="M517.193 674.981C525.052 672.08 535.193 671.628 542.374 676.337C542.657 676.526 542.374 676.921 542.11 676.884C533.929 675.703 525.644 675.407 517.4 675.998C517.276 676.001 517.156 675.96 517.059 675.883C516.962 675.806 516.896 675.697 516.871 675.576C516.846 675.455 516.865 675.329 516.924 675.22C516.982 675.111 517.078 675.027 517.193 674.981Z" fill="#455A64"/>
<path d="M511.934 679.502C519.794 676.601 529.934 676.149 537.115 680.878C537.398 681.047 537.115 681.443 536.851 681.405C528.669 680.234 520.386 679.937 512.141 680.52C512.017 680.522 511.897 680.482 511.8 680.405C511.703 680.327 511.637 680.219 511.612 680.098C511.587 679.977 511.606 679.851 511.665 679.742C511.724 679.633 511.819 679.548 511.934 679.502Z" fill="#455A64"/>
<path d="M506.694 684.042C514.553 681.141 524.675 680.689 531.875 685.399C532.158 685.587 531.875 685.983 531.611 685.945C523.431 684.756 515.145 684.459 506.901 685.06C506.777 685.063 506.656 685.022 506.56 684.945C506.463 684.867 506.397 684.759 506.372 684.638C506.347 684.517 506.366 684.391 506.425 684.282C506.483 684.173 506.579 684.088 506.694 684.042Z" fill="#455A64"/>
<path d="M435.052 234.077C435.372 235.584 440.499 259.359 445.814 279.78C449.678 294.7 453.655 307.812 455.936 309.169C458.518 310.695 471.108 316.271 475.33 318.023L494.612 502.323L520.679 672.965L605.911 659.778L545.257 286.317L535.381 234.077H435.052Z" fill="#455A64"/>
<path d="M521.189 655.841C534.571 653.693 530.613 654.107 544.108 652.073C550.667 651.093 593.792 644.707 600.069 644.876C600.201 644.876 600.238 645.102 600.069 645.14C594.075 647.024 550.837 652.676 544.259 653.505C530.82 655.238 534.665 654.597 521.208 656.198C521.175 656.182 521.148 656.157 521.128 656.127C521.108 656.096 521.097 656.061 521.095 656.025C521.093 655.989 521.101 655.953 521.117 655.92C521.134 655.888 521.158 655.86 521.189 655.841Z" fill="#263238"/>
<path d="M570.477 604.882C568.348 593.051 566.237 581.22 564.05 569.389C559.69 545.728 555.292 522.072 550.856 498.423C541.96 451.088 533.164 403.714 524.469 356.303C519.606 329.552 519.719 332.058 515.478 305.175C515.478 305.005 515.139 305.024 515.177 305.175C519.248 329.063 517.325 323.825 521.17 347.751C525.015 371.676 529.049 395.092 533.29 418.698C541.809 466.152 550.743 513.532 559.772 560.893C562.285 574.181 564.854 587.449 567.481 600.699C570.119 614.226 573.135 627.677 575.925 641.165C575.925 641.467 576.471 641.448 576.415 641.165C574.454 629.089 572.683 616.957 570.477 604.882Z" fill="#263238"/>
<path d="M547.048 306.946C544.786 306.362 542.355 306.173 540.055 305.815C538.171 305.514 536.286 305.175 534.401 304.779C530.854 304.145 527.493 302.729 524.562 300.635C521.358 298.148 519.718 294.361 518.173 290.726C517.243 288.578 516.3 286.43 515.345 284.283L513.932 281.174C513.273 279.954 512.688 278.696 512.179 277.406C512.179 277.218 511.821 277.406 511.896 277.406C512.217 278.287 512.481 279.187 512.688 280.1C513.008 281.137 513.291 282.173 513.611 283.209C514.196 285.093 514.761 286.977 515.364 288.86C516.281 292.259 517.604 295.536 519.304 298.619C522.734 304.045 528.841 306.249 534.948 307.021C536.7 307.228 538.472 307.36 540.244 307.454C542.464 307.652 544.697 307.652 546.916 307.454C546.968 307.441 547.015 307.414 547.053 307.376C547.091 307.338 547.118 307.29 547.131 307.239C547.144 307.187 547.144 307.132 547.129 307.081C547.115 307.029 547.087 306.983 547.048 306.946Z" fill="#263238"/>
<path d="M449.245 305.91C458.235 309.173 466.919 313.22 475.199 318.004C475.269 318.037 475.324 318.096 475.35 318.168C475.377 318.24 475.373 318.32 475.341 318.39C475.308 318.46 475.249 318.515 475.177 318.541C475.104 318.568 475.024 318.564 474.954 318.532C466.209 314.764 457.294 311.185 448.774 306.965C448.656 306.889 448.569 306.774 448.529 306.64C448.488 306.506 448.498 306.362 448.555 306.234C448.612 306.106 448.713 306.003 448.84 305.944C448.966 305.884 449.11 305.872 449.245 305.91Z" fill="#263238"/>
<path d="M446.606 246.115C446.606 245.814 447.171 245.739 447.171 246.115C447.165 255.867 447.656 265.613 448.641 275.316C449.037 279.818 452.656 304.685 460.478 302.877C461.779 302.575 462.363 301.276 462.646 299.316C462.617 296.74 462.269 294.177 461.609 291.687C460.742 286.468 460.045 281.25 459.611 275.994C458.69 266.201 458.798 256.338 459.932 246.568C459.932 246.503 459.957 246.44 460.003 246.394C460.049 246.348 460.112 246.323 460.177 246.323C460.242 246.323 460.304 246.348 460.35 246.394C460.396 246.44 460.422 246.503 460.422 246.568C460.203 260.153 460.997 273.735 462.796 287.203C463.777 293.665 467.037 303.404 460.271 304.403C453.504 305.401 448.962 289.106 448.076 284.641C445.917 271.917 445.423 258.967 446.606 246.115Z" fill="#263238"/>
<path d="M460.271 303.442C460.96 305.125 461.545 306.849 462.024 308.604C462.528 309.959 462.777 311.396 462.759 312.842C462.748 312.901 462.72 312.955 462.678 312.998C462.636 313.041 462.583 313.07 462.524 313.082C462.465 313.094 462.405 313.089 462.349 313.066C462.294 313.043 462.246 313.005 462.213 312.955C461.371 311.688 460.735 310.295 460.328 308.83C459.725 307.247 459.103 305.646 458.556 304.045C458.476 303.817 458.49 303.567 458.594 303.35C458.699 303.133 458.885 302.966 459.112 302.886C459.34 302.806 459.59 302.82 459.807 302.924C460.024 303.028 460.192 303.214 460.271 303.442Z" fill="#263238"/>
<path d="M546.144 291.799C535.815 291.121 426.74 278.612 426.74 278.612L427.588 234.134H435.128H535.457L545.333 286.374L546.144 291.799Z" fill="#263238"/>
<path d="M469.752 131.99C457.274 171.024 436.145 211.32 430.039 219.251C413.659 240.577 364.447 261.582 349.425 264.295C342.922 265.463 327.334 223.547 331.368 217.782C335.401 212.017 396.564 188.657 399.561 185.549C401.634 183.382 427.437 150.151 444.797 130.106C466.491 105.182 473.031 121.779 469.752 131.99Z" fill="#FF9E90"/>
<path d="M344.43 209.643L368.593 258.624C368.593 258.624 419.955 236.376 432.187 220.495C444.42 204.614 466.585 150.791 469.884 133.648C473.182 116.504 467.49 104.259 444.514 129.315C421.538 154.37 402.501 179.332 398.392 183.514C394.283 187.696 344.43 209.643 344.43 209.643Z" fill="#EBEBEB"/>
<path d="M346.466 207.157L375.417 257.908C375.417 257.908 420.653 236.3 432.188 222.115C443.723 207.929 462.741 164.374 468.697 140.863C474.653 117.352 471.166 100.68 444.533 129.446C417.901 158.213 402.841 179.106 397.413 183.796C394.83 185.831 346.466 207.157 346.466 207.157Z" fill="#37474F"/>
<path d="M358.661 211.848C360.128 211.848 361.318 210.658 361.318 209.191C361.318 207.724 360.128 206.535 358.661 206.535C357.193 206.535 356.003 207.724 356.003 209.191C356.003 210.658 357.193 211.848 358.661 211.848Z" fill="#263238"/>
<path d="M371.195 206.083C372.662 206.083 373.852 204.894 373.852 203.427C373.852 201.96 372.662 200.771 371.195 200.771C369.727 200.771 368.537 201.96 368.537 203.427C368.537 204.894 369.727 206.083 371.195 206.083Z" fill="#263238"/>
<path d="M468.697 140.787C462.741 164.298 443.742 207.778 432.188 222.039C427.25 228.124 416.205 235.547 405.141 242.065L463.438 114.451C472.467 112.002 472.749 124.812 468.697 140.787Z" fill="#263238"/>
<path d="M551.836 273.13C551.534 273.469 421.142 273.865 419.898 272.527C418.22 270.643 447.68 129.352 461.063 112.002C463.909 108.234 473.352 107.236 481.381 108.234C483.475 108.47 485.544 108.893 487.563 109.496H487.789C489.418 109.976 490.954 110.728 492.332 111.719C514.648 129.541 533.459 191.841 537.85 210.548C545.201 241.424 552.91 271.906 551.836 273.13Z" fill="#EBEBEB"/>
<path d="M491.955 110.062C491.955 110.062 481.344 167.897 479.497 182.93C477.65 197.963 480.364 277.369 480.364 277.369L562.24 283.416C562.24 283.416 544.542 230.856 544.335 227.522C544.335 227.522 529.633 164.562 515.855 138.263C509.837 127.373 501.713 117.786 491.955 110.062Z" fill="#37474F"/>
<path d="M562.24 283.416L525.109 280.666L498.608 115.883V115.996L515.233 137.283C515.421 137.623 515.61 137.962 515.779 138.301C529.557 164.675 544.259 227.559 544.259 227.559C544.542 230.856 562.24 283.416 562.24 283.416Z" fill="#263238"/>
<path d="M460.272 111.324C460.272 111.324 451.583 169.894 450.64 174.735C449.698 179.577 436.542 275.09 436.542 275.09L416.054 275.73L426.741 232.062C426.741 232.062 450.508 123.795 460.272 111.324Z" fill="#37474F"/>
<path d="M472.239 143.462L466.434 132.159L458.933 140.335L460.78 148.474L468.168 149.434L472.239 143.462Z" fill="#263238"/>
<path d="M468.168 149.435L471.712 232.589L456.124 260.094L448.02 229.142L460.78 148.474L468.168 149.435Z" fill="#263238"/>
<path d="M464.901 379.259L464.799 476.919L626.064 477.088L626.167 379.427L464.901 379.259Z" fill="#B83735"/>
<path opacity="0.1" d="M464.894 379.269L464.845 425.255L626.111 425.424L626.159 379.438L464.894 379.269Z" fill="black"/>
<path d="M461.053 410.453L629.952 410.629L630 365.058L461.101 364.882L461.053 410.453Z" fill="#B83735"/>
<path d="M510.011 338.953L509.974 364.932L522.206 364.951L522.225 350.162L568.874 350.219L568.856 365.007H581.088L581.107 339.01L510.011 338.953Z" fill="#263238"/>
<path d="M595.741 421.46L606.748 421.471L606.771 399.694L595.763 399.682L595.741 421.46Z" fill="#263238"/>
<path d="M484.215 421.369L495.223 421.381L495.245 399.603L484.238 399.592L484.215 421.369Z" fill="#263238"/>
<path d="M509.974 127.431C546.351 160.417 569.44 207.533 571.004 217.047C574.774 240.049 579.542 280.364 578.732 298.054C578.43 304.61 528.728 296.66 528.822 289.652C529.142 267.723 526.221 219.496 526.089 218.648C525.203 212.752 514.384 186.246 503.471 157.497C492.558 128.749 494.669 113.584 509.974 127.431Z" fill="#FF9E90"/>
<path d="M523.582 358.376C525.032 359.035 526.649 359.234 528.216 358.948C529.782 358.662 531.224 357.903 532.347 356.774C533.765 359.077 535.946 360.81 538.51 361.673C543.09 362.991 547.162 356.379 547.162 356.379C549.136 358.462 551.69 359.905 554.493 360.523C558.998 361.333 564.068 355.248 564.068 355.248C566.934 356.151 570.028 356.004 572.795 354.834C577.488 352.63 581.465 339.179 582.445 331.436C583.426 323.693 578.921 300.804 578.506 296.358L528.822 289.689C528.822 289.689 514.573 323.185 514.724 332.454C514.856 340.309 518.116 355.663 523.582 358.376Z" fill="#FF9E90"/>
<path d="M531.593 356.322C529.463 348.052 529.896 339.593 529.859 331.154C529.859 331.114 529.874 331.075 529.903 331.047C529.931 331.019 529.969 331.003 530.009 331.003C530.049 331.003 530.088 331.019 530.116 331.047C530.144 331.075 530.16 331.114 530.16 331.154C530.16 339.556 531.706 347.864 532.045 356.266C532.052 356.326 532.036 356.386 531.999 356.434C531.962 356.482 531.907 356.513 531.847 356.52C531.787 356.528 531.726 356.511 531.679 356.474C531.631 356.437 531.6 356.382 531.593 356.322Z" fill="#263238"/>
<path d="M546.54 356.134C546.235 354.209 546.184 352.252 546.389 350.313C546.389 348.259 546.615 346.187 546.785 344.134C547.111 340.014 547.532 335.907 548.047 331.813C548.047 331.625 548.349 331.625 548.33 331.813C548.029 335.92 547.784 340.027 547.633 344.134C547.633 346.206 547.52 348.259 547.482 350.313C547.564 352.261 547.438 354.213 547.105 356.134C547.084 356.192 547.045 356.241 546.994 356.277C546.944 356.312 546.884 356.331 546.822 356.331C546.761 356.331 546.701 356.312 546.65 356.277C546.6 356.241 546.561 356.192 546.54 356.134Z" fill="#263238"/>
<path d="M564.069 355.079C563.827 353.331 563.878 351.555 564.22 349.823C564.408 347.939 564.578 346.055 564.747 344.171C565.087 340.404 565.407 336.636 565.596 332.868C565.596 332.68 565.897 332.68 565.897 332.868C565.709 336.636 565.577 340.517 565.37 344.341L565.03 349.993C565.07 351.714 564.809 353.429 564.257 355.06C564.249 355.077 564.236 355.091 564.221 355.102C564.205 355.112 564.187 355.119 564.168 355.121C564.15 355.123 564.131 355.12 564.113 355.112C564.096 355.105 564.081 355.094 564.069 355.079Z" fill="#263238"/>
<path d="M526.391 289.916L581.484 292.892C581.484 292.892 577.413 232.608 573.04 215.86C568.667 199.112 531.348 143.293 509.314 123.06C488.581 104.014 488.581 119.858 496.441 142.182C504.3 164.506 523.752 218.46 524.412 222.397C525.071 226.335 526.391 289.916 526.391 289.916Z" fill="#37474F"/>
<path d="M528.86 278.801C530.971 278.612 533.1 278.801 535.211 278.801C537.322 278.801 539.433 278.895 541.544 278.989C545.616 279.158 549.687 279.403 553.758 279.667L565.953 280.477C570.156 280.76 574.454 280.835 578.619 281.457C578.648 281.467 578.673 281.487 578.69 281.512C578.708 281.537 578.717 281.567 578.717 281.598C578.717 281.629 578.708 281.659 578.69 281.684C578.673 281.709 578.648 281.729 578.619 281.739C574.416 281.909 570.137 281.532 565.934 281.381L553.494 280.873C549.348 280.684 545.201 280.477 541.054 280.213C539.019 280.1 536.983 279.95 534.966 279.724C532.95 279.498 530.839 279.479 528.841 279.083C528.652 279.045 528.709 278.819 528.86 278.801Z" fill="#263238"/>
<path d="M468.395 130.652C470.544 130.558 484.812 119.349 489.128 110.721C489.43 110.118 488.318 103.976 487.338 96.4597C486.753 91.9007 486.207 86.7954 486.056 82.1045C486.056 81.1438 482.814 83.0276 482.814 83.0276L476.783 84.6854L456.879 90.2241C458.754 96.0326 459.906 102.05 460.309 108.14C460.331 108.771 460.287 109.402 460.177 110.024C460.186 110.13 460.186 110.237 460.177 110.344C459.744 114.055 464.927 130.784 468.395 130.652Z" fill="#FF9E90"/>
<path d="M460.252 110.061C460.26 110.168 460.26 110.275 460.252 110.382C461.261 110.477 462.277 110.477 463.287 110.382C483.077 109.289 484.717 84.0073 484.717 84.0073L476.895 84.6102L456.991 90.1488C458.866 95.9573 460.018 101.974 460.422 108.064C460.439 108.734 460.382 109.404 460.252 110.061Z" fill="#263238"/>
<path d="M485.321 42.3548C490.071 52.1698 489.279 82.8017 482.965 90.5822C473.842 101.885 456.577 105.484 446.399 93.9731C436.541 82.8394 438.294 42.9388 445.551 35.5728C456.238 24.8724 478.309 27.8489 485.321 42.3548Z" fill="#FF9E90"/>
<path d="M459.046 64.6978C459.046 64.6978 459.197 64.6978 459.197 64.8862C459.084 66.9396 459.31 69.3321 461.082 70.048C461.082 70.048 461.082 70.1799 461.082 70.161C458.876 69.8031 458.613 66.6382 459.046 64.6978Z" fill="#263238"/>
<path d="M460.931 62.5877C464.249 62.3993 464.381 69.0682 461.289 69.2378C458.198 69.4073 458.142 62.7384 460.931 62.5877Z" fill="#263238"/>
<path d="M447.096 65.2627C447.096 65.2627 446.945 65.3569 446.945 65.4511C447.039 67.5045 446.813 69.897 444.947 70.6129V70.726C447.247 70.3492 447.53 67.1466 447.096 65.2627Z" fill="#263238"/>
<path d="M445.212 63.1152C441.894 62.9269 441.744 69.5958 444.835 69.7653C447.926 69.9349 447.964 63.379 445.212 63.1152Z" fill="#263238"/>
<path d="M463.513 59.498C462.589 59.2719 461.779 58.9328 460.912 58.6314C459.949 58.4605 459.072 57.9692 458.424 57.2373C458.262 56.9727 458.194 56.6613 458.232 56.3535C458.27 56.0457 458.41 55.7597 458.631 55.5418C459.124 55.1641 459.709 54.9248 460.325 54.8486C460.941 54.7724 461.567 54.8622 462.137 55.1085C463.37 55.4345 464.438 56.2065 465.134 57.275C465.278 57.5273 465.347 57.8161 465.331 58.1064C465.315 58.3967 465.215 58.6762 465.043 58.9112C464.872 59.1461 464.636 59.3266 464.365 59.4307C464.093 59.5348 463.797 59.5582 463.513 59.498Z" fill="#263238"/>
<path d="M442.572 59.8185C443.465 59.6223 444.346 59.377 445.211 59.0837C446.173 58.9496 447.066 58.5067 447.755 57.8215C447.931 57.5642 448.015 57.2556 447.994 56.9449C447.974 56.6342 447.85 56.3393 447.642 56.1072C447.169 55.7031 446.595 55.4339 445.982 55.3278C445.368 55.2217 444.737 55.2827 444.155 55.5044C442.91 55.7677 441.807 56.4866 441.064 57.5201C440.908 57.7649 440.826 58.0496 440.828 58.3398C440.83 58.6301 440.916 58.9136 441.075 59.1564C441.234 59.3991 441.46 59.5907 441.726 59.7082C441.991 59.8256 442.285 59.8639 442.572 59.8185Z" fill="#263238"/>
<path d="M459.009 77.6773C458.5 78.5027 457.825 79.2135 457.026 79.7648C456.228 80.316 455.324 80.6957 454.372 80.8799C453.543 81.0594 452.692 81.1165 451.846 81.0495C451.684 81.069 451.519 81.069 451.356 81.0495H450.904C450.795 81.0295 450.696 80.9745 450.621 80.8929C450.546 80.8113 450.5 80.7075 450.489 80.5973C450.48 80.5286 450.48 80.4589 450.489 80.3901V80.2017C450.489 78.6193 450.489 76.2079 450.489 76.2079C449.905 76.5093 446.965 77.8845 447.002 77.0556C447.064 69.892 447.853 62.7531 449.358 55.7489C449.358 55.699 449.378 55.6511 449.414 55.6157C449.449 55.5804 449.497 55.5605 449.547 55.5605C449.597 55.5605 449.645 55.5804 449.68 55.6157C449.715 55.6511 449.735 55.699 449.735 55.7489C449.735 62.3802 448.529 68.9361 448.416 75.605C449.46 75.0949 450.57 74.7334 451.714 74.5312C451.941 74.5312 451.413 79.2033 451.507 79.9191C452.81 80.0266 454.12 79.8701 455.361 79.4589C456.601 79.0478 457.746 78.3906 458.726 77.5266C458.971 77.3759 459.122 77.5078 459.009 77.6773Z" fill="#263238"/>
<path d="M452.77 80.2207C453.654 81.3423 454.817 82.2126 456.143 82.7451C456.874 83.0175 457.67 83.057 458.424 82.8581C460.083 82.3871 460.083 80.9742 459.762 79.5802C459.577 78.9249 459.318 78.2928 458.989 77.6963C457.237 79.1768 455.058 80.061 452.77 80.2207Z" fill="#263238"/>
<path d="M456.144 82.7452C456.874 83.0177 457.671 83.0572 458.424 82.8583C460.083 82.3873 460.083 80.9744 459.763 79.5803C458.893 79.6313 458.066 79.9701 457.411 80.5431C456.755 81.1162 456.31 81.8909 456.144 82.7452Z" fill="#FF9ABB"/>
<path d="M441.329 45.8211C442.403 43.1837 443.666 40.5274 445.231 39.9622C446.795 39.3971 447.907 43.2402 451.507 43.4097C456.351 43.6546 458.613 39.171 465.379 38.5682C475.086 37.7016 479.516 45.7457 480.025 59.5358C480.458 71.8375 487.941 72.8548 487.941 72.8548C487.941 72.8548 491.937 45.6139 484.171 36.7596C476.406 27.9054 458.688 24.2695 447.04 32.9919C442.724 36.2887 441.329 45.8211 441.329 45.8211Z" fill="#263238"/>
<path d="M481.627 68.1262C481.627 68.1262 487.074 57.5576 491.786 59.3662C496.498 61.1747 493.312 75.8689 488.412 78.4875C487.807 78.8643 487.133 79.1148 486.429 79.224C485.724 79.3331 485.006 79.2987 484.315 79.1226C483.625 78.9466 482.977 78.6327 482.411 78.1997C481.846 77.7668 481.374 77.2239 481.023 76.6037L481.627 68.1262Z" fill="#FF9E90"/>
<path d="M490.768 63.5671C490.768 63.5671 490.881 63.6613 490.768 63.699C487.356 65.5829 485.905 69.2376 485.113 72.8924C485.272 72.5005 485.514 72.1481 485.824 71.8597C486.133 71.5714 486.502 71.3541 486.904 71.2231C487.306 71.0921 487.732 71.0505 488.152 71.1013C488.572 71.1521 488.976 71.294 489.335 71.5171C489.429 71.5171 489.335 71.7243 489.335 71.7243C488.673 71.6068 487.991 71.6977 487.384 71.9846C486.776 72.2715 486.272 72.7401 485.942 73.3256C485.391 74.3044 484.949 75.3404 484.623 76.4152C484.51 76.7731 483.888 76.679 483.963 76.2833C483.172 71.6113 485.886 64.6975 490.768 63.5671Z" fill="#263238"/>
<path d="M460.158 110.777L467.264 128.222L488.827 106.181L494.971 113.226C494.971 113.226 473.899 148.154 473.767 146.628L466.567 131.67L456.257 142.106L457.03 115.939L460.158 110.777Z" fill="#EBEBEB"/>
<path d="M455.898 129.164C456.181 124.85 456.332 120.479 456.803 116.184C456.803 116.033 457.067 115.977 457.105 116.184C457.972 120.348 456.841 136.907 456.86 140.806C457.293 140.354 466.416 131.632 466.51 131.764C468.074 134.138 473.352 144.951 473.71 146.025C477.046 140.467 489.806 120.272 493.764 115.016C493.789 114.995 493.819 114.982 493.851 114.98C493.883 114.977 493.915 114.985 493.942 115.002C493.97 115.018 493.991 115.044 494.003 115.073C494.015 115.103 494.017 115.136 494.01 115.167C491.126 120.932 474.238 148.154 473.974 148.154C471.194 143.01 468.677 137.728 466.435 132.329C464.889 134.213 455.672 144.103 455.634 143.463C455.474 138.695 455.562 133.922 455.898 129.164Z" fill="#263238"/>
<path d="M216.695 128.75C240.406 175.526 264.494 288.051 266.737 303.103C268.264 313.332 214.452 322.582 214.452 315.499C214.452 306.418 203.596 200.205 204.632 158.232C205.198 135.079 211.795 119.085 216.695 128.75Z" fill="#EB9481"/>
<path d="M214.245 311.015C213.378 317.175 215.432 338.52 219.466 354.344C221.351 362.068 229.418 383.639 235.468 382.603C241.518 381.566 239.728 375.067 239.728 375.067C239.728 375.067 244.478 383.658 250.452 382.056C256.427 380.455 253.355 370.395 253.355 370.395C253.355 370.395 258.859 378.891 264.664 376.857C270.469 374.822 265.701 365.233 265.701 365.233C265.701 365.233 270.394 373.24 274.503 369.528C279.46 365.064 269.169 351.311 267.435 342.664C267.039 340.78 262.233 302.312 262.233 302.312L214.245 311.015Z" fill="#EB9481"/>
<path d="M265.776 365.101C258.237 354.966 256.692 349.22 255.749 336.843C255.736 336.801 255.71 336.764 255.674 336.738C255.639 336.712 255.596 336.698 255.551 336.698C255.507 336.698 255.464 336.712 255.429 336.738C255.393 336.764 255.367 336.801 255.353 336.843C255.184 349.07 256.088 356.549 265.305 365.535C265.758 365.93 266.135 365.572 265.776 365.101Z" fill="#263238"/>
<path d="M253.506 370.941C246.589 359.732 244.855 353.515 242.894 340.611C242.894 340.422 242.555 340.441 242.574 340.611C243.422 353.44 244.459 360.881 252.884 371.186C253.261 371.676 253.826 371.45 253.506 370.941Z" fill="#263238"/>
<path d="M239.181 374.219C233.282 362.916 231.095 356.153 230.813 343.38C230.798 343.329 230.767 343.284 230.725 343.252C230.682 343.22 230.63 343.203 230.577 343.203C230.524 343.203 230.472 343.22 230.429 343.252C230.387 343.284 230.356 343.329 230.341 343.38C229.361 356.436 232.038 364.857 238.823 374.389C239.294 374.935 239.558 374.86 239.181 374.219Z" fill="#263238"/>
<path d="M266.399 300.428C266.399 300.428 275.069 313.615 277.594 320.34C280.12 327.066 280.403 355.268 274.296 355.682C266.417 356.209 262.987 339.914 262.422 331.719C262.422 331.719 244.176 332.944 239.238 321.772C234.3 310.601 266.399 300.428 266.399 300.428Z" fill="#EB9481"/>
<path d="M272.09 355.098C264.551 350.407 264.438 339.594 263.25 331.681C263.238 331.564 263.198 331.451 263.132 331.352C263.067 331.253 262.979 331.171 262.875 331.114C262.771 331.057 262.655 331.025 262.537 331.022C262.419 331.019 262.301 331.045 262.195 331.097C254.524 331.097 243.686 328.874 239.049 322.243C239.039 322.218 239.024 322.194 239.004 322.175C238.985 322.156 238.961 322.142 238.935 322.133C238.91 322.124 238.882 322.12 238.855 322.123C238.827 322.126 238.801 322.134 238.777 322.148C238.754 322.162 238.734 322.181 238.718 322.203C238.702 322.226 238.692 322.252 238.687 322.279C238.683 322.306 238.684 322.333 238.691 322.36C238.698 322.386 238.711 322.411 238.729 322.432C242.725 330.231 253.204 333.283 261.61 332.736C262.704 340.856 263.288 351.707 272.034 355.173C272.09 355.192 272.128 355.136 272.09 355.098Z" fill="#263238"/>
<path d="M271.901 297.263L210.776 306.682C210.776 306.682 201.032 193.254 200.674 155.18C200.316 117.107 214 107.782 228.682 146.722C243.365 185.662 271.901 297.263 271.901 297.263Z" fill="#B83735"/>
<path d="M210.476 297.131C235.488 291.479 262.61 289.388 267.323 288.691C267.549 288.691 267.568 289.011 267.323 289.03C262.686 289.482 231.925 295.266 210.476 297.507C210.307 297.526 210.288 297.168 210.476 297.131Z" fill="#263238"/>
<path d="M345.957 712.602C341.716 713.977 217.412 712.112 212.851 709.117C212.304 708.778 212.229 697.55 212.379 682.158L206.329 590.734L284.983 590.96L291.203 670.083C291.203 670.083 308.845 678.221 323.396 685.342C329.762 688.234 335.949 691.505 341.923 695.138C346.617 699.057 350.198 711.246 345.957 712.602Z" fill="#EB9481"/>
<path d="M345.956 712.602C341.716 713.977 217.411 712.112 212.85 709.117C212.304 708.777 212.228 697.55 212.379 682.158C212.379 682.158 212.034 676.055 211.092 669.461C212.053 666.881 326.354 688.149 323.433 685.455C329.799 688.347 335.986 691.618 341.961 695.251C346.616 699.057 350.197 711.245 345.956 712.602Z" fill="#263238"/>
<path d="M173.118 257.984C173.118 257.984 195.397 494.26 195.887 497.124C195.887 497.501 196.132 501.871 196.339 508.973C197.583 547.951 200.637 669.499 200.637 669.499H294.086C294.086 669.499 287.998 525.533 284.492 491.962C280.025 449.104 252.563 257.984 252.563 257.984H173.118Z" fill="#37474F"/>
<path d="M207.026 505.111C204.149 456.055 199.82 407.074 194.04 358.169C190.76 330.664 186.802 303.253 182.881 275.824C182.881 275.579 182.467 275.598 182.505 275.824C189.742 324.636 194.85 373.786 199.261 422.974C203.671 472.162 206.8 521.237 208.685 570.482C209.834 598.363 210.701 626.283 211.587 654.183C211.61 654.303 211.675 654.412 211.769 654.49C211.864 654.568 211.983 654.611 212.106 654.611C212.228 654.611 212.347 654.568 212.442 654.49C212.537 654.412 212.601 654.303 212.624 654.183C211.38 604.524 209.948 554.789 207.026 505.111Z" fill="#263238"/>
<path d="M288.187 654.446C285.737 654.126 283.079 654.22 280.648 654.145C277.858 654.145 274.993 654.013 272.241 653.919C266.832 653.712 261.403 653.561 255.994 653.486C245.081 653.297 234.149 653.373 223.255 653.712L214.245 654.032C211.041 654.145 207.837 654.446 204.633 654.428C204.406 654.428 204.406 654.71 204.633 654.71C210.117 654.71 215.678 655.181 221.181 655.388C226.685 655.596 232 655.671 237.41 655.746C248.323 655.897 259.274 655.746 270.168 655.407C273.165 655.294 276.162 655.257 279.159 655.162L283.984 654.917C285.416 654.917 286.83 654.917 288.262 654.786C288.451 654.786 288.432 654.484 288.187 654.446Z" fill="#263238"/>
<path d="M240.632 257.984L197.941 565.735C197.338 542.789 196.735 521.577 196.339 508.973C196.132 501.871 195.962 497.501 195.887 497.124C195.359 494.26 173.118 257.984 173.118 257.984H240.632Z" fill="#263238"/>
<path d="M189.403 728.992C184.955 728.634 70.9229 679.125 67.8694 674.604C67.4925 674.095 71.6391 663.696 77.8025 649.548L102.946 561.006L175.7 590.187L155.175 668.802C155.175 668.802 168.368 683.1 179.036 695.176C183.801 700.301 188.257 705.705 192.381 711.358C195.227 716.727 193.832 729.368 189.403 728.992Z" fill="#EB9481"/>
<path d="M189.403 728.992C184.955 728.634 70.9229 679.126 67.8694 674.604C67.4925 674.096 71.6391 663.697 77.8025 649.549C77.8025 649.549 78.2122 648.739 79.1547 643.087C81.9819 644.029 180.77 698.869 179.112 695.252C183.877 700.377 188.333 705.781 192.456 711.434C195.227 716.728 193.832 729.369 189.403 728.992Z" fill="#263238"/>
<path d="M69.622 640.431L160.791 668.689C160.791 668.689 205.311 512.609 208.722 475.949C212.096 439.609 215.357 365.365 216.808 311.505C216.808 311.505 232.037 302.5 235.901 297.583C239.765 292.666 243.233 274.976 250.848 258.021H139.304C112.653 309.772 132.707 332.793 132.707 344.077C132.707 398.559 124.47 470.881 121.85 481.6C116.384 503.943 69.622 640.431 69.622 640.431Z" fill="#37474F"/>
<path d="M160.584 648.758C158.303 647.816 155.721 647.232 153.346 646.497C150.651 645.687 147.937 644.933 145.26 644.104C140.096 642.503 134.894 640.977 129.692 639.508C119.2 636.519 108.632 633.768 97.9891 631.256L89.2058 629.24C86.0959 628.525 82.9105 627.978 79.7817 627.149C79.5367 627.149 79.4801 627.357 79.7817 627.432C85.0969 628.826 90.3367 630.729 95.5954 632.349C100.854 633.969 105.981 635.42 111.183 636.908C121.681 639.866 132.274 642.56 142.904 645.027C145.845 645.687 148.747 646.421 151.669 647.119L156.362 648.155C157.757 648.475 159.114 648.927 160.528 649.134C160.578 649.142 160.628 649.129 160.669 649.099C160.71 649.069 160.737 649.024 160.744 648.974C160.752 648.924 160.739 648.873 160.709 648.833C160.679 648.792 160.634 648.765 160.584 648.758Z" fill="#263238"/>
<path d="M238.503 296.359C233.18 298.804 228.127 301.796 223.424 305.288C218.43 308.717 213.831 312.654 209.024 316.328C208.836 316.478 209.024 316.78 209.213 316.648C214.283 313.408 219.598 310.563 224.612 307.229C229.646 304.176 234.39 300.67 238.786 296.754C238.918 296.603 238.748 296.264 238.503 296.359Z" fill="#263238"/>
<path d="M239.2 264.954C238.559 268.421 237.711 271.868 236.957 275.316C236.203 278.763 235.732 281.853 234.884 285.055C234.183 288.153 232.606 290.985 230.342 293.213C229.079 294.399 227.665 295.436 226.308 296.528C225.592 297.112 224.8 297.659 224.046 298.261C224.141 297.79 224.216 297.338 224.291 296.848C224.536 295.549 224.763 294.23 224.97 292.911C225.46 289.991 225.931 287.052 226.384 284.132C227.269 278.368 228.08 272.546 229.286 266.838C229.299 266.788 229.291 266.735 229.264 266.691C229.238 266.647 229.195 266.615 229.145 266.603C229.095 266.59 229.042 266.598 228.998 266.625C228.954 266.651 228.922 266.694 228.909 266.744C227.477 272.396 225.893 278.047 224.649 283.699C224.027 286.487 221.841 300.277 221.747 301.257C221.653 302.236 221.558 303.272 221.521 304.29C221.398 305.322 221.398 306.366 221.521 307.398C221.521 307.643 221.898 307.605 221.992 307.398C222.414 306.442 222.712 305.435 222.878 304.403C223.123 303.423 223.349 302.425 223.519 301.426C223.519 301.068 223.632 300.692 223.688 300.315C225.045 299.486 226.308 298.431 227.59 297.489C228.871 296.547 230.342 295.605 231.642 294.437C234.039 292.416 235.767 289.716 236.599 286.694C237.437 283.44 237.986 280.117 238.239 276.766C238.673 272.848 238.993 268.91 239.54 265.011C239.596 264.954 239.238 264.766 239.2 264.954Z" fill="#263238"/>
<path d="M193.361 117.748C194.078 119.632 205.066 131.123 213.963 129.56C216.846 129.032 214.716 113.113 214.716 113.113L214.83 111.908L216.375 94.9527L195.397 85.0435L192.4 83.7625C192.4 83.7625 192.268 88.4345 192.193 94.2368C192.193 94.5194 192.193 94.7832 192.193 95.0657C192.174 95.3857 192.174 95.7065 192.193 96.0265C192.193 96.8931 192.193 97.7785 192.193 98.664C192.193 99.5494 192.193 99.9827 192.193 100.68C192.193 101.377 192.193 102.093 192.193 102.79C192.242 107.796 192.633 112.794 193.361 117.748Z" fill="#EB9481"/>
<path d="M192.193 94.2368C194.455 98.6457 197.649 102.51 201.555 105.561C205.46 108.613 209.984 110.778 214.81 111.908L216.356 94.9527L195.397 85.0435L192.4 83.7625C192.4 83.7625 192.268 88.4345 192.193 94.2368Z" fill="#263238"/>
<path d="M237.937 69.9913C240.312 99.7566 222.745 104.542 216.318 105.05C210.475 105.502 190.552 106.331 185.124 76.9428C179.696 47.5542 192.795 37.0045 206.083 35.309C219.371 33.6135 235.581 40.2071 237.937 69.9913Z" fill="#EB9481"/>
<path d="M232.924 63.6617C232.245 63.5616 231.571 63.4233 230.907 63.2472C230.171 63.2029 229.469 62.9183 228.91 62.4371C228.767 62.2503 228.69 62.022 228.69 61.7872C228.69 61.5524 228.767 61.3241 228.91 61.1373C229.246 60.8131 229.661 60.5832 230.115 60.4708C230.568 60.3583 231.043 60.3673 231.492 60.4967C232.452 60.6175 233.33 61.1032 233.942 61.8531C234.076 62.0287 234.155 62.2395 234.17 62.4596C234.185 62.6797 234.136 62.8994 234.028 63.0916C233.919 63.2839 233.757 63.4403 233.561 63.5416C233.365 63.6429 233.144 63.6846 232.924 63.6617Z" fill="#263238"/>
<path d="M213.095 64.0758C213.793 63.9816 214.415 63.7932 215.112 63.6425C215.814 63.564 216.473 63.2675 216.997 62.7948C217.142 62.6092 217.221 62.3804 217.221 62.1448C217.221 61.9093 217.142 61.6805 216.997 61.4949C216.656 61.1723 216.235 60.9464 215.778 60.8404C215.321 60.7344 214.844 60.7523 214.396 60.8921C213.447 61.0441 212.588 61.5404 211.983 62.2861C211.846 62.4682 211.768 62.6874 211.758 62.9149C211.748 63.1424 211.807 63.3676 211.927 63.561C212.047 63.7545 212.223 63.9071 212.431 63.999C212.64 64.0908 212.871 64.1176 213.095 64.0758Z" fill="#263238"/>
<path d="M215.866 69.5203C212.587 69.3884 212.549 75.9443 215.583 76.0762C218.618 76.208 218.618 69.6333 215.866 69.5203Z" fill="#263238"/>
<path d="M230.907 69.0306C234.168 68.8422 234.337 75.3981 231.303 75.5865C228.268 75.7749 228.155 69.2001 230.907 69.0306Z" fill="#263238"/>
<path d="M226.082 80.3337C226.082 80.3337 226.516 83.3667 226.516 84.7985C226.516 84.9492 226.177 85.0057 225.687 85.0434C224.457 85.2759 223.187 85.165 222.017 84.7229C220.846 84.2809 219.821 83.5248 219.052 82.5378C219.025 82.5078 219.01 82.4682 219.012 82.4276C219.014 82.3869 219.031 82.3487 219.061 82.3212C219.091 82.2937 219.131 82.2793 219.172 82.281C219.212 82.2828 219.251 82.3006 219.278 82.3306C221.106 83.5744 223.289 84.1894 225.498 84.0826C225.592 83.687 224.575 78.9019 224.801 78.8831C225.915 78.9724 227.012 79.2132 228.062 79.599C227.345 73.2503 225.611 67.0712 224.97 60.7602C224.97 60.7102 224.99 60.6623 225.026 60.627C225.061 60.5916 225.109 60.5718 225.159 60.5718C225.209 60.5718 225.257 60.5916 225.292 60.627C225.328 60.6623 225.347 60.7102 225.347 60.7602C227.414 67.3297 228.822 74.0884 229.551 80.9365C229.607 81.577 226.648 80.5221 226.082 80.3337Z" fill="#263238"/>
<path d="M228.381 73.1185C227.929 68.2581 230.172 64.0759 233.376 63.6991C236.58 63.3223 239.577 67.0901 240.029 71.9505C240.482 76.8109 238.145 80.9931 235.035 81.3699C231.925 81.7467 228.834 77.9789 228.381 73.1185ZM229.569 73.0055C229.964 77.2065 232.358 80.4279 234.921 80.2019C237.485 79.9758 239.257 76.3399 238.861 72.1389C238.465 67.9378 236.052 64.7164 233.489 64.9424C230.926 65.1685 229.173 68.8044 229.569 73.0055Z" fill="#263238"/>
<path d="M206.234 75.2096C206.194 73.5995 206.625 72.0126 207.474 70.6439C208.323 69.2751 209.554 68.184 211.015 67.5046C212.476 66.8251 214.104 66.5869 215.699 66.8191C217.293 67.0513 218.785 67.7438 219.992 68.8117C221.198 69.8796 222.066 71.2763 222.49 72.8304C222.913 74.3845 222.873 76.0283 222.375 77.5601C221.876 79.0918 220.941 80.4448 219.685 81.4529C218.428 82.461 216.904 83.0804 215.3 83.235C213.035 83.364 210.811 82.5927 209.113 81.0893C207.414 79.5859 206.38 77.4724 206.234 75.2096ZM207.421 75.0966C207.661 76.4511 208.291 77.7065 209.233 78.7095C210.175 79.7124 211.388 80.4195 212.726 80.7444C214.063 81.0694 215.466 80.998 216.764 80.5392C218.061 80.0803 219.197 79.2538 220.032 78.1605C220.868 77.0672 221.366 75.7545 221.468 74.3826C221.569 73.0107 221.268 71.639 220.602 70.4351C219.937 69.2311 218.935 68.2469 217.718 67.6028C216.502 66.9586 215.125 66.6822 213.754 66.8075C211.816 67.0698 210.061 68.0898 208.874 69.6436C207.686 71.1975 207.164 73.1585 207.421 75.0966Z" fill="#263238"/>
<path d="M222.218 72.8924C226.477 71.0085 228.607 72.1954 228.626 72.2142L229.267 71.2157C229.173 71.2157 226.647 69.5579 221.728 71.8186L222.218 72.8924Z" fill="#263238"/>
<path d="M206.705 74.3807L206.818 73.1939C206.027 73.1939 187.744 71.4984 185.784 71.5737C183.824 71.6491 179.168 74.7952 178.659 75.1531L179.338 76.1327C181.274 74.6691 183.439 73.5361 185.746 72.7794H185.972C187.405 72.7983 200.203 73.7967 206.705 74.3807Z" fill="#263238"/>
<path d="M185.972 74.8139C189.195 74.6255 197.601 65.7147 197.865 50.1162C197.865 50.1162 196.659 64.1134 195.622 66.1669C194.585 68.2203 200.315 61.1557 200.692 48.5902C204.663 51.4214 209.017 53.6732 213.622 55.278C219.559 56.9358 223.197 56.8793 223.631 56.446C224.064 56.0127 215.3 53.2623 212.925 50.5495C212.925 50.5495 228.757 57.8778 236.033 58.4429C236.881 58.4429 237.918 41.1677 226.609 33.8206C215.3 26.4735 197.488 34.4234 192.682 39.0578C192.682 39.0578 187.027 39.849 180.939 48.1946C174.851 56.5402 182.504 75.0211 185.972 74.8139Z" fill="#263238"/>
<path d="M190.044 78.8644C190.044 78.8644 183.579 69.445 179.338 71.781C175.097 74.1171 179.885 87.6245 184.842 89.5084C185.461 89.7938 186.132 89.9513 186.813 89.9716C187.495 89.9919 188.174 89.8746 188.809 89.6266C189.444 89.3786 190.023 89.0051 190.51 88.5283C190.998 88.0516 191.384 87.4815 191.646 86.8521L190.044 78.8644Z" fill="#EB9481"/>
<path d="M180.809 75.624V75.7559C184.277 77.2065 186.086 80.4468 187.349 83.8001C187.151 83.448 186.879 83.1435 186.551 82.9078C186.223 82.6721 185.847 82.5109 185.45 82.4355C185.054 82.3601 184.645 82.3724 184.253 82.4714C183.862 82.5705 183.497 82.7539 183.183 83.0088C183.183 83.0088 183.183 83.2161 183.278 83.1972C183.891 83.0047 184.55 83.0083 185.161 83.2076C185.773 83.4068 186.307 83.7917 186.689 84.3087C187.327 85.1715 187.87 86.0999 188.31 87.078C188.461 87.3983 189.026 87.2287 188.913 86.8708C188.989 82.3495 185.577 76.1138 180.809 75.624Z" fill="#263238"/>
<path d="M255.711 268.063C255.711 268.063 155.326 269.551 130.408 267.799C130.408 267.799 150.727 152.694 177.529 123.607C178.527 122.514 179.584 121.476 180.695 120.498C182.335 119.123 182.109 108.14 182.882 107.311C183.655 106.482 216.224 110.759 216.639 111.55C217.054 112.341 218.731 122.702 218.731 122.702C226.12 132.122 236.921 166.748 239.691 180.18C242.462 193.612 246.702 206.366 246.702 206.366L255.711 268.063Z" fill="#FFE8E8"/>
<path d="M169.858 144.141C163.921 172.738 167.445 234.567 181.167 245.87C203.785 264.37 258.143 269.777 273.316 271.567C279.856 272.339 292.88 229.556 288.394 224.036C283.909 218.516 217.092 209.926 213.906 207.081C211.701 205.047 201.316 167.689 192.363 146.628C180.319 118.124 172.025 133.591 169.858 144.141Z" fill="#EB9481"/>
<path d="M277.085 220.589C277.085 220.589 297.14 220.382 310.258 220.872C317.59 221.135 330.087 222.755 335.383 225.393C343.28 229.368 373.815 251.032 368.707 258.549C364.089 265.35 355.004 256.402 355.004 256.402C355.004 256.402 365.861 265.237 359.207 270.587C352.554 275.937 341.791 263.165 341.791 263.165C341.791 263.165 353.967 271.755 346.315 276.766C339.68 281.137 325.752 267.724 325.752 267.724C325.752 267.724 339.53 275.259 333.159 280.478C326.129 286.129 302.719 268.647 302.719 268.647C285.944 272.415 275.37 272.415 263.043 270.399C260.782 270.022 277.085 220.589 277.085 220.589Z" fill="#EB9481"/>
<path d="M345.147 266.141L342.414 263.259C340.722 261.348 338.923 259.537 337.023 257.833C335.138 256.213 333.254 254.668 331.18 253.199C329.107 251.729 326.77 250.26 324.696 248.659C324.527 248.527 324.338 248.772 324.527 248.885C326.585 250.471 328.561 252.163 330.445 253.952C332.33 255.648 334.215 257.381 336.1 259.095C337.984 260.81 339.869 262.336 341.754 263.975C342.678 264.785 343.639 265.632 344.487 266.48C345.291 267.351 346.167 268.151 347.107 268.873C347.201 268.873 347.314 268.873 347.258 268.722C346.648 267.789 345.941 266.924 345.147 266.141Z" fill="#263238"/>
<path d="M357.227 258.285C354.203 254.633 350.928 251.196 347.426 247.999C343.88 244.823 340.022 242.014 335.91 239.616C335.759 239.616 335.608 239.729 335.721 239.842C339.265 243.026 342.865 246.153 346.465 249.261C348.218 250.787 355.983 257.984 356.888 258.681C357.095 258.794 357.359 258.492 357.227 258.285Z" fill="#263238"/>
<path d="M333.969 273.827C331.036 270.457 327.888 267.279 324.545 264.314C320.867 261.606 316.993 259.175 312.954 257.042C312.803 257.042 312.652 257.193 312.784 257.287C316.441 260 320.135 262.618 323.659 265.501C325.393 266.914 331.915 272.904 333.687 274.091C333.875 274.204 334.083 273.978 333.969 273.827Z" fill="#263238"/>
<path d="M258.274 273.337L282.193 217.593C282.193 217.593 216.676 206.761 214.659 205.442C212.642 204.124 200.693 160.644 193.021 143.576C185.35 126.508 172.175 116.486 167.086 153.127C161.997 189.769 169.367 234.511 176.737 243.817C185.671 255.083 221.049 269.344 258.274 273.337Z" fill="#FFE8E8"/>
<path d="M224.612 266.292C214.811 263.636 205.255 259.001 195.888 254.989C187.839 251.616 179.622 247.453 175.154 239.56C173.072 235.541 171.616 231.227 170.838 226.768C169.802 221.795 168.953 216.765 168.237 211.697C167.37 205.92 166.591 200.13 165.9 194.328C165.561 191.351 165.221 188.375 164.92 185.398C164.618 182.421 164.072 179.445 163.959 176.45C163.959 176.41 163.943 176.371 163.914 176.343C163.886 176.315 163.848 176.299 163.808 176.299C163.768 176.299 163.729 176.315 163.701 176.343C163.673 176.371 163.657 176.41 163.657 176.45C163.864 179.2 163.657 181.969 163.883 184.739C163.883 186.622 164.109 188.356 164.241 190.164L163.714 189.015C163.133 187.695 162.691 186.319 162.394 184.908C162.394 184.739 162.074 184.814 162.111 184.908C162.451 186.321 162.79 187.753 163.186 189.147C163.374 189.825 163.601 190.503 163.864 191.181C164.022 191.637 164.205 192.083 164.411 192.519C164.863 197.932 165.448 203.32 166.164 208.683C166.861 213.882 167.672 219.044 168.595 224.206C169.279 228.771 170.494 233.241 172.214 237.525C173.926 241.563 176.544 245.154 179.867 248.018C183.31 250.844 187.112 253.2 191.175 255.026C200.362 259.268 209.857 262.807 219.58 265.614C231.209 269.268 234.753 269.023 224.612 266.292Z" fill="#263238"/>
<path d="M249.209 211.791C246.796 211.471 218.279 205.48 217.167 205.16C216.61 204.99 216.107 204.678 215.707 204.256C215.307 203.833 215.024 203.313 214.886 202.748C214 200.45 213.228 198.095 212.398 195.778C210.966 191.784 209.508 187.809 208.026 183.853C208.026 182.968 207.856 181.969 207.762 181.197C207.667 180.424 207.479 179.087 207.309 178.032C206.932 175.752 206.254 173.51 205.971 171.231C205.971 171.005 205.613 171.08 205.67 171.231C206.244 173.476 206.585 175.774 206.687 178.088C206.782 178.993 206.838 179.972 206.895 180.82C206.028 178.503 205.142 176.186 204.218 173.887C203.144 171.212 201.919 168.518 201.052 165.768C201.052 165.579 200.712 165.674 200.769 165.768C201.749 168.236 202.446 170.854 203.219 173.303C203.992 175.752 204.821 178.39 205.651 180.933C207.272 185.925 208.987 190.88 210.721 195.853C211.55 198.246 212.361 200.676 213.247 203.05C213.49 203.939 213.968 204.745 214.632 205.385C215.295 206.025 216.119 206.474 217.016 206.686C221.973 208.023 246.212 212.036 249.152 212.149C249.454 212.337 249.529 211.829 249.209 211.791Z" fill="#263238"/>
<path d="M270.073 218.46C266.304 226.466 262.534 234.416 259.123 242.592C255.672 250.636 252.645 258.854 250.057 267.215C250.042 267.252 250.042 267.294 250.058 267.331C250.074 267.368 250.104 267.398 250.141 267.413C250.179 267.428 250.221 267.427 250.258 267.411C250.295 267.395 250.324 267.365 250.339 267.328C254.109 259.472 257.407 251.315 260.744 243.233C264.08 235.151 267.114 226.843 270.488 218.742C270.658 218.403 270.224 218.14 270.073 218.46Z" fill="#263238"/>
<path d="M340.528 212.092C337.645 213.712 321.133 209.153 314.442 214.165C310.013 217.48 305.678 225.468 304.735 235.886C303.774 246.643 312.275 246.096 315.422 241.537C319.258 235.536 322.605 229.236 325.431 222.699C328.458 223.301 331.442 224.1 334.365 225.091L340.528 212.092Z" fill="#FF9E90"/>
<path d="M320.286 249.638C315.178 244.288 289.657 263.899 297.668 272.81C305.678 281.721 326.053 255.704 320.286 249.638Z" fill="#FF9E90"/>
<path d="M328.804 257.305C323.696 251.955 298.176 271.566 306.186 280.477C314.197 289.388 334.572 263.372 328.804 257.305Z" fill="#FF9E90"/>
<path d="M335.515 260.019C330.143 255.855 309.674 277.237 318.25 284.208C326.826 291.178 341.603 264.728 335.515 260.019Z" fill="#FF9E90"/>
<path d="M342.808 261.186C336.645 258.831 323.658 284.452 333.591 288.503C343.524 292.553 349.801 263.767 342.808 261.186Z" fill="#FF9E90"/>
<path d="M319.531 258.455C318.113 259.404 316.777 260.469 315.535 261.639C314.159 262.844 312.802 264.069 311.558 265.406C310.345 266.671 309.206 268.004 308.147 269.4C307.035 270.907 306.111 272.546 304.98 274.016C304.96 274.029 304.943 274.047 304.931 274.068C304.919 274.089 304.912 274.113 304.911 274.137C304.91 274.161 304.915 274.186 304.926 274.207C304.936 274.229 304.952 274.248 304.971 274.263C304.991 274.278 305.014 274.287 305.038 274.291C305.062 274.295 305.086 274.293 305.109 274.286C305.132 274.278 305.153 274.265 305.17 274.247C305.187 274.23 305.2 274.209 305.206 274.185C306.324 272.764 307.539 271.424 308.844 270.173C310.069 268.892 311.219 267.554 312.444 266.254C313.669 264.954 314.763 263.692 315.969 262.486C317.175 261.281 318.532 260.037 319.738 258.719C319.795 258.549 319.663 258.38 319.531 258.455Z" fill="#263238"/>
<path d="M329.671 260.847C328.578 262.524 324.752 269.024 323.583 270.662C322.414 272.301 321.189 273.94 319.945 275.542C318.701 277.143 317.495 278.895 316.081 280.402C315.968 280.534 316.176 280.741 316.308 280.609C317.721 279.102 319.267 277.727 320.605 276.145C321.943 274.562 323.168 272.961 324.375 271.284C326.468 267.961 328.357 264.514 330.029 260.961C330.029 260.791 329.765 260.697 329.671 260.847Z" fill="#263238"/>
<path d="M336.758 264.502C335.628 266.989 334.648 269.57 333.498 272.037C332.932 273.262 332.348 274.486 331.783 275.805L330.991 277.595C330.742 278.307 330.427 278.995 330.049 279.648C329.935 279.799 330.237 279.969 330.312 279.761C330.691 279.016 331.132 278.303 331.632 277.633C331.952 277.067 332.291 276.502 332.593 275.937C333.234 274.681 333.818 273.457 334.346 272.263C335.447 269.823 336.367 267.304 337.098 264.728C337.128 264.683 337.139 264.628 337.128 264.575C337.117 264.522 337.086 264.475 337.041 264.445C336.996 264.415 336.941 264.404 336.888 264.415C336.835 264.426 336.788 264.457 336.758 264.502Z" fill="#263238"/>
<path d="M337.218 41.2888C337.931 48.1249 340.53 54.6283 344.725 60.0729C348.92 65.5174 354.545 69.6888 360.974 72.1214C367.402 74.5539 374.38 75.1517 381.128 73.8482C387.877 72.5447 394.13 69.391 399.19 64.7394L417.737 67.4781L408.455 51.4234C410.784 45.7771 411.658 39.6367 410.997 33.5649C409.973 23.779 405.103 14.8008 397.459 8.60536C389.815 2.40994 380.023 -0.495186 370.238 0.529072C360.452 1.55333 351.473 6.42308 345.278 14.067C339.083 21.711 336.177 31.5029 337.202 41.2888H337.218Z" fill="white"/>
<path d="M337.217 41.289C337.929 48.1231 340.517 54.6272 344.695 60.0822C345.732 61.4428 346.855 62.7355 348.057 63.9524C349.291 65.1291 350.601 66.2247 351.976 67.2322C354.714 69.2858 357.729 70.942 360.93 72.1519C364.128 73.4183 367.492 74.2191 370.917 74.5298C372.629 74.6938 374.35 74.7267 376.067 74.6282C377.789 74.5932 379.506 74.4177 381.2 74.1034C388.03 72.8736 394.384 69.7677 399.55 65.1331L399.107 65.2807L417.655 68.1178L418.999 68.331L418.311 67.1338L409.078 51.0628V51.7023C411.252 46.3845 412.177 40.6387 411.782 34.9071C411.387 29.1755 409.682 23.6111 406.798 18.6419C403.906 13.6953 399.931 9.46797 395.171 6.27707C390.422 3.12978 385.022 1.09932 379.375 0.338133C373.729 -0.42305 367.983 0.104827 362.57 1.88213C357.207 3.69905 352.32 6.69732 348.27 10.6556C344.235 14.5961 341.144 19.3991 339.23 24.7045C337.316 30.0098 336.628 35.6797 337.217 41.289ZM337.217 41.289C336.634 35.7063 337.338 30.0641 339.276 24.7962C341.214 19.5283 344.334 14.7748 348.397 10.9011C352.459 7.02736 357.355 4.13656 362.709 2.45082C368.063 0.765089 373.732 0.329307 379.281 1.17697C384.781 2.00101 390.02 4.07076 394.598 7.22821C399.132 10.41 402.92 14.5395 405.7 19.3307C408.429 24.1414 410.038 29.5058 410.406 35.0245C410.744 40.5409 409.854 46.0635 407.799 51.194L407.651 51.522L407.832 51.8171L417.179 67.839L417.835 66.8551L399.271 64.2476H399.009L398.828 64.428C393.874 69.0666 387.723 72.2301 381.068 73.5622C379.41 73.9089 377.726 74.1173 376.034 74.1854C374.342 74.3084 372.642 74.3084 370.95 74.1854C367.585 73.9206 364.273 73.1865 361.111 72.0043C357.908 70.8515 354.896 69.2265 352.173 67.183C350.8 66.1717 349.491 65.0763 348.254 63.9032C347.051 62.6941 345.923 61.4126 344.876 60.0659C340.638 54.634 337.988 48.135 337.217 41.289Z" fill="#263238"/>
<path d="M370.015 58.5737L354.173 42.5519L359.487 37.2878L368.736 46.6517L387.972 16.5103L394.285 20.528L370.015 58.5737Z" fill="#E51D1B"/>
</g>
<defs>
<clipPath id="clip0_7_13307">
<rect width="630" height="729" fill="white"/>
</clipPath>
</defs>
</svg>
