<svg width="221" height="269" viewBox="0 0 221 269" fill="none" xmlns="http://www.w3.org/2000/svg">
<path d="M80.8575 57.9856L90.4863 54.9367C69.2934 61.6474 57.6451 84.521 64.4555 106.028C71.2659 127.536 93.9535 139.558 115.156 132.844L105.527 135.893C84.3343 142.604 61.6431 130.604 54.8267 109.077C48.0102 87.5509 59.6646 64.6964 80.8575 57.9856Z" fill="#FFE8E8"/>
<g opacity="0.1">
<path d="M80.8575 57.9856L90.4863 54.9367C69.2934 61.6474 57.6451 84.521 64.4555 106.028C71.2659 127.536 93.9535 139.558 115.156 132.844L105.527 135.893C84.3343 142.604 61.6431 130.604 54.8267 109.077C48.0102 87.5509 59.6646 64.6964 80.8575 57.9856Z" fill="black"/>
</g>
<path d="M150.153 243.366L140.524 246.415C165.102 188.713 185.828 127.427 163.082 74.2109C148.329 39.7464 112.954 11.9697 70.5392 25.4004L80.168 22.3514C122.592 8.91773 157.958 36.6974 172.701 71.1649C195.495 124.366 174.769 185.652 150.153 243.366Z" fill="#FFE8E8"/>
<g opacity="0.1">
<path d="M150.153 243.366L140.524 246.415C165.102 188.713 185.828 127.427 163.082 74.2109C148.329 39.7464 112.954 11.9697 70.5392 25.4004L80.168 22.3514C122.592 8.91773 157.958 36.6974 172.701 71.1649C195.495 124.366 174.769 185.652 150.153 243.366Z" fill="black"/>
</g>
<path d="M163.072 74.2138C185.828 127.427 165.102 188.713 140.527 246.424C87.2611 213.361 35.037 175.175 23.0065 118.566C15.2326 81.8919 28.1755 38.8254 70.5422 25.4099C112.909 11.9943 148.329 39.7464 163.072 74.2138ZM105.527 135.893C126.768 129.167 138.416 106.294 131.6 84.7671C124.783 63.2406 102.108 51.2568 80.8575 57.9857C59.6074 64.7146 48.0162 87.57 54.8266 109.078C61.6371 130.585 84.3247 142.607 105.527 135.893Z" fill="#FFE8E8"/>
</svg>
