<svg width="134" height="163" viewBox="0 0 134 163" fill="none" xmlns="http://www.w3.org/2000/svg">
<path d="M48.7742 35.1667L54.5695 33.2996C41.814 37.4091 34.8611 51.2331 39.0316 64.1778C43.202 77.1226 56.915 84.3013 69.6762 80.19L63.8809 82.0571C51.1255 86.1665 37.4104 79.0012 33.2362 66.0449C29.0621 53.0887 36.0187 39.2761 48.7742 35.1667Z" fill="#FFE8E8"/>
<g opacity="0.1">
<path d="M48.774 35.167L54.5693 33.2999C41.8139 37.4093 34.8609 51.2333 39.0314 64.1781C43.2018 77.1228 56.9149 84.3015 69.676 80.1902L63.8807 82.0573C51.1253 86.1668 37.4102 79.0014 33.2361 66.0452C29.0619 53.0889 36.0185 39.2764 48.774 35.167Z" fill="black"/>
</g>
<path d="M91.1073 146.71L85.312 148.577C99.9539 113.718 112.263 76.7108 98.3905 44.6992C89.3933 23.9676 67.984 7.32979 42.456 15.5542L48.2513 13.6871C73.7851 5.46086 95.1886 22.1005 104.18 42.834C118.081 74.8363 105.772 111.844 91.1073 146.71Z" fill="#FFE8E8"/>
<g opacity="0.1">
<path d="M91.1073 146.71L85.312 148.577C99.9539 113.718 112.263 76.7108 98.3905 44.6992C89.3933 23.9676 67.984 7.32979 42.456 15.5542L48.2513 13.6871C73.7851 5.46086 95.1886 22.1005 104.18 42.834C118.081 74.8363 105.772 111.844 91.1073 146.71Z" fill="black"/>
</g>
<path d="M98.3845 44.7012C112.263 76.7109 99.9537 113.718 85.3135 148.582C53.1035 128.812 21.506 105.95 14.0828 71.8608C9.28577 49.776 16.9582 23.7752 42.4575 15.56C67.9569 7.34488 89.393 23.9677 98.3845 44.7012ZM63.8809 82.0569C76.665 77.9382 83.6179 64.1142 79.4438 51.158C75.2697 38.2017 61.564 31.046 48.7742 35.1665C35.9843 39.2871 29.0658 53.1 33.2363 66.0447C37.4067 78.9895 51.1197 86.1682 63.8809 82.0569Z" fill="#FFE8E8"/>
</svg>
