<svg width="136" height="164" viewBox="0 0 136 164" fill="none" xmlns="http://www.w3.org/2000/svg">
<path d="M80.3971 34.322L86.1723 36.2504C73.4611 32.0061 59.6709 39.0258 55.3636 51.9257C51.0563 64.8255 57.8529 78.7319 70.5698 82.9781L64.7946 81.0498C52.0834 76.8055 45.2773 62.9086 49.5884 49.9973C53.8995 37.086 67.6859 30.0777 80.3971 34.322Z" fill="#FFE8E8"/>
<g opacity="0.1">
<path d="M80.3961 34.322L86.1713 36.2504C73.4601 32.0061 59.6699 39.0258 55.3626 51.9257C51.0553 64.8255 57.8519 78.7319 70.5688 82.9781L64.7936 81.0498C52.0824 76.8055 45.2763 62.9086 49.5874 49.9973C53.8985 37.086 67.6849 30.0777 80.3961 34.322Z" fill="black"/>
</g>
<path d="M48.4358 149.267L42.6606 147.339C75.1049 127.926 106.943 105.4 114.727 71.3912C119.757 49.3584 112.363 23.2721 86.923 14.7778L92.6982 16.7062C118.143 25.2024 125.532 51.2867 120.496 73.3176C112.741 107.336 80.903 129.862 48.4358 149.267Z" fill="#FFE8E8"/>
<g opacity="0.1">
<path d="M48.4358 149.267L42.6606 147.339C75.1049 127.926 106.943 105.4 114.727 71.3912C119.757 49.3584 112.363 23.2721 86.923 14.7778L92.6982 16.7062C118.143 25.2024 125.532 51.2867 120.496 73.3176C112.741 107.336 80.903 129.862 48.4358 149.267Z" fill="black"/>
</g>
<path d="M114.721 71.3893C106.942 105.4 75.1046 127.926 42.6584 147.345C28.4169 112.337 16.5003 75.2013 30.7112 43.3384C39.9274 22.7033 61.5098 6.29884 86.9208 14.7836C112.332 23.2683 119.757 49.3584 114.721 71.3893ZM64.7943 81.0498C77.5341 85.3037 91.3243 78.284 95.6354 65.3727C99.9465 52.4613 93.1423 38.5778 80.3968 34.3221C67.6513 30.0664 53.8954 37.0975 49.5881 49.9974C45.2808 62.8973 52.0774 76.8036 64.7943 81.0498Z" fill="#FFE8E8"/>
</svg>
