<svg width="168" height="143" viewBox="0 0 168 143" fill="none" xmlns="http://www.w3.org/2000/svg">
<path d="M0.25 0.199951H166.87V139.75H0.25V0.199951Z" fill="white"/>
<path d="M0 140H167.12V0H0V140ZM166.62 139.5H0.5V0.41H166.62V139.5Z" fill="#A6A6A6"/>
<path d="M0.25 0.0100098H166.87V9.15001H0.25V0.0100098Z" fill="#455A64"/>
<path d="M158.73 4.58997C158.73 4.98553 158.847 5.37221 159.067 5.70111C159.287 6.03001 159.599 6.28635 159.965 6.43773C160.33 6.5891 160.732 6.62871 161.12 6.55154C161.508 6.47437 161.864 6.28389 162.144 6.00418C162.424 5.72448 162.614 5.36811 162.692 4.98014C162.769 4.59218 162.729 4.19005 162.578 3.8246C162.426 3.45915 162.17 3.14679 161.841 2.92702C161.512 2.70726 161.126 2.58997 160.73 2.58997C160.2 2.58997 159.691 2.80068 159.316 3.17575C158.941 3.55082 158.73 4.05953 158.73 4.58997Z" fill="#C7C7C7"/>
<path d="M150.38 4.58997C150.38 4.98553 150.497 5.37221 150.717 5.70111C150.937 6.03001 151.249 6.28635 151.615 6.43773C151.98 6.5891 152.382 6.62871 152.77 6.55154C153.158 6.47437 153.515 6.28389 153.794 6.00418C154.074 5.72448 154.264 5.36811 154.342 4.98014C154.419 4.59218 154.379 4.19005 154.228 3.8246C154.076 3.45915 153.82 3.14679 153.491 2.92702C153.162 2.70726 152.776 2.58997 152.38 2.58997C151.85 2.58997 151.341 2.80068 150.966 3.17575C150.591 3.55082 150.38 4.05953 150.38 4.58997Z" fill="white"/>
<path d="M142.03 4.58997C142.03 4.98553 142.147 5.37221 142.367 5.70111C142.587 6.03001 142.899 6.28635 143.265 6.43773C143.63 6.5891 144.032 6.62871 144.42 6.55154C144.808 6.47437 145.165 6.28389 145.444 6.00418C145.724 5.72448 145.914 5.36811 145.992 4.98014C146.069 4.59218 146.029 4.19005 145.878 3.8246C145.726 3.45915 145.47 3.14679 145.141 2.92702C144.812 2.70726 144.426 2.58997 144.03 2.58997C143.5 2.58997 142.991 2.80068 142.616 3.17575C142.241 3.55082 142.03 4.05953 142.03 4.58997Z" fill="#E51D1B"/>
<path d="M106.52 25.41C114.52 31.24 118.31 42.31 118.31 42.31C118.31 42.31 126.76 52.74 125.86 59.24C125.646 61.0827 124.988 62.846 123.943 64.3787C122.898 65.9114 121.497 67.1677 119.86 68.04L119.99 64.49C119.99 64.49 118.44 69.26 111.25 72.21C104.06 75.16 93.83 74.39 88.25 72.59C84.9651 71.5394 82.0088 69.6547 79.67 67.12L82.37 71.83C82.37 71.83 75.09 72.7 69.58 65.66C64.07 58.62 74.72 45.66 75.4 43.07C76.08 40.48 74.7 22.92 93.46 23.07C93.48 23.1 100.99 21.41 106.52 25.41Z" fill="#263238"/>
<path d="M122.42 67.2C124.314 65.7156 125.709 63.6886 126.42 61.39C127.23 59.132 127.262 56.668 126.51 54.39C125.57 51.66 123.7 49.39 121.88 47.21C120.06 45.03 117.94 42.8 116.1 40.5C116 40.37 116.19 40.22 116.31 40.32C118.235 41.9715 120.061 43.7346 121.78 45.6C123.509 47.2759 125.036 49.1487 126.33 51.18C127.539 53.0345 128.191 55.1964 128.21 57.41C128.123 59.2294 127.594 61.0003 126.67 62.57C125.509 64.3313 124.12 65.9317 122.54 67.33C122.532 67.3406 122.522 67.3493 122.51 67.3556C122.499 67.3618 122.486 67.3654 122.473 67.3661C122.459 67.3668 122.446 67.3646 122.434 67.3596C122.422 67.3546 122.411 67.347 122.402 67.3373C122.393 67.3275 122.386 67.316 122.382 67.3034C122.378 67.2908 122.377 67.2774 122.379 67.2643C122.38 67.2512 122.385 67.2386 122.392 67.2275C122.399 67.2164 122.409 67.207 122.42 67.2Z" fill="#263238"/>
<path d="M66.83 57.9999C68.02 51.2599 73.15 46.3 75.78 40.17C77.21 36.85 78.16 33.27 80.22 30.27C80.27 30.19 80.41 30.27 80.36 30.36C78.7 33.04 77.97 36.0699 76.93 38.9999C75.7923 41.9394 74.3617 44.7569 72.66 47.41C69.66 52.33 66.17 58.15 67.95 64.1C68.77 66.85 70.95 69.71 73.95 70.1C74.06 70.1 74.03 70.3 73.95 70.28C72.742 70.001 71.6036 69.4784 70.6046 68.7442C69.6055 68.01 68.7669 67.0796 68.14 66.0099C66.7547 63.5842 66.2897 60.7406 66.83 57.9999Z" fill="#263238"/>
<path d="M66.83 59.77C66.2602 57.3735 66.4418 54.8598 67.35 52.57C68.4095 50.3715 69.9348 48.4299 71.82 46.88C73.82 45 76.06 43.18 77.14 40.54C77.14 40.43 77.35 40.54 77.3 40.62C75.62 44.96 71.52 47.5 69.07 51.31C66.28 55.67 67.14 61.24 70.16 65.26C72.0594 67.6943 74.5054 69.647 77.3 70.96C77.35 70.96 77.3 71.05 77.3 71.03C72.5 68.86 68.01 65.09 66.83 59.77Z" fill="#263238"/>
<path d="M93.19 84.41C87.81 94.41 67.3 126.15 56.08 127.28C48.71 128.02 19.98 121.91 15.76 114.47C13.92 111.23 19.97 90.76 23.76 92.03C27.55 93.3 50.48 99.03 53.44 98.52C56.4 98.01 80.64 75.76 89.34 70.52C104.3 61.49 96.09 79 93.19 84.41Z" fill="#FAB8AE"/>
<path d="M32.71 91.48L28.53 122.78C28.53 122.78 51.08 129.6 61.36 126.91C73.84 123.65 94.53 87.41 97.45 81.41C102.23 71.56 101.6 65.32 95.81 66.41C93.57 66.81 90.54 68.32 86.75 71.17C82.75 74.17 59.83 93.62 52.75 97.09C48.86 98.99 32.71 91.48 32.71 91.48Z" fill="#E51D1B"/>
<path d="M34.52 122.12C35.27 117.51 37.68 98.54 37.92 94.41C37.92 94.12 37.76 94.04 37.7 94.34C35.11 108.09 34.85 117.53 34.33 122.08C34.3 122.2 34.5 122.24 34.52 122.12Z" fill="#263238"/>
<path opacity="0.1" d="M38.13 125.24C45.53 126.87 55.46 128.45 61.36 126.92C73.84 123.65 94.53 87.41 97.44 81.41C102.23 71.56 101.6 65.33 95.81 66.41L95.27 66.53L38.13 125.24Z" fill="black"/>
<path d="M42.06 142.22C42.0803 142.055 42.1104 141.891 42.15 141.73C42.15 141.94 42.06 142.13 42.04 142.34C42.05 142.3 42.05 142.26 42.06 142.22Z" fill="#E51D1B"/>
<path d="M70.01 139.75L71.66 130.07L74.05 112.88C74.05 112.88 68.43 103.34 71.69 96.49C73.34 93.02 87.78 71.44 93.86 67.15C99.56 63.15 107.86 67.43 110.92 70.59C122.79 82.74 128.39 106.88 132.66 139.75H70.01Z" fill="#E51D1B"/>
<path d="M93.36 77.17C91.6333 80.09 89.9866 83.0567 88.42 86.07C86.87 89.07 85.35 92.13 84.02 95.27C83.37 96.84 82.74 98.43 82.23 100.07C81.626 101.733 81.4071 103.511 81.59 105.27C81.8329 107.015 82.4138 108.697 83.3 110.22C84.1535 111.741 85.1987 113.146 86.41 114.4L86.27 114.02C85.85 118.3 85.43 122.59 85.08 126.88C84.9 129.02 84.69 131.16 84.54 133.31L84.08 139.75L84.94 133.35C85.23 131.22 85.47 129.08 85.73 126.94C86.27 122.67 86.73 118.4 87.19 114.12V113.91L87.03 113.74C84.7112 111.385 83.1419 108.396 82.52 105.15C82.3384 103.525 82.5299 101.88 83.08 100.34C83.55 98.74 84.16 97.16 84.79 95.6C86.0567 92.4733 87.4233 89.38 88.89 86.32C90.37 83.25 91.85 80.21 93.36 77.17Z" fill="#263238"/>
<path d="M83.3 90.95C83.2802 91.0646 83.2838 91.182 83.3106 91.2951C83.3374 91.4083 83.3869 91.5148 83.4561 91.6083C83.5252 91.7018 83.6127 91.7802 83.713 91.839C83.8134 91.8977 83.9246 91.9355 84.04 91.95C84.2678 91.9848 84.5001 91.9289 84.6871 91.7942C84.874 91.6596 85.0008 91.457 85.04 91.23C85.0598 91.1154 85.0562 90.998 85.0294 90.8849C85.0026 90.7717 84.9531 90.6652 84.8839 90.5717C84.8147 90.4782 84.7273 90.3998 84.627 90.341C84.5266 90.2823 84.4154 90.2445 84.3 90.23C84.0722 90.1952 83.8399 90.2511 83.6529 90.3858C83.466 90.5204 83.3392 90.723 83.3 90.95Z" fill="#263238"/>
<path d="M87.08 83.63C87.0616 83.7444 87.0662 83.8613 87.0936 83.9739C87.121 84.0865 87.1707 84.1925 87.2396 84.2857C87.3085 84.3788 87.3954 84.4573 87.495 84.5164C87.5947 84.5755 87.7052 84.6141 87.82 84.63C88.0477 84.6648 88.28 84.6089 88.467 84.4742C88.654 84.3396 88.7807 84.137 88.82 83.91C88.8398 83.7954 88.8362 83.678 88.8094 83.5649C88.7826 83.4517 88.733 83.3452 88.6639 83.2517C88.5947 83.1582 88.5073 83.0797 88.4069 83.021C88.3066 82.9623 88.1953 82.9245 88.08 82.91C87.8522 82.8752 87.6199 82.9311 87.4329 83.0658C87.2459 83.2004 87.1192 83.403 87.08 83.63Z" fill="#263238"/>
<path d="M79.53 100.24C79.5101 100.355 79.5137 100.472 79.5406 100.585C79.5674 100.698 79.6169 100.805 79.6861 100.898C79.7552 100.992 79.8427 101.07 79.943 101.129C80.0434 101.188 80.1546 101.225 80.27 101.24C80.4977 101.275 80.7301 101.219 80.917 101.084C81.104 100.95 81.2307 100.747 81.27 100.52C81.2898 100.405 81.2862 100.288 81.2594 100.175C81.2326 100.062 81.1831 99.9552 81.1139 99.8617C81.0447 99.7682 80.9573 99.6897 80.857 99.631C80.7566 99.5723 80.6454 99.5345 80.53 99.52C80.3022 99.4852 80.0699 99.5411 79.8829 99.6757C79.696 99.8104 79.5692 100.013 79.53 100.24Z" fill="#263238"/>
<path d="M79.82 109.6C79.8016 109.715 79.8066 109.833 79.8346 109.946C79.8627 110.059 79.9132 110.166 79.9831 110.259C80.0531 110.352 80.1411 110.43 80.2419 110.489C80.3427 110.548 80.4543 110.585 80.57 110.6C80.6876 110.631 80.8104 110.637 80.9305 110.617C81.0505 110.598 81.1652 110.554 81.267 110.487C81.3689 110.421 81.4556 110.333 81.5217 110.231C81.5878 110.129 81.6318 110.014 81.6507 109.894C81.6697 109.774 81.6633 109.651 81.6318 109.534C81.6004 109.416 81.5447 109.307 81.4683 109.212C81.3919 109.118 81.2965 109.04 81.1883 108.984C81.0801 108.929 80.9614 108.897 80.84 108.89C80.6113 108.854 80.3777 108.908 80.1878 109.041C79.9978 109.173 79.8661 109.373 79.82 109.6Z" fill="#263238"/>
<path d="M82.76 117.93C82.7416 118.044 82.7462 118.161 82.7736 118.274C82.801 118.387 82.8507 118.493 82.9196 118.586C82.9885 118.679 83.0754 118.757 83.175 118.816C83.2747 118.876 83.3852 118.914 83.5 118.93C83.7273 118.962 83.9584 118.905 84.1447 118.771C84.3311 118.637 84.4584 118.436 84.5 118.21C84.5183 118.095 84.5133 117.977 84.4853 117.864C84.4573 117.751 84.4068 117.644 84.3368 117.551C84.2668 117.458 84.1788 117.38 84.078 117.321C83.9772 117.262 83.8657 117.225 83.75 117.21C83.5238 117.178 83.294 117.235 83.1093 117.37C82.9245 117.504 82.7993 117.705 82.76 117.93Z" fill="#263238"/>
<path d="M81.73 126.77C81.7116 126.884 81.7162 127.001 81.7436 127.114C81.771 127.227 81.8207 127.333 81.8896 127.426C81.9585 127.519 82.0454 127.597 82.1451 127.656C82.2447 127.716 82.3552 127.754 82.47 127.77C82.6988 127.802 82.9311 127.744 83.1177 127.607C83.3043 127.471 83.4307 127.268 83.47 127.04C83.4913 126.925 83.4888 126.807 83.4626 126.694C83.4364 126.58 83.387 126.473 83.3176 126.379C83.2482 126.285 83.1602 126.207 83.0591 126.148C82.958 126.09 82.8459 126.053 82.73 126.04C82.5007 126.005 82.2671 126.063 82.0799 126.199C81.8927 126.336 81.7669 126.541 81.73 126.77Z" fill="#263238"/>
<path d="M80.7 135.61C80.6801 135.725 80.6837 135.842 80.7105 135.955C80.7374 136.068 80.7869 136.175 80.8561 136.268C80.9252 136.362 81.0126 136.44 81.113 136.499C81.2134 136.558 81.3246 136.595 81.44 136.61C81.6677 136.645 81.9 136.589 82.087 136.454C82.274 136.32 82.4007 136.117 82.44 135.89C82.4598 135.775 82.4562 135.658 82.4294 135.545C82.4025 135.432 82.3531 135.325 82.2839 135.232C82.2147 135.138 82.1273 135.06 82.0269 135.001C81.9266 134.942 81.8153 134.904 81.7 134.89C81.4722 134.855 81.2399 134.911 81.0529 135.046C80.8659 135.18 80.7392 135.383 80.7 135.61Z" fill="#263238"/>
<path d="M42.15 141.73C42.15 141.94 42.06 142.13 42.04 142.34C42.04 142.34 42.04 142.26 42.04 142.22C42.0669 142.055 42.1036 141.891 42.15 141.73Z" fill="#E51D1B"/>
<path d="M42.15 141.73C42.15 141.94 42.06 142.13 42.04 142.34C42.04 142.34 42.04 142.26 42.04 142.22C42.0669 142.055 42.1036 141.891 42.15 141.73Z" fill="#E51D1B"/>
<path d="M42.15 141.73C42.15 141.94 42.06 142.13 42.04 142.34C42.04 142.34 42.04 142.26 42.04 142.22C42.0669 142.055 42.1036 141.891 42.15 141.73Z" fill="#DBDBDB"/>
<path d="M32.76 122.57L68.92 128.97L60.24 79.59L24.08 73.19L32.76 122.57Z" fill="#EBEBEB"/>
<path d="M21.88 81.63C19.55 85.38 14.25 89.76 13.49 92.95C13.2738 93.7283 13.3147 94.5556 13.6066 95.3087C13.8985 96.0619 14.4258 96.7007 15.11 97.13C15.11 97.13 11.7 98.37 11.49 101.38C11.38 102.93 13.76 104.47 13.76 104.47C13.0022 104.794 12.3477 105.319 11.8681 105.989C11.3884 106.659 11.102 107.448 11.04 108.27C11.04 110.41 13.41 111.63 13.41 111.63C13.41 111.63 11.32 113.9 12.01 116.09C13.39 120.52 31.65 122.62 35.25 116.22C36.92 113.22 32.43 112.96 32.43 112.96C32.43 112.96 38.98 111.79 39.51 108.03C40.04 104.27 34.18 104.28 34.18 104.28C34.18 104.28 40.52 103.09 40.68 99.14C40.84 95.03 34.98 96.04 34.98 96.04C34.98 96.04 39.36 93.75 38.79 90.7C37.79 85.7 29.45 90.9 25.54 89.48L24.09 82.61L21.88 81.63Z" fill="#FAB8AE"/>
<path d="M17.56 86.97C19.46 83.23 15.18 77.85 16.48 73.97C18.25 68.78 23.64 74.69 24.09 82.57L23.36 88.75L17.56 86.97Z" fill="#FAB8AE"/>
<path d="M13.66 104.5C13.59 104.5 13.57 104.6 13.66 104.62C19.66 106.81 27.66 107.24 34.4 104.47C34.63 104.38 34.74 104.06 34.47 104.15C29.84 105.65 19.49 105.67 13.66 104.5Z" fill="#263238"/>
<path d="M35.41 95.68C28.86 98.09 22.2 98.15 15.36 97.24C15.27 97.24 15.26 97.35 15.36 97.38C18.59 98.74 23.02 98.87 26.47 98.68C29.6771 98.5648 32.7978 97.6096 35.52 95.91C35.6 95.84 35.55 95.63 35.41 95.68Z" fill="#263238"/>
<path d="M115.82 75.95C133.49 95.9 153.3 129.41 144.58 136.41C136.58 142.82 107.91 136.32 89.9 129.04C86.47 127.66 94.44 97.04 98.25 98.09C104.82 99.92 115.25 104.35 115.66 104.48C116.66 104.76 111.91 92.85 106.07 78.42C99.57 62.41 105.72 64.54 115.82 75.95Z" fill="#FAB8AE"/>
<path d="M59.8 97.28C59.8709 98.0486 60.1308 98.7877 60.5565 99.4315C60.9822 100.075 61.5606 100.604 62.24 100.97C61.0324 101.901 60.1872 103.223 59.85 104.71C59.38 107.36 63.33 109.26 63.33 109.26C62.2749 110.487 61.6129 112.002 61.43 113.61C61.24 116.2 64.95 118.68 64.95 118.68C64.6036 120.344 64.87 122.077 65.7 123.56C68.06 127.43 90.92 130.39 94.02 130.67L99.52 98.76C99.52 98.76 80.07 89.03 74.87 89.66C70.5 90.19 59.39 92.58 59.8 97.28Z" fill="#FAB8AE"/>
<path d="M62.3 100.86C66.82 99.19 71.73 98.6 76.48 98.08C76.5012 98.08 76.5216 98.0885 76.5366 98.1035C76.5516 98.1185 76.56 98.1388 76.56 98.16C76.56 98.1812 76.5516 98.2016 76.5366 98.2166C76.5216 98.2316 76.5012 98.24 76.48 98.24C71.76 98.7 67.04 100.44 62.34 101.09C62.3131 101.088 62.2875 101.078 62.2674 101.06C62.2473 101.042 62.2338 101.017 62.2292 100.991C62.2246 100.964 62.2291 100.937 62.2419 100.913C62.2547 100.889 62.2752 100.871 62.3 100.86Z" fill="#263238"/>
<path d="M63.43 108.89C64.4945 108.614 65.5902 108.476 66.69 108.48C67.85 108.41 69.02 108.36 70.18 108.33C72.51 108.27 74.84 108.26 77.18 108.33C77.29 108.33 77.31 108.49 77.18 108.5C74.86 108.56 72.54 108.66 70.18 108.82C69.02 108.9 67.86 108.99 66.7 109.09C65.6151 109.258 64.5147 109.301 63.42 109.22C63.3833 109.21 63.3512 109.188 63.3287 109.157C63.3061 109.126 63.2945 109.089 63.2957 109.051C63.2968 109.013 63.3107 108.977 63.335 108.947C63.3594 108.918 63.3928 108.898 63.43 108.89Z" fill="#263238"/>
<path d="M65.05 118.67C66.0302 118.427 67.0447 118.352 68.05 118.45C69.11 118.45 70.17 118.45 71.23 118.45C73.36 118.45 75.48 118.38 77.6 118.27C77.71 118.27 77.73 118.43 77.6 118.43C75.44 118.56 73.29 118.71 71.13 118.81L67.96 118.94C66.9965 119.067 66.0181 119.023 65.07 118.81C65.0514 118.813 65.0325 118.808 65.0175 118.797C65.0025 118.785 64.9926 118.769 64.99 118.75C64.9873 118.731 64.9921 118.713 65.0034 118.698C65.0146 118.683 65.0314 118.673 65.05 118.67Z" fill="#263238"/>
<path d="M107.11 67.15C119.97 75.08 153.03 121.75 146.95 134.59C140.87 147.43 99.4 133.3 99.4 133.3L103.07 98.41C103.07 98.41 113.97 104.54 114.34 103.99C114.71 103.44 108.34 87.51 105.76 80.99C103.18 74.47 100.3 62.92 107.11 67.15Z" fill="#E51D1B"/>
<path d="M104.65 131.32C105.42 126.72 107.87 107.75 108.13 103.62C108.13 103.33 107.97 103.25 107.91 103.55C105.28 117.3 105 126.73 104.47 131.29C104.46 131.41 104.64 131.41 104.65 131.32Z" fill="#263238"/>
<path d="M103.3 98.46C104.505 98.9083 105.675 99.4465 106.8 100.07C107.8 100.58 108.85 101.07 109.87 101.63C112.08 102.77 114.26 103.97 116.44 105.19C118.62 106.41 120.77 107.64 122.91 108.91C125.05 110.18 127.11 111.56 129.25 112.83C129.35 112.89 129.25 113.04 129.15 112.98C126.98 111.75 124.72 110.66 122.52 109.48L116.05 106L109.57 102.54L106.42 100.82C105.261 100.259 104.145 99.6141 103.08 98.89C103.023 98.8608 102.98 98.8102 102.96 98.7492C102.94 98.6883 102.946 98.622 102.975 98.565C103.004 98.508 103.055 98.4649 103.116 98.4452C103.177 98.4255 103.243 98.4308 103.3 98.46Z" fill="#263238"/>
<path d="M106.98 88.41C107.65 89.27 108.31 90.13 108.98 91.02L109.31 91.52L108.8 90.15C108.134 88.5698 107.557 86.954 107.07 85.31C107.07 85.23 107.16 85.2 107.2 85.31C108.014 86.9031 108.741 88.5388 109.38 90.21C110.06 91.81 110.76 93.42 111.38 95.03C112 96.64 112.7 98.27 113.32 99.9C113.995 101.483 114.55 103.114 114.98 104.78C114.98 104.88 114.87 104.91 114.82 104.78C113.951 103.218 113.199 101.593 112.57 99.92C111.9 98.3 111.27 96.67 110.63 95.05C110.36 94.37 110.1 93.68 109.84 93C109.73 92.85 109.62 92.69 109.5 92.54C109.19 92.11 108.9 91.67 108.61 91.23C108.03 90.31 107.48 89.38 106.94 88.44C106.92 88.41 106.96 88.41 106.98 88.41Z" fill="#263238"/>
<path d="M99.3 132.53C99.3 132.3 99.44 132.25 99.48 132.53C99.52 132.81 99.48 132.92 99.54 133.05C100.95 133.43 106.12 135.05 107.37 135.38C110.037 136.173 112.703 136.863 115.37 137.45C118.08 138.05 120.79 138.56 123.52 138.99C126.25 139.42 129 139.87 131.74 139.99C131.758 139.996 131.773 140.008 131.784 140.023C131.795 140.038 131.8 140.056 131.8 140.075C131.8 140.094 131.795 140.112 131.784 140.127C131.773 140.142 131.758 140.154 131.74 140.16C128.94 140.02 126.16 139.94 123.36 139.62C120.56 139.3 117.91 138.85 115.22 138.28C112.53 137.71 109.76 137.01 107.08 136.19C105.74 135.78 104.42 135.34 103.08 134.87C101.79 134.495 100.54 133.993 99.35 133.37C99.3066 133.343 99.2715 133.304 99.2486 133.258C99.2257 133.212 99.2158 133.161 99.22 133.11L99.3 132.53Z" fill="#263238"/>
<path d="M104.79 67.83C104.6 68.97 99.65 76.64 94.36 76.83C92.64 76.83 91.99 67.73 91.99 67.73L91.78 67.07L88.9 57.78L99.77 49.85L101.3 48.74C101.3 48.74 101.91 51.33 102.65 54.56C102.65 54.71 102.72 54.86 102.75 55.03C102.78 55.2 102.85 55.38 102.88 55.55C103 56.03 103.11 56.55 103.22 57.02C103.33 57.49 103.38 57.76 103.45 58.15C103.52 58.54 103.61 58.94 103.69 59.33C104.254 62.1342 104.622 64.9745 104.79 67.83Z" fill="#FAB8AE"/>
<path d="M102.7 54.56C101.896 57.3062 100.502 59.8438 98.6159 61.9958C96.7298 64.1478 94.397 65.8624 91.78 67.02L88.9 57.73L99.77 49.8L101.3 48.74C101.3 48.74 101.96 51.33 102.7 54.56Z" fill="#263238"/>
<path d="M76.21 40.07C72.45 56.7 82.27 60.77 85.96 61.56C89.3 62.27 100.81 64.28 106.3 48.11C111.79 31.94 105.04 24.98 97.47 22.96C89.9 20.94 79.97 23.41 76.21 40.07Z" fill="#FAB8AE"/>
<path d="M79.54 36.95C79.96 36.95 80.34 36.95 80.75 36.9C81.1761 36.9396 81.6037 36.8415 81.97 36.62C82.0703 36.5305 82.1377 36.4099 82.1612 36.2775C82.1848 36.1451 82.1632 36.0087 82.1 35.89C81.931 35.6734 81.7082 35.505 81.4537 35.4014C81.1993 35.2979 80.9222 35.2629 80.65 35.3C80.0882 35.2876 79.541 35.4795 79.11 35.84C79.0205 35.9291 78.9589 36.0423 78.9327 36.1658C78.9065 36.2893 78.9169 36.4177 78.9625 36.5355C79.0081 36.6532 79.087 36.7551 79.1895 36.8287C79.2921 36.9023 79.4139 36.9445 79.54 36.95Z" fill="#263238"/>
<path d="M91.43 37.33C91.0419 37.2172 90.6611 37.0802 90.29 36.92C89.8734 36.8343 89.4971 36.6127 89.22 36.29C89.1544 36.1735 89.1295 36.0383 89.1495 35.9061C89.1694 35.7738 89.2329 35.652 89.33 35.56C89.5571 35.4065 89.8199 35.3139 90.093 35.2912C90.3662 35.2684 90.6406 35.3162 90.89 35.43C91.4291 35.5918 91.8889 35.9482 92.18 36.43C92.2308 36.5414 92.2491 36.6648 92.2328 36.7861C92.2165 36.9075 92.1663 37.0217 92.0879 37.1157C92.0096 37.2098 91.9062 37.2798 91.7898 37.3177C91.6734 37.3556 91.5487 37.3598 91.43 37.33Z" fill="#263238"/>
<path d="M87.97 42.84C87.97 42.84 88.05 42.91 88.04 42.96C87.8 44.1 87.73 45.44 88.72 45.96C88.72 45.96 88.72 46.04 88.72 46.03C87.44 45.66 87.56 43.88 87.97 42.84Z" fill="#263238"/>
<path d="M89.23 41.82C91.15 42 90.64 45.71 88.87 45.55C87.1 45.39 87.63 41.68 89.23 41.82Z" fill="#263238"/>
<path d="M89.95 42.1201C90.26 42.3701 90.54 42.7801 90.95 42.8701C91.36 42.9601 91.81 42.6301 92.17 42.3001H92.23C92.14 43.0101 91.76 43.7101 90.97 43.7101C90.18 43.7101 89.81 43.0201 89.72 42.2801C89.69 42.2001 89.83 42.0201 89.95 42.1201Z" fill="#263238"/>
<path d="M81.11 41.51C81.11 41.51 81.01 41.51 81 41.59C80.88 42.75 80.53 44.05 79.41 44.28V44.35C80.74 44.35 81.18 42.62 81.11 41.51Z" fill="#263238"/>
<path d="M80.23 40.16C78.35 39.76 77.67 43.44 79.41 43.82C81.15 44.2 81.81 40.5 80.23 40.16Z" fill="#263238"/>
<path d="M79.39 40.26C79.06 40.41 78.7 40.71 78.34 40.67C77.98 40.63 77.68 40.17 77.49 39.74C77.49 39.74 77.43 39.74 77.42 39.74C77.27 40.44 77.42 41.22 78.05 41.48C78.68 41.74 79.24 41.19 79.54 40.48C79.6 40.41 79.53 40.21 79.39 40.26Z" fill="#263238"/>
<path d="M82.03 46.94C82.03 46.94 81.54 48.62 81.42 49.43C81.42 49.5 81.6 49.57 81.88 49.62C82.5754 49.8467 83.3189 49.8828 84.0329 49.7245C84.747 49.5662 85.4056 49.2193 85.94 48.72C86 48.65 85.94 48.55 85.83 48.59C84.6601 49.1467 83.3448 49.3216 82.07 49.09C82.07 48.86 83.02 46.24 82.89 46.21C82.2197 46.1751 81.5476 46.2255 80.89 46.36C81.82 42.83 83.32 39.48 84.19 35.95C84.2006 35.9221 84.1997 35.8912 84.1875 35.864C84.1753 35.8368 84.1529 35.8156 84.125 35.805C84.0972 35.7944 84.0662 35.7952 84.0391 35.8074C84.0119 35.8196 83.9906 35.8421 83.98 35.87C82.2772 39.4158 80.9371 43.1247 79.98 46.94C79.88 47.41 81.68 47.03 82.03 46.94Z" fill="#263238"/>
<path d="M82.19 49.35C82.5561 50.0604 83.1006 50.6635 83.77 51.1C84.15 51.326 84.5886 51.4339 85.03 51.41C86.03 51.35 86.18 50.53 86.15 49.8C86.1321 49.4065 86.0649 49.0168 85.95 48.64C84.8015 49.2633 83.4867 49.5116 82.19 49.35Z" fill="#263238"/>
<path d="M83.77 51.1C84.15 51.3259 84.5886 51.4338 85.03 51.41C86.03 51.35 86.18 50.53 86.15 49.8C85.6651 49.7196 85.1672 49.804 84.7359 50.0396C84.3045 50.2753 83.9645 50.6486 83.77 51.1Z" fill="#FF9CBD"/>
<path d="M104.79 47C101.64 47.26 101.14 40.06 101.14 40.06C101.14 40.06 87.9 37.24 87.23 26.34C85.3609 30.6853 81.891 34.1444 77.54 36C77.54 36 78.54 24.12 88.04 22.2C88.04 22.2 99.92 18.43 106.12 28C112.32 37.57 106.9 46.82 104.79 47Z" fill="#263238"/>
<path d="M87.21 25.53C86.9864 27.2056 87.1193 28.9094 87.6 30.53C88.061 32.1705 88.854 33.6987 89.93 35.02C90.1989 35.3522 90.4896 35.6663 90.8 35.96L91.24 36.42L91.73 36.82C92.07 37.08 92.39 37.35 92.73 37.6C93.07 37.85 93.45 38.04 93.82 38.25L94.37 38.56L94.94 38.81L96.1 39.31C96.89 39.57 97.7 39.78 98.5 39.99C97.75 39.62 96.98 39.34 96.24 38.99L95.16 38.41L94.62 38.12L94.12 37.77C93.79 37.53 93.45 37.3 93.12 37.08C92.79 36.86 92.51 36.56 92.2 36.3L91.74 35.91L91.3 35.41C91.04 35.1 90.73 34.84 90.5 34.51C89.4755 33.256 88.6739 31.8353 88.13 30.31C87.8515 29.5451 87.6342 28.7593 87.48 27.96C87.3206 27.1593 87.2303 26.3463 87.21 25.53Z" fill="#263238"/>
<path d="M102.77 48.4101C102.77 48.4101 107.26 43.6201 109.55 45.2401C111.84 46.8601 107.96 54.15 104.93 54.83C104.17 55.0575 103.351 54.9747 102.652 54.5999C101.953 54.2251 101.431 53.5888 101.2 52.83L102.77 48.4101Z" fill="#FAB8AE"/>
<path d="M108.38 47.2599V47.3399C106.25 47.8799 104.94 49.5699 103.94 51.3399C104.087 51.1572 104.271 51.0076 104.48 50.9012C104.689 50.7948 104.919 50.7339 105.153 50.7226C105.387 50.7113 105.621 50.7497 105.84 50.8354C106.058 50.9212 106.256 51.0522 106.42 51.2199C106.47 51.2199 106.42 51.3299 106.35 51.3199C106.009 51.1629 105.629 51.1133 105.259 51.1776C104.889 51.2419 104.548 51.4171 104.28 51.6799C103.839 52.1135 103.45 52.5967 103.12 53.1199C103 53.2799 102.69 53.1199 102.78 52.9499C103.1 50.4099 105.58 47.1599 108.38 47.2599Z" fill="#263238"/>
<path d="M91.7 66.54L94.23 74.47L104.81 65.62L107.3 68.97C107.3 68.97 96.46 83.53 96.46 82.83L93.76 75.96L88.7 80.15L90.04 68.66L91.7 66.54Z" fill="#E51D1B"/>
<path d="M89.05 74.41C89.34 72.52 89.57 70.61 89.95 68.73C89.95 68.67 90.07 68.65 90.08 68.73C90.32 70.6 89.19 77.82 89.08 79.56C89.29 79.38 93.76 75.89 93.79 75.96C94.41 77.07 96.39 82.07 96.51 82.53C98.23 80.21 104.76 71.82 106.74 69.67C106.75 69.6565 106.765 69.6471 106.782 69.6438C106.799 69.6405 106.816 69.6434 106.831 69.652C106.846 69.6606 106.857 69.6743 106.862 69.6905C106.867 69.7067 106.867 69.7243 106.86 69.74C105.31 72.21 96.64 83.51 96.53 83.47C95.466 81.1012 94.528 78.6779 93.72 76.21C92.95 76.98 88.41 80.96 88.41 80.67C88.5127 78.5735 88.7263 76.4839 89.05 74.41Z" fill="#263238"/>
</svg>
