<svg width="171" height="157" viewBox="0 0 171 157" fill="none" xmlns="http://www.w3.org/2000/svg">
<path d="M0.26001 0.27002H166.88V143.75H0.26001V0.27002Z" fill="white"/>
<path d="M0 144H167.13V0H0V144ZM166.63 143.5H0.5V0.5H166.63V143.5Z" fill="#A6A6A6"/>
<path d="M0.26001 0.0799561H166.88V9.47996H0.26001V0.0799561Z" fill="#455A64"/>
<path d="M158.73 4.78004C158.73 5.17345 158.846 5.55809 159.064 5.88581C159.282 6.21354 159.591 6.4698 159.954 6.62254C160.316 6.77527 160.716 6.81769 161.102 6.74449C161.489 6.67128 161.845 6.48571 162.127 6.21098C162.408 5.93626 162.603 5.58458 162.685 5.19997C162.768 4.81536 162.735 4.41489 162.592 4.04869C162.448 3.68248 162.199 3.3668 161.877 3.14114C161.555 2.91548 161.173 2.78988 160.78 2.78004C160.513 2.77337 160.248 2.82017 159.999 2.91769C159.751 3.01521 159.524 3.16147 159.333 3.34785C159.142 3.53424 158.99 3.75698 158.887 4.00295C158.783 4.24892 158.73 4.51314 158.73 4.78004Z" fill="#C7C7C7"/>
<path d="M150.38 4.78003C150.38 5.17559 150.497 5.56227 150.717 5.89117C150.937 6.22007 151.249 6.47641 151.615 6.62779C151.98 6.77916 152.382 6.81877 152.77 6.7416C153.158 6.66443 153.515 6.47395 153.794 6.19424C154.074 5.91454 154.264 5.55817 154.342 5.17021C154.419 4.78225 154.379 4.38012 154.228 4.01466C154.076 3.64921 153.82 3.33685 153.491 3.11709C153.162 2.89733 152.776 2.78003 152.38 2.78003C151.85 2.78003 151.341 2.99074 150.966 3.36581C150.591 3.74089 150.38 4.2496 150.38 4.78003Z" fill="white"/>
<path d="M142.04 4.78003C142.04 5.17559 142.157 5.56227 142.377 5.89117C142.597 6.22007 142.909 6.47641 143.275 6.62779C143.64 6.77916 144.042 6.81877 144.43 6.7416C144.818 6.66443 145.174 6.47395 145.454 6.19424C145.734 5.91454 145.924 5.55817 146.001 5.17021C146.079 4.78225 146.039 4.38012 145.888 4.01466C145.736 3.64921 145.48 3.33685 145.151 3.11709C144.822 2.89733 144.435 2.78003 144.04 2.78003C143.51 2.78003 143.001 2.99074 142.626 3.36581C142.251 3.74089 142.04 4.2496 142.04 4.78003Z" fill="#E51D1B"/>
<path d="M71.9 78.51C88.54 94.51 108.17 111.14 117.66 110.04C125.05 109.18 151.96 95.04 159.75 79.97C161.46 76.64 135.1 66.36 133.42 68.39C128.48 74.39 113.09 83 111.89 82.5C110.32 81.84 91.47 72.68 78.68 67.13C61.46 59.65 63.29 70.22 71.9 78.51Z" fill="#F2A58C"/>
<path d="M166.18 75.54C163.24 80.91 152.93 89.54 149.64 90.67C146.35 91.8 131.09 74.78 131.78 71.25C132.47 67.72 143.72 50.42 149.49 48.02C155.26 45.62 169.22 69.97 166.18 75.54Z" fill="#F2A58C"/>
<path d="M133.14 67.96C133.733 63.0474 133.602 58.0744 132.75 53.2C131.53 47.43 129.07 38.99 132.15 38.2C138.48 36.62 144.6 57.66 144.6 57.66C144.6 57.66 145.81 67.38 139.69 69.5C138.562 69.8721 137.354 69.9252 136.198 69.6534C135.042 69.3817 133.984 68.7956 133.14 67.96Z" fill="#F2A58C"/>
<path d="M141.32 53.5C143.02 56.26 145.2 54.72 145.2 54.72C145.2 54.72 140.52 58.93 141.95 62.21C143.38 65.49 147.78 62.78 148.1 62.59C147.85 62.82 143.65 66.8 145.43 69.95C147.21 73.1 151.29 69.85 151.55 69.63C151.38 69.92 149.26 73.72 151.16 75.81C154.43 79.39 160.16 69.81 163.97 69.01C163.97 69.01 166.08 75.37 166.18 75.54C166.18 75.54 171.79 66.54 170.41 61.41C170.221 60.6609 169.782 59.9987 169.166 59.5331C168.549 59.0676 167.792 58.8266 167.02 58.85C167.02 58.85 169.15 56.15 167.83 53.62C167.14 52.33 164.46 52.27 164.46 52.27C164.911 51.6336 165.177 50.8852 165.23 50.1072C165.283 49.3291 165.12 48.5516 164.76 47.86C163.71 46.12 161.18 46.33 161.18 46.33C161.18 46.33 171.54 36.78 169.36 33.78C165.6 28.6 144.59 50.21 141.8 49.78C140.42 49.57 140.58 52.3 141.32 53.5Z" fill="#F2A58C"/>
<path d="M160.78 46.3099C160.83 46.3099 160.78 46.2099 160.78 46.2199C154.767 47.4052 149.257 50.3905 144.98 54.7799C144.85 54.9199 144.71 55.7799 144.87 55.6599C148.78 51.9199 154.93 48.4999 160.78 46.3099Z" fill="#263238"/>
<path d="M164.53 52.2C164.59 52.2 164.53 52.07 164.48 52.09C157.871 53.4743 151.976 57.1775 147.86 62.53C147.72 62.72 147.79 63.03 147.96 62.82C150.92 59.32 159.25 54.15 164.53 52.2Z" fill="#263238"/>
<path d="M151.4 70.12C155.48 64.92 160.8 61.56 166.77 58.89C166.85 58.89 166.77 58.75 166.72 58.76C163.45 59.27 159.82 61.37 157.13 63.24C154.605 64.9313 152.567 67.2552 151.22 69.98C151.17 70.08 151.31 70.23 151.4 70.12Z" fill="#263238"/>
<path d="M145.09 54.71C144.93 54.88 145.65 54.93 145.5 55.11C143.86 57.05 141.09 60.65 142.36 62.34C143.36 63.69 145.91 63.26 146.81 62.71L149.09 61.34L147.43 63.42C146.687 64.3401 146.096 65.3732 145.68 66.48C145.457 66.9821 145.342 67.5255 145.342 68.075C145.342 68.6244 145.457 69.1678 145.68 69.67C145.899 70.1287 146.268 70.4988 146.727 70.7188C147.185 70.9389 147.705 70.9958 148.2 70.88C149.308 70.6011 150.324 70.0394 151.15 69.25L153.52 67.16L151.97 69.9C151.536 70.6578 151.2 71.4676 150.97 72.31C150.73 73.1055 150.73 73.9544 150.97 74.75C151.091 75.1012 151.308 75.4117 151.596 75.6466C151.884 75.8815 152.232 76.0316 152.6 76.08C153.444 76.0689 154.266 75.8155 154.97 75.35C156.504 74.3655 157.959 73.2621 159.32 72.05C160.03 71.46 160.75 70.87 161.49 70.31C162.202 69.708 163.033 69.2648 163.93 69.01C163.08 69.3569 162.305 69.8664 161.65 70.51C160.96 71.11 160.3 71.75 159.65 72.39C158.345 73.7271 156.915 74.9359 155.38 76C154.562 76.6016 153.584 76.9493 152.57 77C152.017 76.9639 151.486 76.7666 151.044 76.4325C150.601 76.0984 150.266 75.6422 150.08 75.12C149.76 74.1485 149.739 73.1034 150.02 72.12C150.251 71.178 150.604 70.2703 151.07 69.42L151.89 70.06C150.932 71.0184 149.739 71.7081 148.43 72.06C147.699 72.2333 146.93 72.1411 146.26 71.8C145.612 71.452 145.085 70.9148 144.75 70.26C144.47 69.6302 144.326 68.9489 144.326 68.26C144.326 67.571 144.47 66.8897 144.75 66.26C145.23 65.0452 145.906 63.917 146.75 62.92L147.37 63.63C146.19 64.29 143.42 65.08 141.57 63.18C139.49 60.23 144.17 55.51 145.09 54.71Z" fill="#263238"/>
<path d="M130.66 70.16L152.5 95.26C152.5 95.26 126.21 111.78 115.97 110.98C105.73 110.18 81.78 90.88 70.11 77.17C58.19 63.17 69.2 62.17 78.23 66.54C87.26 70.91 111.32 81.72 111.99 81.68C112.66 81.64 130.66 70.16 130.66 70.16Z" fill="#455A64"/>
<path d="M134.87 85.86C133.41 84.12 131.95 82.38 130.48 80.66C129.01 78.94 127.59 77.14 126 75.53C125.93 75.46 125.79 75.53 125.85 75.64C127.08 77.44 128.52 79.13 129.85 80.85C131.18 82.57 132.74 84.47 134.2 86.28C137.08 89.85 140.09 93.28 143.2 96.7C143.28 96.79 143.38 96.7 143.32 96.59C140.57 92.95 137.78 89.36 134.87 85.86Z" fill="#263238"/>
<path opacity="0.1" d="M70.1199 77.17C81.7799 90.87 105.73 110.22 115.97 110.98C118.35 111.15 121.62 110.4 125.2 109.12L68.7799 64.25C64.2199 64.59 62.5299 68.26 70.1199 77.17Z" fill="black"/>
<path d="M29.4 143.78H96.25C96.55 141.03 83.66 75.0099 76.25 65.3999C74.67 63.3999 69.47 62.7799 65.05 63.3299C63.8949 63.4572 62.7536 63.6882 61.64 64.0199H61.53C60.6277 64.2717 59.78 64.6888 59.03 65.2499C43.68 78.4299 28.78 143.08 29.4 143.78Z" fill="#455A64"/>
<path d="M60.91 75.6C58.08 87.08 38.8 127.65 37.45 130.02C37.45 130.02 12.16 149.9 8.78997 134.23C5.41997 118.56 35.57 88.3 49.34 73.13C57.63 64 62.88 67.64 60.91 75.6Z" fill="#455A64"/>
<path d="M39.54 125.46C41.16 122.46 42.7 119.4 44.21 116.34C45.72 113.28 47.21 110.18 48.63 107.09C50.05 104 51.45 100.87 52.78 97.7199C54.11 94.5699 55.4 91.4099 56.51 88.1799C55.11 91.2999 53.68 94.3899 52.25 97.4899L47.95 106.78L43.69 116.1C42.29 119.21 40.88 122.32 39.54 125.46Z" fill="#263238"/>
<path d="M56.16 92.04C55.66 92.64 55.23 93.28 54.77 93.9L54.09 94.83C53.8683 95.1466 53.6208 95.4443 53.35 95.72C53.9896 95.2655 54.5389 94.6958 54.97 94.04C55.4219 93.4079 55.82 92.7388 56.16 92.04Z" fill="#263238"/>
<path d="M54.6399 123.71C58.0999 125.27 71.8899 148.77 66.3099 148.96C40.0699 149.85 15.6 142.85 11.73 139.39C6.65995 134.85 8.34995 126.52 11.73 123.65C16.69 119.49 51.2199 122.17 54.6399 123.71Z" fill="#F2A58C"/>
<path d="M54.64 123.71L64.11 156.27C38.11 155.87 15.6 142.85 11.73 139.39C6.66001 134.85 8.35001 126.52 11.73 123.65C16.69 119.49 51.22 122.17 54.64 123.71Z" fill="#455A64"/>
<path d="M51.91 138.6C51.2033 136.22 50.4833 133.85 49.75 131.49C49.01 129.14 48.3599 126.72 47.4599 124.43C47.4599 124.32 47.24 124.35 47.26 124.43C47.72 126.76 48.44 129.08 49.06 131.38C49.68 133.68 50.39 136.26 51.06 138.69C52.41 143.51 53.95 148.26 55.56 153C55.56 153.12 55.76 153.05 55.73 152.94C54.58 148.16 53.34 143.36 51.91 138.6Z" fill="#263238"/>
<path d="M24.99 121.3C34.6162 120.995 44.2487 121.665 53.74 123.3C54 123.3 54.23 123.82 54.08 123.81C51.46 123.72 39.42 121.74 25.08 121.63C24.9799 121.66 24.9 121.31 24.99 121.3Z" fill="#263238"/>
<path d="M69.42 82.9101L72.62 76.6801L76.75 81.18L75.74 85.6701L71.66 86.1901L69.42 82.9101Z" fill="#E51D1B"/>
<path d="M69.7199 132.01L76.3799 143.75H79.2L83.0699 132.1L75.7399 85.67L71.67 86.19L69.7199 132.01Z" fill="#E51D1B"/>
<path d="M73.95 76.11C70.07 77.51 62.54 72.19 59.28 67.56C59.06 67.24 59.17 63.62 59.1 59.21C59.05 56.53 58.93 53.55 58.62 50.84L76.09 53.04C75.5025 56.5411 75.348 60.1011 75.63 63.64C75.677 64.0131 75.7573 64.3812 75.87 64.74C75.87 64.79 75.87 64.85 75.92 64.92C76.5 66.99 77.7 74.78 73.95 76.11Z" fill="#F2A58C"/>
<path d="M59.85 51C60.75 54.53 64.45 66.09 74.18 65.21C74.768 65.1641 75.3505 65.0636 75.92 64.91C75.9129 64.8536 75.9129 64.7964 75.92 64.74C75.7983 64.3797 75.7145 64.0077 75.67 63.63C75.3888 60.0945 75.5432 56.5378 76.13 53.04L59.85 51Z" fill="#263238"/>
<path d="M54.69 29.9199C53.1 36.0699 57.05 53.4399 61.52 57.1599C68.01 62.5599 78.27 62.66 82.76 54.9399C87.11 47.4599 81.57 24.9399 76.6 21.5699C69.29 16.6399 57.05 20.8599 54.69 29.9199Z" fill="#F2A58C"/>
<path d="M71.87 40.23C71.87 40.23 71.79 40.3 71.8 40.35C72.1 41.51 72.25 42.9 71.27 43.52C71.27 43.52 71.27 43.6 71.27 43.58C72.55 43.12 72.34 41.28 71.87 40.23Z" fill="#263238"/>
<path d="M70.55 39.24C68.64 39.51 69.33 43.32 71.1 43.07C72.87 42.82 72.16 39.01 70.55 39.24Z" fill="#263238"/>
<path d="M78.84 38.72C78.84 38.72 78.94 38.72 78.95 38.8C79.12 39.99 79.52 41.32 80.66 41.52C80.66 41.52 80.71 41.59 80.66 41.59C79.33 41.64 78.78 39.87 78.84 38.72Z" fill="#263238"/>
<path d="M79.67 37.29C81.54 36.8 82.38 40.59 80.67 41.04C78.96 41.49 78.1 37.7 79.67 37.29Z" fill="#263238"/>
<path d="M68.73 37.78C69.2032 37.5406 69.6638 37.2769 70.11 36.99C70.6352 36.7799 71.0776 36.4043 71.37 35.92C71.441 35.7431 71.449 35.5471 71.3925 35.365C71.3361 35.1829 71.2186 35.0258 71.06 34.92C70.7421 34.7682 70.3897 34.703 70.0385 34.7311C69.6873 34.7592 69.3497 34.8796 69.06 35.08C68.3947 35.4081 67.8746 35.971 67.6 36.66C67.5445 36.8172 67.5348 36.987 67.5721 37.1494C67.6093 37.3119 67.692 37.4605 67.8104 37.5778C67.9288 37.6952 68.0781 37.7765 68.2409 37.8123C68.4037 37.8481 68.5733 37.8369 68.73 37.78Z" fill="#263238"/>
<path d="M80.7799 35.11C80.2399 35.11 79.78 35.0299 79.2 34.9899C78.6337 35.0279 78.0709 34.8767 77.5999 34.5599C77.47 34.4316 77.3866 34.2635 77.363 34.0823C77.3395 33.9011 77.3771 33.7173 77.4699 33.5599C77.6929 33.2742 77.9893 33.0544 78.3275 32.9241C78.6657 32.7938 79.0329 32.7578 79.3899 32.82C80.1326 32.8298 80.8453 33.1149 81.3899 33.6199C81.5082 33.7428 81.5883 33.8975 81.6203 34.065C81.6524 34.2326 81.635 34.4058 81.5704 34.5637C81.5057 34.7216 81.3966 34.8572 81.2563 34.9542C81.116 35.0512 80.9505 35.1053 80.7799 35.11Z" fill="#263238"/>
<path d="M72.92 51.17C73.25 51.39 73.6 51.72 74.03 51.68C74.4703 51.594 74.8866 51.4132 75.25 51.15C75.25 51.15 75.33 51.15 75.31 51.15C75.1833 51.4128 74.9885 51.6368 74.7457 51.7987C74.503 51.9605 74.2213 52.0542 73.93 52.07C73.6775 52.0495 73.4367 51.9551 73.2375 51.7986C73.0383 51.6421 72.8896 51.4305 72.81 51.19C72.78 51.18 72.87 51.13 72.92 51.17Z" fill="#263238"/>
<path d="M73.52 47.41C73.903 47.8223 74.3673 48.1507 74.8837 48.3745C75.4001 48.5982 75.9572 48.7125 76.52 48.71C77.014 48.7187 77.5065 48.6513 77.98 48.51C78.0731 48.4953 78.1639 48.4684 78.25 48.43L78.5 48.35C78.5612 48.3262 78.613 48.283 78.6473 48.227C78.6816 48.171 78.6966 48.1053 78.69 48.04C78.6945 48.0001 78.6945 47.9599 78.69 47.92V47.82C78.55 46.9 78.21 45.54 78.21 45.54C78.57 45.64 80.4 46.1 80.29 45.63C79.4408 41.5488 78.1776 37.5648 76.52 33.74C76.5107 33.7121 76.4907 33.6891 76.4645 33.676C76.4382 33.6629 76.4078 33.6607 76.38 33.67C76.3521 33.6793 76.3291 33.6992 76.316 33.7255C76.3029 33.7517 76.3007 33.7821 76.31 33.81C77.08 37.59 78.5 41.2 79.31 44.98C78.6583 44.8051 77.9843 44.7276 77.31 44.75C77.19 44.81 78.01 47.38 78.04 47.75C78.0461 47.7661 78.0461 47.7839 78.04 47.8C77.3095 48.0099 76.5442 48.0702 75.7899 47.9774C75.0356 47.8846 74.3078 47.6406 73.65 47.26C73.51 47.23 73.43 47.33 73.52 47.41Z" fill="#263238"/>
<path d="M77.36 48.3C76.9491 49.0233 76.3561 49.6266 75.64 50.05C75.2437 50.2682 74.7898 50.359 74.34 50.31C73.34 50.19 73.21 49.31 73.29 48.55C73.3342 48.141 73.4248 47.7384 73.56 47.35C74.693 48.0637 76.0244 48.3965 77.36 48.3Z" fill="#263238"/>
<path d="M75.64 50.05C75.2437 50.2682 74.7897 50.359 74.34 50.31C73.34 50.19 73.21 49.31 73.29 48.55C73.7933 48.4994 74.2989 48.62 74.7253 48.8921C75.1517 49.1643 75.4739 49.5722 75.64 50.05Z" fill="#FF9CBD"/>
<path d="M55.7199 44.7801C55.7199 44.7801 50.1699 34.6101 50.9899 28.92C51.3599 26.35 54.9899 24.7601 54.9899 24.7601C54.768 23.6933 54.8489 22.5857 55.2235 21.5625C55.5982 20.5393 56.2516 19.6413 57.1099 18.9701C60.2899 16.2301 67.67 17.2101 67.67 17.2101C67.67 17.2101 72.78 10.5001 79.45 13.5501C86.12 16.6001 81.3399 24.1101 81.3399 24.1101C81.3399 24.1101 83.6699 27.7601 77.4599 30.2501C71.4599 32.6701 59.4599 29.4701 59.4599 29.4701C59.8298 33.6646 59.5737 37.8909 58.7 42.0101C58.5125 42.7045 58.1338 43.3324 57.6069 43.8221C57.0801 44.3119 56.4262 44.6438 55.7199 44.7801Z" fill="#263238"/>
<path d="M68.78 17.37C67.2953 16.6844 65.6849 16.3133 64.05 16.28C62.5865 16.1886 61.1182 16.351 59.71 16.76C57.23 17.52 54.98 19.22 54.45 21.89C54.3189 22.5427 54.3194 23.2151 54.4517 23.8676C54.5839 24.5202 54.8451 25.1397 55.22 25.69L55.29 25.63C53.81 23.63 54.77 20.63 56.47 19.08C58.41 17.32 61.24 16.78 63.78 16.78C65.4708 16.8277 67.1496 17.0795 68.78 17.53C68.8012 17.53 68.8216 17.5215 68.8366 17.5065C68.8516 17.4915 68.86 17.4712 68.86 17.45C68.86 17.4287 68.8516 17.4084 68.8366 17.3934C68.8216 17.3784 68.8012 17.37 68.78 17.37Z" fill="#263238"/>
<path d="M78.88 30.64C76.1252 31.6183 73.1923 31.9934 70.28 31.74C67.2531 31.5151 64.2592 30.9653 61.35 30.1C59.65 29.61 57.9699 29.1 56.2999 28.46C56.2999 28.46 56.2299 28.52 56.2999 28.55C59.1911 29.9421 62.2212 31.0248 65.34 31.78C68.2507 32.4654 71.2675 32.5741 74.22 32.1C75.8374 31.8285 77.4135 31.3513 78.91 30.68C78.91 30.68 78.92 30.63 78.88 30.64Z" fill="#263238"/>
<path d="M59.04 44.04C59.04 44.04 54.73 38.63 52.25 40.2C49.77 41.77 53.25 49.78 56.35 50.72C56.7374 50.8663 57.1504 50.9327 57.5641 50.9152C57.9778 50.8978 58.3838 50.7968 58.7574 50.6184C59.1311 50.4399 59.4649 50.1877 59.7386 49.877C60.0122 49.5662 60.2202 49.2032 60.35 48.81L59.04 44.04Z" fill="#F2A58C"/>
<path d="M53.31 42.47V42.55C55.48 43.28 56.71 45.17 57.62 47.15C57.4838 46.9464 57.3054 46.7747 57.0967 46.6465C56.8881 46.5183 56.6542 46.4367 56.4111 46.4072C56.168 46.3778 55.9215 46.4012 55.6883 46.4759C55.455 46.5506 55.2407 46.6748 55.06 46.84C55.0454 46.8479 55.0346 46.8613 55.0299 46.8773C55.0252 46.8932 55.027 46.9104 55.035 46.925C55.0429 46.9396 55.0563 46.9504 55.0723 46.9551C55.0882 46.9598 55.1054 46.9579 55.12 46.95C55.4849 46.8094 55.8844 46.7848 56.2638 46.8797C56.6432 46.9745 56.9841 47.1842 57.2399 47.48C57.6587 47.9827 58.0272 48.5253 58.34 49.1C58.45 49.28 58.78 49.16 58.7 48.95C58.55 46.2 56.22 42.56 53.31 42.47Z" fill="#263238"/>
<path d="M75.87 64.5501L72.15 74.8301L59.15 62.5601L55.78 66.7801C55.78 66.7801 68.78 86.5701 68.78 85.6501L72.64 76.7801L78.86 82.5901L77.78 67.4701L75.87 64.5501Z" fill="#37474F"/>
<path d="M78.78 75.1C78.52 72.61 78.33 70.1 77.95 67.61C77.95 67.52 77.8 67.49 77.78 67.61C77.37 70.05 78.41 79.61 78.49 81.88C78.23 81.63 72.74 76.78 72.69 76.88C71.84 78.29 69.03 84.73 68.84 85.31C66.79 82.17 58.92 70.76 56.51 67.8C56.4967 67.7801 56.4761 67.7663 56.4526 67.7616C56.4292 67.757 56.4049 67.7618 56.385 67.775C56.3651 67.7883 56.3513 67.8089 56.3466 67.8324C56.3419 67.8558 56.3467 67.8801 56.36 67.9C58.2 71.23 68.63 86.6 68.77 86.55C70.2661 83.509 71.6013 80.3913 72.77 77.21C73.71 78.27 79.28 83.78 79.28 83.4C79.2607 80.6264 79.0938 77.8559 78.78 75.1Z" fill="#263238"/>
<path d="M18.37 138.54H80.5V141.33H18.37V138.54Z" fill="#C7C7C7"/>
<path d="M49.23 138.54H80.5V141.33H49.23V138.54Z" fill="#A6A6A6"/>
<path d="M52.5899 141.32H113.15L121.06 100.2H60.5099L52.5899 141.32Z" fill="#C7C7C7"/>
<path d="M83.14 120.78C83.0887 121.25 83.1381 121.725 83.285 122.173C83.4319 122.622 83.6729 123.035 83.9919 123.383C84.3109 123.731 84.7005 124.008 85.1347 124.193C85.5689 124.379 86.0378 124.47 86.51 124.46C87.5118 124.443 88.4724 124.059 89.2097 123.381C89.947 122.702 90.4097 121.777 90.51 120.78C90.5627 120.311 90.5147 119.835 90.3691 119.386C90.2234 118.937 89.9836 118.523 89.6655 118.174C89.3475 117.825 88.9586 117.548 88.5248 117.361C88.091 117.174 87.6223 117.081 87.15 117.09C86.1463 117.109 85.1843 117.495 84.4455 118.175C83.7068 118.855 83.2424 119.781 83.14 120.78Z" fill="#EBEBEB"/>
<path d="M60.41 144.24C64.74 146.58 69.9799 152.18 73.5899 152.81C74.4733 152.994 75.3923 152.889 76.2114 152.511C77.0306 152.133 77.7066 151.501 78.1399 150.71C78.1399 150.71 79.7499 154.43 83.1399 154.46C84.8699 154.46 86.42 151.72 86.42 151.72C86.42 151.72 87.7799 154.64 90.7799 154.48C93.1599 154.36 94.35 151.62 94.35 151.62C94.35 151.62 97.03 153.78 99.42 152.87C104.26 151.03 105.34 130.55 97.9599 126.98C94.5299 125.32 94.5299 130.34 94.5299 130.34C94.5299 130.34 92.7799 123.13 88.5299 122.8C84.2799 122.47 84.7799 128.98 84.7799 128.98C84.7799 128.98 83.0199 121.98 78.6099 122.11C74.0199 122.21 75.54 128.66 75.54 128.66C75.54 128.66 72.6899 123.94 69.3399 124.79C63.7899 126.19 70.0799 136.89 68.7799 141.33H61.45L60.41 144.24Z" fill="#F2A58C"/>
<path d="M66.65 148.24C62.35 146.38 60.3 149.44 55.81 148.86C50.81 148.21 52.45 142.37 61.2 141.33H68.78L66.65 148.24Z" fill="#F2A58C"/>
<path d="M94.65 151.21C94.65 151.223 94.6553 151.236 94.6646 151.245C94.674 151.255 94.6868 151.26 94.7 151.26C94.7133 151.26 94.726 151.255 94.7354 151.245C94.7447 151.236 94.75 151.223 94.75 151.21C96.8493 144.302 96.8004 136.919 94.61 130.04C94.53 129.82 94.15 129.85 94.18 130.1C95.3589 137.077 95.5172 144.188 94.65 151.21Z" fill="#263238"/>
<path d="M86.43 151.78C86.43 151.86 86.56 151.88 86.58 151.78C88.58 144.91 88.53 135.99 84.99 128.69C84.86 128.44 84.5 128.34 84.62 128.64C86.61 133.78 87.35 145.25 86.43 151.78Z" fill="#263238"/>
<path d="M75.13 128.21C78.25 135.34 78.78 142.75 78.23 150.43C78.23 150.54 78.37 150.53 78.4 150.43C79.69 146.74 79.53 141.81 79.08 137.98C78.7322 134.414 77.4566 131 75.38 128.08C75.29 127.99 75.06 128.06 75.13 128.21Z" fill="#263238"/>
</svg>
