<svg width="696" height="786" viewBox="0 0 696 786" fill="none" xmlns="http://www.w3.org/2000/svg">
<path d="M225.619 89.3198V220.888H207.137V252.793L175.215 220.888H0V89.3198H225.619Z" fill="white"/>
<path d="M70.1544 155.095C70.1544 157.215 69.5254 159.287 68.3471 161.05C67.1687 162.813 65.4938 164.186 63.5342 164.998C61.5746 165.809 59.4183 166.021 57.338 165.608C55.2578 165.194 53.3469 164.173 51.8471 162.674C50.3473 161.175 49.3259 159.265 48.9121 157.186C48.4983 155.107 48.7107 152.952 49.5224 150.993C50.3341 149.035 51.7086 147.361 53.4722 146.183C55.2358 145.005 57.3092 144.377 59.4302 144.377C62.2745 144.377 65.0022 145.506 67.0134 147.516C69.0245 149.526 70.1544 152.252 70.1544 155.095Z" fill="#EBEBEB"/>
<path d="M123.508 155.095C123.508 157.215 122.879 159.287 121.7 161.05C120.522 162.812 118.847 164.186 116.888 164.997C114.928 165.809 112.772 166.021 110.691 165.607C108.611 165.194 106.7 164.173 105.2 162.674C103.701 161.175 102.679 159.265 102.265 157.186C101.852 155.107 102.064 152.952 102.876 150.993C103.687 149.035 105.062 147.361 106.826 146.183C108.589 145.005 110.663 144.377 112.784 144.377C115.628 144.377 118.356 145.506 120.367 147.516C122.378 149.526 123.508 152.252 123.508 155.095Z" fill="#EBEBEB"/>
<path d="M519.176 208.097V311.19H533.653V336.2L558.676 311.19H696V208.097H519.176Z" fill="white"/>
<path d="M641.021 259.635C641.017 261.293 641.506 262.914 642.425 264.295C643.344 265.675 644.652 266.751 646.183 267.388C647.714 268.025 649.4 268.193 651.028 267.872C652.655 267.551 654.15 266.754 655.324 265.583C656.499 264.412 657.299 262.92 657.624 261.294C657.949 259.668 657.784 257.983 657.15 256.451C656.516 254.919 655.441 253.609 654.062 252.688C652.683 251.766 651.062 251.275 649.403 251.275C647.183 251.275 645.054 252.155 643.482 253.722C641.911 255.29 641.025 257.416 641.021 259.635Z" fill="#EBEBEB"/>
<path d="M599.213 259.635C599.21 261.293 599.698 262.914 600.617 264.295C601.536 265.675 602.844 266.751 604.375 267.388C605.907 268.025 607.593 268.193 609.22 267.872C610.848 267.551 612.343 266.754 613.517 265.583C614.691 264.412 615.491 262.92 615.816 261.294C616.141 259.668 615.976 257.983 615.342 256.451C614.708 254.919 613.634 253.609 612.255 252.688C610.876 251.766 609.255 251.275 607.596 251.275C605.376 251.275 603.246 252.155 601.675 253.722C600.103 255.29 599.218 257.416 599.213 259.635Z" fill="#EBEBEB"/>
<path d="M557.407 259.635C557.404 261.294 557.893 262.916 558.813 264.296C559.732 265.677 561.041 266.754 562.574 267.39C564.106 268.026 565.793 268.194 567.421 267.871C569.049 267.548 570.544 266.75 571.717 265.577C572.891 264.404 573.69 262.91 574.013 261.283C574.335 259.656 574.168 257.97 573.531 256.438C572.895 254.907 571.817 253.598 570.436 252.679C569.055 251.76 567.432 251.271 565.772 251.275C563.555 251.279 561.43 252.162 559.863 253.729C558.295 255.295 557.412 257.419 557.407 259.635Z" fill="#EBEBEB"/>
<path d="M434.74 106.237C434.75 112.622 432.783 118.854 429.109 124.078C425.434 129.301 420.233 133.261 414.219 135.413C408.204 137.566 401.671 137.806 395.514 136.1C389.358 134.395 383.88 130.827 379.832 125.887C378.43 124.121 376.652 122.688 374.627 121.693C372.602 120.698 370.381 120.166 368.125 120.135C364.189 120.145 360.416 121.712 357.633 124.494C354.849 127.276 353.281 131.046 353.272 134.98V212.528H275.665C273.717 212.53 271.789 212.149 269.989 211.406C268.189 210.662 266.554 209.572 265.176 208.196C263.798 206.821 262.705 205.188 261.959 203.39C261.213 201.592 260.83 199.665 260.83 197.718C260.827 195.461 261.353 193.234 262.367 191.216C263.38 189.199 264.812 187.42 266.567 186C271.505 181.96 275.072 176.492 276.779 170.347C278.487 164.202 278.252 157.679 276.106 151.673C273.959 145.666 270.008 140.47 264.791 136.796C259.575 133.122 253.35 131.15 246.969 131.15C240.587 131.15 234.362 133.122 229.146 136.796C223.93 140.47 219.978 145.666 217.832 151.673C215.685 157.679 215.45 164.202 217.158 170.347C218.865 176.492 222.432 181.96 227.37 186C229.138 187.405 230.572 189.185 231.567 191.212C232.562 193.239 233.095 195.461 233.125 197.718C233.128 199.665 232.746 201.594 232.001 203.393C231.256 205.192 230.163 206.826 228.785 208.202C227.406 209.578 225.77 210.668 223.969 211.41C222.168 212.153 220.238 212.532 218.29 212.528H140.594V4.31802e-05H218.219C222.15 4.03284e-05 225.921 1.55972 228.703 4.33648C231.484 7.11323 233.049 10.88 233.054 14.8093C233.053 17.0686 232.52 19.296 231.499 21.3117C230.484 23.3282 229.053 25.1062 227.299 26.528C222.355 30.5689 218.783 36.039 217.072 42.1884C215.361 48.3379 215.594 54.8658 217.741 60.8773C219.887 66.8889 223.841 72.0898 229.061 75.7673C234.281 79.4448 240.511 81.4189 246.897 81.4189C253.283 81.4189 259.513 79.4448 264.733 75.7673C269.953 72.0898 273.907 66.8889 276.053 60.8773C278.2 54.8658 278.433 48.3379 276.722 42.1884C275.011 36.039 271.439 30.5689 266.496 26.528C264.73 25.1219 263.299 23.341 262.307 21.3142C261.314 19.2875 260.785 17.0655 260.758 14.8093C260.756 12.8623 261.138 10.9341 261.883 9.13511C262.628 7.33614 263.721 5.70185 265.099 4.32598C266.477 2.95011 268.114 1.85974 269.915 1.11739C271.715 0.375046 273.645 -0.00466101 275.593 4.31802e-05H353.29V77.5654C353.29 81.5025 354.855 85.2784 357.64 88.0624C360.426 90.8463 364.204 92.4103 368.143 92.4103C370.397 92.4049 372.619 91.8727 374.631 90.8562C376.645 89.8362 378.422 88.4062 379.85 86.6581C383.898 81.7181 389.376 78.1507 395.532 76.4452C401.688 74.7397 408.222 74.9797 414.237 77.1322C420.251 79.2848 425.452 83.2444 429.126 88.468C432.8 93.6916 434.767 99.9234 434.758 106.309L434.74 106.237Z" fill="#E51D1B"/>
<path d="M334.683 212.474H294.825V245.29L334.683 212.474Z" fill="#E51D1B"/>
<g opacity="0.6">
<path d="M434.74 106.237C434.75 112.622 432.783 118.854 429.109 124.078C425.434 129.301 420.233 133.261 414.219 135.413C408.204 137.566 401.671 137.806 395.514 136.1C389.358 134.395 383.88 130.827 379.832 125.887C378.43 124.121 376.652 122.688 374.627 121.693C372.602 120.698 370.381 120.166 368.125 120.135C364.189 120.145 360.416 121.712 357.633 124.494C354.849 127.276 353.281 131.046 353.272 134.98V212.528H275.665C273.717 212.53 271.789 212.149 269.989 211.406C268.189 210.662 266.554 209.572 265.176 208.196C263.798 206.821 262.705 205.188 261.959 203.39C261.213 201.592 260.83 199.665 260.83 197.718C260.827 195.461 261.353 193.234 262.367 191.216C263.38 189.199 264.812 187.42 266.567 186C271.505 181.96 275.072 176.492 276.779 170.347C278.487 164.202 278.252 157.679 276.106 151.673C273.959 145.666 270.008 140.47 264.791 136.796C259.575 133.122 253.35 131.15 246.969 131.15C240.587 131.15 234.362 133.122 229.146 136.796C223.93 140.47 219.978 145.666 217.832 151.673C215.685 157.679 215.45 164.202 217.158 170.347C218.865 176.492 222.432 181.96 227.37 186C229.138 187.405 230.572 189.185 231.567 191.212C232.562 193.239 233.095 195.461 233.125 197.718C233.128 199.665 232.746 201.594 232.001 203.393C231.256 205.192 230.163 206.826 228.785 208.202C227.406 209.578 225.77 210.668 223.969 211.41C222.168 212.153 220.238 212.532 218.29 212.528H140.594V4.31802e-05H218.219C222.15 4.03284e-05 225.921 1.55972 228.703 4.33648C231.484 7.11323 233.049 10.88 233.054 14.8093C233.053 17.0686 232.52 19.296 231.499 21.3117C230.484 23.3282 229.053 25.1062 227.299 26.528C222.355 30.5689 218.783 36.039 217.072 42.1884C215.361 48.3379 215.594 54.8658 217.741 60.8773C219.887 66.8889 223.841 72.0898 229.061 75.7673C234.281 79.4448 240.511 81.4189 246.897 81.4189C253.283 81.4189 259.513 79.4448 264.733 75.7673C269.953 72.0898 273.907 66.8889 276.053 60.8773C278.2 54.8658 278.433 48.3379 276.722 42.1884C275.011 36.039 271.439 30.5689 266.496 26.528C264.73 25.1219 263.299 23.341 262.307 21.3142C261.314 19.2875 260.785 17.0655 260.758 14.8093C260.756 12.8623 261.138 10.9341 261.883 9.13511C262.628 7.33614 263.721 5.70185 265.099 4.32598C266.477 2.95011 268.114 1.85974 269.915 1.11739C271.715 0.375046 273.645 -0.00466101 275.593 4.31802e-05H353.29V77.5654C353.29 81.5025 354.855 85.2784 357.64 88.0624C360.426 90.8463 364.204 92.4103 368.143 92.4103C370.397 92.4049 372.619 91.8727 374.631 90.8562C376.645 89.8362 378.422 88.4062 379.85 86.6581C383.898 81.7181 389.376 78.1507 395.532 76.4452C401.688 74.7397 408.222 74.9797 414.237 77.1322C420.251 79.2848 425.452 83.2444 429.126 88.468C432.8 93.6916 434.767 99.9234 434.758 106.309L434.74 106.237Z" fill="white"/>
<path d="M334.683 212.474H294.825V245.29L334.683 212.474Z" fill="white"/>
</g>
<path d="M484.428 106.237C484.424 112.622 486.396 118.851 490.072 124.072C493.748 129.294 498.95 133.251 504.964 135.403C510.979 137.555 517.511 137.795 523.668 136.092C529.824 134.388 535.303 130.824 539.354 125.887C540.756 124.121 542.534 122.688 544.559 121.693C546.584 120.698 548.805 120.166 551.061 120.135C554.997 120.145 558.77 121.712 561.553 124.494C564.337 127.275 565.905 131.046 565.914 134.98V212.528H353.29V134.927C353.269 132.408 353.895 129.926 355.108 127.719C356.321 125.512 358.081 123.652 360.219 122.319C362.356 120.985 364.801 120.222 367.318 120.103C369.835 119.983 372.34 120.511 374.595 121.636C376.605 122.661 378.382 124.091 379.814 125.834C383.857 130.767 389.328 134.329 395.476 136.034C401.624 137.739 408.149 137.502 414.158 135.356C420.166 133.211 425.364 129.261 429.039 124.048C432.714 118.835 434.686 112.614 434.686 106.237C434.686 99.8601 432.714 93.6391 429.039 88.4262C425.364 83.2133 420.166 79.2634 414.158 77.1176C408.149 74.9719 401.624 74.7351 395.476 76.4398C389.328 78.1445 383.857 81.7074 379.814 86.6402C378.409 88.4082 376.628 89.8416 374.6 90.8365C372.572 91.8314 370.348 92.3629 368.089 92.3924C364.161 92.3829 360.396 90.8166 357.622 88.037C354.848 85.2574 353.29 81.4915 353.29 77.5653V0.0178223H565.986V77.5653C565.988 79.5154 565.605 81.4469 564.86 83.249C564.114 85.0511 563.02 86.6886 561.641 88.0675C560.261 89.4465 558.622 90.5399 556.819 91.2851C555.016 92.0303 553.084 92.4126 551.133 92.4103C548.878 92.4048 546.656 91.8726 544.645 90.8561C542.627 89.842 540.848 88.411 539.425 86.6581C535.375 81.7214 529.896 78.1572 523.739 76.4537C517.583 74.7502 511.05 74.9908 505.036 77.1425C499.021 79.2942 493.82 83.2517 490.143 88.473C486.467 93.6943 484.496 99.9239 484.5 106.308L484.428 106.237Z" fill="#E51D1B"/>
<path d="M371.932 212.474H411.808V245.29L371.932 212.474Z" fill="#E51D1B"/>
<path d="M365.642 784.407C369.395 785.586 479.461 783.21 483.483 780.53C485.038 779.53 475.6 675.347 475.6 675.347L405.804 676.669L413.74 746.339C413.74 746.339 373.131 765.56 369.056 768.972C364.981 772.384 361.871 783.192 365.642 784.407Z" fill="#EB9481"/>
<path d="M365.642 784.407C369.395 785.586 479.461 783.21 483.482 780.513C483.965 780.209 484.108 769.633 482.356 755.86C462.409 759.201 391.201 770.151 385.624 766.882C381.746 764.596 385.178 761.059 388.341 758.665C379.243 763.185 370.771 767.597 369.02 769.008C364.927 772.474 361.87 783.192 365.642 784.407Z" fill="#263238"/>
<path d="M411.773 729.6L480.301 728.636C480.301 728.636 466.717 564.609 467.289 561.447C468.004 557.41 516.62 366.872 516.62 366.872H451.221C451.221 366.872 399.655 544.458 397.796 561.59C394.793 589.261 411.773 729.6 411.773 729.6Z" fill="#263238"/>
<path d="M474.134 713.237C470.077 712.951 465.984 712.987 461.927 712.933C457.869 712.88 453.812 712.933 449.737 712.933C441.622 712.933 433.49 713.13 425.375 713.362C423.141 713.362 420.925 713.487 418.708 713.594C416.492 713.701 413.954 714.112 411.559 714.202C411.38 714.202 411.38 714.487 411.559 714.487C413.543 714.487 415.545 714.809 417.547 714.863C419.548 714.916 421.693 714.863 423.767 714.863H435.956C444.071 714.863 452.204 714.684 460.318 714.362C464.912 714.166 469.541 714.112 474.117 713.648C474.162 713.637 474.202 713.611 474.231 713.575C474.26 713.54 474.277 713.495 474.279 713.449C474.281 713.403 474.268 713.357 474.242 713.319C474.216 713.281 474.178 713.252 474.134 713.237Z" fill="#37474F"/>
<path d="M502.232 382.325C496.387 403.029 491.043 423.93 485.788 444.849C480.533 465.767 475.332 486.632 470.131 507.515C467.521 517.972 464.918 528.422 462.32 538.867C459.8 549.031 456.851 559.267 456.225 569.771C455.6 580.275 456.94 591.208 457.852 601.927C458.763 612.645 459.639 623.363 460.586 634.082C462.463 655.518 464.268 676.955 466.592 698.231C466.878 700.911 467.164 703.59 467.432 706.252C467.432 706.484 467.807 706.466 467.789 706.252C466.377 684.815 464.894 663.468 463.196 642.067C462.338 631.348 461.468 620.63 460.586 609.912C459.693 599.193 458.459 588.475 458.12 577.757C458.035 567.067 459.449 556.417 462.32 546.12C464.87 535.878 467.432 525.653 470.006 515.447C475.249 494.546 480.468 473.651 485.663 452.762C491.472 429.361 497.281 405.923 502.393 382.36C502.464 382.235 502.268 382.2 502.232 382.325Z" fill="#37474F"/>
<path d="M516.638 366.962C516.638 366.962 495.761 448.707 481.176 506.301L453.383 366.962H516.638Z" fill="#37474F"/>
<path d="M447.825 784.657C451.596 785.836 561.662 783.46 565.683 780.781C567.22 779.798 561.465 675.526 561.465 675.526L492.598 676.866L495.922 746.535C495.922 746.535 455.314 765.757 451.238 769.187C447.163 772.617 444.053 783.496 447.825 784.657Z" fill="#EB9481"/>
<path d="M447.825 784.657C451.596 785.836 561.662 783.46 565.683 780.78C566.166 780.477 566.041 770.169 565.683 756.11C545.718 759.451 473.384 770.402 467.825 767.132C463.964 764.864 467.378 761.309 470.56 758.915C461.462 763.452 452.972 767.847 451.221 769.276C447.127 772.67 444.053 783.514 447.825 784.657Z" fill="#263238"/>
<path d="M453.383 366.962C453.383 366.962 457.065 413.176 464.697 424.787C471.291 427.35 477.639 430.507 483.661 434.22C483.661 434.22 488.379 557.856 488.29 565.288C487.986 593.066 495.082 728.332 495.082 728.332L564.199 727.635C564.199 727.635 557.05 574.648 557.05 564.484C557.05 554.641 552.349 492.563 548.113 438.739C548.113 438.739 554.262 421.536 553.582 412.854C551.938 391.811 542.501 366.926 542.501 366.926L453.383 366.962Z" fill="#263238"/>
<path d="M477.656 410.853C477.388 409.067 477.138 407.388 476.869 405.673C476.387 402.493 475.743 399.349 475.189 396.187C473.92 389.042 472.616 381.896 471.025 374.75C471.025 374.708 471.008 374.667 470.978 374.637C470.947 374.607 470.907 374.59 470.864 374.59C470.821 374.59 470.78 374.607 470.75 374.637C470.72 374.667 470.703 374.708 470.703 374.75C470.989 377.609 471.311 380.467 471.722 383.325C472.133 386.183 472.419 389.042 472.812 391.9C473.616 397.563 474.403 403.226 475.368 408.853C475.743 411.032 477.155 414.909 473.974 415.587C471.489 416.123 469.684 413.694 468.951 411.657C468.184 409.105 467.628 406.494 467.289 403.851C466.771 400.993 466.324 398.116 465.913 395.24C465.031 388.988 464.078 382.747 463.053 376.519C463.053 376.34 462.731 376.394 462.731 376.519C462.946 382.95 463.286 389.309 464.126 395.687C464.519 398.724 464.983 401.761 465.502 404.798C465.828 407.754 466.562 410.652 467.682 413.408C468.126 414.476 468.832 415.416 469.735 416.14C470.638 416.865 471.708 417.35 472.848 417.552H472.991C472.965 417.574 472.943 417.602 472.928 417.632C472.912 417.663 472.903 417.697 472.902 417.731C472.902 418.749 472.901 419.785 473.027 420.786C473.152 421.786 473.33 422.787 473.527 423.769C473.711 424.781 473.968 425.778 474.296 426.752C474.454 427.221 474.639 427.68 474.85 428.128C475.082 428.574 475.386 428.95 475.654 429.378C475.922 429.807 475.976 429.378 475.994 429.271C475.984 429.105 475.984 428.938 475.994 428.771C476.02 428.48 476.02 428.187 475.994 427.896C475.994 427.395 475.815 426.913 475.708 426.431C475.493 425.466 475.225 424.519 474.975 423.555C474.725 422.59 474.51 421.643 474.26 420.696C474.01 419.75 473.688 418.749 473.456 417.749C473.467 417.72 473.467 417.688 473.456 417.66C474.374 417.701 475.284 417.462 476.063 416.974C476.842 416.485 477.454 415.771 477.817 414.926C478.123 413.578 478.068 412.173 477.656 410.853Z" fill="#37474F"/>
<path d="M489.22 435.685C487.156 434.102 484.982 432.669 482.714 431.397C480.333 429.959 477.861 428.676 475.314 427.556C470.309 425.395 465.162 423.984 459.996 422.197C459.835 422.197 459.746 422.394 459.889 422.465C464.894 424.448 469.684 427.074 474.51 429.432C476.887 430.611 479.282 431.701 481.659 432.773C484.036 433.845 486.503 435.095 488.987 436.006C489.22 436.095 489.363 435.81 489.22 435.685Z" fill="#37474F"/>
<path d="M528.22 397.098C524.645 397.098 512.545 396.205 508.952 392.168C506.952 389.78 505.423 387.034 504.448 384.075C503.325 380.851 502.411 377.557 501.714 374.215C501.714 374.054 501.445 374.107 501.445 374.215C501.352 377.992 501.828 381.762 502.857 385.397C503.479 388.665 505.038 391.681 507.344 394.079C510.103 396.185 513.424 397.428 516.888 397.652C520.662 398.096 524.477 398.048 528.238 397.509C528.265 397.508 528.291 397.501 528.316 397.49C528.34 397.479 528.362 397.463 528.381 397.443C528.399 397.423 528.413 397.399 528.422 397.374C528.432 397.349 528.436 397.322 528.435 397.295C528.433 397.268 528.427 397.241 528.415 397.217C528.404 397.192 528.388 397.17 528.368 397.152C528.348 397.134 528.325 397.12 528.299 397.11C528.274 397.101 528.247 397.097 528.22 397.098Z" fill="#37474F"/>
<path d="M445.072 398.045C446.823 397.485 448.416 396.518 449.719 395.223C452.383 391.221 453.026 378.502 453.294 375.161C453.294 375.001 453.384 375.054 453.384 375.161C453.384 378.913 453.241 382.718 452.937 386.344C452.804 389.28 452.343 392.193 451.56 395.026C450.738 397.295 446.198 398.867 445.108 398.367C445.001 398.384 445.001 398.045 445.072 398.045Z" fill="#37474F"/>
<path d="M561.09 714.255C557.05 713.951 552.957 714.005 548.9 713.951C544.843 713.898 540.767 713.951 536.692 713.951C528.578 713.951 520.445 714.148 512.33 714.38C510.096 714.38 507.88 714.505 505.664 714.612C503.447 714.72 500.909 715.13 498.514 715.22C498.476 715.22 498.44 715.235 498.413 715.262C498.386 715.288 498.371 715.325 498.371 715.363C498.371 715.401 498.386 715.437 498.413 715.464C498.44 715.491 498.476 715.506 498.514 715.506C500.516 715.506 502.5 715.809 504.502 715.881C506.504 715.952 508.648 715.881 510.722 715.881C514.779 715.881 518.854 715.881 522.912 715.881C531.026 715.881 539.159 715.702 547.273 715.363C551.867 715.184 556.496 715.13 561.072 714.666C561.117 714.655 561.157 714.63 561.186 714.594C561.215 714.558 561.232 714.514 561.234 714.467C561.236 714.421 561.223 714.375 561.197 714.337C561.171 714.299 561.133 714.27 561.09 714.255Z" fill="#37474F"/>
<path d="M552.671 705.252C552.782 705.247 552.89 705.221 552.99 705.174C553.09 705.128 553.18 705.062 553.255 704.981C553.33 704.899 553.388 704.804 553.425 704.701C553.463 704.597 553.48 704.487 553.475 704.376L537.908 436.631C538.104 435.452 542.501 420.554 542.894 412.872C543.305 404.798 534.958 373.321 534.601 371.982C534.538 371.768 534.395 371.587 534.202 371.477C534.008 371.367 533.78 371.337 533.564 371.392C533.457 371.421 533.357 371.471 533.269 371.539C533.182 371.606 533.108 371.691 533.053 371.787C532.999 371.884 532.963 371.99 532.95 372.1C532.936 372.21 532.945 372.321 532.974 372.428C533.064 372.75 541.607 404.976 541.214 412.783C540.821 420.589 536.245 436.31 536.227 436.435C536.21 436.56 551.813 704.394 551.813 704.394C551.813 704.622 551.904 704.84 552.065 705.001C552.225 705.161 552.444 705.252 552.671 705.252Z" fill="#37474F"/>
<path d="M497.567 270.872C497.389 275.748 499.873 277.481 499.944 280.089C499.944 280.089 488.631 284.966 469.774 284.323C450.917 283.68 439.979 278.053 439.979 278.053C440.211 275.445 442.803 273.873 442.981 268.996C443.16 263.369 439.407 262.833 440.586 254.312C441.48 247.988 446.27 247.363 447.468 234.893C448.683 222.014 453.759 217.03 457.656 214.171C461.847 210.987 467.063 209.455 472.312 209.866C472.312 209.866 479.104 208.741 486.289 214.689C489.971 217.762 495.065 223.621 495.405 236.537C495.744 249.042 500.481 249.989 500.928 256.384C501.535 264.941 497.746 265.227 497.567 270.872Z" fill="#263238"/>
<path d="M446.966 241.914C448.475 238.222 449.046 234.215 448.628 230.249C448.628 230.052 448.36 230.035 448.342 230.249C448.182 233.982 448.217 237.823 446.555 241.235C445.161 244.183 442.694 246.237 440.764 248.72C438.922 251.011 437.874 253.839 437.779 256.777C437.742 258.3 437.972 259.817 438.458 261.261C439.069 262.682 439.786 264.055 440.603 265.369C442.766 269.567 439.817 273.891 437.439 277.07C439.7 274.777 441.219 271.858 441.801 268.692C441.91 267.107 441.523 265.527 440.692 264.173C439.749 262.705 439.065 261.085 438.673 259.385C438.354 257.651 438.403 255.87 438.815 254.156C439.228 252.442 439.995 250.834 441.068 249.435C443.07 246.862 445.518 244.79 446.966 241.914Z" fill="#263238"/>
<path d="M502.821 256.062C502.111 252.671 500.678 249.472 498.621 246.684C497.667 245.248 496.881 243.708 496.28 242.093C495.706 240.213 495.328 238.28 495.154 236.323C494.971 234.182 494.673 232.053 494.26 229.945C493.779 227.861 493.134 225.818 492.33 223.836C492.33 223.836 492.169 223.836 492.204 223.836C493.556 227.628 494.368 231.59 494.617 235.608C494.769 239.15 495.703 242.615 497.352 245.755C499.139 248.738 501.231 251.436 501.981 254.973C502.732 258.51 502.911 263.387 500.909 266.727C499.264 269.478 496.119 272.622 497.62 276.231C497.62 276.356 497.852 276.231 497.799 276.231C496.601 272.122 500.212 269.353 501.803 266.173C503.14 262.979 503.495 259.459 502.821 256.062Z" fill="#263238"/>
<path d="M470.757 304.438C461.212 340.166 449.916 377.68 436.797 383.039C425.84 387.684 401.05 393.918 368.877 398.206C362.943 398.992 369.932 350.705 374.15 350.688C385.374 350.688 417.994 344.56 419.227 342.881C420.836 340.684 439.085 312.512 452.025 294.398C469.47 269.907 475.708 285.895 470.757 304.438Z" fill="#EB9481"/>
<path d="M375.74 396.527C370.914 398.17 348.125 403.779 341.441 403.904C334.756 404.029 315.488 403.065 314.863 397.956C314.237 392.847 319.903 392.597 319.903 392.597C319.903 392.597 311.824 390.81 311.663 385.683C311.502 380.556 320.314 380.538 320.314 380.538C320.314 380.538 312.164 378.18 312.378 372.982C312.593 367.783 321.44 369.302 321.44 369.302C321.44 369.302 313.88 367.516 315.846 363.282C318.223 358.226 331.789 363.139 339.081 362.424C340.744 362.264 372.773 356.744 372.773 356.744L375.74 396.527Z" fill="#EB9481"/>
<path d="M320.672 369.284C330.663 372.857 335.65 372.696 345.856 370.445C345.896 370.431 345.94 370.433 345.979 370.452C346.018 370.47 346.047 370.503 346.061 370.544C346.076 370.584 346.073 370.628 346.055 370.667C346.036 370.705 346.003 370.735 345.963 370.749C336.168 373.875 329.877 374.983 320.475 369.749C320.011 369.498 320.207 369.105 320.672 369.284Z" fill="#263238"/>
<path d="M319.528 380.324C330.252 383.146 335.614 383.021 346.499 381.432C346.642 381.432 346.696 381.664 346.499 381.7C335.971 384.147 329.734 385.094 319.42 380.878C319.009 380.699 319.045 380.199 319.528 380.324Z" fill="#263238"/>
<path d="M320.439 392.597C331.003 394.562 336.937 394.687 347.25 391.793C347.299 391.776 347.354 391.78 347.401 391.803C347.448 391.827 347.483 391.868 347.5 391.918C347.516 391.967 347.513 392.022 347.489 392.069C347.466 392.116 347.425 392.151 347.375 392.168C337.115 396.134 329.698 396.044 320.386 392.918C319.778 392.704 319.778 392.472 320.439 392.597Z" fill="#263238"/>
<path d="M378.421 352.153C378.421 352.153 366.357 346.579 360.548 345.293C354.739 344.007 331.181 347.24 331.592 352.349C332.129 358.959 346.07 359.78 352.951 359.28C352.951 359.28 354.167 374.572 364.051 377.323C373.935 380.074 378.421 352.153 378.421 352.153Z" fill="#EB9481"/>
<path d="M332.307 354.118C337.133 359.798 346.124 358.566 352.844 358.601C352.941 358.597 353.038 358.616 353.127 358.657C353.215 358.698 353.292 358.76 353.352 358.837C353.412 358.914 353.452 359.004 353.469 359.1C353.487 359.196 353.481 359.294 353.452 359.387C354.381 365.765 357.563 374.482 363.64 377.519C363.66 377.526 363.678 377.537 363.694 377.551C363.71 377.566 363.722 377.583 363.732 377.602C363.741 377.621 363.746 377.641 363.747 377.663C363.748 377.684 363.745 377.705 363.738 377.725C363.731 377.745 363.72 377.763 363.706 377.779C363.692 377.795 363.675 377.807 363.656 377.816C363.637 377.826 363.616 377.831 363.595 377.832C363.574 377.833 363.552 377.83 363.533 377.823C356.562 375.447 352.808 367.105 352.165 360.084C345.284 360.084 336.204 361.013 332.236 354.171C332.218 354.135 332.272 354.082 332.307 354.118Z" fill="#263238"/>
<path d="M378.314 349.616L377.224 400.117C377.224 400.117 426.877 391.364 440.407 382.039C450.541 375.072 467.414 329.465 472.043 301.062C476.798 271.997 460.872 279.625 452.15 293.201C443.428 306.778 419.423 341.327 418.458 341.827C417.493 342.327 378.314 349.616 378.314 349.616Z" fill="#455A64"/>
<path d="M389.539 371.499C389.634 367.926 389.747 364.3 389.878 360.62C390.003 357.047 390.003 353.349 390.397 349.759C390.397 349.598 390.665 349.562 390.683 349.759C390.933 353.224 390.826 356.779 390.826 360.281C390.826 363.782 390.826 367.694 390.826 371.392C390.826 378.734 390.415 386.04 389.95 393.365C389.95 393.543 389.7 393.525 389.682 393.365C389.431 386.058 389.342 378.806 389.539 371.499Z" fill="#263238"/>
<path opacity="0.1" d="M472.115 301.062C467.468 329.465 450.666 375.072 440.461 382.057C432.221 387.72 410.576 393.168 394.936 396.598L464.644 281.661C470.488 279.535 474.921 283.876 472.115 301.062Z" fill="black"/>
<path d="M448.129 349.795L445.072 376.787L460.944 375.947L463.822 366.104L469.47 375.608L546.469 369.57L534.673 348.437C525.379 327.965 513.618 297.114 498.121 282.34C485.824 270.621 472.383 272.444 464.358 281.715C462.321 284.073 442.552 317.264 440.658 330.537C439.299 340.041 448.129 349.795 448.129 349.795Z" fill="#455A64"/>
<path d="M448.129 349.795L445.072 376.787L460.944 375.947L463.822 366.104L469.47 375.608L546.469 369.57L534.673 348.437C525.379 327.965 513.618 297.114 498.121 282.34C485.824 270.621 472.383 272.444 464.358 281.715C462.321 284.073 442.552 317.264 440.658 330.537C439.299 340.041 448.129 349.795 448.129 349.795Z" fill="#455A64"/>
<path d="M476.976 342.649C472.59 343.034 468.248 343.812 464 344.971C461.891 345.579 459.818 346.293 457.727 347.079C456.69 347.472 455.653 347.812 454.599 348.151C453.526 348.55 452.399 348.785 451.256 348.848C451.167 348.848 451.149 349.026 451.256 349.044C452.321 349.134 453.391 349.134 454.456 349.044C455.495 348.917 456.523 348.708 457.53 348.419C459.693 347.812 461.82 347.097 463.964 346.49C468.29 345.221 472.633 343.971 477.03 343.095C477.227 343.042 477.191 342.631 476.976 342.649Z" fill="#263238"/>
<path d="M487.611 347.544C484.061 347.011 480.477 346.724 476.887 346.686C475.1 346.686 473.312 346.793 471.525 346.972C470.667 347.061 469.738 347.151 468.951 347.276C468.165 347.401 467.074 347.669 466.127 347.794C466.127 347.794 466.127 347.99 466.127 347.972C467.021 347.972 467.915 347.972 468.826 347.972H471.507C473.294 347.972 475.082 347.972 476.869 347.972C480.444 347.972 484.019 347.883 487.593 347.972C487.808 347.901 487.808 347.562 487.611 347.544Z" fill="#263238"/>
<path d="M488.147 275.748C485.2 286.669 481.002 297.213 475.636 307.171C471.481 314.004 466.983 320.622 462.159 327C460.758 322.232 459.719 317.365 459.049 312.441C458.459 304.759 459.603 296.578 462.445 284.52C463.375 283.055 464.036 282.072 464.322 281.733C467.112 278.295 470.942 275.853 475.237 274.775C479.533 273.696 484.063 274.037 488.147 275.748Z" fill="#EBEBEB"/>
<path d="M462.195 327C461.123 333.842 460.247 341.434 463.16 347.901C463.482 353.957 463.786 360.031 463.821 366.104C463.124 360.084 462.695 354.064 462.302 348.026C459.478 342.292 460.336 333.556 462.195 327Z" fill="#263238"/>
<path d="M467.521 333.824C467.521 334.364 467.307 334.882 466.925 335.264C466.542 335.646 466.024 335.861 465.484 335.861C464.943 335.861 464.425 335.646 464.043 335.264C463.661 334.882 463.446 334.364 463.446 333.824C463.446 333.284 463.661 332.766 464.043 332.384C464.425 332.002 464.943 331.788 465.484 331.788C466.024 331.788 466.542 332.002 466.925 332.384C467.307 332.766 467.521 333.284 467.521 333.824ZM467.521 333.824C467.521 333.402 467.354 332.998 467.055 332.7C466.757 332.402 466.352 332.234 465.931 332.234C465.509 332.234 465.104 332.402 464.806 332.7C464.507 332.998 464.34 333.402 464.34 333.824C464.34 334.246 464.507 334.65 464.806 334.948C465.104 335.246 465.509 335.414 465.931 335.414C466.352 335.414 466.757 335.246 467.055 334.948C467.354 334.65 467.521 334.246 467.521 333.824Z" fill="#263238"/>
<path d="M468.772 347.812C468.772 348.352 468.558 348.87 468.176 349.252C467.793 349.634 467.275 349.848 466.735 349.848C466.194 349.848 465.676 349.634 465.294 349.252C464.912 348.87 464.697 348.352 464.697 347.812C464.697 347.271 464.912 346.753 465.294 346.372C465.676 345.99 466.194 345.775 466.735 345.775C467.275 345.775 467.793 345.99 468.176 346.372C468.558 346.753 468.772 347.271 468.772 347.812ZM468.772 347.812C468.772 347.39 468.605 346.986 468.307 346.687C468.008 346.389 467.604 346.222 467.182 346.222C466.76 346.222 466.355 346.389 466.057 346.687C465.758 346.986 465.591 347.39 465.591 347.812C465.591 348.233 465.758 348.638 466.057 348.936C466.355 349.234 466.76 349.401 467.182 349.401C467.604 349.401 468.008 349.234 468.307 348.936C468.605 348.638 468.772 348.233 468.772 347.812Z" fill="#263238"/>
<path d="M470.024 361.781C469.976 362.291 469.74 362.764 469.361 363.109C468.983 363.453 468.489 363.644 467.977 363.644C467.465 363.644 466.971 363.453 466.593 363.109C466.214 362.764 465.978 362.291 465.93 361.781C465.978 361.272 466.214 360.798 466.593 360.454C466.971 360.109 467.465 359.918 467.977 359.918C468.489 359.918 468.983 360.109 469.361 360.454C469.74 360.798 469.976 361.272 470.024 361.781ZM470.024 361.781C469.982 361.386 469.795 361.021 469.5 360.755C469.204 360.49 468.821 360.343 468.424 360.343C468.027 360.343 467.643 360.49 467.348 360.755C467.053 361.021 466.866 361.386 466.824 361.781C466.866 362.176 467.053 362.542 467.348 362.807C467.643 363.073 468.027 363.22 468.424 363.22C468.821 363.22 469.204 363.073 469.5 362.807C469.795 362.542 469.982 362.176 470.024 361.781Z" fill="#263238"/>
<path d="M503.125 296.006C526.254 329.376 545.897 379.824 536.621 390.435C526.308 402.261 494.314 356.958 494.939 354.707C495.422 353.01 493.027 328.376 487.683 300.401C482.338 272.426 497.406 287.753 503.125 296.006Z" fill="#EB9481"/>
<path d="M495.851 361.245C495.422 357.208 487.7 313.942 485.287 298.025C482.874 282.108 490.346 278.231 503.161 294.827C515.976 311.423 536.442 347.347 539.284 372.982C542.018 397.67 529.739 397.688 515.369 383.825C508.216 376.882 501.686 369.326 495.851 361.245Z" fill="#455A64"/>
<path d="M495.851 361.245C495.136 356.172 494.35 351.117 493.546 346.061C492.741 341.006 491.758 335.95 491.007 330.895L488.309 315.782L486.897 308.225C486.396 305.706 485.931 303.205 485.413 300.687C485.753 303.223 486.164 305.76 486.521 308.297L487.719 315.871L490.257 331.037C491.151 336.075 492.044 341.113 492.956 346.15C493.867 351.188 494.832 356.243 495.851 361.245Z" fill="#263238"/>
<path d="M487.218 312.441C486.876 311.129 486.434 309.844 485.895 308.6C485.627 307.993 485.359 307.368 485.073 306.814C484.787 306.26 484.465 305.599 484.161 305.027C484.413 306.36 484.815 307.661 485.359 308.904C485.879 310.133 486.5 311.316 487.218 312.441Z" fill="#263238"/>
<path d="M537.496 388.559C531.169 398.795 514.546 401.993 468.343 413.748C461.944 415.373 436.85 372.66 443.588 370.588C452.078 367.962 485.591 359.602 488.111 359.298C509.434 356.744 541.786 381.628 537.496 388.559Z" fill="#EB9481"/>
<path d="M459.496 368.748C459.496 368.748 441.479 368.748 429.683 369.284C423.105 369.588 411.809 371.07 407.144 373.553C399.994 377.126 372.809 396.937 377.456 403.636C381.656 409.71 402.926 389.792 402.926 389.792C402.926 389.792 379.69 407.995 386.107 414.373C392.523 420.75 413.543 395.062 413.543 395.062C413.543 395.062 390.092 414.301 397.742 419.839C403.516 424.019 423.874 401.814 423.874 401.814C423.874 401.814 403.837 418.499 409.575 423.055C415.938 428.092 436.028 408.763 436.028 408.763C452.614 417.892 464.25 415.444 472.329 412.729C474.295 412.14 459.496 368.748 459.496 368.748Z" fill="#EB9481"/>
<path d="M410.487 383.039C407.681 385.076 404.821 387.13 402.212 389.417C399.602 391.703 397.064 394.079 394.669 396.562C391.482 399.81 388.67 403.405 386.286 407.281C391.005 400.725 400.245 392.418 402.873 390.131C405.5 387.845 407.967 385.433 410.576 383.164L410.487 383.039Z" fill="#263238"/>
<path d="M418.977 392.329C415.509 395.098 411.97 397.688 408.61 400.617C405.25 403.547 402.372 406.566 399.244 409.692C398.994 409.925 399.244 409.978 399.459 409.692C402.712 406.709 405.947 404.19 409.235 401.225C412.524 398.259 415.688 395.187 419.048 392.293L418.977 392.329Z" fill="#263238"/>
<path d="M427.645 399.01C422.221 403.116 417.232 407.767 412.756 412.89C412.524 413.14 412.757 413.176 413.06 412.89C417.922 408.174 421.693 404.44 427.788 399.153C427.878 399.117 427.752 398.92 427.645 399.01Z" fill="#263238"/>
<path d="M448.682 368.177L492.169 411.461C492.169 411.461 532.51 399.528 538.015 388.577C541.59 381.432 509.417 354.921 486.074 359.548L448.682 368.177Z" fill="#455A64"/>
<path d="M514.565 365.39C506.083 359.976 495.899 357.883 485.967 359.512C485.842 359.512 485.86 359.727 485.967 359.709C496.209 358.852 510.382 363.443 514.386 365.568C514.583 365.622 514.654 365.443 514.565 365.39Z" fill="#263238"/>
<path d="M502.929 403.208C498.407 398.188 493.617 393.418 488.809 388.666C484.001 383.915 479.211 379.127 474.278 374.5C471.508 371.874 468.737 369.23 465.86 366.712C465.86 366.712 465.663 366.712 465.734 366.837C470.239 371.839 475.029 376.626 479.783 381.414C484.537 386.201 489.381 390.953 494.261 395.705C497.013 398.349 499.801 400.957 502.679 403.476C502.822 403.547 503.072 403.351 502.929 403.208Z" fill="#263238"/>
<path d="M448.575 367.587C451.049 366.69 453.581 365.962 456.154 365.408C458.71 364.782 461.265 364.193 463.839 363.621C468.969 362.496 479.675 359.566 489.202 359.048C489.309 359.048 488.791 359.584 488.701 359.584C484.144 359.584 451.989 367.873 449.38 368.212C449.497 368.384 449.605 368.563 449.701 368.748C449.701 368.873 449.701 369.052 449.487 368.963C449.272 368.873 448.897 368.48 448.557 368.248C448.498 368.214 448.45 368.165 448.416 368.106C448.383 368.047 448.367 367.98 448.368 367.912C448.37 367.844 448.39 367.778 448.427 367.721C448.463 367.664 448.515 367.617 448.575 367.587Z" fill="#263238"/>
<path d="M513.045 304.92C524.734 325.142 535.512 346.847 538.98 370.159C533.707 347.222 523.144 326.018 513.045 304.92Z" fill="#263238"/>
<path d="M461.713 284.341L453.241 299.079L452.99 298.543L458.353 299.472L458.96 299.579L458.603 300.115L453.509 307.743V307.189L462.714 326.696L461.677 326.5C468.63 319.872 475.69 313.37 482.679 306.85L482.553 307.493L479.783 300.865L479.604 300.454L479.962 300.222L488.666 294.416L488.487 294.773C488.184 288.914 488.023 283.037 487.808 277.177C488.309 283.019 488.881 288.861 489.292 294.72V294.952L489.095 295.077L480.534 301.097L480.73 300.436L483.662 307.1L483.822 307.457C476.53 314.352 469.309 321.319 461.963 328.161L461.588 327.34L452.526 307.778L452.383 307.475L452.579 307.207L457.941 299.758L458.21 300.401L452.847 299.347L452.329 299.257L452.597 298.811L461.695 284.412L461.713 284.341Z" fill="#263238"/>
<path d="M483.571 277.892C483.393 279.678 476.654 291.612 468.861 292.183C466.323 292.38 464.697 278.589 464.697 278.589L464.339 277.588L459.406 263.726L474.849 250.935L477.101 249.149C477.101 249.149 478.191 253.025 479.514 257.867C479.514 258.099 479.639 258.331 479.711 258.563C479.782 258.795 479.872 259.099 479.925 259.349C480.14 260.064 480.354 260.814 480.533 261.547C480.712 262.279 480.837 262.654 480.962 263.333C481.087 264.012 481.248 264.494 481.409 265.119C482.419 269.323 483.141 273.59 483.571 277.892Z" fill="#EB9481"/>
<path d="M479.514 257.991C478.567 262.173 476.718 266.097 474.097 269.491C471.476 272.885 468.146 275.666 464.339 277.642L459.406 263.779L474.849 250.989L477.101 249.202C477.101 249.202 478.191 253.097 479.514 257.991Z" fill="#263238"/>
<path d="M439.585 236.858C433.776 262.029 448.218 268.353 453.651 269.585C458.584 270.729 475.511 273.944 483.894 249.506C492.276 225.068 482.392 214.403 471.239 211.224C460.086 208.044 445.394 211.688 439.585 236.858Z" fill="#EB9481"/>
<path d="M444 236.305C444.597 236.311 445.194 236.281 445.787 236.215C446.414 236.27 447.041 236.12 447.575 235.787C447.718 235.645 447.812 235.46 447.841 235.26C447.87 235.06 447.833 234.856 447.736 234.679C447.494 234.354 447.168 234.101 446.793 233.947C446.419 233.793 446.009 233.743 445.609 233.804C444.773 233.787 443.962 234.087 443.339 234.643C443.2 234.776 443.104 234.947 443.063 235.135C443.022 235.323 443.038 235.518 443.109 235.697C443.18 235.875 443.303 236.028 443.462 236.137C443.62 236.245 443.808 236.303 444 236.305Z" fill="#263238"/>
<path d="M461.158 237.645C460.591 237.464 460.036 237.25 459.496 237.001C458.877 236.869 458.322 236.529 457.923 236.037C457.822 235.86 457.784 235.653 457.817 235.451C457.849 235.25 457.95 235.066 458.102 234.929C458.431 234.695 458.818 234.555 459.221 234.524C459.624 234.492 460.028 234.571 460.39 234.751C461.191 234.989 461.869 235.526 462.284 236.251C462.37 236.42 462.404 236.61 462.384 236.798C462.364 236.986 462.29 237.164 462.171 237.311C462.053 237.458 461.894 237.568 461.714 237.627C461.534 237.686 461.341 237.692 461.158 237.645Z" fill="#263238"/>
<path d="M456.618 241.914C456.618 241.914 456.743 242.021 456.726 242.093C456.368 243.879 456.225 245.844 457.691 246.701C457.691 246.701 457.691 246.827 457.691 246.809C455.796 246.219 455.993 243.522 456.618 241.914Z" fill="#263238"/>
<path d="M458.495 240.431C461.319 240.717 460.532 246.344 457.905 246.076C455.277 245.808 456.135 240.127 458.495 240.431Z" fill="#263238"/>
<path d="M459.568 240.878C460.015 241.271 460.408 241.896 460.998 242.039C461.588 242.182 462.267 241.7 462.785 241.182H462.874C462.731 242.253 462.159 243.307 460.98 243.307C459.8 243.307 459.282 242.235 459.192 241.11C459.175 241.003 459.389 240.717 459.568 240.878Z" fill="#263238"/>
<path d="M447.056 239.752C447.056 239.752 446.913 239.752 446.913 239.895C446.734 241.682 446.234 243.611 444.571 243.986C444.571 243.986 444.571 244.093 444.571 244.076C446.537 244.076 447.181 241.45 447.056 239.752Z" fill="#263238"/>
<path d="M445.752 237.734C442.963 237.144 441.998 242.736 444.572 243.272C447.146 243.808 448.022 238.216 445.752 237.734Z" fill="#263238"/>
<path d="M444.446 237.895C443.946 238.109 443.428 238.573 442.891 238.52C442.355 238.466 441.926 237.77 441.622 237.126C441.408 238.198 441.622 239.359 442.552 239.752C443.481 240.145 444.339 239.306 444.75 238.288C444.822 238.127 444.715 237.805 444.446 237.895Z" fill="#263238"/>
<path d="M454.599 256.67C454.134 257.045 453.669 257.563 453.026 257.563C452.392 257.483 451.783 257.27 451.238 256.938C451.238 256.938 451.113 256.938 451.238 257.027C451.455 257.395 451.767 257.697 452.141 257.901C452.516 258.106 452.939 258.205 453.365 258.188C453.732 258.129 454.073 257.964 454.346 257.713C454.619 257.462 454.813 257.137 454.903 256.777C454.917 256.737 454.914 256.692 454.896 256.654C454.877 256.615 454.845 256.586 454.804 256.571C454.764 256.557 454.72 256.56 454.681 256.578C454.643 256.596 454.613 256.629 454.599 256.67Z" fill="#263238"/>
<path d="M448.289 249.274C448.289 249.274 447.539 251.811 447.342 253.043C447.342 253.15 447.61 253.258 448.021 253.347C449.042 253.705 450.143 253.772 451.2 253.542C452.257 253.312 453.229 252.793 454.009 252.043C454.116 251.936 454.009 251.793 453.848 251.846C452.125 252.67 450.183 252.921 448.307 252.561C448.307 252.204 449.755 248.238 449.558 248.202C448.595 248.139 447.627 248.205 446.681 248.399C448.093 243.039 450.38 238.002 451.721 232.66C451.725 232.621 451.716 232.582 451.696 232.548C451.676 232.515 451.645 232.489 451.608 232.475C451.571 232.46 451.531 232.459 451.493 232.47C451.456 232.481 451.423 232.504 451.399 232.535C448.801 237.892 446.741 243.493 445.251 249.256C445.108 249.935 447.771 249.399 448.289 249.274Z" fill="#263238"/>
<path d="M448.218 252.9C448.742 254.007 449.542 254.96 450.541 255.669C451.072 256.018 451.693 256.205 452.329 256.205C453.794 256.205 454.116 254.883 454.116 253.74C454.097 253.136 454.007 252.536 453.848 251.953C452.119 252.858 450.147 253.189 448.218 252.9Z" fill="#263238"/>
<path d="M450.541 255.669C451.072 256.018 451.693 256.205 452.328 256.205C453.794 256.205 454.116 254.883 454.116 253.74C453.391 253.624 452.648 253.751 452.001 254.099C451.355 254.448 450.842 255 450.541 255.669Z" fill="#FF9ABB"/>
<path d="M480.908 250.256C475.689 248.899 478.424 236.858 478.424 236.858C478.424 236.858 475.653 234.929 473.491 227.926C473.491 227.926 474.652 233.75 477.584 236.751C478.066 237.251 460.55 230.981 462.266 216.779C459.878 220.098 456.807 222.866 453.258 224.896C449.709 226.927 445.765 228.174 441.693 228.552C441.264 228.552 445.965 216.476 449.325 214.261C453.167 211.731 457.538 210.115 462.101 209.536C466.665 208.957 471.301 209.43 475.653 210.92C486.377 215.279 490.631 228.659 490.292 233.625C489.613 243.432 483.393 250.846 480.908 250.256Z" fill="#263238"/>
<path d="M476.941 236.984C467.235 234.107 460.98 225.926 462.642 215.708C462.638 215.659 462.62 215.612 462.588 215.574C462.557 215.537 462.514 215.51 462.466 215.498C462.419 215.486 462.368 215.49 462.323 215.508C462.277 215.526 462.239 215.559 462.213 215.6C458.352 225.426 467.486 235.59 476.959 237.18C477.209 237.216 477.155 237.037 476.941 236.984Z" fill="#263238"/>
<path d="M462.516 216.476H462.427C458.62 221.013 453.812 229.498 446.591 227.319C446.571 227.303 446.548 227.292 446.523 227.287C446.498 227.282 446.472 227.282 446.448 227.289C446.423 227.296 446.4 227.308 446.382 227.325C446.363 227.343 446.348 227.364 446.339 227.388C446.33 227.412 446.327 227.437 446.33 227.462C446.333 227.488 446.342 227.512 446.356 227.533C446.37 227.554 446.389 227.572 446.411 227.584C446.433 227.597 446.458 227.604 446.484 227.605C453.222 230.267 460.407 222.121 462.516 216.476Z" fill="#263238"/>
<path d="M477.28 247.952C477.28 247.952 483.983 240.806 487.343 243.254C490.703 245.701 484.841 256.741 480.372 257.724C479.807 257.89 479.213 257.941 478.627 257.871C478.042 257.802 477.476 257.615 476.965 257.321C476.453 257.027 476.007 256.633 475.653 256.161C475.298 255.69 475.043 255.152 474.903 254.58L477.28 247.952Z" fill="#EB9481"/>
<path d="M485.555 246.362C485.555 246.362 485.555 246.469 485.555 246.487C484.09 246.972 482.744 247.761 481.604 248.801C480.465 249.842 479.558 251.111 478.942 252.525C479.156 252.249 479.428 252.024 479.739 251.864C480.05 251.704 480.392 251.614 480.741 251.601C481.09 251.587 481.438 251.65 481.76 251.785C482.082 251.92 482.371 252.124 482.606 252.382C482.606 252.382 482.606 252.561 482.499 252.525C481.998 252.287 481.436 252.209 480.889 252.302C480.342 252.395 479.837 252.653 479.443 253.043C478.768 253.695 478.169 254.42 477.655 255.205C477.477 255.455 477.012 255.205 477.155 254.955C477.745 251.078 481.445 246.166 485.555 246.362Z" fill="#263238"/>
<path d="M464.286 277.642L469.416 289.182L483.447 273.855L487.737 278.464C487.737 278.464 474.331 302.509 474.206 301.455L469.023 291.522L462.32 298.793V281.143L464.286 277.642Z" fill="#EBEBEB"/>
<path d="M461.766 290.147C461.856 287.235 461.874 284.287 462.088 281.393C462.088 281.286 462.249 281.233 462.285 281.393C462.964 284.18 462.571 295.309 462.678 297.989C462.964 297.668 468.916 291.576 468.987 291.665C470.078 293.237 473.885 300.454 474.153 301.115C476.28 297.292 485.306 282.215 487.844 278.589C487.933 278.482 488.076 278.589 488.023 278.678C486.235 282.698 474.528 302.598 474.349 302.544C472.376 299.147 470.586 295.647 468.987 292.058C466.823 294.792 464.476 297.376 461.963 299.793C461.725 296.584 461.66 293.364 461.766 290.147Z" fill="#263238"/>
<path d="M199.899 278.303C182.329 287.092 146.51 308.868 143.668 324.445C140.29 343.006 179.237 387.327 199.076 401.1C206.226 406.102 228.782 375.34 224.099 368.945C219.417 362.549 183.097 327.375 184.063 324.821C185.689 320.533 193.536 310.708 206.172 293.505C218.809 276.302 208.299 274.069 199.899 278.303Z" fill="#FFB6AD"/>
<path d="M187.709 387.469C186.172 382.539 210.641 360.227 215.646 361.995C224.878 364.593 234.548 365.25 244.047 363.925C252.662 362.371 265.281 359.048 266.299 363.657C267.801 370.374 252.34 376.465 243.242 379.431C247.067 383.003 250.034 386.326 251.035 388.916C254.378 397.58 217.647 417.356 209.497 412.604C201.651 408.049 189.246 392.4 187.709 387.469Z" fill="#FFB6AD"/>
<path d="M292.339 400.08L176.593 452.387L208.301 522.477L324.047 470.171L292.339 400.08Z" fill="#E51D1B"/>
<path opacity="0.3" d="M292.339 400.08L176.593 452.387L208.301 522.477L324.047 470.171L292.339 400.08Z" fill="black"/>
<path opacity="0.1" d="M292.344 400.067L176.598 452.373L191.532 485.384L307.278 433.078L292.344 400.067Z" fill="black"/>
<path d="M290.427 388.546L169.208 443.325L184.009 476.042L305.228 421.263L290.427 388.546Z" fill="#E51D1B"/>
<path opacity="0.3" d="M290.427 388.546L169.208 443.325L184.009 476.042L305.228 421.263L290.427 388.546Z" fill="black"/>
<path d="M246.888 385.773L255.324 404.423L246.548 408.388L241.74 397.777L208.263 412.908L213.053 423.519L204.277 427.485L195.841 408.835L246.888 385.773Z" fill="#263238"/>
<path d="M205.013 457.115L197.114 460.685L204.184 476.311L212.082 472.742L205.013 457.115Z" fill="#263238"/>
<path d="M285.041 420.992L277.142 424.561L284.211 440.188L292.11 436.618L285.041 420.992Z" fill="#263238"/>
<path d="M243.242 376.626C238.416 376.715 241.276 382.343 241.276 382.343C241.276 382.343 235.217 375.197 230.284 377.216C225.351 379.234 229.211 385.844 229.462 386.326C229.14 385.951 223.402 379.556 218.648 382.057C213.894 384.558 218.648 390.757 218.88 391.15C218.451 390.899 212.893 387.577 209.711 390.328C204.349 395.026 218.255 403.869 219.291 409.603C219.291 409.603 209.765 412.479 209.497 412.622C209.229 412.765 222.634 421.304 230.302 419.482C231.42 419.23 232.42 418.604 233.135 417.707C233.85 416.811 234.237 415.698 234.234 414.551C234.234 414.551 238.166 417.82 241.973 415.963C243.921 414.998 244.118 411.032 244.118 411.032C245.044 411.724 246.143 412.147 247.294 412.255C248.445 412.362 249.604 412.149 250.642 411.64C253.269 410.157 253.055 406.405 253.055 406.405C253.055 406.405 257.291 407.334 259.489 404.958C263.922 400.153 253.555 376.483 243.242 376.626Z" fill="#FFB6AD"/>
<path d="M244.261 411.121C244.261 411.121 244.457 411.121 244.44 411.121C242.644 401.285 237.388 392.415 229.622 386.112C229.354 385.898 228.89 385.987 229.193 386.255C234.216 390.649 241.544 403.208 244.261 411.121Z" fill="#263238"/>
<path d="M218.166 390.917C225.708 397.17 230.481 405.208 234.252 414.14C234.252 414.265 234.466 414.14 234.449 414.14C233.823 409.264 230.874 403.797 228.193 399.742C225.788 395.922 222.423 392.799 218.434 390.685C218.219 390.56 218.005 390.774 218.166 390.917Z" fill="#263238"/>
<path d="M241.294 382.182C241.044 381.932 240.973 382.575 240.704 382.325C239.632 381.36 232.643 376.001 230.07 377.823C228.032 379.27 228.568 383.039 229.337 384.415L231.285 387.845L228.264 385.29C226.928 384.155 225.42 383.239 223.796 382.575C223.057 382.23 222.253 382.045 221.437 382.029C220.621 382.014 219.812 382.169 219.06 382.486C218.367 382.792 217.8 383.326 217.452 383.998C217.104 384.671 216.997 385.442 217.147 386.183C217.532 387.835 218.324 389.365 219.453 390.632L222.456 394.204L218.47 391.793C217.347 391.129 216.146 390.607 214.895 390.239C213.741 389.85 212.499 389.807 211.32 390.114C210.792 390.281 210.32 390.592 209.957 391.011C209.594 391.431 209.354 391.942 209.265 392.489C209.247 393.752 209.595 394.992 210.266 396.062C211.668 398.382 213.245 400.592 214.984 402.672C215.824 403.744 216.682 404.833 217.469 405.941C218.314 407.03 218.923 408.283 219.256 409.621C218.772 408.344 218.043 407.173 217.111 406.173C216.253 405.137 215.324 404.119 214.395 403.118C212.475 401.115 210.746 398.938 209.229 396.616C208.386 395.376 207.926 393.917 207.906 392.418C207.99 391.608 208.306 390.84 208.817 390.206C209.327 389.572 210.011 389.1 210.784 388.845C212.246 388.398 213.808 388.398 215.27 388.845C216.664 389.236 218.003 389.8 219.256 390.524L218.255 391.721C216.901 390.241 215.947 388.439 215.485 386.487C215.271 385.398 215.442 384.268 215.967 383.289C216.508 382.342 217.325 381.581 218.309 381.11C219.258 380.707 220.282 380.508 221.314 380.526C222.346 380.545 223.362 380.78 224.297 381.217C226.081 381.966 227.73 383.004 229.176 384.29L228.104 385.165C227.174 383.379 226.102 379.252 228.997 376.59C233.341 373.643 240.15 380.789 241.294 382.182Z" fill="#263238"/>
<path d="M241.276 382.343C240.997 381.392 240.877 380.403 240.918 379.413C240.92 379.014 241.029 378.624 241.233 378.281C241.438 377.939 241.73 377.657 242.08 377.466C242.9 377.15 243.795 377.081 244.654 377.269C245.619 377.43 246.62 377.645 247.639 377.912C246.861 377.173 245.935 376.606 244.922 376.251C243.816 375.803 242.578 375.803 241.472 376.251C240.899 376.567 240.433 377.046 240.132 377.627C239.883 378.187 239.79 378.804 239.864 379.413C240.019 380.512 240.513 381.536 241.276 382.343Z" fill="#263238"/>
<path d="M217.129 357.315L182.812 395.794C182.812 395.794 136.019 350.205 141.363 323.588C142.596 317.461 163.598 293.791 197.146 277.945C206.762 273.408 225.476 273.783 207.013 296.667C188.549 319.551 185.743 324.302 185.832 325.249C185.922 326.196 217.129 357.315 217.129 357.315Z" fill="#E51D1B"/>
<path d="M176.341 384.701C179.237 382.11 181.793 379.073 184.42 376.215C187.047 373.357 189.603 370.534 192.159 367.676C197.307 361.906 202.651 356.208 207.423 350.098C207.449 350.07 207.463 350.032 207.461 349.994C207.46 349.955 207.443 349.919 207.414 349.893C207.386 349.867 207.348 349.853 207.31 349.855C207.271 349.856 207.235 349.873 207.209 349.902C201.454 355.261 196.234 361.102 190.998 366.89C188.37 369.784 185.796 372.732 183.24 375.697C180.701 378.508 178.314 381.454 176.091 384.522C176.073 384.665 176.341 384.826 176.341 384.701Z" fill="#263238"/>
<path opacity="0.1" d="M217.128 357.315L182.811 395.794C182.811 395.794 157.466 371.124 146.224 347.561L203.419 276.105C212.624 274.48 221.972 278.285 206.994 296.756C188.549 319.64 185.725 324.392 185.814 325.339C185.903 326.285 217.128 357.315 217.128 357.315Z" fill="black"/>
<path d="M144.777 674.615C144.777 674.615 143.651 745.57 143.651 745.624C143.829 758.933 144.205 770.634 144.973 776.6C144.965 776.629 144.965 776.66 144.973 776.689C145.002 778.12 145.356 779.525 146.01 780.798C150.014 783.424 256.397 785.139 260.133 783.96C263.869 782.781 260.758 772.045 256.683 768.686C252.608 765.328 212.16 746.464 212.16 746.464L212.607 674.526L144.777 674.615Z" fill="#FFB6AD"/>
<path d="M143.382 731.387L143.65 745.678C143.829 758.987 144.204 770.687 144.973 776.654C144.964 776.683 144.964 776.714 144.973 776.743C145.155 778.149 145.503 779.528 146.01 780.852C150.013 783.478 256.397 785.193 260.133 784.014C263.868 782.835 260.758 772.099 256.683 768.74C252.608 765.382 212.16 746.518 212.16 746.518V732.03L143.382 731.387Z" fill="white"/>
<path d="M218.755 746.518C211.606 745.41 203.08 746.768 197.843 751.877C197.647 752.073 197.933 752.359 198.147 752.27C204.826 749.941 211.735 748.33 218.755 747.464C218.881 747.464 219.002 747.415 219.09 747.326C219.179 747.237 219.229 747.117 219.229 746.991C219.229 746.865 219.179 746.745 219.09 746.656C219.002 746.567 218.881 746.518 218.755 746.518Z" fill="#263238"/>
<path d="M223.956 749.429C216.807 748.322 208.263 749.679 203.026 754.788C202.829 755.003 203.026 755.289 203.348 755.199C210.018 752.809 216.928 751.15 223.956 750.251C224.037 750.217 224.105 750.159 224.154 750.086C224.202 750.013 224.228 749.928 224.228 749.84C224.228 749.752 224.202 749.667 224.154 749.594C224.105 749.521 224.037 749.464 223.956 749.429Z" fill="#263238"/>
<path d="M229.14 752.323C221.99 751.234 213.447 752.591 208.21 757.682C208.013 757.897 208.21 758.165 208.532 758.093C215.204 755.708 222.113 754.043 229.14 753.127C229.215 753.091 229.279 753.033 229.324 752.962C229.368 752.891 229.392 752.809 229.392 752.725C229.392 752.641 229.368 752.559 229.324 752.488C229.279 752.417 229.215 752.36 229.14 752.323Z" fill="#263238"/>
<path d="M260.222 784.032C256.487 785.229 150.157 785.461 146.153 782.817C144.598 781.835 143.901 764.381 143.651 745.624V745.035L212.303 745.374V746.553C212.303 746.553 252.68 765.328 256.773 768.776C260.866 772.224 263.922 782.853 260.222 784.032Z" fill="#E51D1B"/>
<path opacity="0.4" d="M260.222 784.032C256.487 785.229 150.157 785.461 146.153 782.817C144.598 781.835 143.901 764.381 143.651 745.624V745.035L212.303 745.374V746.553C212.303 746.553 252.68 765.328 256.773 768.776C260.866 772.224 263.922 782.853 260.222 784.032Z" fill="black"/>
<path d="M259.079 779.887C241.205 779.155 168.781 777.904 151.015 778.548C150.872 778.548 150.872 778.655 151.015 778.673C168.763 779.78 241.133 780.459 259.079 780.191C259.454 780.173 259.454 779.905 259.079 779.887Z" fill="#263238"/>
<path opacity="0.1" d="M206.852 745.553L246.781 784.621C251.269 784.663 255.756 784.466 260.222 784.032C263.958 782.853 260.848 772.134 256.773 768.758C252.698 765.382 212.25 746.535 212.25 746.535V745.392H207.013L206.852 745.553Z" fill="black"/>
<path d="M139.414 744.731L218.755 745.642C218.755 745.642 220.543 614.449 220.543 572.683C220.453 524.969 213.304 382.611 213.304 382.611L155.769 383.164C149.693 397.55 145.488 412.655 143.257 428.11C142.346 434.755 143.382 454.138 145.688 462.981L151.3 578.936L139.414 744.731Z" fill="#37474F"/>
<path d="M208.085 661.878C208.764 641.174 209.175 615.735 209.533 594.995C210.272 553.551 210.164 512.095 209.211 470.626C208.675 447.403 207.835 424.18 206.905 400.957C206.905 400.689 207.299 400.707 207.316 400.957C209.944 442.562 211.177 484.257 211.642 526.005C212.107 567.753 211.642 613.645 210.051 655.072C209.14 678.295 207.942 701.607 205.994 724.741C205.994 724.938 205.672 724.938 205.672 724.741C206.405 703.715 207.37 682.815 208.085 661.878Z" fill="#263238"/>
<path d="M208.514 730.672C193.053 729.636 177.503 729.618 162.042 729.904C157.663 729.993 153.284 730.118 148.905 730.333C148.744 730.333 148.762 730.565 148.905 730.583C164.366 731.53 179.916 731.708 195.377 731.405C199.756 731.315 204.135 731.19 208.496 730.94C208.524 730.932 208.549 730.915 208.567 730.892C208.586 730.87 208.597 730.842 208.599 730.812C208.6 730.783 208.593 730.754 208.578 730.729C208.563 730.704 208.54 730.684 208.514 730.672Z" fill="#263238"/>
<path d="M250.123 679.849C250.123 679.849 250.392 746.607 250.374 746.643C250.552 759.951 250.946 771.652 251.714 777.619V777.708C251.743 779.138 252.097 780.544 252.751 781.817H252.84C256.826 784.461 363.228 786.175 366.945 784.979C370.663 783.782 367.589 773.063 363.514 769.705C359.438 766.346 318.973 747.482 318.973 747.482L315.076 679.956L250.123 679.849Z" fill="#FFB6AD"/>
<path d="M250.123 732.369C250.123 732.369 250.392 746.66 250.374 746.66C250.552 759.969 250.946 771.67 251.714 777.636V777.726C251.903 779.13 252.251 780.508 252.751 781.834H252.84C256.826 784.478 363.228 786.193 366.945 784.996C370.663 783.8 367.589 773.081 363.514 769.723C359.438 766.364 318.973 747.5 318.973 747.5V733.012L250.123 732.369Z" fill="white"/>
<path d="M325.496 747.464C318.347 746.374 309.803 747.714 304.566 752.823C304.369 753.02 304.566 753.306 304.888 753.234C311.56 750.849 318.469 749.184 325.496 748.268C325.572 748.231 325.635 748.174 325.68 748.103C325.724 748.032 325.748 747.95 325.748 747.866C325.748 747.782 325.724 747.7 325.68 747.629C325.635 747.558 325.572 747.501 325.496 747.464Z" fill="#263238"/>
<path d="M330.68 750.448C323.53 749.34 314.987 750.698 309.768 755.896C309.553 756.093 309.768 756.378 310.072 756.289C316.745 753.911 323.654 752.252 330.68 751.341C330.798 751.341 330.912 751.294 330.996 751.21C331.08 751.126 331.127 751.013 331.127 750.894C331.127 750.776 331.08 750.662 330.996 750.578C330.912 750.495 330.798 750.448 330.68 750.448Z" fill="#263238"/>
<path d="M335.863 753.359C328.714 752.252 320.188 753.609 314.951 758.718C314.754 758.933 314.951 759.219 315.255 759.129C321.926 756.743 328.836 755.084 335.863 754.181C335.944 754.147 336.012 754.089 336.061 754.016C336.109 753.943 336.135 753.858 336.135 753.77C336.135 753.683 336.109 753.597 336.061 753.524C336.012 753.451 335.944 753.394 335.863 753.359Z" fill="#263238"/>
<path d="M366.945 784.979C363.21 786.175 256.468 786.765 252.554 784.193C251.017 783.228 250.767 765.346 250.481 746.571V745.999L319.115 746.339V747.5C319.115 747.5 359.528 766.346 363.639 769.723C367.749 773.099 370.699 783.871 366.945 784.979Z" fill="#E51D1B"/>
<path opacity="0.4" d="M366.945 784.979C363.21 786.175 256.468 786.765 252.554 784.193C251.017 783.228 250.767 765.346 250.481 746.571V745.999L319.115 746.339V747.5C319.115 747.5 359.528 766.346 363.639 769.723C367.749 773.099 370.699 783.871 366.945 784.979Z" fill="black"/>
<path d="M365.801 780.584C347.928 779.977 275.504 779.155 257.72 779.887C257.577 779.887 257.577 779.995 257.72 780.012C275.486 781.013 347.856 781.245 365.801 780.888C366.195 780.87 366.195 780.602 365.801 780.584Z" fill="#263238"/>
<path d="M189.8 456.46C189.8 456.46 235.896 557.106 239.667 573.201C243.242 588.386 242.366 746.643 242.366 746.643L321.743 746.071C321.743 746.071 310.59 586.081 309.231 569.861C307.444 548.531 288.82 499.923 269.141 447.957C260.74 425.913 249.623 404.351 243.653 382.307L157.484 383.146C157.484 383.146 158.61 422.036 176.591 449.993C176.591 449.993 184.634 453.638 189.8 456.46Z" fill="#37474F"/>
<path d="M314.754 731.869C299.276 731.119 283.726 731.387 268.283 731.976C263.904 732.137 259.543 732.351 255.164 732.655C255.003 732.655 255.021 732.887 255.164 732.887C270.642 733.548 286.192 733.441 301.635 732.887C306.014 732.709 310.393 732.494 314.754 732.173C314.795 732.173 314.833 732.157 314.862 732.128C314.89 732.1 314.906 732.061 314.906 732.021C314.906 731.981 314.89 731.942 314.862 731.914C314.833 731.885 314.795 731.869 314.754 731.869Z" fill="#263238"/>
<path d="M209.586 458.193C205.604 458.203 201.628 457.88 197.7 457.228C193.807 456.402 189.959 455.376 186.172 454.156C182.447 453.327 178.674 452.731 174.875 452.369C171.045 451.861 167.311 450.79 163.794 449.19C163.633 449.19 163.49 449.35 163.651 449.44C167.091 451.238 170.679 452.738 174.375 453.924C178.164 455.085 182.132 455.21 185.993 456.103C189.884 457.221 193.842 458.092 197.843 458.711C201.788 459.164 205.777 459.062 209.693 458.407C209.783 458.425 209.729 458.193 209.586 458.193Z" fill="#263238"/>
<path d="M217.004 521.039C216.164 518.698 215.377 516.322 214.502 513.982C212.714 509.248 210.927 504.496 208.943 499.798C205.029 490.473 201.329 481.077 197.2 471.788C194.858 466.518 192.749 461.194 190.05 456.032C190.05 455.906 189.747 456.032 189.782 456.032C191.177 460.855 193.143 465.571 194.894 470.323C196.646 475.075 198.469 479.791 200.417 484.507C204.153 493.885 207.817 503.282 211.91 512.589C213.03 515.197 214.222 517.793 215.485 520.378C216.754 523.021 217.737 525.737 219.256 528.309C219.256 528.452 219.596 528.309 219.56 528.309C218.898 525.844 217.844 523.45 217.004 521.039Z" fill="#263238"/>
<path d="M232.786 387.595C232.786 387.327 232.518 387.487 232.536 387.702C233.073 394.871 234.521 401.942 236.844 408.746L244.154 429.021L258.846 469.59C269.731 499.959 281.063 530.328 291.162 561.054C292.256 564.425 292.893 567.928 293.056 571.468C296.524 610.483 301.618 682.011 304.906 721.883C304.906 722.026 305.282 722.205 305.3 721.883C305.3 721.258 302.476 678.884 302.476 678.884C300.688 653.285 298.365 618.004 296.327 592.834C295.755 585.688 295.201 578.543 294.54 571.397C294.381 567.754 293.732 564.149 292.609 560.679C278.311 517.555 260.741 471.609 244.869 428.843L237.112 408.603C234.736 401.821 233.258 394.759 232.715 387.595H232.786Z" fill="#263238"/>
<path d="M226.53 294.166C221.883 294.523 211.963 286.163 207.959 278.964C208.101 274.918 208.447 270.881 208.996 266.87C209.335 262.993 209.621 258.652 209.586 254.687L234.501 260.582C233.122 265.549 232.354 270.666 232.214 275.82C232.217 276.366 232.277 276.911 232.392 277.445C232.386 277.535 232.386 277.624 232.392 277.713C232.946 280.804 233.787 293.612 226.53 294.166Z" fill="#FFB6AD"/>
<path d="M232.429 277.642C231.583 277.771 230.728 277.825 229.873 277.803C216.057 277.588 212.142 260.885 211.159 255.008L234.52 260.528C233.131 265.495 232.35 270.611 232.197 275.766C232.205 276.307 232.271 276.846 232.393 277.374C232.393 277.517 232.429 277.642 232.429 277.642Z" fill="#263238"/>
<path d="M240.347 214.386C242.94 214.998 245.287 216.381 247.08 218.351C248.872 220.321 250.027 222.787 250.392 225.426C251.607 234.679 248.14 242.897 247.335 243.29C246.531 243.683 240.347 214.386 240.347 214.386Z" fill="#263238"/>
<path d="M208.925 221.084C205.243 229.534 206.959 255.383 212.5 261.743C220.597 270.961 235.307 273.444 243.51 263.386C251.464 253.633 248.64 219.995 242.259 214.064C232.911 205.346 214.359 208.598 208.925 221.084Z" fill="#FFB6AD"/>
<path d="M207.495 244.736C208.317 252.096 210.033 258.885 212.535 261.743C220.632 270.961 235.342 273.444 243.546 263.386C249.123 256.562 249.391 238.037 246.87 225.497C245.78 220.138 244.207 215.868 242.295 214.1C232.911 205.382 214.358 208.633 208.925 221.12C206.887 225.836 206.494 235.697 207.495 244.736Z" fill="#FFB6AD"/>
<path d="M233.536 239.556C233.536 239.556 233.393 239.556 233.393 239.717C233.501 241.503 233.393 243.468 231.767 244.093V244.2C233.715 243.861 233.929 241.199 233.536 239.556Z" fill="#263238"/>
<path d="M231.928 237.787C229.122 237.644 229.068 243.289 231.678 243.397C234.287 243.504 234.287 237.895 231.928 237.787Z" fill="#263238"/>
<path d="M243.028 239.52C243.028 239.52 243.171 239.52 243.171 239.663C243.171 241.449 243.296 243.414 244.958 244.022C242.939 243.825 242.688 241.146 243.028 239.52Z" fill="#263238"/>
<path d="M244.618 237.716C247.425 237.519 247.585 243.075 244.976 243.325C242.366 243.575 242.259 237.859 244.618 237.716Z" fill="#263238"/>
<path d="M229.962 235.554C230.748 235.554 231.481 235.429 232.267 235.358C233.088 235.395 233.897 235.163 234.573 234.697C234.761 234.511 234.881 234.267 234.913 234.004C234.945 233.742 234.889 233.476 234.752 233.25C234.415 232.847 233.979 232.54 233.487 232.358C232.995 232.176 232.463 232.126 231.946 232.214C230.867 232.249 229.838 232.674 229.05 233.411C228.879 233.59 228.764 233.815 228.72 234.059C228.676 234.303 228.704 234.554 228.8 234.782C228.897 235.01 229.059 235.205 229.265 235.342C229.472 235.479 229.714 235.553 229.962 235.554Z" fill="#263238"/>
<path d="M246.46 236.001C245.705 235.836 244.959 235.634 244.226 235.394C243.408 235.289 242.648 234.919 242.063 234.34C241.902 234.133 241.815 233.878 241.815 233.616C241.815 233.354 241.902 233.099 242.063 232.893C242.463 232.551 242.948 232.323 243.467 232.232C243.985 232.141 244.519 232.19 245.012 232.375C246.069 232.582 247.008 233.182 247.639 234.054C247.767 234.253 247.836 234.485 247.839 234.722C247.842 234.959 247.779 235.192 247.656 235.394C247.533 235.597 247.356 235.761 247.145 235.869C246.933 235.976 246.696 236.022 246.46 236.001Z" fill="#263238"/>
<path d="M230.909 255.455C231.32 255.866 231.731 256.437 232.357 256.491C232.974 256.477 233.582 256.337 234.144 256.08C234.144 256.08 234.269 256.08 234.233 256.08C233.979 256.42 233.636 256.685 233.243 256.846C232.849 257.006 232.419 257.056 231.999 256.991C231.64 256.904 231.316 256.708 231.073 256.43C230.829 256.152 230.679 255.805 230.641 255.437C230.712 255.437 230.837 255.401 230.909 255.455Z" fill="#263238"/>
<path d="M232.786 250.256C233.225 250.95 233.803 251.546 234.482 252.007C235.162 252.468 235.929 252.784 236.736 252.936C237.436 253.076 238.152 253.118 238.863 253.061C238.999 253.08 239.138 253.08 239.274 253.061H239.667C239.758 253.045 239.84 253 239.902 252.932C239.963 252.864 240 252.777 240.007 252.686V252.507V252.364C240.007 251.025 240.007 248.97 240.007 248.97C240.507 249.22 242.992 250.381 242.956 249.667C242.868 243.614 242.162 237.587 240.847 231.678C240.847 231.635 240.83 231.594 240.8 231.564C240.77 231.534 240.729 231.517 240.686 231.517C240.643 231.517 240.603 231.534 240.572 231.564C240.542 231.594 240.525 231.635 240.525 231.678C240.525 237.269 241.616 242.825 241.759 248.452C240.877 248.023 239.938 247.722 238.97 247.559C238.774 247.559 239.238 251.507 239.167 252.114C238.064 252.209 236.954 252.083 235.901 251.742C234.848 251.402 233.874 250.854 233.036 250.131C232.822 249.988 232.697 250.113 232.786 250.256Z" fill="#263238"/>
<path d="M238.077 252.364C237.331 253.317 236.352 254.061 235.235 254.526C234.618 254.761 233.941 254.792 233.305 254.615C231.928 254.24 231.893 252.972 232.161 251.882C232.305 251.298 232.522 250.734 232.804 250.203C234.286 251.468 236.133 252.226 238.077 252.364Z" fill="#263238"/>
<path d="M235.324 254.526C234.707 254.761 234.03 254.792 233.394 254.615C232.017 254.24 231.982 252.972 232.25 251.882C232.986 251.91 233.691 252.186 234.25 252.666C234.808 253.147 235.187 253.802 235.324 254.526Z" fill="#FF9ABB"/>
<path d="M210.069 243.843C214.609 244.129 217.379 239.717 218.755 232.625C219.56 228.498 218.273 220.316 218.273 220.316C218.273 220.316 229.98 225.461 236.539 224.729C243.099 223.996 248.568 218.208 248.139 213.064C247.782 208.651 240.186 203.078 230.373 202.899C223.527 202.774 212.106 208.544 207.137 216.011C207.137 216.011 198.63 220.334 199.988 226.73C201.346 233.125 204.939 243.504 210.069 243.843Z" fill="#263238"/>
<path d="M210.301 242.611C216.914 243.736 220.06 235.143 220.06 230.677C220.06 226.211 217.807 221.388 216.717 216.869C219.148 222.317 221.811 229.23 219.863 235C218.648 238.573 215.823 244.629 210.193 242.932C209.997 242.861 210.032 242.575 210.301 242.611Z" fill="#263238"/>
<path d="M198.773 224.854C199.506 220.834 203.974 216.779 207.71 215.761C203.17 217.548 198.004 222.907 199.541 228.052C200.758 232.626 202.873 236.913 205.761 240.663C205.761 240.663 205.761 240.842 205.636 240.771C203.619 238.509 202.086 235.858 201.132 232.982C200.149 230.588 198.255 227.623 198.773 224.854Z" fill="#263238"/>
<path d="M206.333 216.636C211.534 208.758 222.991 199.684 233 201.827C222.401 200.47 213.089 209.687 206.708 216.922C206.511 217.154 206.19 216.904 206.333 216.636Z" fill="#263238"/>
<path d="M213.5 243.325C213.5 243.325 208.531 234.572 204.563 236.269C200.595 237.966 203.83 250.256 208.138 252.347C208.659 252.647 209.234 252.838 209.831 252.911C210.428 252.983 211.033 252.935 211.61 252.768C212.187 252.601 212.725 252.32 213.191 251.94C213.657 251.561 214.042 251.092 214.322 250.56L213.5 243.325Z" fill="#FFB6AD"/>
<path d="M205.618 239.77C205.618 239.77 205.618 239.77 205.618 239.877C206.956 240.713 208.104 241.818 208.991 243.122C209.877 244.427 210.481 245.901 210.766 247.452C210.614 247.135 210.396 246.855 210.127 246.629C209.859 246.402 209.545 246.236 209.207 246.139C208.87 246.043 208.515 246.02 208.168 246.07C207.82 246.121 207.487 246.245 207.191 246.434C207.102 246.434 207.191 246.63 207.191 246.612C207.744 246.493 208.321 246.548 208.843 246.768C209.364 246.989 209.805 247.365 210.104 247.845C210.599 248.657 211.006 249.519 211.32 250.417C211.445 250.703 211.945 250.614 211.874 250.292V250.203C212.303 246.308 209.783 240.556 205.618 239.77Z" fill="#263238"/>
<path d="M235.628 290.432L235.467 276.874L208.246 265.655L205.315 275.266C207.621 280.869 211.052 285.939 215.395 290.165C222.152 296.345 230.195 296.631 235.628 290.432Z" fill="#EBEBEB"/>
<path d="M144.329 408.853L171.39 411.247L178.808 398.188L182.543 412.247L259.221 419.053L253.198 399.278C249.998 367.301 245.119 302.241 234.359 283.162C230.784 276.677 213.804 270.157 205.993 274.48C185.653 285.699 164.187 355.189 152.748 389.113C152.766 389.077 144.169 408.549 144.329 408.853Z" fill="#E51D1B"/>
<path opacity="0.1" d="M181.524 384.397C182.361 366.972 185.82 349.772 191.784 333.377C188.459 349.562 184.527 368.087 181.524 384.397Z" fill="black"/>
<path d="M219.631 297.131C208.317 338.933 204.617 392.329 215.717 400.742C229.015 410.764 246.674 363.317 246.62 360.781C246.62 357.083 240.49 327.25 236.236 296.738C231.982 266.227 222.419 286.806 219.631 297.131Z" fill="#E51D1B"/>
<path d="M247.836 365.39C246.817 360.281 245.888 355.154 244.958 350.027C244.029 344.9 243.171 339.755 242.295 334.61L239.793 319.193L238.595 311.458C238.238 308.886 237.845 306.314 237.505 303.723C238.006 306.278 238.488 308.832 238.971 311.405L240.365 319.086L243.046 334.485C243.868 339.63 244.744 344.775 245.53 349.919C246.317 355.064 247.193 360.227 247.836 365.39Z" fill="#263238"/>
<path d="M239.775 315.621C239.677 314.247 239.677 312.868 239.775 311.494C239.775 310.815 239.775 310.136 239.918 309.458C240.061 308.779 240.079 308.1 240.168 307.403C240.388 308.767 240.448 310.152 240.347 311.53C240.272 312.907 240.081 314.276 239.775 315.621Z" fill="#263238"/>
<path d="M215.86 401.957C225.494 409.764 242.67 407.316 291.733 403.011C298.507 402.422 308.445 352.349 301.17 352.599C292.019 352.921 256.486 356.172 253.984 356.708C232.357 361.46 209.318 396.669 215.86 401.957Z" fill="#FFB6AD"/>
<path d="M285.066 356.243C285.066 356.243 302.618 350.116 314.272 346.65C320.778 344.721 332.235 342.399 337.668 343.078C345.783 344.221 379.028 354.171 376.776 362.281C374.756 369.623 347.284 357.44 347.284 357.44C347.284 357.44 376.097 367.283 372.022 375.679C367.946 384.075 338.741 366.176 338.741 366.176C338.741 366.176 368.107 376.894 362.548 384.933C358.348 390.971 330.984 376.251 330.984 376.251C330.984 376.251 356.15 385.683 352.092 392.078C347.606 399.224 321.493 387.148 321.493 387.148C308.445 401.654 296.291 403.226 287.533 403.315C285.37 403.476 285.066 356.243 285.066 356.243Z" fill="#FFB6AD"/>
<path d="M337.543 353.528C340.957 354.564 344.442 355.582 347.767 356.922C351.091 358.262 354.362 359.709 357.544 361.335C361.748 363.392 365.7 365.927 369.322 368.891C362.495 364.103 350.68 359.155 347.356 357.815C344.031 356.476 340.796 354.975 337.489 353.653L337.543 353.528Z" fill="#263238"/>
<path d="M332.503 365.425C336.81 366.926 341.153 368.266 345.407 369.981C349.661 371.696 353.504 373.643 357.615 375.626C357.919 375.769 357.74 375.894 357.418 375.751C353.236 373.964 349.232 372.589 345.032 370.82C340.832 369.052 336.703 367.122 332.521 365.461C332.395 365.497 332.431 365.407 332.503 365.425Z" fill="#263238"/>
<path d="M326.336 374.858C333.01 377.01 339.443 379.848 345.532 383.325C345.854 383.486 345.532 383.611 345.264 383.468C338.937 380.538 333.986 378.109 326.265 375.09C326.14 375.036 326.193 374.822 326.336 374.858Z" fill="#263238"/>
<path d="M295.379 351.974L267.765 408.853C267.765 408.853 224.868 410.103 215.752 401.314C209.783 395.526 231.839 359.691 256.057 356.261L295.379 351.974Z" fill="#E51D1B"/>
<path d="M230.32 371.624C236.722 363.508 245.891 358.033 256.076 356.243C256.201 356.243 256.255 356.422 256.076 356.458C245.798 359.102 233.573 368.373 230.391 371.785C230.374 371.856 230.248 371.713 230.32 371.624Z" fill="#263238"/>
<path d="M254.467 404.476C257.184 398.063 260.222 391.793 263.279 385.54C266.335 379.288 269.391 373.035 272.609 366.819C274.396 363.246 276.183 359.816 278.167 356.386C278.167 356.297 278.382 356.386 278.346 356.386C275.647 362.799 272.627 369.088 269.606 375.34C266.585 381.592 263.493 387.845 260.347 394.115C258.56 397.688 256.773 401.118 254.789 404.548C254.699 404.78 254.396 404.673 254.467 404.476Z" fill="#263238"/>
<path d="M295.29 351.366C292.578 351.334 289.866 351.489 287.175 351.831C284.477 352.081 281.813 352.385 279.079 352.706C273.717 353.349 262.295 354.118 252.84 356.869C252.751 356.869 253.43 357.244 253.519 357.208C257.952 355.672 292.073 352.831 294.772 352.26C294.72 352.46 294.678 352.663 294.647 352.867C294.647 353.028 294.807 353.153 294.933 353.01C295.058 352.867 295.344 352.349 295.594 352.027C295.64 351.968 295.668 351.897 295.677 351.823C295.685 351.749 295.673 351.673 295.642 351.605C295.61 351.537 295.561 351.479 295.499 351.437C295.437 351.395 295.365 351.37 295.29 351.366Z" fill="#263238"/>
<path d="M269.659 404.958L267.872 408.906C255.596 409.919 243.248 409.625 231.034 408.031C219.917 406.245 213.161 403.672 210.515 391.775C207.048 376.715 208.442 361.031 210.015 345.811C211.418 333.68 213.591 321.652 216.521 309.797C214.251 321.819 212.499 333.931 211.338 346.097C209.957 358.201 209.735 370.41 210.676 382.557C211.32 388.416 212.249 394.651 215.466 399.671C221.132 407.477 240.204 407.942 249.426 408.603C255.36 408.942 262.135 408.817 267.675 408.835L269.677 404.994L269.659 404.958Z" fill="#263238"/>
<path d="M215.038 311.351C214.877 313.638 214.805 315.781 214.769 318.05C214.187 317.019 213.904 315.846 213.952 314.663C213.999 313.479 214.375 312.333 215.038 311.351Z" fill="#263238"/>
</svg>
