<svg width="99" height="72" viewBox="0 0 99 72" fill="none" xmlns="http://www.w3.org/2000/svg">
<path opacity="0.65" d="M0 0V57.5H8.07001V71.44L22.02 57.5H98.56V0H0Z" fill="#E51D1B"/>
<path opacity="0.65" d="M67.9102 28.7501C67.9102 29.6737 68.1841 30.5766 68.6972 31.3446C69.2104 32.1126 69.9397 32.7111 70.793 33.0646C71.6464 33.4181 72.5854 33.5105 73.4912 33.3303C74.3971 33.1502 75.2292 32.7054 75.8824 32.0523C76.5355 31.3992 76.9802 30.567 77.1604 29.6611C77.3406 28.7553 77.2481 27.8163 76.8947 26.9629C76.5412 26.1096 75.9427 25.3803 75.1747 24.8671C74.4067 24.354 73.5038 24.0801 72.5802 24.0801C71.9669 24.0801 71.3596 24.2009 70.793 24.4356C70.2264 24.6703 69.7116 25.0142 69.278 25.4479C68.8443 25.8815 68.5003 26.3964 68.2657 26.9629C68.031 27.5295 67.9102 28.1368 67.9102 28.7501Z" fill="#FFE8E8"/>
<path opacity="0.65" d="M44.6094 28.7501C44.6094 29.6737 44.8833 30.5766 45.3964 31.3446C45.9096 32.1126 46.6389 32.7111 47.4922 33.0646C48.3456 33.4181 49.2845 33.5105 50.1904 33.3303C51.0963 33.1502 51.9285 32.7054 52.5816 32.0523C53.2347 31.3992 53.6795 30.567 53.8596 29.6611C54.0398 28.7553 53.9474 27.8163 53.5939 26.9629C53.2404 26.1096 52.6418 25.3803 51.8739 24.8671C51.1059 24.354 50.203 24.0801 49.2794 24.0801C48.0408 24.0801 46.853 24.5721 45.9772 25.4479C45.1014 26.3237 44.6094 27.5115 44.6094 28.7501Z" fill="#FFE8E8"/>
<path opacity="0.65" d="M21.3096 28.7498C21.3096 29.6739 21.5837 30.5772 22.0973 31.3454C22.6109 32.1136 23.3408 32.7121 24.1947 33.0653C25.0486 33.4185 25.9882 33.5104 26.8943 33.3294C27.8005 33.1484 28.6326 32.7026 29.2853 32.0485C29.938 31.3944 30.382 30.5613 30.561 29.6548C30.7401 28.7482 30.6462 27.8089 30.2912 26.9558C29.9362 26.1026 29.3361 25.374 28.5668 24.862C27.7975 24.3501 26.8936 24.0779 25.9695 24.0798C24.7327 24.0825 23.5475 24.5757 22.6738 25.4512C21.8002 26.3267 21.3096 27.513 21.3096 28.7498Z" fill="#FFE8E8"/>
</svg>
