<svg width="630" height="620" viewBox="0 0 630 620" fill="none" xmlns="http://www.w3.org/2000/svg">
<path d="M71.3538 204.184L281.308 204.184V196.003L71.3538 196.003V204.184Z" fill="#E51D1B"/>
<path d="M269.526 204.196H260.315V231.247H269.526V204.196Z" fill="#EBEBEB"/>
<path d="M269.526 204.196H260.315V212.556H269.526V204.196Z" fill="#DBDBDB"/>
<path d="M92.3199 204.196H83.1093V231.247H92.3199V204.196Z" fill="#E51D1B"/>
<path d="M92.3199 204.196H83.1093V212.556H92.3199V204.196Z" fill="#C21816"/>
<path d="M242.108 196.014V143.893H227.329V196.014H242.108Z" fill="#C7C7C7"/>
<path d="M242.108 146.837V141.107H227.329V146.837H242.108Z" fill="#DBDBDB"/>
<path d="M242.108 156.294V154.167H227.329V156.294H242.108Z" fill="#DBDBDB"/>
<path d="M242.108 189.176V183.446H225.489V189.176H242.108Z" fill="#DBDBDB"/>
<path d="M227.329 196.014V135.208H216.997V196.014H227.329Z" fill="#DBDBDB"/>
<path d="M225.312 164.307V140.927H219.113V164.307H225.312Z" fill="#EBEBEB"/>
<path d="M150.802 196.035L199.485 153.287L192.222 146.761L143.538 189.509L150.802 196.035Z" fill="#C7C7C7"/>
<path d="M160.743 184.679L179.462 168.242L175.104 164.326L156.385 180.763L160.743 184.679Z" fill="#DBDBDB"/>
<path d="M217.01 196.014V149.836H199.471V196.014H217.01Z" fill="#A6A6A6"/>
<path d="M217.01 191.135V186.826H199.471V191.135H217.01Z" fill="#C7C7C7"/>
<path d="M217.01 183.994V182.327H199.471V183.994H217.01Z" fill="#C7C7C7"/>
<path d="M254.229 196.026V152.623H242.121V196.026H254.229Z" fill="#A6A6A6"/>
<path d="M254.229 191.414V187.374H242.121V191.414H254.229Z" fill="#C7C7C7"/>
<path d="M254.229 165.606V161.565H242.121V165.606H254.229Z" fill="#C7C7C7"/>
<path d="M254.218 169.948V168.381H242.109V169.948H254.218Z" fill="#C7C7C7"/>
<path d="M113.803 140.413C124.135 149.366 125.874 163.311 123.694 175.488C123.694 175.757 123.152 175.69 123.152 175.421C123.152 172.657 123.253 169.903 123.24 167.173C123.24 167.038 123.14 166.926 123.077 166.803C120.292 165.174 117.989 162.975 116.361 160.39C114.635 157.38 113.954 153.977 112.644 150.821C112.518 150.519 112.883 150.608 113.11 150.765C119.41 154.884 121.401 159.316 123.19 165.236C123.149 162.139 122.782 159.051 122.094 156.014C120.894 150.29 117.928 144.974 113.526 140.659C113.502 140.625 113.492 140.584 113.497 140.544C113.503 140.504 113.523 140.467 113.555 140.439C113.587 140.41 113.629 140.392 113.674 140.387C113.719 140.383 113.764 140.392 113.803 140.413Z" fill="#A6A6A6"/>
<path d="M111.862 141.465C110.073 141.465 108.964 144.039 107.578 144.822C107.432 144.928 107.263 145.004 107.082 145.047C106.9 145.09 106.71 145.099 106.525 145.073C106.339 145.046 106.162 144.985 106.005 144.894C105.848 144.803 105.714 144.683 105.613 144.543C104.239 142.841 106.129 140.748 107.893 139.573C106.725 140.155 105.492 140.628 104.214 140.983C104.039 141.038 103.853 141.058 103.669 141.041C103.485 141.025 103.308 140.972 103.149 140.888C102.99 140.804 102.854 140.689 102.751 140.553C102.647 140.417 102.579 140.262 102.551 140.099C101.946 137.783 105.222 136.742 107.477 136.742C106.381 136.07 103.256 134.246 104.957 133.384C106.658 132.522 110.312 135.097 111.497 135.958C113.261 137.223 115.352 139.126 115.441 141.107C115.504 143.367 113.223 141.946 111.862 141.465Z" fill="#DBDBDB"/>
<path d="M112.366 141.856C110.098 140.927 105.726 142.259 105.361 141.487C104.605 139.931 108.095 138.868 109.985 138.655C108.246 138.241 104.945 137.536 105.021 136.092C105.147 134.279 110.124 135.835 112.644 137.547C115.806 139.708 115.794 141.8 115.264 142.215C114.546 142.785 112.744 142.002 112.366 141.856Z" fill="#EBEBEB"/>
<path d="M137.34 139.529C126.63 148.158 124.299 161.991 126 174.224C126 174.503 126.529 174.447 126.542 174.224C126.655 171.459 126.681 168.706 126.807 165.975L126.983 165.606C129.835 164.08 132.23 161.964 133.963 159.439C135.828 156.484 136.647 153.104 138.096 150.004C138.235 149.702 137.869 149.78 137.63 149.926C131.166 153.832 128.974 158.197 126.92 164.05C127.092 160.956 127.59 157.884 128.407 154.873C129.857 149.187 133.059 143.971 137.655 139.808C137.697 139.771 137.72 139.721 137.72 139.668C137.72 139.616 137.697 139.566 137.655 139.529C137.613 139.491 137.557 139.471 137.498 139.471C137.439 139.471 137.382 139.491 137.34 139.529Z" fill="#A6A6A6"/>
<path d="M139.23 140.636C141.006 140.748 142.014 143.311 143.363 144.095C143.504 144.205 143.67 144.288 143.849 144.337C144.029 144.387 144.218 144.402 144.405 144.382C144.592 144.362 144.772 144.307 144.933 144.221C145.094 144.135 145.233 144.019 145.341 143.882C146.79 142.226 144.988 140.066 143.274 138.834C144.414 139.487 145.626 140.034 146.891 140.468C147.063 140.529 147.248 140.555 147.433 140.545C147.618 140.535 147.798 140.488 147.96 140.409C148.122 140.33 148.263 140.22 148.372 140.087C148.482 139.954 148.556 139.802 148.592 139.64C149.285 137.335 146.072 136.193 143.816 136.07C144.925 135.432 148.125 133.709 146.513 132.712C144.9 131.716 141.12 134.268 139.86 135.108C138.045 136.316 135.878 138.141 135.714 140.11C135.513 142.416 137.844 141.073 139.23 140.636Z" fill="#DBDBDB"/>
<path d="M138.701 140.983C141.019 140.144 145.316 141.61 145.719 140.86C146.538 139.338 143.098 138.152 141.233 137.883C142.985 137.525 146.273 136.965 146.273 135.477C146.273 133.664 141.233 135.052 138.6 136.686C135.349 138.734 135.273 140.815 135.777 141.252C136.483 141.868 138.323 141.151 138.701 140.983Z" fill="#EBEBEB"/>
<path d="M126.378 162.326C125.66 166.943 124.548 171.503 123.051 175.97C123.031 176.057 122.973 176.134 122.889 176.183C122.805 176.233 122.703 176.25 122.604 176.233C122.505 176.215 122.419 176.163 122.363 176.088C122.308 176.014 122.288 175.923 122.308 175.835C123.014 171.627 124.299 167.497 124.992 163.3C125.766 159.043 126.044 154.726 125.823 150.418C125.37 143.334 123.203 135.79 117.999 130.273C117.885 130.138 118.125 129.948 118.238 130.071C128.671 140.871 127.058 154.112 127.058 155.298C128.532 150.821 130.057 145.706 135.639 141.151C135.878 140.95 136.067 141.051 136.029 141.386C135.034 149.668 132.438 154 127.02 158.432C126.806 159.719 126.617 161.028 126.378 162.326Z" fill="#A6A6A6"/>
<path d="M117.898 131.493C116.02 130.754 113.437 132.869 111.598 133.015C111.391 133.059 111.176 133.064 110.967 133.031C110.758 132.997 110.559 132.926 110.383 132.821C110.206 132.715 110.056 132.579 109.942 132.42C109.828 132.26 109.753 132.082 109.72 131.895C109.254 129.523 112.404 128.18 114.899 127.754C113.324 127.665 111.774 128.045 110.224 127.676C110.011 127.654 109.805 127.591 109.622 127.492C109.438 127.392 109.281 127.259 109.161 127.1C109.042 126.942 108.962 126.762 108.928 126.574C108.894 126.385 108.906 126.192 108.964 126.008C109.657 123.334 113.639 123.77 116.008 124.677C115.252 123.557 113.047 120.2 115.277 120.01C117.507 119.819 119.863 124.173 120.607 125.606C121.715 127.71 122.824 130.608 121.778 132.701C120.607 135.096 119.044 132.601 117.898 131.493Z" fill="#DBDBDB"/>
<path d="M118.213 132.119C116.373 130.161 111.094 129.579 111.144 128.616C111.245 126.669 115.466 127.117 117.545 127.743C115.982 126.535 112.908 124.386 113.853 122.864C115.012 121.039 119.284 124.878 120.934 127.788C123.001 131.448 121.791 133.597 121.01 133.798C119.939 134.067 118.515 132.455 118.213 132.119Z" fill="#EBEBEB"/>
<path d="M133.245 164.811L137.844 196.014H109.859C110.439 193.25 115.643 164.777 115.643 164.777L133.245 164.811Z" fill="#DBDBDB"/>
<path d="M466.968 172.802C467.73 169.931 469.117 167.221 471.05 164.822C472.89 162.584 475.855 160.957 479.946 159.942C481.206 159.607 482.68 159.249 484.457 158.823C486.285 158.429 488.072 157.897 489.799 157.234C491.557 156.568 493.178 155.649 494.6 154.514C496.04 153.359 497.047 151.84 497.485 150.161C497.861 148.953 497.909 147.683 497.624 146.456C497.359 145.354 496.844 144.31 496.112 143.39C495.354 142.461 494.394 141.677 493.289 141.084C492.159 140.462 490.926 140.002 489.635 139.719C488.154 139.38 486.61 139.316 485.099 139.528C483.726 139.71 482.386 140.056 481.118 140.558C479.881 141.05 478.714 141.67 477.64 142.405C476.65 143.072 475.703 143.79 474.805 144.554L467.119 136.719C468.55 135.002 470.297 133.511 472.285 132.31C474.221 131.141 476.345 130.239 478.585 129.635C480.867 129.028 483.234 128.708 485.616 128.683C488.075 128.652 490.529 128.912 492.911 129.456C495.626 130.064 498.227 131.018 500.635 132.287C503.041 133.547 505.14 135.222 506.809 137.212C508.529 139.29 509.716 141.677 510.287 144.207C510.928 147.18 510.781 150.246 509.858 153.16C509.379 154.984 508.598 156.734 507.54 158.353C506.6 159.748 505.418 161.002 504.037 162.069C502.67 163.112 501.158 163.996 499.539 164.699C497.782 165.451 495.967 166.091 494.108 166.613C492.458 167.061 490.832 167.464 489.207 167.844C487.639 168.204 486.113 168.691 484.646 169.299C483.243 169.864 481.963 170.645 480.866 171.605C479.738 172.66 478.954 173.967 478.598 175.387L466.968 172.802ZM460.907 194.996L464.624 181.879L476.506 184.531L472.789 197.648L460.907 194.996Z" fill="#E51D1B"/>
<path d="M92.0802 416.06C92.621 418.18 92.6895 420.374 92.2818 422.517C91.6804 424.798 90.2447 426.837 88.1994 428.315C87.4938 428.886 86.6244 429.557 85.5912 430.318C84.5216 431.102 83.5308 431.967 82.6302 432.904C81.7018 433.847 80.9566 434.921 80.4252 436.082C79.892 437.262 79.7777 438.559 80.0976 439.798C80.2938 440.709 80.7251 441.567 81.3576 442.305C81.936 442.958 82.6558 443.503 83.4744 443.905C84.3162 444.297 85.2369 444.537 86.1834 444.61C87.1598 444.701 88.146 444.656 89.1066 444.476C90.201 444.288 91.242 443.907 92.1684 443.357C93.0158 442.845 93.7791 442.231 94.4364 441.533C95.0766 440.844 95.6261 440.093 96.0744 439.294C96.493 438.57 96.8592 437.822 97.1706 437.056L105.109 440.011C104.778 441.562 104.156 443.052 103.269 444.42C102.407 445.757 101.319 446.969 100.043 448.013C98.7537 449.077 97.2981 449.97 95.7216 450.665C94.1018 451.388 92.3818 451.919 90.606 452.243C88.586 452.622 86.515 452.738 84.4572 452.59C82.4041 452.446 80.4038 451.94 78.573 451.102C76.6736 450.213 75.0142 448.968 73.7094 447.453C72.2096 445.665 71.1962 443.593 70.7484 441.398C70.3984 440.053 70.2795 438.668 70.3956 437.291C70.5077 436.096 70.8352 434.924 71.3658 433.821C71.8867 432.735 72.5689 431.714 73.3944 430.788C74.2795 429.778 75.2482 428.828 76.2924 427.946C77.2248 427.185 78.1572 426.446 79.1022 425.707C80.0158 425.029 80.8591 424.28 81.6222 423.469C82.3027 422.686 82.823 421.804 83.1594 420.861C83.5273 419.835 83.5708 418.74 83.2854 417.694L92.0802 416.06ZM88.023 399.596L90.3288 409.367L81.5088 411.012L79.203 401.253L88.023 399.596Z" fill="#EBEBEB"/>
<path d="M488.88 316.194C490.363 317.923 491.454 319.892 492.093 321.991C492.6 324.296 492.232 326.685 491.047 328.785C490.682 329.568 490.203 330.497 489.623 331.572C489.011 332.678 488.514 333.832 488.136 335.019C487.733 336.219 487.559 337.471 487.62 338.723C487.692 339.992 488.193 341.213 489.056 342.226C489.658 342.981 490.453 343.598 491.375 344.028C492.209 344.411 493.122 344.64 494.058 344.7C495.008 344.754 495.959 344.636 496.856 344.353C497.78 344.067 498.651 343.66 499.439 343.144C500.347 342.572 501.115 341.841 501.694 340.995C502.246 340.217 502.67 339.373 502.954 338.488C503.208 337.628 503.356 336.746 503.395 335.858C503.447 335.049 503.447 334.238 503.395 333.429L511.988 333.183C512.421 334.711 512.558 336.293 512.391 337.861C512.227 339.402 511.802 340.911 511.131 342.338C510.448 343.78 509.541 345.128 508.435 346.345C507.304 347.611 505.991 348.74 504.529 349.703C502.865 350.794 501.032 351.665 499.086 352.288C497.15 352.913 495.095 353.19 493.038 353.105C490.898 352.997 488.81 352.482 486.914 351.594C484.713 350.517 482.82 349.004 481.383 347.173C480.435 346.079 479.679 344.864 479.14 343.569C478.68 342.441 478.428 341.255 478.397 340.055C478.359 338.872 478.499 337.691 478.812 336.541C479.155 335.298 479.597 334.079 480.135 332.892C480.627 331.851 481.118 330.833 481.647 329.837C482.173 328.879 482.595 327.878 482.907 326.849C483.192 325.882 483.286 324.878 483.185 323.883C483.036 322.816 482.561 321.806 481.811 320.962L488.88 316.194ZM477.54 302.763L484.205 310.788L476.935 315.556L470.27 307.531L477.54 302.763Z" fill="#E51D1B"/>
<path d="M530.258 296.003C530.215 293.611 530.703 291.234 531.695 289.008C532.925 286.672 535.001 284.769 537.591 283.603C538.486 283.121 539.595 282.584 540.905 281.969C542.234 281.34 543.499 280.61 544.685 279.786C545.927 278.962 547.001 277.955 547.86 276.809C548.723 275.641 549.162 274.266 549.12 272.87C549.142 271.904 548.92 270.947 548.471 270.068C548.022 269.188 547.357 268.41 546.525 267.788C545.727 267.192 544.801 266.747 543.803 266.479C542.776 266.191 541.705 266.043 540.628 266.043C539.403 266.03 538.187 266.231 537.05 266.636C536.009 267.023 535.03 267.531 534.139 268.147C533.273 268.753 532.491 269.448 531.808 270.217C531.179 270.913 530.599 271.642 530.069 272.4L522.282 267.632C523.03 266.031 524.073 264.551 525.369 263.256C526.643 261.998 528.121 260.915 529.754 260.044C531.418 259.163 533.212 258.492 535.084 258.051C537.008 257.601 538.991 257.376 540.981 257.38C543.255 257.381 545.517 257.675 547.696 258.253C549.868 258.82 551.89 259.768 553.644 261.04C555.454 262.373 556.919 264.038 557.94 265.919C559.132 268.145 559.731 270.584 559.692 273.049C559.715 274.562 559.49 276.07 559.024 277.526C558.59 278.786 557.94 279.979 557.096 281.062C556.259 282.125 555.268 283.084 554.148 283.916C552.931 284.818 551.642 285.641 550.292 286.378C549.108 287.016 547.911 287.632 546.714 288.214C545.562 288.774 544.47 289.426 543.45 290.161C542.491 290.85 541.676 291.683 541.044 292.623C540.388 293.645 540.061 294.806 540.099 295.981L530.258 296.003ZM530.435 314.515V303.547H540.363V314.515H530.435Z" fill="#E51D1B"/>
<path d="M219.643 359.585C219.044 357.252 218.967 354.837 219.416 352.478C220.076 349.967 221.665 347.725 223.927 346.11C224.696 345.472 225.641 344.744 226.787 343.872C227.954 343.002 229.041 342.051 230.038 341.029C231.049 339.985 231.862 338.802 232.444 337.526C233.03 336.228 233.153 334.802 232.797 333.441C232.583 332.44 232.108 331.497 231.411 330.687C230.765 329.994 229.968 329.423 229.068 329.009C228.146 328.571 227.135 328.305 226.094 328.225C225.024 328.137 223.946 328.189 222.894 328.382C221.692 328.597 220.549 329.019 219.529 329.624C218.592 330.193 217.744 330.87 217.009 331.639C216.311 332.393 215.711 333.215 215.22 334.09C214.743 334.887 214.323 335.709 213.96 336.552L205.38 333.284C205.739 331.581 206.416 329.943 207.383 328.438C208.329 326.968 209.523 325.635 210.924 324.487C212.338 323.314 213.933 322.327 215.661 321.555C217.444 320.764 219.332 320.177 221.281 319.809C223.504 319.396 225.783 319.268 228.047 319.428C230.301 319.585 232.498 320.136 234.511 321.051C236.599 322.02 238.423 323.384 239.853 325.047C242.477 328.297 243.775 332.245 243.532 336.239C243.406 337.548 243.049 338.832 242.474 340.044C241.904 341.245 241.158 342.374 240.256 343.401C239.275 344.505 238.21 345.548 237.069 346.524C236.048 347.363 235.028 348.18 233.994 348.964C232.997 349.726 232.078 350.565 231.247 351.471C230.474 352.326 229.869 353.291 229.458 354.325C229.065 355.454 229.022 356.656 229.332 357.806L219.643 359.585ZM224.141 377.66L221.621 366.938L231.336 365.103L233.856 375.836L224.141 377.66Z" fill="#EBEBEB"/>
<path d="M522.635 446.401L539.469 446.088L547.76 445.965C550.519 445.909 553.253 445.965 556 445.898L555.445 446.401L555.37 433.877L556 434.437L539.28 434.37C533.723 434.37 528.167 434.236 522.597 434.18L522.95 433.877C522.95 435.926 522.837 437.985 522.774 440.078L522.635 446.401ZM522.635 446.401L522.459 440.201C522.459 438.119 522.32 436.004 522.295 433.877V433.575H522.635C528.204 433.519 533.761 433.396 539.318 433.385L556 433.318H556.63V433.877V446.401V446.905H556.063C553.253 446.905 550.431 446.905 547.634 446.838L539.242 446.715L522.635 446.401Z" fill="#EBEBEB"/>
<path d="M541.245 462.193L558.079 461.88L566.37 461.757C569.129 461.701 571.863 461.757 574.61 461.689L574.056 462.193L573.993 449.669L574.61 450.229L557.928 450.162C552.371 450.162 546.815 450.027 541.245 449.971L541.598 449.669C541.598 451.717 541.485 453.777 541.434 455.87L541.245 462.193ZM541.245 462.193L541.069 455.993C541.069 453.911 540.93 451.796 540.905 449.669V449.367H541.245C546.815 449.311 552.371 449.188 557.928 449.177L574.61 449.11H575.253V449.669L575.177 462.193V462.697H574.56C571.75 462.697 568.94 462.697 566.13 462.63L557.739 462.506L541.245 462.193Z" fill="#EBEBEB"/>
<path d="M503.999 462.193L520.833 461.88L529.124 461.757C531.871 461.701 534.617 461.757 537.364 461.689L536.81 462.193L536.759 449.669L537.389 450.229L520.707 450.162C515.15 450.162 509.581 450.027 504.025 449.971L504.365 449.669C504.365 451.717 504.264 453.777 504.201 455.87L503.999 462.193ZM503.999 462.193L503.823 455.993C503.76 453.911 503.684 451.796 503.659 449.669V449.367H503.999C509.556 449.311 515.125 449.188 520.682 449.177L537.364 449.11H537.994V449.669L538.019 462.193V462.697H537.465C534.655 462.697 531.833 462.697 529.036 462.63L520.644 462.506L503.999 462.193Z" fill="#EBEBEB"/>
<path d="M73.9995 462.193L90.8205 461.88L99.1113 461.757C101.871 461.701 104.618 461.757 107.364 461.689L106.797 462.193L106.734 449.669L107.364 450.229L90.7197 450.162C85.1505 450.162 79.5939 450.027 74.0373 449.971L74.3775 449.669C74.3775 451.717 74.2641 453.777 74.2137 455.87L73.9995 462.193ZM73.9995 462.193L73.8105 455.993C73.8105 453.911 73.6719 451.796 73.6467 449.669V449.367H73.9995C79.5561 449.311 85.1127 449.188 90.6819 449.177L107.364 449.11H107.994V449.669L107.919 462.193V462.697H107.364C104.555 462.697 101.732 462.697 98.9223 462.63L90.5307 462.506L73.9995 462.193Z" fill="#EBEBEB"/>
<path d="M73.9995 113.865L90.8205 113.552L99.1113 113.418C101.871 113.418 104.618 113.418 107.364 113.418L106.797 113.921L106.734 101.397L107.364 101.946L90.7197 101.811C85.1505 101.811 79.5939 101.688 74.0373 101.632L74.3775 101.33C74.3775 103.378 74.2641 105.438 74.2137 107.519L73.9995 113.865ZM73.9995 113.865L73.8105 107.665C73.8105 105.572 73.6719 103.457 73.6467 101.341V101.039H73.9995C79.5561 101.039 85.1127 100.86 90.6819 100.86L107.364 100.793H107.994V101.364L107.919 113.888V114.38H107.364C104.555 114.38 101.732 114.38 98.9223 114.324L90.5307 114.123L73.9995 113.865Z" fill="#EBEBEB"/>
<path d="M55.4397 129.657L72.2607 129.344L80.5515 129.209C83.3109 129.209 86.0451 129.209 88.8045 129.209L88.2375 129.713V117.189L88.8675 117.738L72.0717 117.614C66.5025 117.614 60.9459 117.48 55.4397 117.48L55.7799 117.178C55.7799 119.226 55.6665 121.285 55.6161 123.367L55.4397 129.657ZM55.4397 129.657L55.2507 123.457C55.2507 121.364 55.1121 119.249 55.0869 117.133V116.831H55.4397C60.9963 116.831 66.5529 116.652 72.1221 116.652L88.8045 116.585H89.4345V117.156L89.3589 129.679V130.172H88.8045C85.9821 130.172 83.1723 130.172 80.3625 130.172L71.9709 130.038L55.4397 129.657Z" fill="#EBEBEB"/>
<path d="M541.245 113.876L558.079 113.563L566.37 113.44C569.129 113.44 571.863 113.44 574.61 113.373L574.056 113.876L573.993 101.353L574.61 101.912L557.928 101.811C552.371 101.811 546.815 101.688 541.245 101.632L541.598 101.33C541.598 103.378 541.485 105.438 541.434 107.519L541.245 113.876ZM541.245 113.876L541.069 107.676C541.069 105.583 540.93 103.479 540.905 101.353V101.05H541.245C546.815 100.994 552.371 100.883 557.928 100.871L574.56 100.793H575.202V101.353L575.139 113.876V114.38H574.56C571.75 114.38 568.94 114.38 566.13 114.38L557.739 114.257L541.245 113.876Z" fill="#EBEBEB"/>
<path d="M360.625 276.216L343.804 276.529L335.513 276.652C332.753 276.708 330.007 276.652 327.26 276.72L327.827 276.216L327.89 288.74L327.26 288.18L343.942 288.259C349.511 288.259 355.068 288.382 360.625 288.438L360.284 288.74C360.284 286.692 360.398 284.632 360.448 282.551L360.625 276.216ZM360.625 276.216L360.814 282.416C360.814 284.509 360.952 286.613 360.977 288.74V289.042H360.625C355.068 289.042 349.511 289.21 343.942 289.221L327.26 289.288H326.63V288.717L326.705 276.194V275.69H327.26C330.07 275.69 332.892 275.69 335.702 275.746L344.093 275.869L360.625 276.216Z" fill="#EBEBEB"/>
<path d="M342.014 260.424L325.193 260.738L316.902 260.861C314.143 260.861 311.396 260.861 308.649 260.928L309.216 260.424L309.279 272.948L308.649 272.388L325.332 272.467C330.888 272.467 336.458 272.59 342.014 272.646L341.674 272.948C341.674 270.9 341.775 268.841 341.838 266.759L342.014 260.424ZM342.014 260.424L342.191 266.624C342.254 268.717 342.342 270.821 342.354 272.948V273.25H342.002C336.445 273.306 330.876 273.418 325.319 273.429L308.637 273.496H308.007V272.937L308.082 260.413V259.909H308.7C311.51 259.909 314.332 259.909 317.142 259.965L325.533 260.088L342.014 260.424Z" fill="#EBEBEB"/>
<path d="M48.3467 518.735L115.013 518.466L181.68 518.366L315 518.175L448.321 518.366L514.988 518.466L581.654 518.735L514.988 519.015L448.321 519.116L315 519.295L181.68 519.116L115.013 519.015L48.3467 518.735Z" fill="#263238"/>
<path d="M315 576.575C440.53 576.575 542.292 567.776 542.292 556.922C542.292 546.068 440.53 537.269 315 537.269C189.471 537.269 87.709 546.068 87.709 556.922C87.709 567.776 189.471 576.575 315 576.575Z" fill="#FFBEBE"/>
<path d="M538.02 395.59C533.232 391.426 527.045 386.39 519.725 388.192C512.845 389.882 510.212 396.552 508.977 402.115C507.389 409.289 506.155 416.519 504.869 423.738C503.584 430.956 502.349 438.287 501.178 445.618C500.506 449.737 499.85 453.859 499.212 457.985C498.884 460.044 498.561 462.104 498.242 464.163C497.927 466.189 497.549 468.215 497.423 470.251C497.423 470.901 498.532 470.99 498.683 470.375C499.577 466.939 499.943 463.357 500.51 459.876C501.077 456.396 501.656 452.848 502.223 449.345C503.37 442.372 504.567 435.411 505.739 428.438C506.911 421.466 508.145 414.515 509.405 407.554C510.464 401.645 510.968 394.314 516.852 390.419C518.452 389.449 520.303 388.855 522.231 388.695C524.16 388.534 526.102 388.812 527.877 389.501C531.745 390.822 534.845 393.284 537.881 395.724C538.02 395.802 538.146 395.679 538.02 395.59Z" fill="#263238"/>
<path d="M531.506 391.337C531.506 391.337 521.715 388.214 516.89 394.549C512.064 400.884 517.835 417.022 562.376 426.121C561.072 413.755 557.453 401.67 551.666 390.363C542.115 371.863 525.092 378.869 531.506 391.337Z" fill="#E51D1B"/>
<path d="M559.818 423.48C559.145 422.373 558.396 421.304 557.575 420.279C556.832 419.261 556.076 418.242 555.32 417.235C554.753 416.474 554.16 415.713 553.581 414.997C553.581 414.818 553.581 414.627 553.656 414.437L553.808 413.407C553.921 412.669 554.047 411.919 554.16 411.169C554.274 410.419 554.425 409.703 554.589 408.931C554.691 408.139 554.885 407.359 555.168 406.603C555.168 406.48 554.992 406.424 554.979 406.603C554.884 407.051 554.749 407.493 554.576 407.923L554.274 408.919C554.06 409.669 553.858 410.419 553.669 411.158C553.48 411.896 553.341 412.557 553.203 413.251C553.14 413.598 553.089 413.933 553.039 414.269C552.245 413.262 551.426 412.266 550.595 411.292C548.226 408.528 545.731 405.864 543.135 403.256C543.135 403.256 543.135 403.256 543.135 403.189C543.375 399.037 543.261 394.918 544.295 390.878C544.295 390.766 544.143 390.699 544.106 390.811C542.931 394.666 542.371 398.648 542.442 402.641C541.523 401.723 540.578 400.805 539.633 399.899C537.453 397.828 535.248 395.78 532.992 393.788C532.904 393.71 532.753 393.788 532.841 393.911C536.621 397.504 540.162 401.242 543.639 405.047C540.918 405.008 538.197 405.097 535.487 405.316C532.476 405.506 529.477 405.853 526.478 406.222C526.34 406.222 526.377 406.412 526.478 406.401C529.459 406.011 532.463 405.772 535.475 405.685C538.385 405.573 541.271 405.685 544.181 405.685C546.063 407.744 547.915 409.826 549.738 411.93H549.36C548.679 411.93 547.999 411.93 547.319 411.93C545.958 411.93 544.61 412.042 543.261 412.143C540.493 412.347 537.744 412.721 535.034 413.262C535.007 413.262 534.981 413.271 534.962 413.288C534.943 413.305 534.933 413.328 534.933 413.351C534.933 413.375 534.943 413.398 534.962 413.415C534.981 413.432 535.007 413.441 535.034 413.441C537.768 413.161 540.515 412.937 543.261 412.848C544.521 412.848 545.895 412.848 547.205 412.848H549.36C549.736 412.893 550.12 412.863 550.481 412.758C551.674 414.139 552.867 415.523 554.06 416.911C555.005 418.03 555.937 419.149 556.857 420.268C557.777 421.387 558.646 422.674 559.679 423.749C559.73 423.67 559.868 423.57 559.818 423.48Z" fill="#263238"/>
<path d="M535.764 400.324C534.185 400.145 532.593 400.078 531.002 400.122C529.414 400.122 527.814 400.122 526.226 400.212C526.088 400.212 526.1 400.391 526.226 400.391C527.839 400.279 529.452 400.257 531.065 400.279C532.677 400.302 534.189 400.436 535.739 400.391C535.815 400.391 535.815 400.335 535.764 400.324Z" fill="#263238"/>
<path d="M549.75 403.514C549.927 402.159 550.116 400.805 550.443 399.473C550.443 399.45 550.433 399.427 550.414 399.41C550.395 399.393 550.369 399.384 550.343 399.384C550.316 399.384 550.29 399.393 550.271 399.41C550.252 399.427 550.242 399.45 550.242 399.473C550.015 400.805 549.725 402.126 549.511 403.458C549.398 404.118 549.297 404.789 549.196 405.45C549.068 406.074 549.009 406.707 549.02 407.341C549.028 407.366 549.046 407.388 549.07 407.404C549.094 407.419 549.122 407.428 549.152 407.428C549.181 407.428 549.21 407.419 549.234 407.404C549.258 407.388 549.275 407.366 549.284 407.341C549.416 406.717 549.492 406.085 549.511 405.45C549.574 404.801 549.662 404.152 549.75 403.514Z" fill="#263238"/>
<path d="M546.839 388.539C546.449 389.859 546.058 391.191 545.793 392.523C545.655 393.206 545.529 393.889 545.428 394.571C545.29 395.232 545.239 395.904 545.277 396.575C545.277 396.59 545.284 396.604 545.295 396.614C545.307 396.625 545.323 396.631 545.34 396.631C545.357 396.631 545.373 396.625 545.384 396.614C545.396 396.604 545.403 396.59 545.403 396.575C545.579 395.951 545.693 395.314 545.743 394.672C545.844 394.012 545.957 393.363 546.083 392.702C546.36 391.326 546.638 389.96 547.028 388.606C547.041 388.494 546.839 388.427 546.839 388.539Z" fill="#263238"/>
<path d="M488.88 468.785C488.628 466.301 488.351 463.805 488.061 461.32C487.464 456.396 486.797 451.475 486.057 446.558C485.314 441.667 484.608 436.754 483.714 431.874C483.392 429.592 482.822 427.343 482.013 425.159C481.725 424.227 481.2 423.366 480.48 422.643C479.759 421.919 478.861 421.352 477.855 420.984C472.613 419.384 469.035 424.208 466.968 427.621C466.905 427.722 467.069 427.8 467.145 427.711C468.405 426.088 471.908 421.555 475.889 421.768C478.56 421.902 480.702 423.592 481.988 429.513C485.188 444.275 488.073 474.281 488.414 476.194C488.59 477.235 489.409 477.19 489.422 476.071C489.371 473.676 489.056 471.225 488.88 468.785Z" fill="#263238"/>
<path d="M468.317 425.842C468.317 425.842 472.903 411.471 462.773 418.656C445.914 430.621 445.322 456.597 445.322 456.597C445.322 456.597 475.284 441.141 479.001 430.945C484.558 415.791 468.317 425.842 468.317 425.842Z" fill="#E51D1B"/>
<path d="M473.987 432.893C471.643 433.318 469.249 433.598 466.88 433.9L463.503 434.325C462.747 434.415 461.979 434.482 461.21 434.56C463.44 431.829 465.696 429.11 467.838 426.323C467.858 426.299 467.866 426.269 467.862 426.24C467.857 426.21 467.839 426.184 467.813 426.166C467.786 426.148 467.752 426.141 467.719 426.145C467.686 426.149 467.656 426.165 467.636 426.189C465.85 427.816 464.167 429.531 462.596 431.326L461.261 427.968C460.757 426.681 460.202 425.405 459.837 424.073C459.837 423.961 459.61 424.073 459.648 424.129C460.051 425.439 460.341 426.793 460.744 428.114C461.147 429.434 461.563 430.643 462.067 431.885C460.971 433.15 459.912 434.448 458.892 435.758C458.375 434.459 457.733 433.206 457.292 431.885C457.292 431.773 457.052 431.829 457.09 431.885C457.632 433.351 457.922 434.862 458.426 436.362C457.733 437.257 457.052 438.153 456.397 439.048C455.137 440.716 454.041 442.406 452.932 444.107C452.845 444.14 452.772 444.197 452.725 444.27C452.677 444.342 452.657 444.426 452.667 444.51C450.777 447.42 448.976 450.363 447.199 453.34C447.186 453.361 447.182 453.386 447.189 453.409C447.196 453.432 447.213 453.452 447.237 453.463C447.26 453.475 447.288 453.478 447.314 453.472C447.34 453.466 447.362 453.451 447.375 453.43C449.152 450.486 451.155 447.621 453.184 444.812C453.502 444.719 453.832 444.662 454.167 444.644L455.2 444.443C455.969 444.297 456.737 444.118 457.506 443.95C459.03 443.614 460.53 443.29 462.08 443.055C462.206 443.055 462.143 442.865 462.08 442.887C460.265 443.189 458.451 443.379 456.611 443.559C455.742 443.648 454.885 443.749 454.028 443.872H453.902C454.969 442.424 456.061 440.984 457.178 439.552C458.262 438.153 459.383 436.765 460.505 435.377C461.55 435.254 462.571 435.008 463.604 434.84L467.082 434.236C469.4 433.821 471.719 433.363 474.05 433.027C474.176 433.094 474.113 432.87 473.987 432.893Z" fill="#263238"/>
<path d="M455.981 434.314C455.842 433.934 455.716 433.553 455.577 433.195C455.296 432.401 455.065 431.594 454.884 430.777C454.884 430.665 454.67 430.721 454.695 430.777C454.897 431.594 455.111 432.4 455.313 433.206C455.496 434.019 455.758 434.817 456.094 435.59C456.115 435.622 456.148 435.648 456.187 435.662C456.226 435.676 456.269 435.678 456.31 435.668C456.35 435.657 456.386 435.635 456.411 435.605C456.436 435.575 456.448 435.538 456.447 435.5C456.308 435.12 456.119 434.717 455.981 434.314Z" fill="#263238"/>
<path d="M477.048 429.569C475.687 429.748 474.314 429.837 472.928 429.949C471.542 430.061 470.194 430.218 468.82 430.408C468.745 430.408 468.745 430.52 468.82 430.509C470.194 430.43 471.567 430.33 472.941 430.173C474.314 430.016 475.675 429.837 477.061 429.748C477.187 429.737 477.174 429.557 477.048 429.569Z" fill="#263238"/>
<path d="M510.866 450.598C510.325 440.022 509.606 429.457 508.346 418.925C507.754 413.676 507.086 408.438 506.255 403.256C505.52 398.121 504.379 393.039 502.84 388.046C501.785 384.165 499.847 380.516 497.145 377.324C495.81 375.772 494.053 374.547 492.038 373.763C490.024 372.98 487.818 372.665 485.629 372.848C480.425 373.418 476.216 376.34 472.588 379.507C468.518 383.066 464.788 386.95 461.021 390.699C460.063 391.661 459.118 392.635 458.173 393.609C458.098 393.698 458.236 393.821 458.324 393.732C462.016 389.971 465.884 386.312 469.853 382.82C473.558 379.585 477.413 376.104 482.453 374.717C484.84 374.045 487.392 373.99 489.812 374.56C491.739 375.101 493.476 376.076 494.852 377.392C497.75 380.055 499.363 383.67 500.522 387.173C503.722 396.899 504.869 407.095 506.053 417.134C507.238 427.173 508.082 437.56 508.661 447.811C509.241 458.063 509.695 468.416 510.816 478.69C510.955 479.955 511.131 481.22 511.32 482.484C511.433 483.324 512.92 483.335 512.845 482.484C511.95 471.852 511.396 461.231 510.866 450.598Z" fill="#263238"/>
<path d="M471.958 380.626C471.958 380.626 478.762 369.434 470.698 365.853C462.634 362.271 435.771 388.931 427.921 427.923C427.921 427.923 471.353 410.856 486.108 393.844C500.862 376.832 484.155 373.094 471.958 380.626Z" fill="#E51D1B"/>
<path d="M478.346 389.714C473.47 389.714 468.594 389.389 463.718 389.412L466.465 386.625C467.821 385.387 469.084 384.071 470.245 382.685C470.308 382.596 470.169 382.473 470.068 382.54C468.742 383.548 467.507 384.649 466.376 385.83C465.116 386.95 463.932 388.136 462.722 389.3C460.858 391.102 459.031 392.915 457.204 394.75C457.204 394.571 457.204 394.392 457.204 394.224C457.204 393.463 457.204 392.702 457.204 391.986C457.204 390.52 457.204 389.042 457.204 387.576C457.204 384.599 457.204 381.6 457.456 378.623C457.456 378.511 457.267 378.511 457.254 378.623C457.027 381.622 456.674 384.599 456.511 387.576C456.435 389.054 456.397 390.52 456.372 391.997C456.372 392.747 456.372 393.508 456.372 394.236C456.372 394.65 456.372 395.086 456.372 395.511C456.095 395.802 455.792 396.082 455.515 396.362C451.622 400.324 447.955 404.409 444.301 408.572C444.301 408.349 444.301 408.102 444.238 407.879C444.238 407.42 444.125 406.961 444.074 406.502C443.948 405.506 443.797 404.521 443.621 403.525C443.444 402.529 443.306 401.667 443.129 400.738C442.953 399.809 442.638 398.645 442.55 397.593C442.555 397.58 442.557 397.565 442.555 397.551C442.553 397.536 442.547 397.523 442.538 397.511C442.529 397.499 442.516 397.489 442.502 397.483C442.488 397.476 442.472 397.472 442.455 397.472C442.439 397.472 442.423 397.476 442.409 397.483C442.394 397.489 442.382 397.499 442.373 397.511C442.363 397.523 442.357 397.536 442.355 397.551C442.353 397.565 442.355 397.58 442.361 397.593C442.558 398.646 442.693 399.707 442.764 400.772L443.066 403.637C443.155 404.588 443.255 405.539 443.369 406.502L443.52 407.879C443.52 408.102 443.583 408.337 443.621 408.561C443.633 408.757 443.702 408.946 443.822 409.11L441.97 411.259C439.45 414.157 437.081 417.09 434.662 420.011C434.587 420.1 434.738 420.223 434.813 420.134C437.107 417.481 439.463 414.874 441.844 412.299C443.633 412.367 445.46 412.243 447.25 412.221C449.039 412.199 451.03 412.221 452.894 412.221C452.921 412.221 452.947 412.212 452.966 412.195C452.985 412.178 452.995 412.155 452.995 412.132C452.995 412.108 452.985 412.085 452.966 412.068C452.947 412.051 452.921 412.042 452.894 412.042C451.004 412.042 449.114 412.098 447.237 412.109C445.36 412.12 443.772 412.042 442.058 412.109C444.15 409.871 446.279 407.632 448.358 405.338L450.828 402.876C451.551 402.96 452.28 402.982 453.008 402.943H455.528C457.128 402.943 458.728 402.943 460.341 402.887C463.655 402.887 466.969 402.741 470.282 402.73C470.298 402.735 470.314 402.737 470.33 402.735C470.346 402.733 470.362 402.728 470.375 402.72C470.388 402.712 470.399 402.701 470.407 402.688C470.414 402.675 470.418 402.661 470.418 402.646C470.418 402.632 470.414 402.618 470.407 402.605C470.399 402.592 470.388 402.581 470.375 402.573C470.362 402.565 470.346 402.559 470.33 402.558C470.314 402.556 470.298 402.557 470.282 402.562C466.956 402.562 463.642 402.395 460.328 402.316C458.716 402.316 457.115 402.238 455.503 402.215H452.983C452.504 402.215 452 402.215 451.496 402.215L456.977 396.452C457.019 396.426 457.054 396.392 457.078 396.351C458.854 394.482 460.631 392.624 462.433 390.755C462.685 390.509 462.937 390.262 463.176 390.005C468.216 390.139 473.256 389.848 478.296 389.938C478.485 389.893 478.485 389.714 478.346 389.714Z" fill="#263238"/>
<path d="M475.852 397.381H474.667C474.644 397.381 474.621 397.389 474.605 397.404C474.588 397.418 474.579 397.438 474.579 397.459C474.579 397.48 474.588 397.5 474.605 397.514C474.621 397.529 474.644 397.537 474.667 397.537H475.839C475.856 397.531 475.87 397.52 475.88 397.507C475.89 397.494 475.896 397.478 475.898 397.462C475.899 397.446 475.895 397.43 475.887 397.416C475.879 397.401 475.867 397.389 475.852 397.381Z" fill="#263238"/>
<path d="M473.218 397.392C471.656 397.392 470.093 397.392 468.531 397.302L466.2 397.28C465.476 397.201 464.744 397.201 464.02 397.28C464 397.28 463.981 397.287 463.966 397.299C463.952 397.312 463.944 397.329 463.944 397.347C463.944 397.365 463.952 397.382 463.966 397.394C463.981 397.407 464 397.414 464.02 397.414C464.741 397.543 465.478 397.588 466.212 397.548H468.556H473.243C473.357 397.571 473.357 397.392 473.218 397.392Z" fill="#263238"/>
<path d="M459.572 410.419C456.394 409.944 453.18 409.686 449.958 409.647V409.703C453.158 409.972 456.346 410.128 459.521 410.587C459.647 410.61 459.698 410.43 459.572 410.419Z" fill="#263238"/>
<path d="M446.506 397.996C446.506 397.75 446.443 397.504 446.405 397.257C446.33 396.698 446.229 396.138 446.128 395.59C445.939 394.527 445.737 393.474 445.511 392.411C445.511 392.322 445.296 392.344 445.309 392.411C445.46 393.53 445.599 394.594 445.712 395.69L445.863 397.302C445.846 397.818 445.927 398.332 446.103 398.824C446.128 398.858 446.163 398.884 446.205 398.901C446.246 398.917 446.292 398.923 446.337 398.917C446.382 398.911 446.424 398.894 446.458 398.868C446.493 398.841 446.518 398.807 446.531 398.768C446.575 398.512 446.566 398.25 446.506 397.996Z" fill="#263238"/>
<path d="M510.438 366.267C508.876 363.693 506.898 360.301 503.017 360.514C499.817 360.693 498.368 363.592 497.687 365.998C495.57 373.418 495.419 381.253 495.016 388.863C494.134 404.946 493.353 421.04 493.239 437.146C493.239 441.622 493.239 446.099 493.239 450.576C493.239 455.131 493.239 459.709 493.592 464.252C493.592 464.342 493.632 464.427 493.703 464.49C493.774 464.553 493.87 464.588 493.97 464.588C494.07 464.588 494.167 464.553 494.237 464.49C494.308 464.427 494.348 464.342 494.348 464.252C494.348 460.358 494.222 456.418 494.21 452.568C494.197 448.718 494.21 444.969 494.285 441.163C494.428 433.471 494.659 425.778 494.978 418.086C495.306 410.441 495.684 402.797 496.049 395.153C496.226 391.337 496.415 387.509 496.604 383.693C496.793 379.876 496.969 376.295 497.448 372.613C497.712 370.542 498.053 368.483 498.544 366.457C498.783 364.946 499.475 363.519 500.547 362.327C501.287 361.678 502.264 361.285 503.302 361.219C504.339 361.154 505.369 361.419 506.205 361.969C507.981 363.106 509.372 364.655 510.224 366.446C510.251 366.471 510.288 366.486 510.327 366.487C510.366 366.488 510.404 366.475 510.432 366.451C510.46 366.428 510.477 366.395 510.478 366.36C510.479 366.326 510.465 366.292 510.438 366.267Z" fill="#263238"/>
<path d="M509.38 365.036C509.38 365.036 506.193 355.03 513.249 360.033C524.992 368.36 525.408 386.48 525.408 386.48C525.408 386.48 504.529 375.713 501.934 368.572C498.066 358.03 509.38 365.036 509.38 365.036Z" fill="#E51D1B"/>
<path d="M521.01 379.059C520.821 378.779 520.619 378.511 520.418 378.231C520.443 377.948 520.443 377.664 520.418 377.38C520.418 376.955 520.418 376.519 520.418 376.093C520.418 375.243 520.418 374.392 520.518 373.553C520.518 373.529 520.508 373.506 520.489 373.489C520.47 373.473 520.444 373.463 520.418 373.463C520.391 373.463 520.365 373.473 520.346 373.489C520.327 373.506 520.317 373.529 520.317 373.553C520.317 374.381 520.229 375.22 520.203 376.049C520.203 376.463 520.203 376.877 520.203 377.291C520.203 377.448 520.203 377.638 520.203 377.828C519.384 376.709 518.54 375.59 517.683 374.471C517.431 374.146 517.167 373.833 516.915 373.519C516.78 372.434 516.759 371.34 516.852 370.251C516.852 369.132 516.852 367.923 516.927 366.759C516.927 366.647 516.726 366.647 516.726 366.759C516.726 367.968 516.625 369.177 516.549 370.385C516.467 371.245 516.442 372.108 516.474 372.971C514.458 370.542 512.316 368.192 510.174 365.853C510.098 365.774 509.947 365.853 510.023 365.965C511.358 367.476 512.643 369.02 513.903 370.587C511.446 370.072 508.952 369.781 506.457 369.468C506.331 369.468 506.28 369.624 506.457 369.647C509.103 370.005 511.698 370.587 514.307 371.102C515.302 372.355 516.297 373.609 517.268 374.873L518.452 376.418H518.351L517.532 376.317L515.793 376.183C514.596 376.093 513.387 376.037 512.177 375.981C512.051 375.981 512.064 376.161 512.177 376.161C513.362 376.161 514.546 376.261 515.718 376.373L517.595 376.575L518.402 376.664H518.641C519.309 377.537 519.989 378.41 520.644 379.283C521.829 380.839 522.887 382.495 524.135 383.984C524.151 383.996 524.171 384.004 524.192 384.005C524.214 384.007 524.235 384.002 524.253 383.992C524.272 383.982 524.286 383.967 524.294 383.95C524.302 383.932 524.304 383.913 524.298 383.894C523.312 382.225 522.214 380.611 521.01 379.059Z" fill="#263238"/>
<path d="M515.819 367.755C515.819 367.364 515.819 366.972 515.819 366.58C515.794 365.762 515.831 364.943 515.932 364.129C515.938 364.116 515.94 364.101 515.938 364.087C515.936 364.072 515.93 364.059 515.921 364.047C515.911 364.035 515.899 364.025 515.884 364.019C515.87 364.012 515.854 364.008 515.838 364.008C515.822 364.008 515.806 364.012 515.791 364.019C515.777 364.025 515.764 364.035 515.755 364.047C515.746 364.059 515.74 364.072 515.738 364.087C515.736 364.101 515.738 364.116 515.743 364.129C515.743 364.946 515.643 365.752 515.592 366.558C515.592 366.972 515.592 367.375 515.592 367.778V368.337C515.56 368.53 515.56 368.726 515.592 368.919C515.592 368.94 515.601 368.96 515.618 368.975C515.634 368.989 515.657 368.998 515.68 368.998C515.704 368.998 515.726 368.989 515.743 368.975C515.759 368.96 515.769 368.94 515.769 368.919C515.8 368.741 515.8 368.56 515.769 368.382L515.819 367.755Z" fill="#263238"/>
<path d="M513.236 371.896C512.455 371.773 511.661 371.74 510.88 371.684C510.098 371.628 509.166 371.549 508.36 371.449C508.333 371.449 508.307 371.458 508.288 371.475C508.269 371.492 508.259 371.514 508.259 371.538C508.259 371.562 508.269 371.585 508.288 371.601C508.307 371.618 508.333 371.628 508.36 371.628C510.01 371.717 511.648 371.986 513.299 372.031C513.311 372.042 513.324 371.907 513.236 371.896Z" fill="#263238"/>
<path d="M519.788 371.952C519.851 372.031 519.788 372.254 519.788 372.344V373.362C519.788 373.597 519.788 373.833 519.788 374.068C519.743 374.267 519.743 374.472 519.788 374.672C519.788 374.672 519.851 374.672 519.863 374.672C519.888 374.576 519.888 374.477 519.863 374.381C519.857 374.273 519.857 374.164 519.863 374.056V373.362C519.863 373.127 519.863 372.892 519.863 372.657V372.344C519.863 372.243 519.863 372.031 519.863 371.952C519.863 371.874 519.662 371.784 519.788 371.952Z" fill="#263238"/>
<path d="M510.917 419.664C506.532 416.743 502.589 412.534 496.679 412.322C491.803 412.154 488.388 415.411 486.435 419.037C485.459 420.972 484.662 422.974 484.054 425.025C483.172 427.756 482.332 430.505 481.534 433.273C480.014 438.712 478.712 444.197 477.628 449.725C477.036 452.803 476.481 455.892 476.04 458.992C475.486 462.135 475.146 465.304 475.02 468.483C475.018 468.605 475.067 468.724 475.157 468.816C475.248 468.908 475.374 468.966 475.511 468.98C475.647 468.994 475.785 468.962 475.897 468.891C476.009 468.82 476.087 468.714 476.116 468.595C476.708 465.998 476.96 463.324 477.376 460.705C477.792 458.086 478.258 455.433 478.749 452.814C479.757 447.591 480.925 442.368 482.252 437.146C483.512 432.232 484.772 427.252 486.524 422.473C487.784 419.048 489.85 415.053 494.021 413.821C500.321 411.952 506.104 416.709 510.741 419.809C510.879 419.865 511.018 419.731 510.917 419.664Z" fill="#263238"/>
<path d="M506.381 416.866C506.381 416.866 502.324 406.603 508.183 404.554C517.003 401.544 539.91 424.51 535.412 459.697C535.412 459.697 517.683 451.024 504.579 441.253C491.475 431.482 488.199 418.735 493.907 415.444C499.615 412.154 506.381 416.866 506.381 416.866Z" fill="#E51D1B"/>
<path d="M532.766 452.188C532.156 450.96 531.444 449.774 530.636 448.64C529.88 447.431 529.124 446.233 528.343 445.047C526.818 442.73 525.306 440.414 523.744 438.108L522.975 436.989C522.975 436.855 523.038 436.709 523.064 436.575L523.328 435.556C523.53 434.795 523.681 434.023 523.832 433.251C524.16 431.751 524.45 430.229 524.903 428.774C524.903 428.673 524.739 428.64 524.714 428.774C524.349 430.274 523.807 431.762 523.316 433.251C523.064 433.978 522.799 434.695 522.585 435.433L522.358 436.183C520.481 433.441 518.578 430.71 516.486 428.069C516.621 427.708 516.694 427.33 516.701 426.95C516.764 426.435 516.827 425.92 516.902 425.405C517.053 424.286 517.205 423.088 517.394 421.936C517.772 419.697 518.15 417.459 518.78 415.22C518.78 415.109 518.616 415.075 518.591 415.22C517.948 417.459 517.268 419.697 516.789 421.936C516.562 423.055 516.335 424.174 516.171 425.293C516.096 425.853 516.02 426.412 515.957 426.972C515.957 427.129 515.957 427.308 515.882 427.476C515.252 426.681 514.622 425.875 513.954 425.103C511.925 422.73 509.821 420.425 507.654 418.119C507.578 418.03 507.402 418.119 507.49 418.22C511.119 422.342 514.452 426.663 517.469 431.158L519.195 433.654L518.616 433.587C517.872 433.497 517.129 433.463 516.386 433.396L511.9 433.049C508.914 432.837 505.915 432.68 502.941 432.4C502.815 432.4 502.778 432.557 502.941 432.568C505.965 432.881 508.964 433.307 511.976 433.687C513.462 433.877 514.937 434.057 516.423 434.224C517.548 434.423 518.691 434.524 519.838 434.527C521.01 436.228 522.194 437.884 523.366 439.608C523.101 439.608 522.824 439.608 522.572 439.608H518.301C516.373 439.608 514.445 439.608 512.53 439.608C512.391 439.608 512.417 439.776 512.53 439.776C514.483 439.776 516.423 439.888 518.376 439.977L521.148 440.123L522.534 440.212C522.949 440.298 523.38 440.298 523.794 440.212L526.793 444.532C527.713 445.864 528.645 447.185 529.59 448.505C530.481 449.905 531.488 451.245 532.602 452.512C532.652 452.355 532.816 452.299 532.766 452.188Z" fill="#263238"/>
<path d="M524.311 423.749C524.134 424.883 523.869 426.005 523.517 427.106C523.189 428.226 522.824 429.345 522.408 430.464C522.401 430.478 522.398 430.494 522.398 430.509C522.399 430.525 522.403 430.54 522.41 430.554C522.418 430.568 522.428 430.581 522.441 430.591C522.454 430.601 522.47 430.609 522.486 430.614C522.503 430.618 522.521 430.62 522.538 430.618C522.555 430.616 522.572 430.611 522.587 430.604C522.602 430.596 522.616 430.586 522.626 430.573C522.636 430.561 522.644 430.546 522.647 430.531C523.038 429.412 523.391 428.293 523.693 427.174C523.996 426.054 524.197 424.935 524.512 423.76C524.514 423.736 524.505 423.713 524.487 423.695C524.469 423.677 524.444 423.666 524.418 423.665C524.391 423.663 524.365 423.671 524.345 423.687C524.325 423.703 524.312 423.725 524.311 423.749Z" fill="#263238"/>
<path d="M511.282 430.621C511.01 430.418 510.667 430.303 510.312 430.296L508.636 430.095C507.603 429.972 506.557 429.871 505.524 429.759C503.357 429.535 501.202 429.345 499.035 429.11C498.909 429.11 498.871 429.266 499.035 429.278C501.076 429.501 503.105 429.781 505.146 430.016L508.132 430.363L509.581 430.498C510.139 430.502 510.693 430.589 511.219 430.755C511.237 430.755 511.254 430.751 511.269 430.742C511.284 430.734 511.295 430.721 511.302 430.707C511.309 430.692 511.31 430.676 511.307 430.661C511.303 430.646 511.295 430.632 511.282 430.621Z" fill="#263238"/>
<path d="M524.285 446.099C523.265 446.021 522.232 445.987 521.211 445.965H519.661H518.918C518.595 445.993 518.27 445.993 517.948 445.965C517.809 445.965 517.796 446.155 517.948 446.133C518.249 446.105 518.553 446.105 518.855 446.133H519.661L521.198 446.222C522.219 446.278 523.252 446.334 524.273 446.334C524.399 446.289 524.411 446.099 524.285 446.099Z" fill="#263238"/>
<path d="M530.535 442.16L530.875 440.615C531.077 439.597 531.291 438.578 531.505 437.571C531.505 437.547 531.495 437.524 531.476 437.508C531.457 437.491 531.431 437.481 531.405 437.481C531.378 437.481 531.352 437.491 531.333 437.508C531.315 437.524 531.304 437.547 531.304 437.571L530.548 440.537C530.422 441.029 530.296 441.522 530.183 442.014C530.183 442.249 530.082 442.473 530.019 442.708C529.939 442.944 529.909 443.19 529.93 443.435C529.933 443.458 529.943 443.479 529.959 443.497C529.976 443.514 529.998 443.527 530.022 443.533C530.047 443.539 530.073 443.538 530.097 443.531C530.121 443.523 530.142 443.51 530.157 443.491C530.377 443.073 530.505 442.621 530.535 442.16Z" fill="#263238"/>
<path d="M470.483 464.544L471.718 477.023L475.914 519.138H513.046L518.288 477.023L519.838 464.544H470.483Z" fill="#37474F"/>
<path d="M470.483 464.544L471.718 477.023H518.288L519.838 464.544H470.483Z" fill="#263238"/>
<path d="M466.805 471.27H523.518V461.152H466.805V471.27Z" fill="#37474F"/>
<path d="M269.64 423.167C269.64 405.26 272.933 389.169 279.518 374.896C286.104 360.622 299.687 348.188 320.267 337.593C326.449 334.302 334.068 330.572 343.123 326.401C352.441 322.054 361.323 317.007 369.671 311.314C378.206 305.582 385.614 298.635 391.595 290.754C397.626 282.722 400.751 273.245 400.554 263.592C400.734 256.561 399.051 249.591 395.64 243.245C392.494 237.579 388.082 232.541 382.675 228.438C377.121 224.326 370.693 221.247 363.775 219.383C356.682 217.395 349.289 216.379 341.851 216.373C333.421 216.27 325.053 217.655 317.23 220.446C310.034 223.08 303.284 226.587 297.171 230.866C291.213 235.056 285.823 239.844 281.106 245.136C276.764 249.946 272.746 254.98 269.073 260.212H259.774L215.334 227.307C220.474 216.243 227.677 206.027 236.641 197.089C245.405 188.374 255.6 180.884 266.881 174.873C278.356 168.813 290.739 164.223 303.66 161.241C316.961 158.12 330.664 156.551 344.421 156.574C360.108 156.582 375.71 158.614 390.739 162.606C405.726 166.524 419.685 173.053 431.802 181.812C444.319 191.015 454.435 202.525 461.45 215.544C469.06 229.258 472.865 245.625 472.865 264.644C473.056 275.12 471.498 285.564 468.241 295.634C465.285 304.345 460.799 312.587 454.948 320.055C449.155 327.397 442.305 334.034 434.574 339.798C426.179 346.01 417.304 351.69 408.013 356.798C399.773 361.2 391.541 365.409 383.317 369.423C375.358 373.28 367.813 377.775 360.776 382.853C354.149 387.624 348.505 393.38 344.093 399.865C339.776 406.267 337.617 414.038 337.617 423.178L269.64 423.167ZM270.9 550.968V475.277H339.444V550.968H270.9Z" fill="#E51D1B"/>
<g opacity="0.2">
<path d="M269.64 423.167C269.64 405.26 272.933 389.169 279.518 374.896C286.104 360.622 299.687 348.188 320.267 337.593C326.449 334.302 334.068 330.572 343.123 326.401C352.441 322.054 361.323 317.007 369.671 311.314C378.206 305.582 385.614 298.635 391.595 290.754C397.626 282.722 400.751 273.245 400.554 263.592C400.734 256.561 399.051 249.591 395.64 243.245C392.494 237.579 388.082 232.541 382.675 228.438C377.121 224.326 370.693 221.247 363.775 219.383C356.682 217.395 349.289 216.379 341.851 216.373C333.421 216.27 325.053 217.655 317.23 220.446C310.034 223.08 303.284 226.587 297.171 230.866C291.213 235.056 285.823 239.844 281.106 245.136C276.764 249.946 272.746 254.98 269.073 260.212H259.774L215.334 227.307C220.474 216.243 227.677 206.027 236.641 197.089C245.405 188.374 255.6 180.884 266.881 174.873C278.356 168.813 290.739 164.223 303.66 161.241C316.961 158.12 330.664 156.551 344.421 156.574C360.108 156.582 375.71 158.614 390.739 162.606C405.726 166.524 419.685 173.053 431.802 181.812C444.319 191.015 454.435 202.525 461.45 215.544C469.06 229.258 472.865 245.625 472.865 264.644C473.056 275.12 471.498 285.564 468.241 295.634C465.285 304.345 460.799 312.587 454.948 320.055C449.155 327.397 442.305 334.034 434.574 339.798C426.179 346.01 417.304 351.69 408.013 356.798C399.773 361.2 391.541 365.409 383.317 369.423C375.358 373.28 367.813 377.775 360.776 382.853C354.149 387.624 348.505 393.38 344.093 399.865C339.776 406.267 337.617 414.038 337.617 423.178L269.64 423.167ZM270.9 550.968V475.277H339.444V550.968H270.9Z" fill="black"/>
</g>
<path d="M260.392 423.167C260.392 405.26 263.684 389.169 270.27 374.896C276.856 360.622 290.443 348.188 311.031 337.593C317.205 334.302 324.82 330.572 333.875 326.401C343.199 322.057 352.085 317.01 360.436 311.314C368.967 305.579 376.375 298.632 382.36 290.754C388.38 282.718 391.501 273.243 391.306 263.592C391.468 256.578 389.776 249.628 386.366 243.3C383.22 237.635 378.809 232.597 373.401 228.493C367.847 224.382 361.42 221.303 354.501 219.439C347.408 217.45 340.015 216.435 332.577 216.429C324.147 216.304 315.774 217.67 307.944 220.446C300.744 223.081 293.99 226.587 287.872 230.866C281.919 235.056 276.532 239.844 271.82 245.136C267.474 249.946 263.452 254.98 259.774 260.212L206.048 227.307C211.184 216.241 218.388 206.024 227.354 197.089C236.115 188.371 246.311 180.881 257.594 174.873C269.067 168.814 281.444 164.225 294.361 161.241C307.675 158.116 321.39 156.547 335.16 156.574C350.847 156.581 366.449 158.613 381.478 162.606C396.466 166.522 410.425 173.051 422.541 181.812C435.061 191.013 445.178 202.523 452.189 215.544C459.799 229.258 463.609 245.625 463.617 264.644C463.804 275.12 462.241 285.564 458.98 295.634C456.017 304.349 451.517 312.591 445.649 320.055C439.856 327.397 433.006 334.034 425.275 339.798C416.885 346.015 408.009 351.696 398.714 356.798C390.491 361.2 382.259 365.409 374.018 369.423C366.059 373.28 358.514 377.775 351.477 382.853C344.854 387.624 339.214 393.38 334.807 399.865C330.49 406.267 328.327 414.038 328.318 423.178L260.392 423.167ZM261.652 550.968V475.277H330.12V550.968H261.652Z" fill="#E51D1B"/>
<path d="M232.142 557.023C229.458 557.784 152.938 556.911 150.053 555.232C148.944 554.605 148.44 544.7 148.213 532.703V532.333C148.213 529.86 148.125 527.308 148.112 524.734C148.112 524.376 148.112 524.018 148.112 523.671C148.012 506.368 148.314 488.405 148.314 488.405L199.508 488.864L197.958 523.749L197.895 525.137L197.58 532.367V533.106C197.58 533.106 226.673 545.126 229.634 547.252C232.595 549.379 234.826 556.262 232.142 557.023Z" fill="#F9B3A9"/>
<path d="M232.142 557.023C229.458 557.784 152.938 556.911 150.053 555.232C148.944 554.605 148.44 544.7 148.213 532.703V532.333C148.213 529.86 148.125 527.308 148.112 524.734C148.112 524.376 148.112 524.018 148.112 523.671L197.97 523.794L197.908 525.182L197.593 532.412V533.15C197.593 533.15 226.673 545.126 229.634 547.252C232.595 549.379 234.826 556.262 232.142 557.023Z" fill="#EBEBEB"/>
<path d="M232.142 557.023C230.491 557.493 200.843 557.336 177.634 556.754C163.144 556.407 151.174 555.87 150.053 555.232C148.931 554.594 148.452 544.98 148.226 533.206C148.226 533.038 148.226 532.87 148.226 532.703C148.226 532.535 148.226 532.445 148.226 532.322L197.605 532.412V533.15C197.605 533.15 226.736 545.126 229.685 547.263C232.633 549.401 234.825 556.262 232.142 557.023Z" fill="#E51D1B"/>
<path d="M231.323 554.37C218.421 553.945 166.37 553.251 153.581 553.732C153.481 553.732 153.481 553.799 153.581 553.811C166.358 554.482 218.408 554.762 231.311 554.561C231.588 554.561 231.588 554.381 231.323 554.37Z" fill="#263238"/>
<path d="M203.074 532.591C198.034 531.695 191.797 532.311 187.866 535.478C187.714 535.601 187.866 535.792 188.08 535.747C192.952 534.417 197.97 533.55 203.049 533.161C203.124 533.151 203.193 533.118 203.243 533.068C203.294 533.017 203.323 532.953 203.326 532.885C203.329 532.818 203.305 532.752 203.259 532.698C203.213 532.644 203.148 532.606 203.074 532.591Z" fill="#263238"/>
<path d="M206.716 534.594C201.676 533.699 195.439 534.314 191.507 537.482C191.356 537.605 191.507 537.795 191.722 537.75C196.577 536.422 201.578 535.555 206.64 535.165C206.718 535.162 206.792 535.135 206.849 535.088C206.906 535.04 206.943 534.977 206.952 534.908C206.961 534.839 206.942 534.77 206.899 534.712C206.856 534.655 206.791 534.613 206.716 534.594Z" fill="#263238"/>
<path d="M210.344 536.597C205.304 535.702 199.067 536.318 195.135 539.485C194.984 539.608 195.135 539.798 195.35 539.754C200.222 538.427 205.24 537.564 210.318 537.179C210.405 537.182 210.49 537.155 210.554 537.102C210.618 537.05 210.655 536.977 210.659 536.9C210.662 536.822 210.631 536.747 210.572 536.691C210.512 536.634 210.43 536.6 210.344 536.597Z" fill="#263238"/>
<path d="M209.827 522.831C207.862 520.369 204.132 521.432 201.99 522.988C198.369 525.72 195.622 529.253 194.027 533.229C194.019 533.246 194.015 533.264 194.017 533.282C194.019 533.301 194.025 533.318 194.037 533.334C194.048 533.349 194.063 533.362 194.081 533.371C194.099 533.38 194.12 533.385 194.14 533.385C194.14 533.732 194.493 534.102 194.934 533.956C199.143 532.624 203.83 531.718 207.459 529.233C209.575 527.812 211.68 525.17 209.827 522.831ZM200.844 530.778C198.79 531.483 196.711 532.087 194.695 532.848C196.257 530.856 197.706 528.819 199.495 526.961C200.344 526.062 201.253 525.21 202.217 524.409C203.754 523.212 209.777 520.682 208.794 525.618C208.265 528.338 203.301 529.949 200.844 530.778Z" fill="#263238"/>
<path d="M181.137 531.897C185.295 533.531 190.108 533.508 194.556 533.945C195.01 533.945 195.249 533.553 195.174 533.217C195.193 533.212 195.211 533.202 195.226 533.189C195.241 533.177 195.252 533.161 195.259 533.144C195.267 533.127 195.27 533.108 195.268 533.09C195.266 533.072 195.26 533.054 195.249 533.038C192.658 529.5 189.07 526.626 184.842 524.7C182.322 523.581 178.441 523.357 177.181 526.155C175.921 528.953 178.705 530.945 181.137 531.897ZM178.894 528.651C176.677 524.051 183.191 525.294 184.98 526.144C186.136 526.713 187.244 527.357 188.294 528.069C190.452 529.554 192.522 531.138 194.493 532.815C192.326 532.479 190.146 532.322 187.966 532.053C185.371 531.751 180.18 531.192 178.92 528.651H178.894Z" fill="#263238"/>
<path d="M177.659 556.754C163.169 556.407 151.199 555.87 150.078 555.232C148.957 554.594 148.478 544.98 148.251 533.206C154.173 537.918 168.94 549.614 177.659 556.754Z" fill="#263238"/>
<path d="M132.602 292.612C132.602 292.612 144.093 407.464 145.958 416.228C146.399 418.231 146.663 429.087 146.84 443.032C147.23 473.486 147.003 528.394 147.003 528.394H200.944C200.944 528.394 199.344 433.262 196.95 415.746C194.556 398.231 179.31 292.635 179.31 292.635L132.602 292.612Z" fill="#37474F"/>
<path d="M198.5 520.044C190.083 519.888 192.502 519.832 184.086 519.753C179.965 519.753 152.901 519.518 149.045 520.078C149.022 520.078 148.999 520.086 148.983 520.101C148.966 520.116 148.957 520.136 148.957 520.156C148.957 520.177 148.966 520.197 148.983 520.212C148.999 520.226 149.022 520.235 149.045 520.235C152.901 520.794 179.965 520.593 184.086 520.548C192.502 520.481 190.083 520.425 198.5 520.268C198.533 520.268 198.566 520.257 198.589 520.236C198.613 520.215 198.626 520.186 198.626 520.156C198.626 520.127 198.613 520.098 198.589 520.077C198.566 520.056 198.533 520.044 198.5 520.044Z" fill="#263238"/>
<path d="M157.248 465.663C157.18 458.709 157.122 451.758 157.071 444.812C157.071 438.097 157.071 431.382 156.668 424.666C155.937 411.046 152.888 397.66 150.62 384.196C148.352 370.732 146.563 357.212 144.887 343.681C143.01 328.505 141.359 313.295 139.608 298.108C139.608 298.007 139.406 298.007 139.419 298.108C141.939 325.237 144.799 352.355 149.02 379.317C150.078 386.032 151.229 392.725 152.472 399.395C153.732 406.11 154.992 412.915 155.584 419.753C156.177 426.591 156.265 433.183 156.34 439.899C156.433 446.853 156.513 453.799 156.58 460.738C156.744 476.161 156.907 499.91 157.084 515.333C157.097 515.385 157.13 515.432 157.177 515.465C157.224 515.498 157.282 515.517 157.342 515.517C157.402 515.517 157.461 515.498 157.508 515.465C157.555 515.432 157.587 515.385 157.6 515.333C157.5 501.499 157.361 479.418 157.248 465.663Z" fill="#263238"/>
<path d="M121.225 292.612C121.225 292.612 144.094 407.464 145.958 416.228C146.399 418.231 146.664 429.087 146.84 443.032L172.62 292.612H121.225Z" fill="#263238"/>
<path d="M169.507 561.074C166.773 561.667 90.5055 555.971 87.7587 554.124C86.7003 553.43 86.9901 543.514 87.7587 531.539C87.7587 531.416 87.7587 531.281 87.7587 531.158C87.9099 528.696 88.0737 526.155 88.2753 523.581L88.3509 522.462C89.6109 505.193 91.3623 487.297 91.3623 487.297L142.38 491.035L138.058 525.73L137.894 527.107L137.012 534.303L136.924 535.042C136.924 535.042 165.009 548.819 167.794 551.136C170.578 553.453 172.242 560.481 169.507 561.074Z" fill="#F9B3A9"/>
<path d="M169.507 561.074C166.773 561.667 90.5055 555.971 87.7587 554.124C86.7003 553.43 86.9901 543.514 87.7587 531.539C87.7587 531.415 87.7587 531.281 87.7587 531.158C87.9099 528.696 88.0737 526.155 88.2753 523.581L88.3509 522.462L138.058 525.719L137.894 527.095L137.012 534.292L136.924 535.03C136.924 535.03 165.009 548.808 167.794 551.125C170.578 553.441 172.242 560.481 169.507 561.074Z" fill="#EBEBEB"/>
<path d="M169.507 561.074C166.773 561.668 90.5055 555.971 87.7587 554.124C86.7003 553.43 86.9901 543.514 87.7587 531.539C87.7587 531.416 87.7587 531.281 87.7587 531.158L137.012 534.348L136.924 535.087C136.924 535.087 165.009 548.864 167.794 551.181C170.578 553.497 172.242 560.481 169.507 561.074Z" fill="#E51D1B"/>
<path d="M168.84 558.377C156.013 557.135 104.139 553.217 91.3499 552.848C91.2491 552.848 91.2365 552.915 91.3499 552.926C104.026 554.404 155.938 557.952 168.827 558.522C169.142 558.578 169.168 558.444 168.84 558.377Z" fill="#263238"/>
<path d="M142.456 534.874C137.416 533.665 131.229 533.889 127.058 536.799C126.895 536.911 127.058 537.124 127.247 537.09C132.207 536.063 137.276 535.511 142.367 535.445C142.446 535.444 142.522 535.419 142.582 535.373C142.641 535.326 142.68 535.263 142.69 535.193C142.701 535.124 142.683 535.053 142.64 534.995C142.597 534.936 142.531 534.893 142.456 534.874Z" fill="#263238"/>
<path d="M145.932 537.101C140.892 535.892 134.693 536.116 130.523 539.026C130.371 539.138 130.523 539.351 130.712 539.317C135.671 538.29 140.74 537.739 145.832 537.672C145.912 537.674 145.99 537.651 146.052 537.606C146.113 537.56 146.154 537.497 146.167 537.426C146.179 537.356 146.162 537.284 146.119 537.224C146.076 537.164 146.009 537.121 145.932 537.101Z" fill="#263238"/>
<path d="M149.398 539.328C144.358 538.12 138.159 538.343 133.988 541.253C133.837 541.365 133.988 541.578 134.19 541.544C139.149 540.516 144.218 539.964 149.31 539.899C149.389 539.899 149.465 539.873 149.524 539.827C149.583 539.781 149.622 539.717 149.632 539.648C149.643 539.578 149.625 539.508 149.582 539.449C149.539 539.39 149.474 539.347 149.398 539.328Z" fill="#263238"/>
<path d="M149.94 525.573C148.188 522.988 144.383 523.805 142.115 525.226C138.261 527.717 135.218 531.068 133.295 534.941C133.295 535.031 133.295 535.087 133.396 535.109C133.384 535.196 133.396 535.285 133.43 535.367C133.464 535.45 133.519 535.524 133.592 535.584C133.664 535.644 133.752 535.688 133.847 535.712C133.942 535.737 134.042 535.741 134.139 535.725C138.436 534.661 143.199 534.001 147.004 531.796C149.322 530.464 151.628 528.013 149.94 525.573ZM140.351 532.927C138.247 533.497 136.13 533.967 134.051 534.605C135.694 532.662 137.448 530.794 139.305 529.009C140.218 528.161 141.195 527.368 142.228 526.637C143.854 525.517 150.053 523.38 148.692 528.248C147.974 530.957 142.884 532.255 140.376 532.927H140.351Z" fill="#263238"/>
<path d="M120.632 532.803C124.651 534.695 129.452 534.975 133.849 535.68C134.303 535.758 134.58 535.344 134.53 535.008C134.549 535.002 134.567 534.993 134.582 534.98C134.597 534.967 134.608 534.952 134.616 534.935C134.623 534.917 134.626 534.899 134.624 534.881C134.622 534.863 134.616 534.845 134.605 534.829C132.311 531.137 128.96 528.048 124.891 525.875C122.497 524.633 118.591 524.13 117.142 526.838C115.693 529.546 118.288 531.695 120.632 532.803ZM118.654 529.446C116.802 524.711 123.202 526.357 124.954 527.319C126.057 527.968 127.109 528.682 128.104 529.457C130.139 531.075 132.078 532.786 133.912 534.583C131.77 534.113 129.616 533.811 127.461 533.464C124.866 532.915 119.7 532.042 118.654 529.423V529.446Z" fill="#263238"/>
<path d="M139.192 530.979L85.3016 528.953C85.3016 528.953 100.018 423.905 100.283 417.425C100.989 400.637 113.526 292.534 113.526 292.534H179.348C179.348 292.534 175.19 317.503 168.096 333.329C163.321 334.813 158.711 336.686 154.324 338.925C154.324 338.925 148.15 410.43 147.924 419.35C147.42 437.011 139.192 530.979 139.192 530.979Z" fill="#37474F"/>
<path d="M137.756 522.205C129.364 521.734 131.784 521.768 123.367 521.376C119.259 521.186 92.2195 519.966 88.3513 520.38C88.2631 520.38 88.2631 520.515 88.3513 520.537C92.1313 521.242 119.234 522.059 123.342 522.171C131.758 522.417 129.352 522.272 137.769 522.428C137.802 522.427 137.833 522.414 137.856 522.392C137.878 522.37 137.89 522.341 137.888 522.311C137.887 522.281 137.872 522.253 137.847 522.233C137.822 522.213 137.789 522.203 137.756 522.205Z" fill="#263238"/>
<path d="M118.351 298.981C115.907 326.211 113.399 353.452 110.589 380.682C107.78 407.912 104.491 435.254 100.509 462.439C98.2792 477.604 95.7592 498.992 93.1006 514.124C93.1006 514.225 93.2518 514.269 93.277 514.124C98.7076 487.263 102.702 453.866 106.091 426.726C109.481 399.585 112.265 372.366 114.747 345.147C116.146 329.747 117.406 314.336 118.742 298.936C118.754 298.79 118.439 298.79 118.351 298.981Z" fill="#263238"/>
<path d="M170.44 332.277C164.858 334.093 159.465 336.34 154.324 338.992C154.281 339.01 154.247 339.042 154.231 339.082C154.214 339.122 154.216 339.166 154.236 339.205C154.256 339.243 154.293 339.273 154.338 339.288C154.383 339.302 154.432 339.301 154.476 339.283C159.906 337.212 165.438 335.231 170.73 332.892C170.822 332.858 170.894 332.793 170.932 332.711C170.97 332.629 170.97 332.537 170.931 332.456C170.893 332.374 170.819 332.309 170.727 332.276C170.635 332.242 170.532 332.243 170.44 332.277Z" fill="#263238"/>
<path d="M172.166 299.182C172.166 299.014 171.826 298.981 171.826 299.182C171.826 304.901 171.46 309.937 170.919 315.298C170.667 317.783 168.399 331.504 163.56 330.508C162.754 330.34 162.3 329.624 162.212 328.539C162.221 327.117 162.437 325.703 162.855 324.33C163.384 321.454 163.825 318.578 164.115 315.668C164.678 310.263 164.61 304.821 163.913 299.428C163.903 299.398 163.883 299.371 163.854 299.352C163.826 299.333 163.791 299.323 163.756 299.323C163.72 299.323 163.685 299.333 163.657 299.352C163.628 299.371 163.608 299.398 163.598 299.428C163.742 306.912 163.249 314.394 162.124 321.812C161.519 325.382 159.49 330.766 163.699 331.303C167.907 331.84 170.755 322.864 171.259 320.402C172.596 313.394 172.901 306.26 172.166 299.182Z" fill="#263238"/>
<path d="M163.686 330.855C163.25 331.779 162.888 332.729 162.603 333.698C162.284 334.445 162.131 335.239 162.149 336.037C162.149 336.194 162.388 336.205 162.477 336.104C162.978 335.412 163.36 334.658 163.611 333.866C163.976 332.982 164.367 332.109 164.707 331.213C164.76 331.093 164.758 330.959 164.7 330.84C164.642 330.722 164.533 330.629 164.398 330.581C164.263 330.534 164.112 330.536 163.978 330.587C163.845 330.639 163.74 330.735 163.686 330.855Z" fill="#263238"/>
<path d="M141.737 303.67C141.753 303.072 141.685 302.474 141.536 301.891C141.526 301.874 141.512 301.86 141.494 301.851C141.476 301.841 141.456 301.836 141.435 301.836C141.414 301.836 141.394 301.841 141.376 301.851C141.358 301.86 141.344 301.874 141.334 301.891C141.201 302.397 141.125 302.915 141.107 303.435C141.107 304.028 140.956 304.554 140.881 305.203C140.741 306.414 140.505 307.615 140.175 308.796C139.562 311.026 138.282 313.068 136.471 314.705C134.664 316.284 132.523 317.528 130.171 318.365C127.567 319.184 124.913 319.868 122.22 320.413C122.193 320.413 122.168 320.423 122.149 320.439C122.13 320.456 122.119 320.479 122.119 320.503C122.119 320.527 122.13 320.549 122.149 320.566C122.168 320.583 122.193 320.592 122.22 320.592C125.201 320.587 128.153 320.07 130.914 319.07C133.361 318.255 135.589 316.993 137.453 315.366C139.315 313.685 140.622 311.583 141.233 309.288C141.542 308.105 141.719 306.898 141.763 305.685C141.798 305.013 141.79 304.341 141.737 303.67Z" fill="#263238"/>
<path d="M206.161 194.235C210.218 198.589 214.628 210.351 214.465 213.563C214.301 216.776 192.011 224.073 188.861 222.327C185.711 220.581 173.313 205.024 173.2 199.26C173.086 193.496 201.953 189.736 206.161 194.235Z" fill="#F9B3A9"/>
<path d="M172.62 186.244C170.578 184.352 163.976 178.7 161.04 181.252C159.201 182.841 163.636 187.195 165.501 188.919C169.344 192.455 172.317 198.712 173.703 201.767C175.089 204.822 181.578 198.79 181.578 198.79C181.578 198.79 177.949 191.157 172.62 186.244Z" fill="#F9B3A9"/>
<path d="M178.037 205.181C178.037 205.181 180.318 210.62 184.035 210.497C187.752 210.374 186.807 205.696 186.757 205.36C186.87 205.651 189.113 210.598 192.842 210.139C196.572 209.68 194.984 205.08 194.871 204.789C195.073 205.024 197.945 208.147 200.68 207.218C205.392 205.628 198.323 197.492 199.004 193.922C199.004 193.922 205.959 194.269 206.161 194.235C206.161 194.235 199.609 186.401 194.128 185.819C193.33 185.72 192.519 185.869 191.83 186.24C191.142 186.611 190.618 187.182 190.348 187.856C190.348 187.856 188.546 185.114 185.597 185.393C184.085 185.539 183.002 187.822 183.002 187.822C182.56 187.219 181.938 186.737 181.207 186.429C180.475 186.121 179.661 185.999 178.856 186.076C176.777 186.378 175.744 188.684 175.631 189.579C174.749 196.429 178.037 205.181 178.037 205.181Z" fill="#F9B3A9"/>
<path d="M175.87 188.952C175.87 188.952 175.782 188.952 175.77 188.952C174.634 194.515 175.429 200.253 178.05 205.404C178.138 205.561 178.466 205.505 178.403 205.315C176.674 199.998 175.821 194.486 175.87 188.952Z" fill="#263238"/>
<path d="M182.99 187.744C182.99 187.676 182.876 187.676 182.864 187.744C181.689 193.886 183.03 200.199 186.644 205.539C186.782 205.729 187.11 205.774 186.971 205.539C184.666 201.823 182.864 192.925 182.99 187.744Z" fill="#263238"/>
<path d="M195.3 205.08C191.847 199.82 190.625 194.112 190.335 188.079C190.335 188.001 190.209 188.012 190.184 188.079C189.428 191.068 190.071 194.884 190.852 197.828C191.521 200.566 192.985 203.101 195.098 205.181C195.161 205.27 195.3 205.192 195.3 205.08Z" fill="#263238"/>
<path d="M178.038 205.181C178.586 206.186 179.236 207.145 179.978 208.046C180.661 208.948 181.6 209.674 182.7 210.15C183.223 210.328 183.802 210.328 184.325 210.15C184.861 209.98 185.338 209.691 185.711 209.31C186.042 208.903 186.273 208.439 186.39 207.947C186.507 207.456 186.508 206.948 186.392 206.456L185.926 204.039L187.312 206.165C187.918 207.116 188.692 207.974 189.605 208.706C190.004 209.066 190.484 209.345 191.014 209.527C191.544 209.708 192.112 209.787 192.679 209.758C193.208 209.73 193.709 209.541 194.099 209.223C194.489 208.905 194.744 208.477 194.821 208.012C194.968 206.966 194.816 205.904 194.38 204.923L193.259 202.192L195.313 204.431C195.884 205.056 196.54 205.616 197.266 206.098C197.939 206.572 198.754 206.86 199.609 206.927C199.995 206.942 200.378 206.863 200.716 206.697C201.054 206.531 201.334 206.285 201.524 205.986C201.822 205.271 201.887 204.495 201.713 203.748C201.352 202.096 200.847 200.472 200.201 198.891C199.899 198.085 199.597 197.268 199.345 196.44C199.036 195.627 198.924 194.764 199.017 193.91C199.034 194.756 199.231 195.592 199.597 196.373C199.924 197.167 200.29 197.951 200.655 198.745C201.437 200.328 202.049 201.973 202.482 203.658C202.741 204.564 202.698 205.517 202.356 206.401C202.11 206.864 201.716 207.253 201.223 207.52C200.731 207.786 200.161 207.919 199.584 207.9C198.519 207.847 197.497 207.512 196.648 206.938C195.828 206.416 195.087 205.803 194.443 205.113L195.376 204.621C195.919 205.769 196.114 207.023 195.943 208.258C195.827 208.946 195.444 209.576 194.859 210.038C194.276 210.469 193.56 210.734 192.805 210.799C192.085 210.838 191.363 210.74 190.689 210.51C190.015 210.28 189.405 209.925 188.899 209.467C187.886 208.66 187.034 207.707 186.379 206.647L187.299 206.356C187.417 206.969 187.383 207.598 187.201 208.199C187.018 208.8 186.69 209.359 186.241 209.836C185.755 210.286 185.148 210.618 184.477 210.799C183.793 210.986 183.056 210.938 182.41 210.665C181.252 210.102 180.295 209.26 179.651 208.236C178.985 207.275 178.444 206.25 178.038 205.181Z" fill="#263238"/>
<path d="M186.228 220.01C186.228 220.01 162.199 209.098 171.612 202.853C174.396 200.995 188.37 196.328 189.478 198.801C190.915 201.991 185.484 204.912 181.755 206.255C181.755 206.255 190.512 208.952 190.222 214.918C190.149 216.011 189.737 217.065 189.033 217.964C188.328 218.862 187.357 219.571 186.228 220.01Z" fill="#F9B3A9"/>
<path d="M170.868 203.412C171.86 202.565 172.99 201.856 174.22 201.308C175.442 200.73 176.705 200.221 178 199.786C180.573 198.888 183.229 198.192 185.938 197.704C186.658 197.57 187.397 197.532 188.13 197.592C188.574 197.617 189.005 197.732 189.39 197.928C189.59 198.031 189.769 198.164 189.919 198.32C190.068 198.475 190.183 198.654 190.26 198.846C190.549 199.535 190.549 200.294 190.26 200.984C189.994 201.612 189.601 202.193 189.1 202.696C188.151 203.65 187.021 204.449 185.761 205.058C184.55 205.674 183.286 206.205 181.981 206.647V205.852C182.969 206.195 183.918 206.618 184.816 207.117C185.72 207.601 186.565 208.167 187.336 208.807C188.097 209.464 188.742 210.219 189.252 211.045C189.767 211.85 190.105 212.735 190.247 213.653C189.98 212.78 189.555 211.952 188.987 211.202C188.407 210.475 187.721 209.82 186.946 209.255C186.168 208.677 185.323 208.174 184.426 207.755C183.554 207.328 182.638 206.976 181.692 206.703L180.52 206.378L181.654 205.908C182.882 205.435 184.074 204.889 185.22 204.274C186.352 203.694 187.372 202.957 188.244 202.092C188.661 201.733 188.968 201.286 189.136 200.792C189.303 200.298 189.326 199.775 189.201 199.271C188.924 198.488 187.425 198.521 186.152 198.689C184.879 198.857 183.531 199.159 182.208 199.45C180.885 199.741 179.587 200.066 178.29 200.435C175.657 201.08 173.153 202.084 170.868 203.412Z" fill="#263238"/>
<path d="M158.571 235.455C179.814 258.745 210.697 273.832 218.32 268.919C225.943 264.006 200.251 238.286 199.81 237.906C198.311 236.63 186.946 231.381 166.307 223.659C146.059 216.082 149.083 225.058 158.571 235.455Z" fill="#F9B3A9"/>
<path d="M190.26 232.758L174.258 251.448C174.258 251.448 160.826 239.137 153.72 230.989C146.614 222.842 147.319 216.507 163.22 221.767C172.529 224.828 181.567 228.502 190.26 232.758Z" fill="#E51D1B"/>
<path d="M172.733 247.162C174.686 244.61 176.728 242.103 178.819 239.652C179.865 238.443 180.873 237.212 181.944 236.015C183.015 234.817 184.237 233.62 185.333 232.388C185.409 232.299 185.56 232.388 185.485 232.478C184.477 233.709 183.569 234.996 182.561 236.227C181.553 237.458 180.445 238.734 179.374 239.988C177.265 242.45 175.094 244.867 172.859 247.24C172.796 247.307 172.62 247.24 172.733 247.162Z" fill="#263238"/>
<path d="M181.919 242.472L174.258 251.426C174.258 251.426 160.826 239.115 153.72 230.967L153.04 230.172L152.75 229.803L152.309 229.232C151.931 228.74 151.591 228.258 151.288 227.788C151.175 227.62 151.074 227.453 150.973 227.285C150.448 226.435 150.025 225.539 149.713 224.61C149.62 224.323 149.549 224.032 149.499 223.737C149.499 223.591 149.499 223.457 149.499 223.323C156.479 227.62 172.859 237.033 181.919 242.472Z" fill="#263238"/>
<path d="M182.561 304.084C182.561 304.084 109.645 305.203 109.217 304.8C108.083 303.681 122.812 236.988 138.046 223.244C143.426 218.387 154.526 220.368 156.379 221.163C160.65 222.998 164.669 226.96 168.034 234.302C174.762 248.986 183.481 303.032 182.561 304.084Z" fill="#E51D1B"/>
<path opacity="0.1" d="M160.02 223.356H137.932L138.045 223.244C138.559 222.783 139.13 222.373 139.746 222.025H158.079C158.766 222.421 159.415 222.867 160.02 223.356ZM162.451 225.595H135.853C135.5 226.009 135.16 226.457 134.82 226.927H163.611C163.245 226.457 162.867 226.042 162.54 225.595H162.451ZM165.198 229.165H133.295C133.018 229.601 132.741 230.049 132.476 230.508H166.055C165.79 230.049 165.513 229.59 165.223 229.165H165.198ZM167.252 232.746H131.203L130.485 234.078H167.92C167.718 233.619 167.504 233.172 167.277 232.758L167.252 232.746ZM168.852 236.317H129.376L128.734 237.649H169.369C169.205 237.234 169.041 236.742 168.84 236.317H168.852ZM170.112 239.887H127.713C127.524 240.335 127.323 240.771 127.121 241.23H170.553L170.112 239.887ZM171.196 243.457H126.189C126.012 243.905 125.823 244.341 125.647 244.8H171.599C171.439 244.345 171.313 243.897 171.221 243.457H171.196ZM172.179 247.039H124.74C124.563 247.475 124.399 247.923 124.236 248.37H172.519L172.179 247.039ZM173.086 250.609H123.48C123.316 251.045 123.165 251.493 123.001 251.941H173.502C173.325 251.493 173.224 251.045 173.111 250.665L173.086 250.609ZM173.943 254.179H122.22C122.056 254.616 121.905 255.063 121.753 255.522H174.346C174.182 255.074 174.081 254.627 173.968 254.179H173.943ZM174.762 257.749H120.96C120.808 258.197 120.657 258.645 120.519 259.092H175.14L174.762 257.749ZM175.543 261.331H119.775C119.624 261.778 119.485 262.215 119.347 262.663H175.845C175.757 262.215 175.669 261.767 175.568 261.331H175.543ZM176.286 264.901H118.654C118.515 265.349 118.377 265.796 118.251 266.233H176.589C176.5 265.785 176.4 265.349 176.311 264.901H176.286ZM177.004 268.471H117.583C117.444 268.919 117.318 269.367 117.192 269.814H177.294C177.219 269.367 177.13 268.919 177.03 268.471H177.004ZM177.723 272.053H116.537C116.424 272.5 116.298 272.937 116.172 273.385H177.987C177.912 272.948 177.823 272.5 177.748 272.053H177.723ZM178.378 275.623H115.542C115.428 276.071 115.302 276.518 115.189 276.955H178.655C178.579 276.518 178.491 276.071 178.403 275.623H178.378ZM179.033 279.193H114.584C114.471 279.652 114.357 280.1 114.231 280.536H179.298C179.222 280.089 179.146 279.652 179.058 279.193H179.033ZM179.676 282.763H113.664C113.551 283.211 113.437 283.67 113.324 284.106H179.915C179.839 283.67 179.764 283.222 179.701 282.763H179.676ZM180.268 286.345H112.77C112.669 286.793 112.555 287.24 112.455 287.677H180.495L180.268 286.345ZM180.847 289.915H111.913C111.812 290.374 111.711 290.81 111.61 291.247H181.087C181.011 290.81 180.948 290.363 180.873 289.915H180.847ZM181.402 293.485H111.119C111.001 293.948 110.901 294.396 110.817 294.828H181.629C181.566 294.392 181.44 293.944 181.44 293.485H181.402ZM181.906 297.056H110.35C110.25 297.526 110.161 297.973 110.073 298.399H182.12C182.07 297.973 182.007 297.526 181.931 297.056H181.906ZM182.372 300.637H109.62C109.531 301.118 109.468 301.566 109.393 301.969H182.473C182.498 301.577 182.448 301.129 182.397 300.637H182.372ZM109.141 304.207C109.085 304.402 109.085 304.606 109.141 304.8C109.481 305.103 154.702 304.487 173.968 304.207H109.141Z" fill="#030402"/>
<path d="M142.203 231.325C137.289 237.313 112.089 262.058 111.157 264.353C110.224 266.647 116.058 271.717 115.957 272.668C115.579 276.541 106.167 302.305 102.4 299.686C97.4355 296.238 76.4187 271.549 79.3923 260.861C82.3659 250.172 131.443 224.509 139.23 222.282C147.016 220.055 147.054 225.416 142.203 231.325Z" fill="#F9B3A9"/>
<path d="M122.408 253.854L108.095 236.003C108.095 236.003 124.109 226.669 134.819 222.685C145.529 218.7 150.809 220.916 141.019 233.216C135.296 240.427 129.081 247.319 122.408 253.854Z" fill="#E51D1B"/>
<path d="M112.328 234.839C114.596 237.175 116.801 239.562 118.943 242.002C120.002 243.2 121.073 244.386 122.093 245.606C123.114 246.826 124.122 248.191 125.193 249.445C125.268 249.535 125.117 249.646 125.042 249.557C123.958 248.438 122.799 247.319 121.715 246.087C120.632 244.856 119.523 243.625 118.439 242.394C116.297 239.954 114.218 237.458 112.215 234.929C112.139 234.862 112.265 234.772 112.328 234.839Z" fill="#263238"/>
<path d="M122.383 253.944C124.576 251.359 127.159 249.053 129.527 246.602C131.896 244.151 134.252 241.622 136.508 239.07C136.508 239.07 136.672 239.07 136.621 239.137C135.575 240.469 134.555 241.812 133.459 243.11C132.917 243.748 132.35 244.375 131.77 245.002L132.614 244.386C133.478 243.809 134.374 243.271 135.298 242.774C135.298 242.774 135.399 242.774 135.298 242.842C134.496 243.501 133.655 244.121 132.778 244.7C132.148 245.125 131.518 245.517 130.85 245.908L129.842 247.027C127.643 249.549 125.193 251.89 122.522 254.022C122.446 254.123 122.308 254.022 122.383 253.944Z" fill="#263238"/>
<path d="M114.723 309.467C118.087 307.442 113.463 305.069 113.463 305.069C113.463 305.069 121.023 307.061 123.543 303.782C126.063 300.503 120.317 297.929 119.914 297.727C120.317 297.839 127.323 299.495 129.515 295.97C131.708 292.444 125.559 290.475 125.156 290.374C125.572 290.374 131.027 290.161 132.01 287.139C133.686 281.958 118.012 281.353 114.635 278.186C114.635 278.186 116.147 271.336 116.273 271.146C115.259 272.683 113.686 273.868 111.812 274.504C108.423 275.354 105.374 275.847 104 277.291C103.36 277.922 102.965 278.72 102.874 279.567C102.783 280.413 103.001 281.263 103.496 281.991C103.496 281.991 99.2123 281.555 97.3853 284.285C96.4529 285.684 98.1539 288.27 98.1539 288.27C97.1845 288.208 96.2146 288.385 95.3503 288.779C94.4859 289.174 93.7603 289.772 93.2525 290.508C92.0807 292.523 93.9707 294.795 93.9707 294.795C93.9707 294.795 90.5435 295.914 90.1025 298.331C89.2583 303.178 107.516 313.788 114.723 309.467Z" fill="#F9B3A9"/>
<path d="M94.2729 295.209C94.2729 295.209 94.1343 295.209 94.1847 295.287C99.4075 300.285 106.22 303.751 113.715 305.226C113.954 305.226 114.13 304.935 113.878 304.845C106.852 302.494 100.248 299.248 94.2729 295.209Z" fill="#263238"/>
<path d="M98.1037 288.225C98.0955 288.219 98.086 288.215 98.0758 288.212C98.0656 288.21 98.055 288.209 98.0444 288.21C98.0339 288.211 98.0237 288.214 98.0144 288.218C98.0051 288.223 97.9969 288.229 97.9903 288.236C97.9837 288.244 97.9788 288.252 97.9758 288.261C97.9729 288.27 97.972 288.28 97.9732 288.289C97.9743 288.298 97.9775 288.307 97.9827 288.316C97.9878 288.324 97.9947 288.331 98.0029 288.337C103.825 293.79 111.65 297.216 120.066 297.996C120.355 297.996 120.645 297.772 120.305 297.727C114.66 296.966 103.648 292.075 98.1037 288.225Z" fill="#263238"/>
<path d="M125.836 290.206C117.621 289.378 110.527 286.289 103.761 282.193C103.672 282.193 103.597 282.249 103.647 282.316C106.344 285.125 110.968 287.341 114.735 288.796C118.195 290.203 122.01 290.778 125.798 290.463C126 290.452 126 290.228 125.836 290.206Z" fill="#263238"/>
<path d="M93.8067 294.795C93.1223 294.183 92.6422 293.414 92.4198 292.575C92.1974 291.735 92.2413 290.857 92.5467 290.038C92.9413 289.267 93.6343 288.648 94.4997 288.292C95.5311 287.975 96.6341 287.887 97.7127 288.035C97.1112 287.282 96.7809 286.385 96.7651 285.462C96.7494 284.539 97.049 283.633 97.6245 282.864C98.2697 282.207 99.1687 281.787 100.144 281.689C101.258 281.593 102.381 281.631 103.483 281.801C103.024 281.321 102.698 280.752 102.529 280.14C102.361 279.528 102.355 278.89 102.513 278.275C102.722 277.608 103.104 276.994 103.63 276.483C104.155 275.972 104.808 275.577 105.537 275.332C107.252 274.781 109.031 274.405 110.842 274.213C111.771 274.089 112.681 273.867 113.551 273.552C114.489 273.171 115.275 272.547 115.806 271.762C115.907 271.627 115.907 271.762 115.806 271.885C115.453 272.418 115.002 272.895 114.471 273.295C113.919 273.722 113.304 274.079 112.644 274.358C111.004 274.908 109.319 275.346 107.604 275.668C106.1 276.023 104.771 276.81 103.824 277.906C103.391 278.486 103.147 279.161 103.12 279.857C103.094 280.552 103.285 281.241 103.672 281.846C103.672 281.846 103.672 281.991 103.559 281.98C102.553 281.976 101.55 282.081 100.573 282.293C99.7622 282.465 99.0315 282.856 98.4813 283.413C97.9715 284.122 97.68 284.937 97.6357 285.778C97.5915 286.618 97.7962 287.454 98.2293 288.203C97.1427 288.267 96.0789 288.51 95.0919 288.919C94.4511 289.269 93.9354 289.774 93.6051 290.374C93.2277 291.066 93.0738 291.837 93.1605 292.601C93.2473 293.366 93.5713 294.094 94.0965 294.705C94.1013 294.724 94.1013 294.743 94.0965 294.761C94.0965 294.761 93.0003 295.164 92.9499 295.164C93.2267 295.026 93.5128 294.902 93.8067 294.795Z" fill="#263238"/>
<path d="M156.354 231.09C152.347 232.4 144.51 227.553 141.095 223.323C140.868 223.032 140.641 210.441 140.314 207.956C140.238 207.441 158.42 209.881 158.42 209.881C157.839 213.1 157.703 216.37 158.017 219.618C158.067 219.976 160.222 229.837 156.354 231.09Z" fill="#F9B3A9"/>
<path d="M158.42 209.881C158.42 209.881 158.218 210.922 158.055 212.467C153.015 217.962 144.925 218.544 140.818 218.421C140.679 214.515 140.515 209.467 140.314 207.956C140.238 207.453 158.42 209.881 158.42 209.881Z" fill="#263238"/>
<path d="M140.389 181.129C140.389 181.129 134.593 183.121 133.408 188.27C132.224 193.418 133.408 198.88 133.887 199.159C134.366 199.439 140.389 181.129 140.389 181.129Z" fill="#263238"/>
<path d="M163.8 187.777C165.287 193.451 160.776 209.333 156.038 212.646C149.184 217.458 138.55 217.324 134.089 210.127C129.78 203.155 136.08 182.562 141.309 179.596C148.995 175.242 161.57 179.383 163.8 187.777Z" fill="#F9B3A9"/>
<path d="M145.819 196.697C145.819 196.697 145.908 196.764 145.895 196.809C145.643 197.928 145.555 199.193 146.613 199.73C146.613 199.73 146.613 199.797 146.613 199.786C145.252 199.406 145.378 197.693 145.819 196.697Z" fill="#263238"/>
<path d="M147.142 195.712C149.171 195.88 148.629 199.462 146.764 199.305C144.9 199.148 145.454 195.567 147.142 195.712Z" fill="#263238"/>
<path d="M138.789 195.589C138.789 195.589 138.688 195.589 138.675 195.679C138.562 196.798 138.222 198.04 137.037 198.286V198.354C138.448 198.331 138.877 196.652 138.789 195.589Z" fill="#263238"/>
<path d="M137.844 194.302C135.853 193.944 135.185 197.503 137.037 197.839C138.889 198.174 139.507 194.604 137.844 194.302Z" fill="#263238"/>
<path d="M145.542 205.953C145.215 206.188 144.874 206.524 144.421 206.524C143.955 206.481 143.504 206.351 143.098 206.143C143.252 206.377 143.476 206.569 143.745 206.697C144.014 206.825 144.318 206.885 144.622 206.871C144.888 206.841 145.136 206.738 145.331 206.575C145.526 206.412 145.657 206.198 145.706 205.964C145.706 205.964 145.593 205.897 145.542 205.953Z" fill="#263238"/>
<path d="M139.709 200.849C139.709 200.849 139.18 202.461 139.054 203.244C140.767 203.467 142.434 203.908 144.005 204.554C144.371 204.711 144.421 204.431 144.005 204.14C142.833 203.294 141.402 202.779 139.898 202.662C139.898 202.439 140.767 200.189 140.629 200.155C139.948 200.121 139.265 200.17 138.6 200.301C139.583 196.943 141.12 193.675 142.103 190.228C142.103 190.105 141.939 190.038 141.876 190.139C140.058 193.557 138.623 197.126 137.592 200.793C137.428 201.286 139.331 200.939 139.709 200.849Z" fill="#263238"/>
<path d="M148.679 194.492C148.2 194.224 147.822 193.899 147.419 193.597C147.016 193.295 146.487 193.015 146.298 192.478C146.257 192.316 146.28 192.147 146.363 191.998C146.445 191.85 146.582 191.731 146.751 191.661C147.106 191.558 147.485 191.542 147.849 191.615C148.213 191.688 148.547 191.847 148.818 192.075C149.454 192.454 149.905 193.034 150.078 193.698C150.111 193.854 150.091 194.015 150.02 194.16C149.949 194.306 149.831 194.429 149.681 194.515C149.53 194.6 149.355 194.644 149.176 194.64C148.998 194.636 148.825 194.584 148.679 194.492Z" fill="#263238"/>
<path d="M136.962 190.362C137.516 190.284 138.02 190.15 138.562 190.027C139.145 189.982 139.696 189.766 140.124 189.411C140.237 189.279 140.298 189.118 140.298 188.952C140.298 188.787 140.237 188.626 140.124 188.493C139.848 188.27 139.51 188.116 139.145 188.047C138.779 187.978 138.4 187.997 138.045 188.102C137.288 188.214 136.605 188.573 136.13 189.109C136.034 189.235 135.98 189.383 135.975 189.535C135.97 189.687 136.013 189.838 136.1 189.969C136.187 190.1 136.315 190.207 136.467 190.276C136.619 190.346 136.791 190.376 136.962 190.362Z" fill="#263238"/>
<path d="M160.826 201.342C157.121 201.017 159.137 186.501 159.137 186.501C156.851 187.193 154.459 187.57 152.044 187.62C149.604 187.544 147.181 187.221 144.824 186.658C144.32 186.49 151.01 184.811 151.01 184.811C151.01 184.811 134.555 186.087 134 183.334C133.799 182.383 136.861 173.72 150.519 174.268C160.599 174.671 165.299 184.028 165.299 184.028C165.299 184.028 170.2 188.874 169.356 191.068C167.92 194.918 164.757 201.689 160.826 201.342Z" fill="#263238"/>
<path d="M158.584 201.42C158.584 201.42 163.183 196.54 165.715 198.062C168.248 199.584 164.455 206.848 161.204 207.643C160.799 207.768 160.37 207.819 159.942 207.793C159.515 207.767 159.097 207.665 158.715 207.493C158.332 207.32 157.993 207.081 157.717 206.79C157.442 206.498 157.235 206.16 157.109 205.796L158.584 201.42Z" fill="#F9B3A9"/>
<path d="M219.958 268.079C230.189 261.062 220.411 225.438 214.464 212.321C212.713 208.46 184.93 215.679 186.228 220.01C193.649 244.509 208.756 275.768 219.958 268.079Z" fill="#F9B3A9"/>
<path d="M190.826 233.452L193.888 240.167C194.934 242.405 195.954 244.644 197.088 246.882C198.222 249.12 199.319 251.28 200.478 253.463C201.637 255.645 202.922 257.783 204.182 259.932C202.588 257.96 201.136 255.9 199.835 253.765C198.575 251.627 197.315 249.434 196.219 247.218C195.123 245.002 194.115 242.741 193.208 240.435C192.3 238.13 191.519 235.813 190.826 233.452Z" fill="#263238"/>
<path d="M189 162.64C189.121 163.898 188.82 165.161 188.134 166.268C187.448 167.374 186.409 168.276 185.146 168.858C183.884 169.44 182.456 169.677 181.042 169.538C179.628 169.399 178.293 168.892 177.204 168.079C176.115 167.266 175.321 166.185 174.924 164.972C174.526 163.759 174.542 162.469 174.97 161.264C175.397 160.059 176.218 158.994 177.326 158.203C178.435 157.412 179.783 156.931 181.2 156.82C182.143 156.746 183.092 156.838 183.995 157.091C184.897 157.344 185.735 157.752 186.459 158.293C187.184 158.833 187.781 159.496 188.217 160.241C188.653 160.987 188.919 161.802 189 162.64Z" fill="white"/>
<path d="M189 162.64C189.156 164.353 188.566 166.055 187.352 167.394C186.138 168.733 184.392 169.607 182.473 169.836C181.429 170.022 180.352 170.01 179.313 169.801C178.274 169.592 177.296 169.189 176.444 168.621C175.593 168.052 174.886 167.33 174.37 166.502C173.855 165.674 173.542 164.759 173.452 163.816C173.363 162.873 173.499 161.923 173.852 161.03C174.204 160.137 174.765 159.321 175.498 158.634C176.231 157.947 177.119 157.405 178.104 157.044C179.089 156.683 180.148 156.512 181.213 156.54C183.143 156.482 185.024 157.081 186.472 158.215C187.92 159.349 188.824 160.932 189 162.64ZM189 162.64C188.92 161.817 188.652 161.016 188.214 160.287C187.776 159.558 187.176 158.915 186.451 158.398C185.726 157.88 184.89 157.498 183.994 157.275C183.098 157.052 182.161 156.992 181.238 157.1C179.475 157.301 177.867 158.1 176.751 159.33C175.635 160.559 175.097 162.125 175.25 163.698C175.403 165.272 176.235 166.732 177.572 167.774C178.908 168.816 180.646 169.358 182.423 169.288C183.353 169.253 184.266 169.051 185.106 168.695C185.946 168.338 186.696 167.834 187.311 167.212C187.926 166.591 188.392 165.866 188.683 165.08C188.973 164.294 189.081 163.464 189 162.64Z" fill="#263238"/>
<path d="M173.351 174.425C173.418 175.126 173.249 175.829 172.866 176.445C172.483 177.062 171.903 177.563 171.2 177.886C170.496 178.21 169.7 178.341 168.913 178.262C168.125 178.184 167.382 177.9 166.776 177.447C166.17 176.993 165.729 176.39 165.509 175.714C165.289 175.038 165.3 174.319 165.54 173.648C165.779 172.977 166.238 172.385 166.857 171.945C167.475 171.506 168.227 171.239 169.016 171.179C169.541 171.138 170.07 171.189 170.573 171.33C171.075 171.471 171.541 171.699 171.944 172.001C172.347 172.302 172.679 172.672 172.92 173.088C173.162 173.504 173.308 173.958 173.351 174.425Z" fill="white"/>
<path d="M173.351 174.425C173.422 175.193 173.231 175.962 172.802 176.632C172.374 177.303 171.729 177.843 170.95 178.183C170.172 178.523 169.296 178.647 168.437 178.539C167.578 178.431 166.776 178.095 166.134 177.577C165.492 177.058 165.042 176.38 164.84 175.63C164.638 174.881 164.695 174.094 165.004 173.374C165.312 172.654 165.857 172.032 166.568 171.591C167.279 171.15 168.124 170.909 168.991 170.899C170.083 170.896 171.136 171.256 171.944 171.908C172.751 172.561 173.253 173.459 173.351 174.425ZM173.351 174.425C173.309 173.971 173.162 173.529 172.918 173.129C172.673 172.728 172.338 172.377 171.932 172.098C171.527 171.819 171.061 171.618 170.563 171.508C170.065 171.398 169.547 171.381 169.042 171.459C168.332 171.566 167.673 171.854 167.145 172.288C166.616 172.722 166.242 173.283 166.067 173.903C165.892 174.523 165.924 175.175 166.159 175.779C166.394 176.383 166.822 176.913 167.391 177.304C167.96 177.696 168.645 177.932 169.362 177.983C170.079 178.035 170.798 177.899 171.43 177.594C172.062 177.289 172.58 176.826 172.921 176.263C173.263 175.701 173.412 175.062 173.351 174.425Z" fill="#263238"/>
<path d="M242.752 132.914C243.421 137.827 241.867 142.776 238.432 146.672C234.997 150.569 229.962 153.096 224.431 153.697C220.791 154.1 217.097 153.64 213.721 152.366C212.075 154.28 209.954 155.831 207.522 156.899C205.091 157.967 202.416 158.522 199.704 158.522C196.992 158.522 194.316 157.967 191.885 156.899C189.454 155.831 187.333 154.28 185.686 152.366C184.912 152.569 184.119 152.715 183.317 152.802C180.574 153.1 177.792 152.684 175.309 151.605C172.826 150.527 170.748 148.832 169.328 146.726C167.908 144.619 167.206 142.193 167.307 139.739C167.408 137.286 168.308 134.911 169.898 132.903C166.802 129.404 165.215 125.037 165.424 120.59C165.632 116.143 167.622 111.909 171.035 108.651C174.448 105.392 179.059 103.324 184.038 102.819C189.016 102.314 194.033 103.405 198.185 105.897C200.133 103.746 202.686 102.09 205.585 101.097C208.485 100.104 211.628 99.8085 214.697 100.241C217.766 100.674 220.652 101.819 223.063 103.561C225.474 105.303 227.324 107.58 228.425 110.161C229.162 109.941 229.922 109.791 230.693 109.713C233.023 109.465 235.383 109.854 237.458 110.827C239.533 111.801 241.224 113.313 242.307 115.162C243.389 117.011 243.812 119.109 243.518 121.177C243.223 123.245 242.227 125.184 240.66 126.736C241.762 128.67 242.47 130.761 242.752 132.914Z" fill="white"/>
<path d="M242.752 132.914C243.407 137.826 241.874 142.77 238.481 146.691C237.343 147.969 236.031 149.115 234.575 150.105C231.625 152.087 228.145 153.353 224.477 153.777C220.81 154.201 217.081 153.769 213.659 152.522H213.86C212.204 154.473 210.064 156.058 207.605 157.153C205.146 158.248 202.436 158.823 199.685 158.835C196.922 158.843 194.193 158.288 191.709 157.212C189.227 156.117 187.053 154.541 185.346 152.601L185.8 152.735C182.868 153.521 179.734 153.482 176.829 152.623C173.91 151.767 171.367 150.119 169.559 147.911C168.674 146.801 167.973 145.584 167.48 144.296C167.007 143.001 166.757 141.651 166.736 140.289C166.709 137.546 167.642 134.863 169.407 132.612V133.238C166.185 129.654 164.541 125.151 164.783 120.569C164.92 117.156 166.088 113.839 168.166 110.965C170.243 108.091 173.153 105.767 176.59 104.237C180.027 102.706 183.865 102.026 187.7 102.267C191.535 102.507 195.227 103.661 198.387 105.605L197.833 105.673C199.834 103.485 202.451 101.806 205.419 100.808C208.387 99.8091 211.599 99.526 214.73 99.9871C217.841 100.446 220.762 101.626 223.195 103.408C225.629 105.191 227.49 107.512 228.59 110.138L228.426 110.06C230.888 109.349 233.546 109.38 235.986 110.149C237.78 110.719 239.388 111.673 240.667 112.927C241.946 114.181 242.857 115.696 243.32 117.338C243.782 118.98 243.781 120.697 243.317 122.339C242.853 123.98 241.941 125.494 240.66 126.747C241.763 128.677 242.471 130.765 242.752 132.914ZM242.752 132.914C242.455 130.762 241.729 128.674 240.61 126.747C242.322 125.077 243.36 122.949 243.558 120.697C243.757 118.445 243.105 116.199 241.706 114.313C240.323 112.432 238.275 111.012 235.885 110.277C233.495 109.542 230.898 109.532 228.501 110.25H228.375V110.138C227.257 107.597 225.411 105.36 223.02 103.647C220.628 101.937 217.767 100.824 214.73 100.424C211.707 100.023 208.618 100.331 205.771 101.319C202.941 102.317 200.459 103.962 198.576 106.087L198.337 106.355L198.009 106.154C193.954 103.753 189.068 102.712 184.228 103.218C179.387 103.724 174.907 105.744 171.589 108.915C168.272 112.087 166.333 116.204 166.12 120.529C165.908 124.854 167.435 129.106 170.428 132.522L170.705 132.836L170.441 133.16C168.794 135.224 167.914 137.693 167.921 140.222C167.941 141.479 168.166 142.727 168.588 143.927C169.03 145.124 169.672 146.256 170.491 147.284C172.158 149.356 174.508 150.917 177.216 151.753C179.924 152.589 182.857 152.658 185.611 151.951L185.901 151.884L186.065 152.086C187.668 153.961 189.727 155.491 192.087 156.563C195.682 158.18 199.798 158.636 203.73 157.851C207.661 157.067 211.163 155.092 213.633 152.265L213.722 152.164H213.848C217.205 153.454 220.887 153.933 224.52 153.552C228.174 153.153 231.648 151.915 234.6 149.959C236.054 148.989 237.366 147.861 238.506 146.602C239.625 145.314 240.56 143.908 241.29 142.416C242.689 139.413 243.192 136.14 242.752 132.914Z" fill="#263238"/>
<path d="M206.829 133.496C206.803 132.134 207.077 130.78 207.635 129.512C208.338 128.18 209.522 127.096 211 126.434C211.516 126.154 212.134 125.852 212.89 125.505C213.655 125.147 214.384 124.731 215.069 124.263C215.774 123.787 216.387 123.212 216.884 122.561C217.381 121.899 217.64 121.119 217.627 120.323C217.64 119.742 217.498 119.167 217.211 118.644C216.953 118.176 216.588 117.761 216.14 117.424C215.686 117.087 215.158 116.836 214.591 116.686C214.009 116.518 213.401 116.431 212.789 116.428C212.089 116.417 211.394 116.535 210.748 116.775C210.157 116.991 209.602 117.277 209.097 117.626C208.626 117.976 208.203 118.374 207.837 118.812C207.476 119.207 207.143 119.622 206.842 120.054L202.406 117.335C202.836 116.426 203.432 115.586 204.17 114.85C204.88 114.124 205.714 113.501 206.64 113.003C207.585 112.508 208.603 112.132 209.664 111.884C210.762 111.627 211.893 111.499 213.028 111.504C214.308 111.51 215.581 111.675 216.808 111.996C218.044 112.324 219.196 112.864 220.198 113.585C221.229 114.342 222.064 115.289 222.642 116.361C223.295 117.631 223.613 119.017 223.574 120.412C223.59 121.275 223.462 122.135 223.196 122.964C222.955 123.684 222.585 124.364 222.1 124.979C221.623 125.585 221.06 126.135 220.424 126.613C219.734 127.127 219.001 127.594 218.232 128.012L216.191 129.053C215.537 129.376 214.917 129.75 214.339 130.172C213.78 130.559 213.306 131.033 212.94 131.571C212.561 132.155 212.373 132.822 212.398 133.496H206.829ZM206.93 144.039V137.794H212.575V144.039H206.93Z" fill="#E51D1B"/>
<path d="M194.217 121.812C194.566 123.137 194.609 124.511 194.343 125.852C193.983 127.277 193.096 128.554 191.823 129.478C191.382 129.836 190.84 130.25 190.185 130.732C189.518 131.222 188.899 131.761 188.333 132.343C187.755 132.936 187.291 133.609 186.959 134.335C186.626 135.075 186.556 135.887 186.758 136.663C186.872 137.23 187.14 137.764 187.539 138.219C187.9 138.634 188.355 138.977 188.874 139.226C189.397 139.475 189.972 139.627 190.563 139.674C191.173 139.723 191.789 139.693 192.39 139.584C193.076 139.468 193.727 139.228 194.305 138.879C194.832 138.563 195.311 138.186 195.729 137.76C196.132 137.333 196.475 136.863 196.749 136.361C197.007 135.907 197.234 135.44 197.43 134.962L202.394 136.82C202.191 137.789 201.803 138.72 201.248 139.573C200.709 140.407 200.029 141.162 199.232 141.812C198.423 142.471 197.515 143.029 196.535 143.468C195.522 143.92 194.446 144.252 193.335 144.453C192.068 144.692 190.769 144.764 189.479 144.666C188.195 144.58 186.943 144.264 185.8 143.737C184.621 143.19 183.586 142.427 182.763 141.498C181.276 139.647 180.542 137.401 180.684 135.13C180.754 134.386 180.958 133.656 181.289 132.97C181.613 132.289 182.036 131.649 182.549 131.067C183.105 130.436 183.711 129.841 184.364 129.288C184.943 128.818 185.535 128.348 186.115 127.9C186.675 127.456 187.186 126.965 187.64 126.434C188.082 125.949 188.428 125.4 188.66 124.811C188.89 124.169 188.916 123.484 188.736 122.83L194.217 121.812ZM191.697 111.515L193.146 117.626L187.614 118.655L186.165 112.545L191.697 111.515Z" fill="#E51D1B"/>
</svg>
