<svg width="2560" height="83" viewBox="0 0 2560 83" fill="none" xmlns="http://www.w3.org/2000/svg">
<g clip-path="url(#clip0_46_417)">
<ellipse cx="113" cy="78.5" rx="113" ry="78.5" transform="matrix(-1 0 0 1 255 0)" fill="#37474F"/>
<ellipse cx="113" cy="78.5" rx="113" ry="78.5" transform="matrix(-1 0 0 1 440 33)" fill="#37474F"/>
<ellipse cx="113" cy="78.5" rx="113" ry="78.5" transform="matrix(-1 0 0 1 637 0)" fill="#37474F"/>
<ellipse cx="137.5" cy="91" rx="137.5" ry="91" transform="matrix(-1 0 0 1 863 49)" fill="#37474F"/>
<ellipse cx="137.5" cy="123.5" rx="137.5" ry="123.5" transform="matrix(-1 0 0 1 1068 8)" fill="#37474F"/>
<ellipse cx="137.5" cy="68" rx="137.5" ry="68" transform="matrix(-1 0 0 1 1294 8)" fill="#37474F"/>
<ellipse cx="102.5" cy="40" rx="102.5" ry="40" transform="matrix(-1 0 0 1 1450 49)" fill="#37474F"/>
<ellipse cx="72" cy="54.5" rx="72" ry="54.5" transform="matrix(-1 0 0 1 1561 20)" fill="#37474F"/>
<ellipse cx="98" cy="105.5" rx="98" ry="105.5" transform="matrix(-1 0 0 1 1728 20)" fill="#37474F"/>
<ellipse cx="74.5" cy="69" rx="74.5" ry="69" transform="matrix(-1 0 0 1 1852 20)" fill="#37474F"/>
<ellipse cx="61.5" cy="57" rx="61.5" ry="57" transform="matrix(-1 0 0 1 2213 32)" fill="#37474F"/>
<ellipse cx="126.5" cy="57" rx="126.5" ry="57" transform="matrix(-1 0 0 1 2448 32)" fill="#37474F"/>
<ellipse cx="126.5" cy="63" rx="126.5" ry="63" transform="matrix(-1 0 0 1 2560 20)" fill="#37474F"/>
<ellipse cx="135.5" cy="69" rx="135.5" ry="69" transform="matrix(-1 0 0 1 2097 20)" fill="#37474F"/>
</g>
<defs>
<clipPath id="clip0_46_417">
<rect width="2560" height="83" fill="white" transform="matrix(-1 0 0 1 2560 0)"/>
</clipPath>
</defs>
</svg>
